<?xml version="1.0" encoding="UTF-8" ?>
<!DOCTYPE svg PUBLIC "-//W3C//DTD SVG 1.1//EN" "http://www.w3.org/Graphics/SVG/1.1/DTD/svg11.dtd">
<svg width="1502pt" height="432pt" viewBox="0 0 1502 432" version="1.1" xmlns="http://www.w3.org/2000/svg">
<g id="#527fdaff">
<path fill="#527fda" opacity="1.00" d=" M 144.01 82.31 C 151.94 69.79 156.99 55.70 164.73 43.07 C 168.43 49.42 170.68 56.47 174.11 62.95 C 177.96 69.63 180.04 77.22 184.61 83.50 C 202.25 85.32 220.05 89.44 235.43 98.56 C 245.96 104.79 255.16 114.13 258.91 126.00 C 259.51 128.56 262.13 129.62 264.16 130.86 C 273.98 136.18 284.28 140.53 294.53 144.93 C 291.76 151.44 285.49 155.11 279.32 157.87 C 279.33 165.72 280.77 174.91 274.62 181.03 C 274.28 231.25 274.64 281.47 274.43 331.69 C 276.68 331.80 278.93 331.93 281.18 332.08 C 281.18 335.22 281.17 338.37 281.15 341.51 C 288.52 341.35 295.90 341.45 303.27 341.64 C 303.25 346.96 303.27 352.28 303.22 357.59 C 306.96 357.60 310.69 357.60 314.43 357.61 C 314.40 362.93 314.42 368.25 314.39 373.58 C 317.59 373.57 320.79 373.57 324.00 373.57 C 324.00 378.68 324.00 383.79 324.00 388.90 C 216.00 388.89 108.00 388.90 0.00 388.90 L 0.00 373.57 C 3.88 373.57 7.76 373.57 11.64 373.59 C 11.61 368.25 11.62 362.92 11.60 357.59 C 15.35 357.60 19.09 357.60 22.83 357.60 C 22.79 352.29 22.81 346.97 22.79 341.66 C 30.24 341.23 37.69 341.44 45.14 341.60 C 45.16 338.26 45.23 334.91 45.26 331.57 C 47.37 331.58 49.49 331.57 51.60 331.58 C 51.37 281.02 51.72 230.45 51.41 179.88 C 45.28 173.78 46.67 164.58 46.76 156.75 C 40.64 153.89 34.10 150.37 31.59 143.64 C 43.58 138.36 56.09 133.75 66.91 126.24 C 70.06 112.65 81.18 102.50 92.99 95.97 C 108.63 87.58 126.35 83.29 144.01 82.31 M 78.37 173.62 C 77.31 175.81 76.01 177.87 74.41 179.71 C 74.15 230.33 74.53 280.95 74.21 331.57 C 76.42 331.57 78.62 331.57 80.82 331.58 C 80.80 334.91 80.80 338.24 80.79 341.58 C 82.13 341.54 83.48 341.50 84.83 341.47 C 84.82 338.35 84.81 335.24 84.80 332.12 C 87.10 332.09 89.39 332.08 91.69 332.06 C 91.34 281.30 91.78 230.53 91.46 179.76 C 89.80 177.89 88.46 175.78 87.31 173.57 C 84.33 173.60 81.35 173.60 78.37 173.62 M 114.43 180.89 C 114.11 185.91 114.33 190.94 114.30 195.97 C 114.41 241.30 114.53 286.62 114.15 331.94 C 116.54 331.92 118.93 331.89 121.31 331.85 C 121.34 335.02 121.33 338.20 121.34 341.38 C 130.04 341.38 138.74 341.29 147.44 341.48 C 147.43 338.18 147.43 334.89 147.43 331.60 C 149.66 331.57 151.89 331.54 154.13 331.48 C 153.60 283.33 153.90 235.16 154.20 187.01 C 154.26 184.51 154.09 182.00 153.76 179.52 C 152.20 177.74 150.94 175.73 149.89 173.62 C 139.52 173.56 129.15 173.63 118.77 173.59 C 117.79 176.27 116.43 178.82 114.43 180.89 M 181.15 173.64 C 180.25 176.43 178.78 178.97 176.78 181.12 C 176.54 231.25 176.91 281.38 176.66 331.51 C 178.94 331.56 181.21 331.57 183.48 331.60 C 183.46 334.90 183.46 338.20 183.46 341.51 C 190.68 341.34 197.92 341.33 205.14 341.57 C 205.14 338.23 205.14 334.90 205.13 331.57 C 207.33 331.57 209.53 331.58 211.73 331.59 C 211.57 288.71 211.61 245.83 211.67 202.96 C 211.79 195.32 211.34 187.66 212.22 180.06 C 210.52 178.10 209.06 175.95 207.94 173.61 C 199.01 173.60 190.08 173.56 181.15 173.64 M 234.56 180.96 C 234.37 231.16 234.70 281.37 234.39 331.57 C 236.64 331.57 238.90 331.58 241.15 331.59 C 241.15 334.94 241.14 338.29 241.14 341.64 C 242.53 341.62 243.92 341.60 245.31 341.57 C 245.43 338.32 245.49 335.08 245.54 331.84 C 247.60 331.82 249.67 331.81 251.73 331.78 C 251.62 282.52 251.68 233.26 251.71 184.00 C 252.22 179.89 248.09 177.41 247.27 173.58 C 244.49 173.60 241.70 173.60 238.92 173.60 C 237.95 176.31 236.52 178.83 234.56 180.96 Z" />
</g>
<g id="#5e6d77ff">
<path fill="#5e6d77" opacity="1.00" d=" M 586.55 113.82 C 608.47 110.44 631.54 112.48 651.95 121.48 C 665.71 127.54 677.79 137.29 686.64 149.44 C 697.58 164.42 703.92 182.53 705.55 200.96 C 707.66 223.89 705.27 247.89 694.72 268.65 C 686.60 285.25 673.41 299.40 657.11 308.18 C 637.37 318.80 614.24 322.09 592.12 319.56 C 572.70 317.51 553.59 310.13 538.73 297.30 C 524.70 285.31 515.21 268.59 510.44 250.88 C 505.81 233.07 505.26 214.31 507.75 196.12 C 511.00 172.63 521.98 149.63 540.47 134.39 C 553.51 123.37 569.79 116.62 586.55 113.82 M 598.14 142.09 C 585.33 143.39 573.05 149.94 565.71 160.66 C 554.38 176.99 552.44 197.63 552.24 216.96 C 552.50 235.73 554.54 255.65 565.39 271.57 C 572.37 281.85 583.85 288.66 596.14 290.26 C 611.83 292.64 629.62 289.74 641.25 278.16 C 652.62 266.99 657.33 250.86 659.22 235.44 C 660.87 219.97 660.73 204.21 657.90 188.88 C 655.25 175.93 650.31 162.75 640.36 153.61 C 629.18 143.25 612.87 140.25 598.14 142.09 Z" />
<path fill="#5e6d77" opacity="1.00" d=" M 969.49 114.72 C 986.11 111.45 1003.30 111.64 1020.01 114.15 C 1030.11 115.97 1040.24 118.83 1049.00 124.34 C 1047.45 135.87 1045.87 147.40 1044.12 158.90 C 1033.67 152.14 1022.48 145.82 1009.99 143.92 C 994.12 141.83 976.53 143.33 963.56 153.63 C 949.35 164.52 943.29 182.68 941.40 199.87 C 939.59 218.19 940.14 237.20 946.24 254.73 C 950.24 266.11 957.85 276.52 968.53 282.42 C 979.52 288.56 992.42 290.15 1004.83 289.46 C 1018.32 288.98 1031.43 283.93 1042.16 275.81 C 1045.26 285.86 1048.50 295.86 1051.62 305.90 C 1037.20 315.17 1020.09 319.72 1003.03 320.21 C 976.86 321.67 949.27 315.43 928.81 298.35 C 928.69 289.37 926.11 279.88 919.71 273.31 C 915.25 268.38 909.36 264.83 903.02 262.92 C 895.28 244.40 893.50 223.85 895.02 203.98 C 896.62 182.61 903.80 161.24 917.65 144.65 C 930.75 128.98 949.63 118.84 969.49 114.72 Z" />
<path fill="#5e6d77" opacity="1.00" d=" M 324.50 114.87 C 339.63 115.07 354.81 114.47 369.91 115.16 C 386.13 168.36 401.79 221.75 417.79 275.03 C 434.72 221.72 451.24 168.28 467.96 114.91 C 479.50 114.82 491.04 114.89 502.58 114.87 C 481.61 182.44 460.39 249.94 439.23 317.46 C 422.03 317.47 404.83 317.45 387.62 317.47 C 366.57 249.94 345.54 182.40 324.50 114.87 Z" />
<path fill="#5e6d77" opacity="1.00" d=" M 721.06 114.86 C 768.79 114.88 816.51 114.86 864.24 114.87 C 864.03 124.18 864.71 133.60 863.92 142.85 C 831.80 191.41 799.12 239.64 766.91 288.15 C 796.00 288.14 825.08 288.18 854.17 288.13 C 851.27 298.15 854.30 309.11 860.11 317.50 C 812.82 317.40 765.52 317.51 718.23 317.45 C 718.31 308.61 718.17 299.78 718.27 290.95 C 718.15 289.66 718.89 288.58 719.54 287.55 C 751.37 239.82 783.06 192.01 814.88 144.27 C 783.60 144.15 752.31 144.25 721.03 144.22 C 720.99 134.44 720.94 124.65 721.06 114.86 Z" />
<path fill="#5e6d77" opacity="1.00" d=" M 1081.77 114.87 C 1096.59 114.87 1111.41 114.87 1126.23 114.87 C 1126.27 182.40 1126.24 249.93 1126.25 317.46 C 1111.42 317.46 1096.58 317.46 1081.75 317.46 C 1081.76 249.93 1081.73 182.40 1081.77 114.87 Z" />
<path fill="#5e6d77" opacity="1.00" d=" M 1153.05 114.87 C 1204.86 114.86 1256.67 114.87 1308.47 114.87 C 1308.52 124.65 1308.50 134.43 1308.49 144.22 C 1289.99 144.21 1271.50 144.23 1253.01 144.21 C 1252.99 201.96 1253.00 259.71 1253.00 317.46 C 1238.09 317.48 1223.19 317.43 1208.28 317.48 C 1208.20 259.73 1208.28 201.97 1208.24 144.21 C 1189.84 144.23 1171.43 144.21 1153.03 144.22 C 1152.99 134.44 1152.95 124.66 1153.05 114.87 Z" />
<path fill="#5e6d77" opacity="1.00" d=" M 1324.21 114.88 C 1339.95 114.82 1355.69 114.95 1371.43 114.81 C 1387.09 143.53 1402.28 172.51 1417.73 201.34 C 1432.29 174.96 1446.54 148.40 1460.97 121.94 C 1462.33 119.70 1463.17 117.01 1465.04 115.13 C 1477.15 114.51 1489.33 115.05 1501.47 114.87 C 1480.61 152.82 1459.58 190.69 1438.63 228.60 C 1437.31 231.28 1435.04 233.78 1435.24 236.95 C 1435.26 263.78 1435.24 290.62 1435.25 317.46 C 1420.41 317.46 1405.58 317.46 1390.75 317.46 C 1390.65 290.00 1390.96 262.51 1390.60 235.06 C 1382.51 219.45 1373.57 204.24 1365.15 188.79 C 1351.54 164.13 1337.70 139.60 1324.21 114.88 Z" />
<path fill="#5e6d77" opacity="1.00" d=" M 883.67 274.01 C 891.10 272.06 899.82 272.92 905.68 278.31 C 916.31 286.98 916.48 305.18 906.10 314.11 C 900.30 319.66 891.51 320.90 883.97 318.87 C 874.62 316.11 867.92 306.76 867.99 297.05 C 867.42 287.02 873.95 276.95 883.67 274.01 Z" />
</g>
</svg>
