<?xml version="1.0" encoding="UTF-8" ?>
<!DOCTYPE svg PUBLIC "-//W3C//DTD SVG 1.1//EN" "http://www.w3.org/Graphics/SVG/1.1/DTD/svg11.dtd">
<svg width="1502pt" height="432pt" viewBox="0 0 1502 432" version="1.1" xmlns="http://www.w3.org/2000/svg">
<g id="#5c62daff">
<path fill="#5c62da" opacity="1.00" d=" M 143.97 82.33 C 151.96 69.85 156.97 55.71 164.72 43.07 C 168.80 50.04 171.12 57.86 175.14 64.86 C 178.41 71.02 180.45 77.83 184.63 83.51 C 202.26 85.32 220.06 89.44 235.43 98.55 C 245.96 104.79 255.21 114.13 258.92 126.03 C 259.52 128.59 262.17 129.61 264.18 130.85 C 273.99 136.17 284.27 140.52 294.52 144.91 C 291.82 151.46 285.51 155.11 279.35 157.86 C 279.31 165.71 280.81 174.91 274.63 181.03 C 274.29 231.25 274.65 281.47 274.44 331.69 C 276.69 331.80 278.93 331.92 281.18 332.06 C 281.18 335.20 281.17 338.35 281.16 341.50 C 288.53 341.34 295.90 341.43 303.27 341.64 C 303.26 346.95 303.28 352.26 303.23 357.58 C 306.96 357.59 310.70 357.59 314.44 357.60 C 314.41 362.92 314.43 368.24 314.40 373.57 C 317.60 373.56 320.80 373.56 324.00 373.56 C 324.00 378.68 324.00 383.80 324.00 388.92 C 216.00 388.91 108.00 388.88 0.00 388.87 L 0.00 373.58 C 3.88 373.58 7.77 373.59 11.65 373.60 C 11.62 368.27 11.64 362.93 11.62 357.60 C 15.36 357.61 19.10 357.61 22.84 357.62 C 22.80 352.30 22.82 346.98 22.80 341.67 C 30.25 341.24 37.71 341.46 45.17 341.61 C 45.19 338.28 45.24 334.95 45.25 331.62 C 47.37 331.59 49.50 331.59 51.62 331.57 C 51.38 281.00 51.74 230.42 51.42 179.84 C 45.24 173.77 46.73 164.52 46.75 156.70 C 40.71 153.83 33.91 150.43 31.74 143.56 C 38.94 140.62 46.08 137.52 53.08 134.10 C 57.86 131.74 62.80 129.55 66.97 126.18 C 70.01 112.86 80.86 102.85 92.35 96.34 C 108.12 87.71 126.08 83.30 143.97 82.33 M 118.75 173.58 C 117.81 176.26 116.48 178.80 114.45 180.81 C 114.12 185.20 114.30 189.60 114.29 193.99 C 114.43 240.04 114.47 286.09 114.19 332.14 C 116.56 332.03 118.94 331.90 121.31 331.81 C 121.34 335.00 121.33 338.19 121.33 341.38 C 130.03 341.39 138.74 341.29 147.45 341.48 C 147.44 338.19 147.44 334.90 147.43 331.61 C 149.67 331.57 151.91 331.53 154.15 331.45 C 153.58 283.30 153.93 235.14 154.20 186.99 C 154.26 184.47 154.10 181.96 153.75 179.47 C 152.16 177.75 150.93 175.74 149.93 173.62 C 139.53 173.55 129.14 173.62 118.75 173.58 M 78.36 173.62 C 77.35 176.57 74.10 178.65 74.32 181.95 C 74.25 231.83 74.47 281.70 74.21 331.58 C 76.41 331.58 78.61 331.58 80.80 331.58 C 80.78 334.91 80.79 338.25 80.77 341.59 C 82.13 341.55 83.48 341.51 84.83 341.47 C 84.82 338.36 84.81 335.26 84.80 332.15 C 87.10 332.10 89.40 332.09 91.70 332.07 C 91.34 281.28 91.80 230.48 91.46 179.70 C 89.77 177.88 88.44 175.78 87.35 173.56 C 84.35 173.58 81.36 173.58 78.36 173.62 M 181.12 173.64 C 180.30 176.45 178.78 178.97 176.79 181.10 C 176.53 231.23 176.92 281.37 176.66 331.51 C 178.93 331.56 181.21 331.57 183.48 331.60 C 183.46 334.90 183.46 338.20 183.46 341.51 C 190.68 341.34 197.91 341.33 205.14 341.56 C 205.13 338.23 205.13 334.90 205.13 331.57 C 207.32 331.57 209.52 331.57 211.72 331.58 C 211.57 288.72 211.60 245.86 211.66 203.00 C 211.77 195.34 211.37 187.66 212.21 180.03 C 210.49 178.10 209.04 175.96 207.96 173.62 C 199.01 173.60 190.06 173.56 181.12 173.64 M 234.56 180.95 C 234.37 231.15 234.70 281.36 234.40 331.56 C 236.65 331.57 238.90 331.57 241.16 331.59 C 241.15 334.93 241.14 338.27 241.12 341.61 C 242.51 341.60 243.91 341.58 245.30 341.56 C 245.41 338.32 245.47 335.08 245.54 331.84 C 247.60 331.82 249.67 331.80 251.73 331.77 C 251.61 282.52 251.68 233.26 251.71 184.00 C 252.29 179.86 248.01 177.47 247.29 173.59 C 244.50 173.60 241.70 173.61 238.91 173.61 C 237.97 176.33 236.53 178.83 234.56 180.95 Z" />
</g>
<g id="#6c749aff">
<path fill="#6c749a" opacity="1.00" d=" M 592.64 113.02 C 613.79 110.78 635.81 113.57 655.05 122.93 C 668.64 129.53 680.32 139.86 688.72 152.40 C 698.38 166.79 704.02 183.70 705.55 200.93 C 707.67 223.87 705.27 247.88 694.72 268.65 C 686.49 285.49 673.03 299.79 656.42 308.55 C 636.51 319.04 613.26 322.15 591.07 319.45 C 574.37 317.50 557.99 311.65 544.33 301.75 C 527.73 289.87 516.28 271.72 510.81 252.22 C 505.89 234.33 505.25 215.43 507.61 197.09 C 510.67 173.52 521.47 150.37 539.85 134.92 C 554.57 122.28 573.45 115.03 592.64 113.02 M 598.14 142.09 C 592.47 142.88 586.81 144.23 581.68 146.83 C 569.76 152.66 561.73 164.33 557.74 176.71 C 551.94 194.46 551.58 213.51 552.94 231.98 C 554.45 248.51 558.79 266.09 570.97 278.13 C 581.04 288.37 596.15 291.77 610.09 290.91 C 621.42 290.20 633.03 286.45 641.17 278.24 C 652.24 267.44 657.01 251.88 659.04 236.93 C 660.88 221.31 660.79 205.39 658.09 189.87 C 655.55 176.82 650.75 163.51 640.92 154.13 C 629.74 143.38 613.12 140.20 598.14 142.09 Z" />
<path fill="#6c749a" opacity="1.00" d=" M 953.48 119.48 C 971.05 112.54 990.33 111.37 1009.00 112.83 C 1022.86 114.00 1037.04 116.93 1049.00 124.36 C 1047.48 135.94 1045.77 147.48 1044.16 159.04 C 1031.42 150.33 1016.78 143.08 1001.01 143.20 C 985.57 142.31 969.12 146.70 958.34 158.31 C 944.86 172.58 941.14 193.04 940.54 212.00 C 940.27 229.80 941.82 248.49 950.65 264.34 C 956.93 275.76 968.09 284.19 980.73 287.30 C 1001.55 292.56 1025.03 289.25 1042.17 275.79 C 1045.26 285.80 1048.41 295.79 1051.64 305.75 C 1038.48 314.48 1022.74 319.04 1007.05 319.95 C 979.79 322.20 950.64 316.42 929.21 298.63 C 928.40 291.70 927.32 284.46 923.64 278.34 C 918.91 271.01 911.51 265.38 903.10 262.99 C 895.61 245.41 893.74 225.88 894.81 206.96 C 895.89 187.16 901.51 167.30 912.90 150.90 C 922.74 136.55 937.25 125.63 953.48 119.48 Z" />
<path fill="#6c749a" opacity="1.00" d=" M 324.50 114.87 C 339.02 114.89 353.54 114.84 368.06 114.88 C 369.70 114.39 370.32 115.83 370.64 117.08 C 386.35 169.76 402.08 222.44 417.83 275.10 C 434.61 221.79 451.25 168.42 467.90 115.07 C 479.46 114.62 491.03 114.98 502.59 114.87 C 481.59 182.44 460.41 249.95 439.23 317.46 C 422.03 317.47 404.82 317.45 387.62 317.47 C 366.57 249.94 345.53 182.40 324.50 114.87 Z" />
<path fill="#6c749a" opacity="1.00" d=" M 721.07 114.86 C 768.79 114.88 816.51 114.86 864.23 114.87 C 864.27 122.91 864.22 130.96 864.28 139.01 C 864.15 140.50 864.51 142.19 863.61 143.50 C 831.41 191.74 799.05 239.87 766.91 288.15 C 796.00 288.13 825.09 288.18 854.19 288.13 C 851.30 298.14 854.23 309.24 860.23 317.53 C 812.90 317.37 765.57 317.51 718.24 317.45 C 718.25 309.31 718.27 301.17 718.22 293.03 C 718.26 291.38 718.03 289.56 719.14 288.19 C 751.05 240.21 782.97 192.23 814.87 144.25 C 783.59 144.18 752.31 144.23 721.03 144.22 C 720.99 134.44 720.94 124.65 721.07 114.86 Z" />
<path fill="#6c749a" opacity="1.00" d=" M 1081.77 114.87 C 1096.59 114.87 1111.41 114.87 1126.23 114.87 C 1126.27 182.40 1126.24 249.93 1126.25 317.46 C 1111.42 317.46 1096.58 317.46 1081.75 317.46 C 1081.76 249.93 1081.73 182.40 1081.77 114.87 Z" />
<path fill="#6c749a" opacity="1.00" d=" M 1153.07 114.86 C 1204.87 114.88 1256.67 114.87 1308.47 114.87 C 1308.53 124.65 1308.50 134.43 1308.49 144.22 C 1289.99 144.22 1271.50 144.22 1253.00 144.21 C 1252.99 201.96 1253.00 259.71 1253.00 317.46 C 1238.08 317.46 1223.16 317.47 1208.24 317.45 C 1208.27 259.71 1208.24 201.96 1208.25 144.22 C 1189.84 144.22 1171.44 144.21 1153.04 144.22 C 1152.99 134.44 1152.94 124.65 1153.07 114.86 Z" />
<path fill="#6c749a" opacity="1.00" d=" M 1324.21 114.88 C 1339.95 114.83 1355.70 114.94 1371.44 114.82 C 1387.09 143.55 1402.30 172.53 1417.74 201.37 C 1432.71 174.09 1447.51 146.71 1462.35 119.36 C 1463.51 117.58 1464.09 114.34 1466.92 114.89 C 1478.43 114.82 1489.95 114.89 1501.48 114.87 C 1481.79 150.70 1461.93 186.43 1442.17 222.21 C 1439.97 226.53 1437.13 230.56 1435.35 235.06 C 1435.11 262.52 1435.32 289.99 1435.25 317.46 C 1420.41 317.46 1405.58 317.46 1390.75 317.46 C 1390.77 290.98 1390.71 264.49 1390.78 238.01 C 1390.69 236.59 1390.86 235.08 1390.13 233.81 C 1368.22 194.13 1346.02 154.61 1324.21 114.88 Z" />
<path fill="#6c749a" opacity="1.00" d=" M 884.49 273.79 C 891.73 272.17 900.04 273.10 905.68 278.32 C 916.33 286.99 916.47 305.24 906.05 314.15 C 900.26 319.67 891.49 320.89 883.97 318.86 C 874.59 316.10 867.88 306.70 867.99 296.97 C 867.42 286.68 874.39 276.37 884.49 273.79 Z" />
</g>
</svg>
