<?xml version="1.0" encoding="UTF-8" ?>
<!DOCTYPE svg PUBLIC "-//W3C//DTD SVG 1.1//EN" "http://www.w3.org/Graphics/SVG/1.1/DTD/svg11.dtd">
<svg width="1178pt" height="209pt" viewBox="0 0 1178 209" version="1.1" xmlns="http://www.w3.org/2000/svg">
<g id="#e71372ff">
<path fill="#e71372" opacity="1.00" d=" M 262.55 1.82 C 286.60 -1.86 312.18 0.89 333.87 12.38 C 351.06 21.45 364.60 36.73 372.51 54.40 C 382.14 75.23 383.70 98.92 381.17 121.46 C 378.27 145.93 367.00 169.90 348.02 185.96 C 332.24 199.46 311.69 206.59 291.13 208.02 C 266.87 209.85 241.47 204.67 221.39 190.49 C 202.89 177.71 190.64 157.26 185.60 135.57 C 182.05 119.93 181.50 103.67 183.27 87.74 C 185.63 65.97 194.39 44.53 209.69 28.65 C 223.70 14.12 242.74 5.04 262.55 1.82 M 274.11 30.10 C 264.94 31.24 255.80 34.49 248.86 40.75 C 238.28 49.95 233.07 63.67 230.53 77.12 C 227.68 93.52 227.61 110.37 229.73 126.86 C 231.87 141.76 236.95 157.26 248.49 167.57 C 258.29 176.52 272.10 179.51 285.04 178.99 C 296.73 178.40 308.82 174.70 317.21 166.20 C 328.60 155.03 333.32 138.90 335.22 123.47 C 336.89 107.67 336.75 91.56 333.71 75.93 C 330.84 62.43 325.29 48.62 314.22 39.77 C 303.11 30.86 287.95 28.38 274.11 30.10 Z" />
<path fill="#e71372" opacity="1.00" d=" M 642.52 3.40 C 659.69 -0.57 677.60 -0.45 694.98 1.98 C 705.44 3.78 715.98 6.62 725.02 12.39 C 723.45 23.98 721.77 35.56 720.14 47.15 C 712.23 41.51 703.57 36.83 694.30 33.86 C 685.16 30.93 675.41 30.80 665.92 31.51 C 651.23 32.74 637.06 40.53 628.97 52.99 C 618.17 69.39 616.18 89.79 616.55 108.96 C 617.20 127.19 620.35 146.85 632.85 160.99 C 643.90 173.75 661.63 178.20 677.94 177.56 C 692.41 177.59 706.70 172.56 718.17 163.79 C 721.26 173.80 724.41 183.79 727.64 193.76 C 713.34 203.29 696.08 207.64 679.03 208.21 C 653.25 209.66 626.18 203.60 605.76 187.17 C 604.42 186.20 604.95 184.31 604.65 182.92 C 603.92 174.58 600.94 166.07 594.69 160.24 C 590.40 155.90 584.96 152.67 579.09 150.98 C 571.61 133.41 569.74 113.89 570.81 94.96 C 571.95 73.75 578.38 52.43 591.41 35.45 C 603.90 19.07 622.60 8.09 642.52 3.40 Z" />
<path fill="#e71372" opacity="1.00" d=" M 0.50 2.87 C 15.58 2.82 30.66 2.97 45.73 2.79 C 46.73 5.71 47.83 8.59 48.57 11.59 C 63.66 62.09 78.72 112.61 93.83 163.11 C 110.48 110.30 126.88 57.41 143.47 4.58 C 143.73 3.29 144.54 2.73 145.89 2.89 C 156.79 2.82 167.69 2.89 178.60 2.87 C 157.59 70.44 136.41 137.95 115.23 205.46 C 98.02 205.46 80.82 205.45 63.62 205.47 C 42.57 137.94 21.54 70.40 0.50 2.87 Z" />
<path fill="#e71372" opacity="1.00" d=" M 397.06 2.86 C 444.79 2.88 492.51 2.86 540.24 2.87 C 540.23 11.60 540.29 20.32 540.24 29.04 C 540.26 31.70 538.03 33.58 536.80 35.74 C 505.51 82.54 474.12 129.29 442.91 176.15 C 472.00 176.13 501.09 176.18 530.18 176.13 C 527.29 186.14 530.24 197.24 536.22 205.53 C 488.90 205.37 441.57 205.51 394.24 205.46 C 394.25 197.30 394.27 189.15 394.22 180.99 C 394.26 179.36 394.04 177.56 395.14 176.19 C 427.05 128.21 458.96 80.23 490.88 32.25 C 459.59 32.18 428.31 32.23 397.03 32.22 C 396.99 22.44 396.94 12.65 397.06 2.86 Z" />
<path fill="#e71372" opacity="1.00" d=" M 757.76 2.87 C 772.59 2.87 787.41 2.87 802.24 2.87 C 802.27 70.40 802.24 137.93 802.25 205.46 C 787.42 205.46 772.58 205.46 757.75 205.46 C 757.76 137.93 757.73 70.40 757.76 2.87 Z" />
<path fill="#e71372" opacity="1.00" d=" M 829.06 2.86 C 880.86 2.88 932.67 2.87 984.47 2.87 C 984.52 12.65 984.50 22.43 984.49 32.22 C 965.99 32.21 947.50 32.22 929.00 32.21 C 929.00 89.96 929.00 147.71 929.00 205.46 C 914.09 205.47 899.18 205.44 884.27 205.48 C 884.22 147.72 884.26 89.97 884.25 32.22 C 865.84 32.22 847.44 32.21 829.03 32.22 C 828.99 22.44 828.94 12.65 829.06 2.86 Z" />
<path fill="#e71372" opacity="1.00" d=" M 1000.19 2.88 C 1015.95 2.83 1031.71 2.92 1047.47 2.83 C 1063.08 31.60 1078.34 60.56 1093.76 89.42 C 1109.29 60.96 1124.72 32.44 1140.23 3.97 C 1140.85 2.51 1142.70 3.03 1143.96 2.85 C 1155.13 2.88 1166.31 2.87 1177.48 2.87 C 1156.60 40.83 1135.57 78.71 1114.62 116.63 C 1113.30 119.32 1110.99 121.81 1111.23 124.99 C 1111.27 151.81 1111.23 178.64 1111.25 205.46 C 1096.42 205.46 1081.58 205.46 1066.75 205.46 C 1066.76 178.65 1066.73 151.83 1066.77 125.02 C 1066.80 123.71 1066.54 122.40 1065.86 121.28 C 1043.98 81.81 1021.96 42.41 1000.19 2.88 Z" />
</g>
<g id="#cf98c7ff">
<path fill="#cf98c7" opacity="1.00" d=" M 551.13 167.13 C 557.01 161.20 566.17 159.94 573.99 162.00 C 578.42 163.24 582.00 166.29 585.04 169.62 C 578.70 175.40 572.86 181.67 566.76 187.69 C 561.87 192.66 556.48 197.18 552.36 202.85 C 541.74 194.28 541.13 176.40 551.13 167.13 Z" />
</g>
<g id="#e8b5d5ff">
<path fill="#e8b5d5" opacity="1.00" d=" M 566.76 187.69 C 572.86 181.67 578.70 175.40 585.04 169.62 C 588.97 175.13 590.63 182.17 589.39 188.85 C 588.22 196.79 582.40 203.77 574.90 206.53 C 567.39 209.00 558.58 207.94 552.36 202.85 C 556.48 197.18 561.87 192.66 566.76 187.69 Z" />
</g>
</svg>
