<?xml version="1.0" encoding="UTF-8" ?>
<!DOCTYPE svg PUBLIC "-//W3C//DTD SVG 1.1//EN" "http://www.w3.org/Graphics/SVG/1.1/DTD/svg11.dtd">
<svg width="1178pt" height="209pt" viewBox="0 0 1178 209" version="1.1" xmlns="http://www.w3.org/2000/svg">
<g id="#ffffffff">
<path fill="#ffffff" opacity="1.00" d=" M 262.47 1.82 C 280.68 -0.98 299.59 -0.06 317.23 5.45 C 337.35 11.46 355.17 24.83 366.23 42.71 C 380.09 64.34 383.88 90.90 381.71 116.11 C 380.09 138.30 371.83 160.24 357.11 177.06 C 343.71 192.49 324.75 202.33 304.83 206.26 C 279.03 210.98 251.13 208.06 228.17 194.82 C 212.71 186.06 200.32 172.28 192.82 156.21 C 182.78 135.25 180.86 111.27 183.20 88.41 C 185.73 63.67 196.59 39.10 215.86 22.92 C 228.97 11.60 245.48 4.70 262.47 1.82 M 274.04 30.11 C 269.19 30.80 264.34 31.86 259.84 33.83 C 248.30 38.66 239.81 49.00 235.31 60.48 C 228.05 78.95 227.57 99.29 228.84 118.85 C 230.25 135.52 234.38 153.24 246.42 165.57 C 256.53 176.27 272.05 179.85 286.31 178.89 C 297.58 178.15 309.13 174.39 317.21 166.19 C 328.47 155.17 333.20 139.27 335.15 124.04 C 336.89 108.40 336.76 92.46 333.92 76.96 C 331.28 64.02 326.36 50.85 316.45 41.69 C 305.24 31.26 288.84 28.22 274.04 30.11 Z" />
<path fill="#ffffff" opacity="1.00" d=" M 623.84 9.83 C 641.01 1.84 660.28 -0.51 679.05 0.47 C 694.88 1.18 711.24 3.92 724.95 12.31 C 723.55 23.95 721.73 35.54 720.14 47.15 C 709.79 39.86 698.17 33.82 685.54 31.84 C 681.70 31.25 677.79 31.36 673.94 30.94 C 661.60 31.24 648.72 33.97 639.02 42.07 C 625.17 53.00 619.29 70.87 617.40 87.82 C 615.56 106.64 616.13 126.24 622.76 144.14 C 627.80 157.87 638.73 169.68 652.87 174.10 C 674.58 181.11 699.93 177.98 718.17 163.83 C 721.25 173.87 724.51 183.85 727.61 193.89 C 712.63 203.59 694.69 208.03 676.96 208.29 C 651.42 209.38 624.64 202.96 604.75 186.28 C 604.77 177.04 601.86 167.28 595.11 160.68 C 590.82 156.27 585.39 152.70 579.39 151.18 C 573.13 138.08 571.22 123.27 570.57 108.88 C 569.88 86.15 574.05 62.65 586.16 43.10 C 594.94 28.50 608.39 16.91 623.84 9.83 Z" />
<path fill="#ffffff" opacity="1.00" d=" M 0.51 2.86 C 12.01 2.89 23.50 2.83 35.00 2.89 C 38.56 2.87 42.12 2.89 45.67 2.78 C 46.08 3.67 46.45 4.58 46.77 5.51 C 62.44 58.04 78.12 110.57 93.83 163.10 C 110.65 109.72 127.26 56.27 143.99 2.87 C 155.52 2.86 167.05 2.86 178.58 2.87 C 157.61 70.44 136.41 137.95 115.22 205.46 C 98.02 205.46 80.82 205.46 63.61 205.47 C 42.58 137.93 21.51 70.41 0.51 2.86 Z" />
<path fill="#ffffff" opacity="1.00" d=" M 397.09 2.85 C 444.80 2.88 492.52 2.86 540.23 2.87 C 540.15 12.17 540.47 21.49 540.09 30.77 C 507.75 79.27 475.20 127.62 442.92 176.16 C 472.02 176.13 501.13 176.18 530.23 176.13 C 527.28 186.10 530.18 197.37 536.34 205.53 C 488.98 205.37 441.61 205.51 394.25 205.47 C 394.36 196.13 394.03 186.76 394.40 177.45 C 426.42 128.97 458.74 80.67 490.86 32.25 C 459.59 32.19 428.32 32.23 397.04 32.23 C 397.00 22.44 396.92 12.64 397.09 2.85 Z" />
<path fill="#ffffff" opacity="1.00" d=" M 757.77 2.87 C 772.59 2.87 787.41 2.87 802.23 2.87 C 802.28 70.40 802.23 137.93 802.25 205.46 C 787.42 205.46 772.58 205.46 757.75 205.46 C 757.76 137.93 757.72 70.40 757.77 2.87 Z" />
<path fill="#ffffff" opacity="1.00" d=" M 829.09 2.85 C 856.39 2.90 883.70 2.83 911.00 2.89 C 935.49 2.83 959.97 2.89 984.46 2.86 C 984.54 12.65 984.50 22.44 984.48 32.22 C 965.99 32.21 947.50 32.23 929.01 32.22 C 928.99 89.96 929.00 147.71 929.00 205.46 C 914.08 205.46 899.15 205.47 884.23 205.45 C 884.27 147.71 884.23 89.96 884.25 32.22 C 865.85 32.23 847.44 32.21 829.04 32.23 C 829.00 22.44 828.92 12.64 829.09 2.85 Z" />
<path fill="#ffffff" opacity="1.00" d=" M 1000.21 2.87 C 1015.97 2.84 1031.74 2.90 1047.50 2.84 C 1063.06 31.62 1078.35 60.55 1093.75 89.41 C 1109.41 60.79 1124.90 32.07 1140.53 3.44 C 1140.80 3.31 1141.36 3.04 1141.63 2.91 C 1153.57 2.79 1165.52 2.91 1177.47 2.86 C 1157.47 39.30 1137.27 75.63 1117.17 112.01 C 1115.30 115.74 1112.85 119.21 1111.30 123.06 C 1111.18 150.52 1111.28 177.99 1111.25 205.46 C 1096.42 205.46 1081.58 205.46 1066.75 205.46 C 1066.62 177.88 1067.01 150.24 1066.55 122.69 C 1044.59 82.67 1022.14 42.91 1000.21 2.87 Z" />
<path fill="#ffffff" opacity="1.00" d=" M 560.49 161.78 C 566.15 160.63 572.42 160.69 577.61 163.49 C 583.82 166.86 588.47 173.12 589.41 180.18 C 590.83 188.33 588.09 197.32 581.54 202.58 C 576.03 207.59 567.99 208.66 560.92 207.13 C 551.12 204.74 543.93 195.13 543.99 185.11 C 543.36 174.78 550.34 164.37 560.49 161.78 Z" />
</g>
</svg>
