<?xml version="1.0" encoding="UTF-8" ?>
<!DOCTYPE svg PUBLIC "-//W3C//DTD SVG 1.1//EN" "http://www.w3.org/Graphics/SVG/1.1/DTD/svg11.dtd">
<svg width="1502pt" height="432pt" viewBox="0 0 1502 432" version="1.1" xmlns="http://www.w3.org/2000/svg">
<g id="#f60068ff">
<path fill="#f60068" opacity="1.00" d=" M 164.67 43.11 C 168.48 49.35 170.62 56.39 174.04 62.83 C 177.93 69.52 180.01 77.15 184.57 83.48 C 202.22 85.36 220.05 89.43 235.45 98.58 C 245.96 104.82 255.21 114.15 258.90 126.05 C 259.40 128.36 261.71 129.39 263.54 130.51 C 273.51 136.01 284.03 140.43 294.49 144.92 C 291.78 151.46 285.48 155.10 279.32 157.85 C 279.29 165.68 280.81 174.92 274.60 181.00 C 274.28 231.23 274.63 281.46 274.42 331.68 C 276.67 331.81 278.93 331.95 281.18 332.12 C 281.17 335.25 281.17 338.38 281.15 341.52 C 288.52 341.36 295.89 341.45 303.26 341.65 C 303.24 346.96 303.27 352.28 303.21 357.59 C 306.95 357.61 310.68 357.61 314.42 357.61 C 314.39 362.94 314.41 368.26 314.38 373.59 C 317.58 373.58 320.78 373.58 323.98 373.58 C 323.98 378.68 323.98 383.78 323.98 388.89 C 215.99 388.87 107.99 388.91 0.00 388.91 L 0.00 373.56 C 3.88 373.56 7.75 373.56 11.63 373.57 C 11.60 368.24 11.62 362.91 11.60 357.58 C 15.34 357.59 19.08 357.60 22.83 357.60 C 22.79 352.28 22.81 346.96 22.79 341.65 C 30.23 341.20 37.68 341.44 45.12 341.59 C 45.15 338.25 45.21 334.91 45.25 331.57 C 47.36 331.57 49.48 331.57 51.60 331.57 C 51.36 281.00 51.71 230.42 51.40 179.85 C 45.24 173.81 46.67 164.58 46.77 156.79 C 40.61 153.92 34.25 150.32 31.43 143.77 C 38.46 140.68 45.57 137.78 52.46 134.38 C 57.43 131.91 62.60 129.68 66.95 126.17 C 69.99 112.82 80.89 102.80 92.41 96.29 C 108.17 87.70 126.08 83.29 143.93 82.34 C 151.95 69.88 156.97 55.76 164.67 43.11 M 238.88 173.59 C 237.98 176.32 236.53 178.83 234.55 180.93 C 234.37 231.14 234.69 281.36 234.38 331.57 C 236.64 331.58 238.89 331.58 241.15 331.60 C 241.14 334.94 241.14 338.29 241.14 341.64 C 242.53 341.62 243.92 341.60 245.31 341.59 C 245.42 338.34 245.49 335.08 245.56 331.83 C 247.62 331.82 249.68 331.81 251.74 331.78 C 251.55 281.46 251.83 231.13 251.61 180.81 C 249.56 178.81 248.22 176.26 247.32 173.57 C 244.51 173.59 241.70 173.59 238.88 173.59 M 78.38 173.63 C 77.42 176.27 74.85 178.22 74.37 180.96 C 74.21 231.16 74.51 281.35 74.22 331.55 C 76.42 331.57 78.63 331.57 80.84 331.59 C 80.81 334.92 80.81 338.24 80.80 341.57 C 81.81 341.54 83.82 341.49 84.83 341.46 C 84.82 338.35 84.81 335.24 84.78 332.14 C 87.08 332.06 89.38 332.01 91.68 331.94 C 91.33 281.21 91.77 230.47 91.46 179.74 C 89.78 177.91 88.43 175.81 87.34 173.58 C 84.35 173.60 81.37 173.60 78.38 173.63 M 114.44 180.86 C 114.35 182.26 114.28 183.67 114.26 185.08 C 114.44 234.09 114.49 283.10 114.20 332.10 C 116.57 331.99 118.94 331.89 121.31 331.81 C 121.34 335.00 121.33 338.18 121.34 341.37 C 130.04 341.38 138.74 341.29 147.44 341.48 C 147.43 338.18 147.43 334.89 147.43 331.61 C 149.66 331.57 151.90 331.54 154.14 331.44 C 153.67 286.63 153.78 241.81 154.15 197.01 C 154.01 191.16 154.59 185.27 153.74 179.46 C 152.14 177.75 150.91 175.74 149.92 173.63 C 139.53 173.56 129.14 173.63 118.75 173.60 C 117.81 176.29 116.46 178.82 114.44 180.86 M 181.11 173.64 C 180.31 176.46 178.78 178.97 176.78 181.09 C 176.53 231.22 176.92 281.36 176.66 331.50 C 178.93 331.56 181.21 331.58 183.48 331.60 C 183.46 334.90 183.46 338.21 183.46 341.51 C 190.69 341.34 197.92 341.34 205.15 341.57 C 205.14 338.24 205.14 334.90 205.14 331.57 C 207.33 331.57 209.53 331.58 211.73 331.59 C 211.55 283.72 211.63 235.86 211.68 188.00 C 211.71 185.32 212.05 182.67 212.22 180.01 C 210.49 178.10 209.04 175.96 207.98 173.61 C 199.02 173.60 190.06 173.55 181.11 173.64 Z" />
</g>
<g id="#3a3a5dff">
<path fill="#3a3a5d" opacity="1.00" d=" M 592.67 113.02 C 614.30 110.73 636.85 113.69 656.37 123.60 C 672.89 131.92 686.30 145.90 694.57 162.39 C 701.55 175.84 705.10 190.87 705.94 205.95 C 707.26 227.29 704.52 249.40 694.72 268.64 C 686.40 285.67 672.73 300.11 655.87 308.85 C 636.06 319.10 613.02 322.14 591.02 319.45 C 571.99 317.22 553.31 309.90 538.74 297.31 C 523.67 284.42 513.85 266.13 509.45 246.94 C 505.47 228.64 505.30 209.55 508.57 191.13 C 512.56 169.46 523.29 148.56 540.44 134.43 C 555.07 122.07 573.73 115.01 592.67 113.02 M 598.06 142.10 C 591.69 142.97 585.35 144.64 579.74 147.85 C 568.40 154.22 561.01 165.87 557.29 178.08 C 551.95 195.45 551.60 213.95 552.94 231.94 C 554.45 248.49 558.78 266.08 570.97 278.13 C 582.05 289.32 598.98 292.41 614.11 290.51 C 625.78 289.22 637.20 283.86 644.59 274.56 C 654.90 261.80 658.65 245.09 659.82 229.06 C 660.79 213.48 660.39 197.59 656.39 182.42 C 653.26 170.84 647.77 159.36 638.20 151.76 C 627.07 142.85 611.91 140.36 598.06 142.10 Z" />
<path fill="#3a3a5d" opacity="1.00" d=" M 956.12 118.48 C 975.90 111.45 997.43 111.13 1018.06 113.84 C 1028.83 115.58 1039.69 118.48 1049.00 124.37 C 1047.46 135.96 1045.78 147.54 1044.14 159.13 C 1031.24 150.04 1016.13 142.88 1000.03 143.17 C 985.36 142.51 969.87 146.64 959.33 157.31 C 946.49 170.04 941.98 188.63 940.84 206.13 C 939.86 223.48 940.83 241.45 947.40 257.73 C 951.76 268.43 959.58 277.93 969.97 283.20 C 982.53 289.61 997.15 290.54 1010.94 288.90 C 1022.33 287.49 1032.97 282.54 1042.22 275.89 C 1045.24 285.92 1048.52 295.87 1051.62 305.88 C 1037.21 315.19 1020.06 319.72 1003.00 320.22 C 977.03 321.63 949.60 315.55 929.26 298.67 C 928.33 291.74 927.36 284.45 923.62 278.32 C 918.89 270.98 911.48 265.39 903.08 262.97 C 895.51 245.12 893.67 225.29 894.86 206.08 C 896.08 186.11 901.97 166.10 913.72 149.73 C 924.08 135.16 939.30 124.36 956.12 118.48 Z" />
<path fill="#3a3a5d" opacity="1.00" d=" M 324.51 114.87 C 339.61 115.03 354.75 114.56 369.84 115.09 C 376.14 134.63 381.63 154.45 387.66 174.09 C 397.70 207.75 407.74 241.41 417.81 275.07 C 434.65 221.77 451.24 168.38 467.91 115.02 C 479.47 114.68 491.03 114.95 502.59 114.87 C 481.59 182.44 460.41 249.95 439.22 317.46 C 422.02 317.47 404.82 317.45 387.62 317.47 C 366.57 249.94 345.53 182.41 324.51 114.87 Z" />
<path fill="#3a3a5d" opacity="1.00" d=" M 721.07 114.86 C 768.79 114.88 816.51 114.86 864.23 114.87 C 864.26 123.25 864.24 131.63 864.27 140.01 C 864.66 143.35 861.95 145.72 860.38 148.35 C 829.24 194.96 797.98 241.49 766.91 288.15 C 796.00 288.13 825.09 288.17 854.18 288.13 C 851.30 298.14 854.25 309.20 860.19 317.52 C 812.89 317.40 765.59 317.47 718.28 317.49 C 718.20 309.33 718.29 301.18 718.21 293.02 C 718.24 291.37 718.06 289.55 719.16 288.17 C 751.06 240.20 782.96 192.22 814.87 144.25 C 783.59 144.17 752.31 144.24 721.04 144.22 C 720.99 134.44 720.94 124.65 721.07 114.86 Z" />
<path fill="#3a3a5d" opacity="1.00" d=" M 1081.77 114.87 C 1096.59 114.87 1111.41 114.87 1126.23 114.87 C 1126.27 182.40 1126.24 249.93 1126.25 317.46 C 1111.41 317.46 1096.58 317.46 1081.75 317.46 C 1081.76 249.93 1081.73 182.40 1081.77 114.87 Z" />
<path fill="#3a3a5d" opacity="1.00" d=" M 1153.07 114.86 C 1204.87 114.88 1256.67 114.86 1308.47 114.87 C 1308.53 124.65 1308.50 134.43 1308.48 144.22 C 1289.99 144.21 1271.50 144.22 1253.01 144.21 C 1252.99 201.96 1253.01 259.71 1253.00 317.46 C 1238.08 317.46 1223.15 317.47 1208.24 317.45 C 1208.26 259.70 1208.25 201.96 1208.24 144.21 C 1189.84 144.23 1171.44 144.21 1153.04 144.22 C 1152.99 134.44 1152.94 124.65 1153.07 114.86 Z" />
<path fill="#3a3a5d" opacity="1.00" d=" M 1324.22 114.88 C 1339.95 114.81 1355.68 114.96 1371.41 114.80 C 1387.14 143.50 1402.22 172.56 1417.79 201.35 C 1432.69 174.03 1447.55 146.69 1462.36 119.32 C 1463.51 117.54 1464.12 114.36 1466.93 114.89 C 1478.44 114.82 1489.95 114.89 1501.47 114.87 C 1479.79 154.30 1457.96 193.66 1436.17 233.03 C 1435.42 234.23 1435.16 235.62 1435.23 237.01 C 1435.27 263.83 1435.24 290.64 1435.25 317.46 C 1420.41 317.46 1405.58 317.46 1390.75 317.46 C 1390.77 290.96 1390.71 264.46 1390.78 237.96 C 1390.69 236.58 1390.84 235.12 1390.15 233.88 C 1368.25 194.17 1346.02 154.64 1324.22 114.88 Z" />
<path fill="#3a3a5d" opacity="1.00" d=" M 884.48 273.78 C 891.71 272.17 900.01 273.09 905.65 278.29 C 916.32 286.95 916.48 305.21 906.07 314.13 C 900.29 319.66 891.53 320.89 884.01 318.88 C 874.61 316.13 867.89 306.73 867.99 296.99 C 867.41 286.70 874.38 276.37 884.48 273.78 Z" />
</g>
</svg>
