<?xml version="1.0" encoding="UTF-8" ?>
<!DOCTYPE svg PUBLIC "-//W3C//DTD SVG 1.1//EN" "http://www.w3.org/Graphics/SVG/1.1/DTD/svg11.dtd">
<svg width="2806pt" height="513pt" viewBox="0 0 2806 513" version="1.1" xmlns="http://www.w3.org/2000/svg">
<g id="#374afbff">
<path fill="#374afb" opacity="1.00" d=" M 240.24 9.21 C 246.22 3.20 255.77 1.99 263.59 4.59 C 269.78 6.84 273.83 12.37 278.13 17.05 C 312.89 10.20 349.19 15.96 381.72 29.28 C 419.26 45.29 455.46 67.74 480.14 100.92 C 491.24 115.38 500.81 131.33 505.95 148.92 C 509.60 162.07 508.96 176.93 501.82 188.82 C 496.25 197.81 487.71 204.57 478.62 209.77 C 466.17 216.72 452.25 220.56 438.28 223.05 C 436.23 199.65 433.79 176.30 431.49 152.93 C 431.01 148.18 430.81 143.33 429.18 138.79 C 426.97 132.41 422.33 126.74 416.15 123.88 C 409.97 121.71 403.40 123.87 397.39 125.59 C 379.06 131.30 366.70 150.95 368.60 169.91 C 369.69 183.36 372.12 196.65 373.60 210.04 C 374.50 220.55 368.92 230.04 363.51 238.57 C 357.03 248.61 352.09 259.90 350.89 271.88 C 348.19 300.29 352.49 329.32 363.43 355.68 C 359.33 353.19 354.71 350.55 352.85 345.84 C 343.94 322.02 341.29 296.14 343.24 270.88 C 344.50 259.90 348.29 249.30 353.78 239.75 C 335.44 244.02 317.13 248.73 299.54 255.54 C 286.68 260.90 275.06 270.01 268.22 282.30 C 257.89 302.36 251.54 324.14 245.66 345.84 C 238.73 369.79 233.23 394.13 228.20 418.55 C 247.29 434.51 269.73 447.29 294.44 451.75 C 312.93 455.28 332.22 453.17 349.84 446.75 C 372.70 438.73 392.55 424.00 409.66 407.11 C 387.85 434.48 356.88 455.78 321.92 461.47 C 302.57 464.94 282.46 461.81 264.36 454.45 C 250.48 448.93 237.62 441.08 225.74 432.07 C 220.36 452.68 214.01 474.22 199.09 490.15 C 188.67 501.74 172.61 508.20 157.06 506.26 C 140.24 504.48 124.98 496.24 111.24 486.83 C 87.07 470.61 66.96 448.48 52.86 423.04 C 45.62 410.22 40.42 396.39 35.21 382.66 C 26.48 359.15 19.42 334.86 16.43 309.91 C 15.35 299.27 14.44 288.51 15.79 277.86 C 10.77 273.71 5.23 269.68 2.34 263.65 C -0.51 257.65 -0.44 250.36 2.36 244.36 C 3.85 241.08 6.45 238.50 8.87 235.90 C 18.38 225.99 28.58 216.77 37.85 206.63 C 38.40 200.58 35.22 194.85 36.28 188.80 C 37.18 179.46 43.66 171.96 50.45 166.04 C 44.16 174.54 38.97 185.33 41.96 196.11 C 44.12 206.14 52.56 212.66 59.40 219.57 C 64.56 224.43 68.99 230.14 74.92 234.14 C 82.45 239.40 92.61 240.27 101.13 237.11 C 106.91 234.97 110.82 229.75 113.26 224.31 C 117.51 214.47 116.17 202.14 109.04 193.97 C 99.17 182.53 88.19 172.13 77.59 161.38 C 68.78 152.10 67.22 136.93 73.99 126.05 C 77.52 120.26 83.30 116.39 89.04 113.06 C 81.06 119.96 74.87 130.21 76.30 141.13 C 76.64 149.04 81.25 155.93 86.66 161.39 C 93.20 167.84 99.86 174.17 106.17 180.86 C 110.64 185.45 115.30 190.13 121.21 192.81 C 127.46 195.55 134.77 196.45 141.30 194.15 C 145.68 192.78 148.92 189.23 151.51 185.60 C 156.62 178.16 158.26 168.28 155.27 159.70 C 153.78 155.05 150.90 150.99 147.61 147.44 C 137.52 137.18 127.13 127.22 117.07 116.94 C 108.86 107.35 110.82 92.36 118.41 82.99 C 116.75 92.71 114.90 104.12 121.57 112.44 C 132.65 124.38 144.44 135.62 155.89 147.20 C 161.99 153.60 171.43 156.61 180.10 154.81 C 192.36 152.57 201.79 140.48 201.19 128.06 C 201.13 120.21 197.01 112.95 191.29 107.79 C 179.52 96.18 167.87 84.45 156.12 72.82 C 152.66 69.25 148.77 65.97 146.29 61.60 C 141.71 53.54 141.32 43.10 145.81 34.93 C 149.12 28.58 155.03 24.24 160.46 19.82 C 156.41 25.23 151.06 30.07 149.42 36.89 C 146.33 46.46 149.53 57.40 156.70 64.32 C 167.42 74.95 178.03 85.68 188.74 96.32 C 191.60 99.14 194.37 102.18 197.97 104.07 C 204.45 107.67 212.46 108.55 219.53 106.27 C 234.44 100.09 241.28 79.45 232.17 65.89 C 225.14 56.76 216.05 49.53 208.35 41.00 C 219.01 30.43 229.52 19.71 240.24 9.21 M 347.21 75.20 C 333.51 76.96 322.89 91.77 326.80 105.28 C 329.40 116.57 341.67 124.38 353.00 122.06 C 362.66 120.47 370.67 112.54 372.89 103.09 C 374.62 96.32 372.69 88.91 368.39 83.49 C 363.35 77.39 355.07 74.05 347.21 75.20 M 287.37 76.49 C 277.11 78.40 268.88 87.67 267.79 97.99 C 266.29 109.30 274.80 120.87 285.99 122.94 C 290.79 123.71 295.93 123.44 300.39 121.35 C 309.60 117.21 315.90 107.07 315.05 96.94 C 314.54 91.62 312.30 86.37 308.41 82.65 C 302.92 77.40 294.84 74.96 287.37 76.49 M 287.47 134.64 C 280.44 135.93 273.95 140.12 270.30 146.31 C 266.44 152.35 265.80 160.13 268.11 166.85 C 271.17 175.44 279.84 181.67 288.97 181.78 C 302.54 182.32 315.24 169.66 313.95 155.97 C 313.94 142.78 300.21 132.18 287.47 134.64 M 334.00 139.06 C 326.43 145.04 323.40 155.75 326.20 164.91 C 327.79 170.53 331.96 175.19 337.01 178.00 C 344.65 181.91 353.87 180.69 361.49 177.34 C 360.15 165.05 361.02 152.04 367.24 141.09 C 358.85 132.07 343.30 130.71 334.00 139.06 M 155.37 270.51 C 154.01 270.93 152.89 271.86 151.80 272.74 C 144.75 278.66 138.96 285.90 132.02 291.94 C 128.78 294.98 123.13 295.28 119.76 292.28 C 112.88 286.16 107.02 278.98 99.99 273.03 C 97.17 270.42 92.78 270.58 89.63 272.48 C 85.79 274.92 82.94 278.58 79.63 281.65 C 76.38 284.81 73.56 290.14 76.49 294.40 C 81.99 302.45 90.44 307.88 96.44 315.52 C 98.71 318.49 99.80 323.13 97.25 326.26 C 90.53 334.80 81.76 341.44 74.80 349.77 C 71.18 353.79 72.10 360.49 76.04 363.97 C 79.68 367.35 82.72 371.41 86.88 374.20 C 89.92 376.28 94.40 376.93 97.42 374.47 C 106.02 367.77 112.63 358.93 120.98 351.96 C 124.26 349.08 129.74 349.14 132.98 352.06 C 140.62 358.32 146.34 366.70 154.56 372.28 C 158.07 374.56 162.38 372.68 165.24 370.23 C 168.81 367.17 172.20 363.84 175.09 360.12 C 177.31 357.25 178.47 352.99 176.18 349.81 C 170.07 340.74 160.11 335.03 154.38 325.65 C 153.71 324.44 152.62 323.05 153.62 321.70 C 158.79 309.79 171.87 304.12 178.01 292.90 C 180.13 286.26 173.84 281.40 169.72 277.26 C 166.18 273.20 161.21 268.76 155.37 270.51 Z" />
</g>
<g id="#242c7aff">
<path fill="#242c7a" opacity="1.00" d=" M 347.21 75.20 C 355.07 74.05 363.35 77.39 368.39 83.49 C 372.69 88.91 374.62 96.32 372.89 103.09 C 370.67 112.54 362.66 120.47 353.00 122.06 C 341.67 124.38 329.40 116.57 326.80 105.28 C 322.89 91.77 333.51 76.96 347.21 75.20 Z" />
<path fill="#242c7a" opacity="1.00" d=" M 287.37 76.49 C 294.84 74.96 302.92 77.40 308.41 82.65 C 312.30 86.37 314.54 91.62 315.05 96.94 C 315.90 107.07 309.60 117.21 300.39 121.35 C 295.93 123.44 290.79 123.71 285.99 122.94 C 274.80 120.87 266.29 109.30 267.79 97.99 C 268.88 87.67 277.11 78.40 287.37 76.49 Z" />
<path fill="#242c7a" opacity="1.00" d=" M 287.47 134.64 C 300.21 132.18 313.94 142.78 313.95 155.97 C 315.24 169.66 302.54 182.32 288.97 181.78 C 279.84 181.67 271.17 175.44 268.11 166.85 C 265.80 160.13 266.44 152.35 270.30 146.31 C 273.95 140.12 280.44 135.93 287.47 134.64 Z" />
<path fill="#242c7a" opacity="1.00" d=" M 334.00 139.06 C 343.30 130.71 358.85 132.07 367.24 141.09 C 361.02 152.04 360.15 165.05 361.49 177.34 C 353.87 180.69 344.65 181.91 337.01 178.00 C 331.96 175.19 327.79 170.53 326.20 164.91 C 323.40 155.75 326.43 145.04 334.00 139.06 Z" />
<path fill="#242c7a" opacity="1.00" d=" M 155.37 270.51 C 161.21 268.76 166.18 273.20 169.72 277.26 C 173.84 281.40 180.13 286.26 178.01 292.90 C 171.87 304.12 158.79 309.79 153.62 321.70 C 152.62 323.05 153.71 324.44 154.38 325.65 C 160.11 335.03 170.07 340.74 176.18 349.81 C 178.47 352.99 177.31 357.25 175.09 360.12 C 172.20 363.84 168.81 367.17 165.24 370.23 C 162.38 372.68 158.07 374.56 154.56 372.28 C 146.34 366.70 140.62 358.32 132.98 352.06 C 129.74 349.14 124.26 349.08 120.98 351.96 C 112.63 358.93 106.02 367.77 97.42 374.47 C 94.40 376.93 89.92 376.28 86.88 374.20 C 82.72 371.41 79.68 367.35 76.04 363.97 C 72.10 360.49 71.18 353.79 74.80 349.77 C 81.76 341.44 90.53 334.80 97.25 326.26 C 99.80 323.13 98.71 318.49 96.44 315.52 C 90.44 307.88 81.99 302.45 76.49 294.40 C 73.56 290.14 76.38 284.81 79.63 281.65 C 82.94 278.58 85.79 274.92 89.63 272.48 C 92.78 270.58 97.17 270.42 99.99 273.03 C 107.02 278.98 112.88 286.16 119.76 292.28 C 123.13 295.28 128.78 294.98 132.02 291.94 C 138.96 285.90 144.75 278.66 151.80 272.74 C 152.89 271.86 154.01 270.93 155.37 270.51 Z" />
</g>
<g id="#6c6e86ff">
<path fill="#6c6e86" opacity="1.00" d=" M 538.20 146.23 C 541.61 140.38 548.20 136.54 554.99 136.59 C 594.66 136.57 634.32 136.59 673.99 136.58 C 681.29 136.46 688.41 140.71 691.84 147.14 C 695.35 153.49 694.81 161.76 690.64 167.68 C 686.97 173.10 680.53 176.47 673.99 176.41 C 660.91 176.44 647.83 176.39 634.75 176.43 C 634.75 232.94 634.75 289.45 634.75 345.96 C 634.58 351.11 635.38 356.49 633.49 361.43 C 630.27 370.31 620.23 375.98 610.96 374.05 C 602.00 372.55 594.82 364.11 594.92 355.00 C 594.90 295.47 594.93 235.94 594.91 176.41 C 581.62 176.40 568.33 176.44 555.05 176.40 C 548.53 176.41 542.17 172.92 538.69 167.42 C 534.58 161.19 534.32 152.62 538.20 146.23 Z" />
<path fill="#6c6e86" opacity="1.00" d=" M 731.22 139.21 C 737.77 135.26 746.59 135.83 752.75 140.30 C 756.09 142.61 758.16 146.20 760.47 149.45 C 777.10 173.21 793.71 197.00 810.37 220.74 C 828.02 195.61 845.73 170.51 863.40 145.39 C 866.27 141.07 870.85 137.93 875.97 136.97 C 885.21 134.95 895.29 140.76 898.50 149.60 C 900.86 155.64 899.69 162.74 895.94 167.96 C 874.94 197.98 853.97 228.01 832.94 258.01 C 831.98 259.59 830.29 260.98 830.42 262.98 C 830.40 293.66 830.43 324.35 830.41 355.04 C 830.40 361.58 826.75 367.88 821.22 371.32 C 814.43 375.65 805.00 375.42 798.57 370.51 C 793.39 366.73 790.37 360.35 790.58 353.96 C 790.60 323.94 790.55 293.92 790.61 263.90 C 790.60 262.66 790.61 261.33 789.73 260.36 C 767.88 229.18 746.09 197.96 724.26 166.78 C 718.07 157.88 722.22 144.55 731.22 139.21 Z" />
<path fill="#6c6e86" opacity="1.00" d=" M 926.77 156.07 C 926.62 145.80 935.71 136.55 946.00 136.60 C 964.64 136.58 983.28 136.55 1001.92 136.61 C 1019.28 137.50 1036.71 142.80 1050.82 153.12 C 1062.03 161.26 1070.70 172.80 1075.37 185.84 C 1080.74 200.83 1081.78 217.36 1078.27 232.90 C 1074.75 250.00 1066.18 266.40 1052.64 277.67 C 1038.92 289.32 1020.81 294.88 1002.99 295.20 C 990.85 295.31 978.72 295.22 966.59 295.25 C 966.58 313.17 966.58 331.10 966.59 349.02 C 966.53 352.98 966.94 357.07 965.60 360.88 C 963.28 368.08 956.48 373.49 948.97 374.26 C 941.28 375.31 933.26 371.32 929.43 364.58 C 927.54 361.38 926.70 357.65 926.75 353.96 C 926.77 288.00 926.72 222.03 926.77 156.07 M 966.58 176.43 C 966.59 202.75 966.58 229.08 966.59 255.41 C 978.38 255.40 990.18 255.45 1001.98 255.39 C 1011.36 255.27 1021.30 252.93 1028.23 246.21 C 1035.78 238.83 1039.33 228.23 1040.38 217.93 C 1041.02 207.56 1038.79 196.28 1031.37 188.58 C 1023.49 180.54 1012.05 176.93 1001.03 176.44 C 989.54 176.39 978.06 176.42 966.58 176.43 Z" />
<path fill="#6c6e86" opacity="1.00" d=" M 1122.20 137.21 C 1130.36 134.94 1139.68 138.66 1144.03 145.92 C 1146.32 149.50 1147.11 153.80 1147.01 158.00 C 1146.98 223.36 1147.02 288.71 1146.99 354.07 C 1147.14 360.07 1144.48 366.08 1139.81 369.88 C 1134.21 374.60 1125.92 375.74 1119.25 372.73 C 1112.35 369.76 1107.48 362.57 1107.50 355.03 C 1107.49 290.70 1107.50 226.36 1107.50 162.03 C 1107.52 157.69 1107.08 153.16 1108.84 149.06 C 1111.08 143.30 1116.19 138.73 1122.20 137.21 Z" />
<path fill="#6c6e86" opacity="1.00" d=" M 1281.09 137.15 C 1302.49 134.98 1324.40 138.83 1343.88 147.92 C 1348.05 149.86 1352.44 151.85 1355.38 155.54 C 1360.90 161.91 1361.85 171.91 1357.15 179.00 C 1352.98 185.69 1344.65 189.40 1336.89 187.98 C 1332.02 187.33 1328.09 184.15 1323.62 182.41 C 1302.93 173.73 1278.50 174.47 1258.37 184.39 C 1243.70 191.53 1231.36 203.32 1223.54 217.63 C 1214.33 234.31 1211.57 254.40 1215.83 272.96 C 1219.66 290.11 1229.49 305.81 1243.15 316.85 C 1265.67 335.56 1298.91 339.94 1325.51 327.72 C 1329.56 325.80 1333.43 323.11 1338.05 322.83 C 1346.70 321.72 1355.61 327.03 1358.80 335.14 C 1362.36 343.66 1358.84 354.21 1351.18 359.22 C 1326.30 373.31 1296.17 377.79 1268.22 371.81 C 1238.80 365.68 1212.14 347.77 1195.12 323.03 C 1181.15 302.95 1173.66 278.46 1174.07 254.00 C 1174.23 221.04 1189.14 188.63 1213.79 166.81 C 1232.35 150.15 1256.26 139.55 1281.09 137.15 Z" />
<path fill="#6c6e86" opacity="1.00" d=" M 1470.52 144.53 C 1474.54 139.26 1481.24 136.12 1487.88 136.62 C 1495.29 137.12 1502.10 142.17 1504.91 149.02 C 1531.33 215.04 1557.69 281.08 1584.10 347.10 C 1587.48 355.43 1584.56 365.91 1577.05 370.97 C 1569.60 376.23 1558.56 375.32 1552.08 368.90 C 1547.94 365.14 1546.56 359.55 1544.43 354.60 C 1540.40 344.68 1536.43 334.73 1532.38 324.82 C 1501.70 324.90 1471.01 324.72 1440.32 324.91 C 1435.42 337.41 1430.31 349.83 1425.29 362.28 C 1421.64 371.59 1410.27 376.79 1400.85 373.39 C 1390.56 370.11 1384.55 357.66 1388.55 347.59 C 1414.31 283.09 1440.11 218.60 1465.87 154.10 C 1467.21 150.82 1468.30 147.35 1470.52 144.53 M 1456.44 285.33 C 1476.43 285.34 1496.41 285.34 1516.40 285.33 C 1506.47 260.15 1496.53 234.98 1486.59 209.80 C 1476.52 234.97 1466.47 260.15 1456.44 285.33 Z" />
<path fill="#6c6e86" opacity="1.00" d=" M 1612.59 156.00 C 1612.38 145.27 1622.36 136.06 1632.97 136.57 C 1643.31 136.48 1652.51 145.69 1652.39 156.04 C 1652.46 215.55 1652.39 275.07 1652.42 334.58 C 1675.60 334.59 1698.78 334.57 1721.96 334.59 C 1730.22 334.56 1738.05 340.30 1740.64 348.13 C 1742.80 354.27 1741.68 361.45 1737.62 366.56 C 1733.74 371.61 1727.40 374.60 1721.04 374.42 C 1691.37 374.39 1661.70 374.46 1632.04 374.38 C 1621.75 374.43 1612.41 365.35 1612.59 354.99 C 1612.58 288.66 1612.58 222.33 1612.59 156.00 Z" />
<path fill="#6c6e86" opacity="1.00" d=" M 1849.06 142.89 C 1882.40 131.51 1920.78 135.62 1950.62 154.50 C 1958.44 159.41 1965.73 165.20 1972.22 171.77 C 1976.68 176.22 1978.23 182.95 1977.12 189.04 C 1975.82 196.99 1969.10 203.77 1961.12 204.98 C 1954.81 206.05 1947.92 204.16 1943.59 199.33 C 1927.43 183.01 1903.87 174.64 1881.03 176.66 C 1865.14 177.90 1849.67 184.11 1837.41 194.31 C 1822.36 206.67 1811.97 224.65 1809.16 243.96 C 1806.29 262.59 1810.59 282.15 1820.83 297.97 C 1828.90 310.42 1840.28 320.84 1853.73 327.23 C 1869.84 334.98 1888.64 336.95 1906.02 332.76 C 1917.71 330.01 1928.67 324.46 1938.00 316.92 C 1937.99 303.03 1938.01 289.14 1937.99 275.24 C 1921.34 275.23 1904.69 275.29 1888.04 275.22 C 1878.12 275.25 1868.98 266.93 1868.38 256.97 C 1867.61 248.74 1872.81 240.59 1880.36 237.42 C 1884.29 235.57 1888.72 235.68 1892.97 235.74 C 1914.63 235.77 1936.28 235.73 1957.94 235.76 C 1968.24 235.57 1977.56 244.75 1977.41 255.08 C 1977.41 278.73 1977.42 302.39 1977.41 326.04 C 1977.49 332.42 1973.96 338.22 1969.18 342.20 C 1941.98 368.16 1902.01 379.56 1865.16 372.29 C 1832.70 366.36 1803.27 346.06 1786.17 317.85 C 1766.99 286.82 1763.54 246.84 1776.61 212.85 C 1788.95 180.45 1816.15 153.95 1849.06 142.89 Z" />
<path fill="#6c6e86" opacity="1.00" d=" M 2085.09 149.02 C 2088.22 141.27 2096.55 136.01 2104.92 136.60 C 2112.69 137.07 2119.77 142.56 2122.43 149.85 C 2148.67 215.53 2174.92 281.20 2201.18 346.87 C 2204.20 354.19 2202.50 363.21 2196.85 368.79 C 2191.34 374.38 2182.35 375.94 2175.20 372.82 C 2170.28 370.78 2166.34 366.63 2164.44 361.67 C 2159.88 350.29 2155.24 338.95 2150.71 327.56 C 2150.06 326.46 2149.93 324.28 2148.10 324.83 C 2117.94 324.83 2087.78 324.86 2057.62 324.82 C 2052.38 337.55 2047.38 350.38 2042.09 363.09 C 2038.12 372.05 2026.88 376.75 2017.72 373.28 C 2007.71 369.89 2001.87 357.80 2005.61 347.88 C 2032.08 281.58 2058.58 215.30 2085.09 149.02 M 2103.75 209.81 C 2093.69 234.98 2083.64 260.15 2073.61 285.33 C 2093.59 285.34 2113.58 285.33 2133.57 285.33 C 2123.63 260.16 2113.72 234.97 2103.75 209.81 Z" />
<path fill="#6c6e86" opacity="1.00" d=" M 2238.76 139.76 C 2245.35 135.47 2254.53 135.46 2261.01 140.01 C 2264.15 142.16 2266.23 145.44 2268.51 148.43 C 2291.94 179.67 2315.36 210.91 2338.81 242.13 C 2363.29 209.51 2387.76 176.87 2412.24 144.25 C 2415.84 139.33 2421.89 136.44 2427.98 136.57 C 2435.59 136.49 2443.00 141.15 2446.10 148.13 C 2447.75 151.51 2447.97 155.34 2447.93 159.04 C 2447.89 224.04 2447.93 289.03 2447.91 354.03 C 2448.09 360.51 2444.95 366.98 2439.61 370.68 C 2433.62 374.98 2425.21 375.64 2418.69 372.18 C 2412.37 368.97 2408.05 362.12 2408.09 355.00 C 2408.07 308.63 2408.09 262.25 2408.08 215.88 C 2390.35 239.59 2372.62 263.29 2354.90 287.00 C 2350.85 292.57 2343.85 295.88 2336.99 295.18 C 2331.42 294.65 2326.17 291.67 2322.86 287.19 C 2305.09 263.45 2287.36 239.69 2269.59 215.96 C 2269.58 260.31 2269.58 304.66 2269.59 349.01 C 2269.62 353.85 2269.87 358.97 2267.53 363.39 C 2263.63 371.55 2253.74 376.05 2245.00 373.89 C 2236.39 372.05 2229.67 363.82 2229.76 354.99 C 2229.75 288.66 2229.75 222.32 2229.76 155.99 C 2229.75 149.52 2233.30 143.22 2238.76 139.76 Z" />
<path fill="#6c6e86" opacity="1.00" d=" M 2475.00 156.00 C 2474.80 145.80 2483.87 136.76 2494.00 136.62 C 2530.32 136.53 2566.64 136.62 2602.96 136.57 C 2608.37 136.38 2613.87 138.32 2617.78 142.13 C 2623.73 147.63 2625.45 156.92 2622.24 164.30 C 2619.29 171.49 2611.79 176.43 2604.03 176.39 C 2574.27 176.46 2544.51 176.39 2514.75 176.43 C 2514.75 196.20 2514.74 215.98 2514.75 235.75 C 2537.83 235.75 2560.92 235.75 2584.00 235.75 C 2591.24 235.61 2598.28 239.93 2601.57 246.37 C 2605.09 253.01 2604.34 261.67 2599.67 267.57 C 2596.00 272.39 2590.02 275.28 2583.99 275.24 C 2560.88 275.34 2537.77 275.09 2514.67 275.36 C 2514.85 295.10 2514.69 314.84 2514.75 334.57 C 2544.48 334.60 2574.22 334.57 2603.96 334.59 C 2611.24 334.51 2618.36 338.82 2621.62 345.34 C 2624.87 351.64 2624.54 359.71 2620.52 365.59 C 2616.91 371.05 2610.48 374.40 2603.97 374.40 C 2569.33 374.45 2534.69 374.39 2500.05 374.42 C 2495.72 374.45 2491.22 374.65 2487.20 372.87 C 2480.08 370.04 2474.95 362.75 2475.01 355.06 C 2474.99 288.71 2475.00 222.35 2475.00 156.00 Z" />
<path fill="#6c6e86" opacity="1.00" d=" M 2650.93 156.08 C 2650.71 145.47 2660.43 136.06 2671.04 136.57 C 2687.02 136.59 2703.00 136.58 2718.98 136.58 C 2738.44 136.06 2758.35 141.32 2774.32 152.65 C 2787.35 161.86 2796.95 175.68 2801.20 191.05 C 2807.18 211.62 2804.64 234.17 2795.49 253.41 C 2788.95 266.92 2778.38 278.55 2765.14 285.73 C 2777.04 304.85 2788.92 323.99 2800.84 343.11 C 2803.71 347.45 2805.21 352.84 2804.18 358.03 C 2802.59 367.37 2793.55 374.76 2784.08 374.40 C 2777.29 374.23 2770.76 370.44 2767.32 364.59 C 2752.86 341.47 2738.40 318.35 2723.92 295.24 C 2712.86 295.26 2701.80 295.24 2690.75 295.25 C 2690.72 315.18 2690.78 335.10 2690.73 355.03 C 2690.67 361.85 2686.62 368.35 2680.73 371.69 C 2674.41 375.44 2665.99 375.30 2659.88 371.21 C 2654.15 367.56 2650.66 360.82 2650.91 354.04 C 2650.94 288.05 2650.90 222.07 2650.93 156.08 M 2690.75 176.43 C 2690.75 202.76 2690.74 229.08 2690.75 255.41 C 2702.14 255.42 2713.54 255.42 2724.94 255.41 C 2735.81 255.54 2747.64 252.48 2754.74 243.67 C 2763.19 232.95 2766.36 218.29 2763.67 204.95 C 2762.26 197.49 2758.39 190.38 2752.33 185.70 C 2743.51 178.83 2732.02 176.09 2720.99 176.41 C 2710.91 176.44 2700.82 176.40 2690.75 176.43 Z" />
</g>
</svg>
