<?xml version="1.0" encoding="UTF-8" ?>
<!DOCTYPE svg PUBLIC "-//W3C//DTD SVG 1.1//EN" "http://www.w3.org/Graphics/SVG/1.1/DTD/svg11.dtd">
<svg width="1568pt" height="407pt" viewBox="0 0 1568 407" version="1.1" xmlns="http://www.w3.org/2000/svg">
<g id="#374afbff">
<path fill="#374afb" opacity="1.00" d=" M 138.64 0.00 L 141.22 0.00 C 144.42 0.63 147.86 2.53 148.42 6.06 C 149.17 10.91 144.39 14.72 139.94 15.11 C 131.51 16.20 123.17 18.49 115.63 22.46 C 106.27 27.43 99.63 35.93 92.32 43.34 C 86.64 48.94 81.76 55.26 76.67 61.37 C 82.14 61.91 87.62 61.82 93.10 61.87 C 96.89 61.67 99.85 66.38 97.60 69.58 C 95.62 72.88 91.31 72.16 88.06 72.46 C 80.56 72.18 73.24 74.15 66.13 76.32 C 61.27 77.80 56.82 81.26 55.57 86.39 C 60.79 86.34 66.01 86.87 71.09 88.08 C 76.57 89.40 82.32 90.07 87.40 92.65 C 91.45 94.94 91.41 101.19 88.07 104.12 C 85.98 106.36 82.68 106.03 79.91 106.22 C 64.51 106.63 49.06 108.82 34.42 113.68 C 30.48 115.11 26.66 116.93 23.14 119.19 C 20.19 121.64 17.91 124.90 16.28 128.36 C 14.87 134.44 13.49 141.04 16.01 147.04 C 18.06 153.58 23.40 158.30 28.82 162.14 C 30.34 163.26 32.36 163.07 34.14 163.36 C 44.07 163.75 54.19 163.89 63.82 161.02 C 74.01 157.86 84.79 157.33 94.96 154.11 C 99.56 152.41 102.94 148.67 106.74 145.73 C 111.76 141.74 116.33 137.22 121.36 133.26 C 125.27 131.36 129.72 130.97 134.01 130.97 C 148.34 131.03 162.66 130.99 176.99 130.98 C 183.47 130.76 189.06 135.50 192.15 140.84 C 194.31 146.78 193.86 154.46 188.89 158.92 C 185.03 162.72 179.26 162.84 174.20 163.27 C 158.06 164.41 142.22 168.75 127.59 175.62 C 127.48 177.60 127.34 179.59 127.19 181.58 C 137.94 181.91 148.32 178.32 159.04 178.18 C 169.71 179.01 180.55 180.22 190.51 184.39 C 202.27 188.97 212.82 196.63 220.76 206.44 C 225.20 213.40 226.65 221.70 228.76 229.55 C 232.60 243.54 237.62 257.17 242.03 270.99 C 243.74 276.79 245.49 282.84 249.62 287.46 C 253.13 291.44 257.54 295.34 263.05 295.87 C 268.58 296.50 274.19 296.28 279.70 295.70 C 286.81 292.82 291.90 286.34 295.35 279.70 C 296.05 273.00 293.43 266.55 291.68 260.19 C 288.59 248.82 282.92 238.33 276.40 228.58 C 274.67 225.61 272.76 222.57 272.27 219.11 C 271.75 214.83 275.78 210.77 280.06 211.24 C 283.91 211.33 286.32 214.75 288.90 217.13 C 295.58 223.29 302.19 229.77 306.73 237.73 C 308.01 235.18 310.03 232.88 310.50 230.01 C 310.08 220.76 304.23 213.16 299.50 205.65 C 296.86 201.38 302.19 196.12 306.48 198.64 C 309.49 201.03 311.21 204.63 313.32 207.77 C 314.14 208.03 315.77 208.54 316.59 208.80 C 319.05 202.01 321.54 195.21 323.43 188.23 C 326.45 177.45 331.50 167.12 332.27 155.81 C 332.76 148.30 332.85 140.60 330.75 133.30 C 329.72 129.54 328.26 125.87 327.86 121.96 C 327.78 118.12 331.14 114.65 334.96 114.55 C 338.17 114.30 341.22 116.46 342.36 119.41 C 348.99 135.97 349.81 154.75 344.58 171.82 C 341.98 180.04 339.02 188.14 336.52 196.40 C 327.73 225.41 317.50 253.99 309.38 283.19 C 304.85 296.28 293.84 307.58 280.13 310.73 C 270.70 312.58 260.79 311.37 251.80 308.08 C 239.95 303.00 232.22 291.34 229.01 279.20 C 221.68 280.21 214.38 281.47 207.02 282.35 C 196.46 283.26 186.02 280.63 175.90 277.91 C 167.92 275.91 161.23 270.59 153.13 268.88 C 152.20 270.45 151.26 272.02 150.32 273.60 C 156.32 280.33 164.22 284.90 172.09 289.10 C 185.96 296.63 200.88 302.42 216.49 305.04 C 216.50 307.13 216.51 309.22 216.54 311.32 C 178.25 341.08 139.76 370.60 101.42 400.31 C 99.04 402.12 96.75 404.19 93.91 405.28 C 91.33 406.33 87.76 404.95 87.16 402.07 C 86.21 398.22 87.60 394.32 88.82 390.70 C 93.87 376.45 98.70 362.12 103.79 347.88 C 106.87 340.38 108.81 332.48 111.89 325.00 C 103.30 324.71 94.56 325.82 86.09 323.92 C 82.82 323.51 80.30 320.19 80.80 316.94 C 81.15 315.06 81.87 313.28 82.64 311.54 C 89.72 295.60 96.46 279.50 103.35 263.47 C 105.23 259.28 107.56 255.28 108.87 250.85 C 106.01 245.63 101.64 241.47 98.60 236.37 C 89.42 222.40 83.95 205.79 84.54 188.99 C 84.91 183.07 86.05 177.23 86.64 171.33 C 75.16 174.08 63.49 175.98 52.02 178.81 C 43.18 181.08 33.59 180.29 25.22 176.65 C 11.76 171.30 2.19 158.26 0.00 144.08 L 0.00 132.63 C 1.63 123.32 6.61 114.80 12.97 107.92 C 28.62 91.29 43.98 74.39 59.45 57.60 C 71.53 43.68 83.70 29.79 97.23 17.24 C 102.73 12.45 108.96 8.40 115.91 6.08 C 123.20 3.12 130.77 0.73 138.64 0.00 Z" />
<path fill="#374afb" opacity="1.00" d=" M 173.26 8.25 C 177.91 5.93 182.36 9.60 186.33 11.62 C 189.85 13.76 193.90 15.16 196.94 18.01 C 198.89 20.09 199.53 23.40 197.97 25.89 C 191.50 37.81 185.07 49.75 178.53 61.63 C 176.90 64.71 172.75 65.48 169.74 64.14 C 165.72 62.33 161.99 59.95 158.06 57.95 C 155.34 56.46 152.11 55.03 150.97 51.88 C 149.99 49.82 150.67 47.52 151.76 45.66 C 157.87 34.46 163.97 23.25 170.03 12.02 C 170.86 10.59 171.68 8.97 173.26 8.25 Z" />
<path fill="#374afb" opacity="1.00" d=" M 219.39 25.46 C 223.13 23.93 226.67 26.39 229.75 28.22 C 233.28 30.39 237.02 32.20 240.43 34.55 C 243.45 36.72 244.37 41.22 242.37 44.38 C 234.57 57.94 226.76 71.51 218.89 85.04 C 216.92 88.67 211.87 89.74 208.43 87.58 C 203.74 84.91 199.03 82.27 194.44 79.45 C 191.10 77.35 190.01 72.56 192.16 69.24 C 199.69 56.09 207.33 42.99 214.86 29.84 C 215.90 27.99 217.27 26.13 219.39 25.46 Z" />
<path fill="#374afb" opacity="1.00" d=" M 266.17 38.19 C 270.59 36.15 274.52 39.82 278.20 41.76 C 281.25 43.69 284.70 45.06 287.40 47.50 C 289.89 50.30 289.68 54.63 287.83 57.71 C 278.70 73.63 269.49 89.49 260.34 105.40 C 258.87 108.14 256.29 110.48 253.09 110.81 C 250.36 111.20 248.07 109.43 245.82 108.20 C 242.26 106.01 238.50 104.15 235.04 101.82 C 231.52 99.30 231.50 94.05 233.65 90.62 C 242.65 74.93 251.75 59.29 260.74 43.60 C 262.00 41.35 263.66 39.12 266.17 38.19 Z" />
<path fill="#374afb" opacity="1.00" d=" M 298.30 66.25 C 302.95 63.58 307.45 67.45 311.39 69.62 C 314.62 71.69 318.35 73.11 321.16 75.78 C 323.55 78.50 323.49 82.66 321.54 85.60 C 313.25 99.93 305.00 114.28 296.71 128.60 C 294.88 132.18 290.20 134.16 286.50 132.29 C 282.85 130.46 279.43 128.21 275.85 126.26 C 273.42 124.78 270.41 123.59 269.24 120.78 C 268.03 118.27 268.45 115.29 269.87 112.96 C 277.92 98.96 286.04 84.99 294.07 70.98 C 295.14 69.15 296.31 67.20 298.30 66.25 Z" />
</g>
<g id="#242c7aff">
<path fill="#242c7a" opacity="1.00" d=" M 142.38 67.41 C 146.52 62.57 155.86 67.92 153.70 73.96 C 151.76 78.42 149.00 82.47 146.77 86.78 C 151.16 89.24 155.94 91.05 160.11 93.88 C 164.74 97.88 160.01 106.96 154.04 105.33 C 149.24 103.48 144.84 100.73 140.19 98.54 C 137.52 103.11 135.25 107.92 132.33 112.33 C 128.38 117.59 118.57 112.22 120.81 106.05 C 122.88 101.32 125.79 97.01 128.17 92.43 C 123.71 89.99 118.96 88.07 114.67 85.34 C 109.76 81.64 114.03 72.54 119.97 73.54 C 125.11 75.35 129.75 78.31 134.63 80.69 C 137.40 76.38 139.41 71.59 142.38 67.41 Z" />
<path fill="#242c7a" opacity="1.00" d=" M 266.37 136.50 C 272.17 133.16 280.13 138.31 279.49 144.95 C 279.45 151.55 271.19 155.89 265.74 152.14 C 259.89 148.85 260.28 139.31 266.37 136.50 Z" />
<path fill="#242c7a" opacity="1.00" d=" M 242.15 142.19 C 247.12 140.99 252.49 144.86 252.94 149.95 C 253.63 154.71 249.85 159.49 245.08 159.93 C 240.32 160.64 235.53 156.87 235.07 152.10 C 234.41 147.60 237.70 143.03 242.15 142.19 Z" />
<path fill="#242c7a" opacity="1.00" d=" M 273.38 163.49 C 279.18 160.16 287.14 165.32 286.49 171.97 C 286.45 178.81 277.62 183.08 272.25 178.81 C 266.84 175.27 267.52 166.21 273.38 163.49 Z" />
<path fill="#242c7a" opacity="1.00" d=" M 248.37 169.56 C 254.72 166.85 262.16 173.39 260.27 180.03 C 259.07 186.55 250.10 189.33 245.42 184.64 C 240.45 180.48 242.22 171.55 248.37 169.56 Z" />
</g>
<g id="#6c6e86ff">
<path fill="#6c6e86" opacity="1.00" d=" M 394.28 121.93 C 394.27 117.38 398.50 113.51 403.00 113.60 C 407.56 113.46 412.01 117.32 411.97 121.99 C 412.06 134.12 411.96 146.25 412.00 158.37 C 417.76 158.91 424.03 157.09 429.42 159.66 C 435.78 163.07 434.63 173.59 427.79 175.70 C 422.63 176.85 417.25 176.00 412.01 176.25 C 411.99 197.17 412.01 218.08 412.00 239.00 C 412.49 244.33 407.33 249.03 402.10 248.33 C 397.56 247.91 393.91 243.58 394.25 239.03 C 394.24 218.11 394.26 197.18 394.24 176.25 C 388.91 175.99 383.44 176.87 378.21 175.69 C 371.16 173.38 370.47 162.32 377.30 159.30 C 382.69 157.38 388.63 158.81 394.25 158.37 C 394.28 146.23 394.19 134.08 394.28 121.93 Z" />
<path fill="#6c6e86" opacity="1.00" d=" M 962.33 114.44 C 966.15 112.75 971.02 114.14 973.29 117.67 C 974.64 119.48 974.77 121.80 974.77 123.98 C 974.72 162.34 974.77 200.70 974.74 239.06 C 975.15 244.28 970.25 249.04 965.03 248.34 C 960.38 248.03 956.60 243.68 956.90 239.03 C 956.85 200.35 956.86 161.68 956.89 123.00 C 956.72 119.36 958.91 115.77 962.33 114.44 Z" />
<path fill="#6c6e86" opacity="1.00" d=" M 687.28 123.28 C 693.32 120.46 700.64 126.46 699.33 132.93 C 698.84 140.13 688.76 143.07 684.11 137.83 C 679.57 133.57 681.52 125.36 687.28 123.28 Z" />
<path fill="#6c6e86" opacity="1.00" d=" M 688.43 158.50 C 693.70 157.04 699.62 161.46 699.36 167.01 C 699.37 191.31 699.41 215.62 699.34 239.93 C 699.37 245.11 694.00 249.33 688.97 248.24 C 684.57 247.62 681.27 243.34 681.52 238.93 C 681.47 215.28 681.50 191.62 681.51 167.97 C 681.17 163.66 684.16 159.39 688.43 158.50 Z" />
<path fill="#6c6e86" opacity="1.00" d=" M 1027.06 163.03 C 1040.99 155.70 1058.78 156.43 1072.02 164.98 C 1084.60 172.82 1092.79 187.19 1092.97 202.04 C 1093.04 215.69 1092.97 229.34 1093.01 242.99 C 1093.10 249.03 1093.00 255.18 1091.17 260.98 C 1087.42 273.96 1077.48 284.92 1064.98 289.99 C 1051.89 295.44 1036.27 294.21 1024.21 286.77 C 1016.63 282.09 1010.28 275.15 1006.80 266.92 C 1004.70 261.53 1009.20 255.21 1014.92 255.23 C 1018.85 254.88 1022.29 257.60 1023.85 261.05 C 1029.43 272.06 1043.06 278.00 1054.92 274.55 C 1064.76 271.98 1072.69 263.47 1074.61 253.48 C 1075.48 248.77 1075.02 243.96 1075.13 239.21 C 1065.95 245.85 1054.43 249.45 1043.09 248.10 C 1028.78 246.72 1015.48 237.93 1008.54 225.37 C 1001.77 213.49 1000.90 198.51 1006.12 185.89 C 1010.10 176.11 1017.65 167.84 1027.06 163.03 M 1043.24 176.26 C 1029.17 178.40 1018.52 192.86 1020.89 206.94 C 1022.60 221.45 1037.48 232.81 1051.96 230.16 C 1066.38 228.19 1077.48 213.26 1074.77 198.86 C 1072.77 184.37 1057.65 173.39 1043.24 176.26 Z" />
<path fill="#6c6e86" opacity="1.00" d=" M 1412.16 167.22 C 1427.38 155.25 1450.15 155.09 1465.91 166.13 C 1478.51 174.49 1485.65 189.94 1484.51 204.93 C 1483.85 209.34 1479.37 212.46 1475.02 212.12 C 1454.59 212.15 1434.17 212.09 1413.74 212.15 C 1416.06 217.98 1420.00 223.26 1425.45 226.50 C 1433.86 231.78 1444.80 231.50 1453.74 227.70 C 1456.61 226.55 1459.07 224.53 1462.03 223.57 C 1467.05 222.64 1472.29 226.91 1472.41 232.01 C 1472.51 235.02 1470.83 237.82 1468.57 239.67 C 1459.43 246.81 1447.46 249.27 1436.08 248.22 C 1419.12 247.15 1403.52 235.49 1397.50 219.63 C 1390.16 201.44 1396.34 178.89 1412.16 167.22 M 1425.74 179.70 C 1420.17 182.95 1416.10 188.28 1413.74 194.22 C 1431.03 194.27 1448.32 194.26 1465.61 194.23 C 1463.97 189.67 1461.49 185.31 1457.69 182.23 C 1448.94 174.91 1435.51 173.71 1425.74 179.70 Z" />
<path fill="#6c6e86" opacity="1.00" d=" M 462.28 167.95 C 462.16 163.95 464.97 160.06 468.90 159.14 C 474.34 157.49 480.42 162.26 479.99 167.96 C 480.07 182.99 479.90 198.03 480.06 213.06 C 480.27 223.16 490.06 231.71 500.10 230.58 C 508.98 229.95 516.71 222.03 516.85 213.08 C 516.94 198.04 516.81 182.99 516.90 167.95 C 516.69 163.41 520.41 159.19 524.95 158.89 C 530.05 158.23 535.10 162.73 534.74 167.93 C 534.73 197.98 534.80 228.04 534.71 258.09 C 534.21 274.92 520.61 290.04 504.04 292.68 C 490.48 295.24 475.84 289.38 467.77 278.19 C 465.41 274.78 462.49 270.84 463.60 266.43 C 464.66 261.22 470.92 258.02 475.76 260.30 C 478.60 261.34 479.90 264.22 481.43 266.59 C 485.63 273.32 494.33 276.80 502.02 274.85 C 509.85 273.12 516.22 266.04 516.80 257.99 C 517.02 253.18 516.79 248.36 516.90 243.54 C 508.19 248.43 497.55 249.78 487.97 246.83 C 472.22 242.37 461.17 226.28 462.24 210.00 C 462.29 195.98 462.19 181.96 462.28 167.95 Z" />
<path fill="#6c6e86" opacity="1.00" d=" M 588.58 163.51 C 600.02 157.78 613.92 157.35 625.73 162.24 C 637.45 167.02 646.94 176.99 651.09 188.96 C 655.43 201.21 654.19 215.33 647.65 226.58 C 640.79 238.71 627.95 247.21 614.10 248.77 C 602.55 250.28 590.60 247.02 581.25 240.14 C 581.25 254.77 581.26 269.39 581.25 284.02 C 581.58 288.37 578.29 292.58 573.97 293.24 C 568.87 294.31 563.38 290.16 563.42 284.86 C 563.31 261.59 563.41 238.32 563.38 215.05 C 563.48 207.87 562.86 200.59 564.60 193.55 C 567.61 180.63 576.68 169.33 588.58 163.51 M 601.52 177.64 C 587.70 181.01 578.39 196.32 581.94 210.14 C 584.85 224.20 600.15 233.99 614.14 230.67 C 628.61 227.96 638.81 212.18 635.07 197.88 C 632.01 183.37 615.84 173.40 601.52 177.64 Z" />
<path fill="#6c6e86" opacity="1.00" d=" M 761.50 159.68 C 777.76 155.50 796.01 161.33 806.83 174.16 C 809.05 176.88 811.40 179.69 812.50 183.09 C 813.98 188.33 809.62 194.31 804.09 194.15 C 800.29 194.42 797.01 191.93 795.27 188.73 C 789.34 179.09 776.94 174.20 766.00 177.00 C 753.91 179.77 744.60 191.60 745.14 204.06 C 745.33 216.06 754.47 227.05 766.11 229.75 C 776.71 232.42 788.68 227.86 794.73 218.73 C 796.46 215.87 799.52 213.76 802.97 213.96 C 807.42 213.73 811.50 217.49 811.74 221.92 C 812.21 225.64 809.77 228.74 807.63 231.48 C 800.00 241.16 788.21 247.34 775.94 248.22 C 761.86 249.47 747.45 243.48 738.32 232.73 C 728.86 221.92 725.18 206.44 728.70 192.51 C 732.47 176.62 745.60 163.44 761.50 159.68 Z" />
<path fill="#6c6e86" opacity="1.00" d=" M 862.18 164.19 C 874.43 157.35 889.91 156.59 902.73 162.33 C 918.17 169.07 928.28 185.41 928.60 202.10 C 928.62 214.77 928.68 227.45 928.58 240.13 C 928.62 245.73 922.26 249.94 917.10 247.88 C 913.56 246.62 911.46 243.20 910.67 239.69 C 901.45 247.55 888.58 249.57 876.88 247.80 C 864.62 246.04 853.14 239.08 846.26 228.73 C 838.86 217.84 837.14 203.60 840.77 191.05 C 843.97 179.73 851.87 169.84 862.18 164.19 M 879.55 176.67 C 867.78 178.81 858.05 189.19 856.82 201.11 C 855.38 211.87 861.70 222.82 871.37 227.52 C 882.12 233.21 896.76 231.07 904.66 221.55 C 913.81 211.03 912.65 193.79 902.89 184.06 C 896.98 177.89 887.94 175.01 879.55 176.67 Z" />
<path fill="#6c6e86" opacity="1.00" d=" M 1140.18 167.18 C 1153.03 157.68 1171.06 155.79 1185.61 162.41 C 1197.41 167.67 1206.33 178.59 1209.64 191.03 C 1212.17 199.80 1211.18 209.02 1211.37 218.03 C 1211.25 225.67 1211.62 233.33 1211.21 240.96 C 1210.71 246.72 1203.46 250.34 1198.57 247.28 C 1195.69 245.79 1194.15 242.80 1193.40 239.78 C 1175.06 254.31 1145.55 249.90 1131.20 231.77 C 1123.60 222.43 1120.40 209.86 1122.04 197.99 C 1123.51 185.81 1130.22 174.36 1140.18 167.18 M 1161.48 176.83 C 1148.43 179.56 1138.32 192.52 1139.42 205.91 C 1140.04 216.58 1147.97 226.04 1158.08 229.19 C 1168.68 232.88 1181.60 229.53 1188.32 220.34 C 1196.58 209.60 1194.92 193.05 1185.26 183.72 C 1179.17 177.58 1169.91 174.90 1161.48 176.83 Z" />
<path fill="#6c6e86" opacity="1.00" d=" M 1266.95 159.55 C 1279.75 156.22 1294.06 160.68 1302.73 170.67 C 1310.43 162.01 1322.30 157.28 1333.85 158.71 C 1347.53 160.03 1359.89 169.94 1364.12 183.02 C 1366.53 189.72 1365.93 196.93 1366.00 203.91 C 1365.95 215.98 1366.09 228.05 1365.94 240.12 C 1365.92 244.80 1361.65 248.82 1357.01 248.76 C 1352.37 248.89 1348.12 244.82 1348.17 240.17 C 1348.06 227.10 1348.15 214.03 1348.13 200.96 C 1348.11 195.97 1348.60 190.62 1346.05 186.11 C 1342.41 179.02 1333.79 174.95 1326.02 176.77 C 1318.05 178.35 1311.64 185.82 1311.64 194.00 C 1311.56 209.35 1311.71 224.70 1311.58 240.05 C 1311.70 245.89 1305.17 250.46 1299.73 248.23 C 1296.32 247.04 1293.75 243.67 1293.79 240.02 C 1293.70 225.69 1293.76 211.35 1293.77 197.01 C 1293.93 192.85 1293.34 188.51 1291.05 184.95 C 1287.26 178.57 1279.26 175.11 1272.03 176.74 C 1264.01 178.27 1257.50 185.77 1257.51 194.01 C 1257.47 209.03 1257.53 224.05 1257.50 239.08 C 1257.62 242.29 1256.20 245.63 1253.42 247.35 C 1249.51 249.98 1243.65 248.78 1241.12 244.82 C 1239.48 242.56 1239.60 239.65 1239.60 237.00 C 1239.68 222.34 1239.56 207.68 1239.65 193.02 C 1239.95 177.40 1251.79 163.08 1266.95 159.55 Z" />
<path fill="#6c6e86" opacity="1.00" d=" M 1547.54 159.66 C 1551.59 158.76 1555.79 158.06 1559.96 158.51 C 1564.19 159.05 1567.12 163.00 1567.76 167.00 C 1567.36 171.14 1564.36 175.50 1559.98 176.02 C 1556.29 176.42 1552.51 176.45 1549.04 177.87 C 1538.68 181.49 1531.11 191.90 1531.13 202.91 C 1531.09 214.93 1531.17 226.96 1531.11 238.97 C 1531.43 243.95 1527.04 248.58 1522.05 248.39 C 1517.18 248.39 1512.95 243.91 1513.26 239.05 C 1513.27 226.35 1513.17 213.65 1513.31 200.95 C 1513.99 181.61 1528.72 163.98 1547.54 159.66 Z" />
</g>
</svg>
