<?xml version="1.0" encoding="UTF-8" ?>
<!DOCTYPE svg PUBLIC "-//W3C//DTD SVG 1.1//EN" "http://www.w3.org/Graphics/SVG/1.1/DTD/svg11.dtd">
<svg width="88pt" height="88pt" viewBox="0 0 88 88" version="1.1" xmlns="http://www.w3.org/2000/svg">
<g id="#000000ff">
<path fill="#000000" opacity="1.00" d=" M 34.82 1.78 C 37.58 -0.88 41.83 0.44 44.41 2.66 C 49.79 7.12 53.16 13.39 56.52 19.39 C 62.04 20.16 67.46 21.50 72.69 23.42 C 76.09 18.09 78.59 12.29 81.18 6.54 C 80.40 12.86 77.53 18.59 74.78 24.25 C 78.58 27.08 83.71 29.84 84.27 35.07 C 83.96 38.24 80.09 38.22 77.81 39.19 C 81.90 42.28 86.69 45.67 87.68 51.05 C 88.18 53.94 85.90 56.37 83.44 57.46 C 76.60 60.64 68.83 60.22 61.48 60.30 C 58.11 64.65 54.32 68.67 50.00 72.10 C 52.64 77.04 55.81 81.66 59.03 86.23 C 59.21 86.67 59.57 87.56 59.75 88.00 L 59.39 88.00 C 55.30 83.46 51.39 78.73 48.17 73.52 C 43.95 75.46 39.09 78.57 34.36 76.55 C 31.52 74.81 33.41 71.28 33.70 68.74 C 29.19 70.74 24.20 73.01 19.18 71.63 C 16.35 70.84 14.80 67.80 15.09 64.99 C 15.57 57.31 19.73 50.54 23.56 44.09 C 21.50 38.93 19.93 33.60 18.99 28.13 C 12.63 28.02 6.21 28.19 0.00 29.72 L 0.00 29.32 C 5.81 26.36 12.47 26.35 18.82 25.87 C 19.40 21.43 18.98 15.96 22.68 12.73 C 25.72 10.53 28.27 14.17 30.24 16.06 C 30.83 11.13 31.06 5.49 34.82 1.78 M 40.73 10.67 C 37.20 13.48 37.07 18.42 36.34 22.51 C 41.39 20.13 46.91 19.06 52.48 19.03 C 50.29 16.11 48.31 12.89 45.25 10.80 C 43.95 9.79 42.07 9.65 40.73 10.67 M 26.13 17.96 C 23.69 19.79 23.97 23.16 23.39 25.84 C 25.87 25.91 28.35 25.97 30.83 26.05 C 30.55 23.80 30.71 21.42 29.82 19.29 C 29.14 18.17 27.34 16.51 26.13 17.96 M 36.39 24.79 C 36.54 35.06 39.28 45.01 42.23 54.77 C 41.16 55.19 40.10 55.61 39.04 56.04 C 35.15 47.80 33.39 38.84 31.25 30.05 C 29.44 33.16 28.43 36.62 27.56 40.09 C 27.37 36.23 28.39 32.49 30.00 29.03 C 27.79 28.84 25.58 28.65 23.37 28.46 C 24.78 39.76 28.25 52.20 38.30 58.84 C 47.05 53.59 54.44 46.42 61.24 38.88 C 62.22 39.56 63.20 40.24 64.17 40.93 C 58.80 48.26 52.04 54.34 45.63 60.71 C 48.92 60.44 52.17 59.85 55.41 59.28 C 52.24 61.06 48.72 61.97 45.11 62.23 C 46.12 64.17 47.11 66.13 48.10 68.08 C 57.38 61.49 66.15 52.12 66.88 40.17 C 57.90 35.38 48.12 32.39 38.22 30.23 C 38.31 29.35 38.48 27.60 38.56 26.73 C 47.59 28.00 56.43 30.32 65.09 33.13 C 63.24 30.05 60.78 27.42 58.21 24.94 C 61.59 26.71 64.34 29.38 66.56 32.45 C 67.77 30.65 69.00 28.87 70.22 27.08 C 59.74 22.49 47.19 19.49 36.39 24.79 M 68.51 34.69 C 71.33 35.72 75.20 38.81 77.83 35.88 C 78.59 32.33 74.71 30.39 72.62 28.25 C 71.27 30.40 69.90 32.55 68.51 34.69 M 68.89 41.18 C 68.52 46.79 66.65 52.13 63.82 56.96 C 67.67 56.46 71.84 56.43 75.22 54.26 C 76.61 53.41 77.35 51.64 76.77 50.08 C 75.57 46.11 71.90 43.71 68.89 41.18 M 25.24 47.77 C 23.68 51.97 20.40 56.82 22.68 61.28 C 26.72 64.39 32.22 61.79 36.24 59.86 C 31.58 56.84 28.04 52.52 25.24 47.77 M 36.31 69.62 C 38.27 73.35 42.91 70.51 45.79 69.57 C 44.61 67.37 43.42 65.18 42.24 62.98 C 40.03 64.86 36.21 66.15 36.31 69.62 Z" />
</g>
</svg>
