<?xml version="1.0" encoding="UTF-8" ?>
<!DOCTYPE svg PUBLIC "-//W3C//DTD SVG 1.1//EN" "http://www.w3.org/Graphics/SVG/1.1/DTD/svg11.dtd">
<svg width="655pt" height="655pt" viewBox="0 0 655 655" version="1.1" xmlns="http://www.w3.org/2000/svg">
<g id="#000000ff">
<path fill="#000000" opacity="1.00" d=" M 18.51 0.00 L 481.78 0.00 C 491.74 0.87 500.21 9.85 499.98 19.94 C 500.03 59.96 499.99 99.98 500.00 140.00 C 392.32 140.01 284.63 139.98 176.96 140.01 C 171.73 140.44 166.62 141.80 161.57 143.17 C 153.39 146.75 146.75 153.39 143.17 161.58 C 141.36 168.24 139.52 175.06 139.99 182.04 C 140.02 288.03 140.00 394.01 140.00 500.00 C 100.00 499.99 59.99 500.03 19.99 499.98 C 9.97 500.23 1.05 491.91 0.00 482.04 L 0.00 18.22 C 0.85 8.71 8.97 0.67 18.51 0.00 Z" />
<path fill="#000000" opacity="1.00" d=" M 156.49 166.32 C 159.61 160.62 165.20 155.48 171.92 154.98 C 327.61 155.04 483.31 154.95 639.00 155.03 C 646.59 156.35 652.66 162.75 655.00 169.92 L 655.00 640.39 C 652.48 647.16 647.05 652.83 640.07 655.00 L 169.61 655.00 C 162.83 652.42 156.73 646.92 155.10 639.65 C 154.81 636.77 155.03 633.88 155.00 631.00 C 155.00 480.33 155.00 329.66 155.00 178.99 C 155.10 174.74 154.28 170.20 156.49 166.32 Z" />
</g>
</svg>
