<?xml version="1.0" encoding="UTF-8" ?>
<!DOCTYPE svg PUBLIC "-//W3C//DTD SVG 1.1//EN" "http://www.w3.org/Graphics/SVG/1.1/DTD/svg11.dtd">
<svg width="128pt" height="128pt" viewBox="0 0 128 128" version="1.1" xmlns="http://www.w3.org/2000/svg">
<g id="#000000ff">
<path fill="#000000" opacity="1.00" d=" M 0.00 0.00 L 21.05 0.00 C 23.12 4.21 24.90 8.56 26.89 12.80 C 58.25 12.79 89.62 12.79 120.98 12.80 C 124.37 12.41 127.47 14.74 128.00 18.10 L 128.00 20.53 C 119.29 35.13 111.52 50.28 103.05 65.01 C 100.98 68.50 96.93 70.40 92.95 70.36 C 77.11 70.44 61.27 70.36 45.43 70.40 C 43.33 74.30 41.29 78.24 39.22 82.15 C 41.52 83.70 44.38 83.12 46.98 83.21 C 69.71 83.16 92.43 83.20 115.16 83.19 C 115.20 87.46 115.20 91.73 115.18 95.99 C 89.43 95.96 63.67 96.08 37.92 95.94 C 29.68 95.97 23.49 86.91 26.14 79.17 C 28.44 72.84 32.66 67.41 35.82 61.49 C 28.20 45.24 20.48 29.04 12.79 12.81 C 8.53 12.79 4.26 12.79 0.00 12.80 L 0.00 0.00 Z" />
<path fill="#000000" opacity="1.00" d=" M 25.72 116.94 C 24.55 110.01 30.15 102.98 37.13 102.45 C 43.94 101.60 50.65 107.17 51.12 114.00 C 51.94 120.80 46.45 127.23 39.74 128.00 L 36.65 128.00 C 31.18 127.01 26.37 122.58 25.72 116.94 Z" />
<path fill="#000000" opacity="1.00" d=" M 89.72 116.93 C 88.56 110.02 94.13 103.01 101.09 102.46 C 107.88 101.58 114.60 107.11 115.12 113.93 C 115.97 120.76 110.47 127.23 103.73 128.00 L 100.69 128.00 C 95.19 127.03 90.37 122.59 89.72 116.93 Z" />
</g>
</svg>
