<?xml version="1.0" encoding="UTF-8" ?>
<!DOCTYPE svg PUBLIC "-//W3C//DTD SVG 1.1//EN" "http://www.w3.org/Graphics/SVG/1.1/DTD/svg11.dtd">
<svg width="103pt" height="103pt" viewBox="0 0 103 103" version="1.1" xmlns="http://www.w3.org/2000/svg">
<g id="#000000ff">
<path fill="#000000" opacity="1.00" d=" M 1.87 12.10 C -1.27 9.29 0.69 3.33 4.93 3.10 C 9.60 2.94 14.31 2.83 18.97 3.18 C 23.63 4.32 23.13 9.95 23.98 13.65 C 48.32 13.66 72.67 13.64 97.01 13.66 C 99.72 13.33 101.91 15.20 103.00 17.51 L 103.00 20.15 C 100.96 32.39 99.49 44.71 97.60 56.97 C 97.34 59.73 94.72 61.85 91.97 61.64 C 71.97 61.70 51.96 61.63 31.95 61.67 C 32.25 63.44 32.55 65.22 32.86 67.00 C 50.58 67.01 68.31 67.00 86.04 67.00 C 88.69 66.70 91.53 68.25 92.16 70.96 C 93.13 74.17 90.39 77.78 87.03 77.62 C 67.68 77.71 48.32 77.64 28.97 77.65 C 26.16 77.92 23.43 75.82 23.08 73.01 C 19.65 53.25 16.50 33.44 13.12 13.67 C 9.43 13.27 4.93 14.80 1.87 12.10 M 25.71 24.47 C 26.36 27.95 26.93 31.44 27.46 34.94 C 33.08 35.06 38.70 34.98 44.32 34.99 C 44.33 31.49 44.28 27.99 44.40 24.50 C 38.18 24.21 31.93 24.24 25.71 24.47 M 49.59 24.48 C 49.69 27.98 49.65 31.49 49.66 34.99 C 55.00 34.98 60.34 35.05 65.68 34.95 C 65.64 31.41 65.66 27.87 65.65 24.33 C 60.30 24.40 54.94 24.15 49.59 24.48 M 71.03 24.32 C 70.98 27.88 70.99 31.44 71.01 35.00 C 77.33 35.00 83.65 35.00 89.97 34.99 C 90.50 31.45 91.00 27.90 91.51 24.34 C 84.68 24.30 77.86 24.35 71.03 24.32 M 28.41 40.35 C 28.99 43.90 29.58 47.44 30.17 50.99 C 34.88 51.01 39.60 51.00 44.32 51.00 C 44.33 47.48 44.30 43.97 44.39 40.46 C 39.06 40.19 33.73 40.37 28.41 40.35 M 49.77 40.28 C 49.56 43.85 49.68 47.42 49.66 50.99 C 55.00 50.99 60.34 51.03 65.67 50.96 C 65.65 47.42 65.66 43.88 65.65 40.34 C 60.36 40.30 55.06 40.38 49.77 40.28 M 71.03 40.32 C 70.98 43.88 70.99 47.44 71.01 51.00 C 76.57 51.00 82.14 51.02 87.71 50.98 C 88.18 47.43 88.78 43.89 89.14 40.32 C 83.10 40.33 77.06 40.34 71.03 40.32 Z" />
<path fill="#000000" opacity="1.00" d=" M 33.45 83.51 C 39.20 80.96 45.98 87.04 44.07 93.03 C 42.84 98.65 35.10 100.99 30.98 96.96 C 26.52 93.31 28.00 85.35 33.45 83.51 Z" />
<path fill="#000000" opacity="1.00" d=" M 81.39 83.54 C 87.16 80.92 94.00 87.03 92.06 93.06 C 90.81 98.69 83.03 101.00 78.94 96.92 C 74.54 93.27 76.00 85.40 81.39 83.54 Z" />
</g>
</svg>
