<?xml version="1.0" encoding="UTF-8" ?>
<!DOCTYPE svg PUBLIC "-//W3C//DTD SVG 1.1//EN" "http://www.w3.org/Graphics/SVG/1.1/DTD/svg11.dtd">
<svg width="124pt" height="119pt" viewBox="0 0 124 119" version="1.1" xmlns="http://www.w3.org/2000/svg">
<g id="#000000ff">
<path fill="#000000" opacity="1.00" d=" M 64.00 0.00 L 67.56 0.00 C 77.73 0.78 87.70 4.19 95.96 10.20 C 110.20 20.24 119.04 37.39 118.86 54.82 C 100.58 54.88 82.30 54.83 64.02 54.85 C 63.97 36.56 64.01 18.28 64.00 0.00 Z" />
<path fill="#000000" opacity="1.00" d=" M 9.30 33.35 C 19.21 18.39 36.84 8.91 54.82 9.11 C 54.87 26.09 54.85 43.08 54.83 60.06 C 55.01 61.44 54.33 63.26 55.59 64.30 C 68.32 77.09 81.17 89.77 93.84 102.63 C 83.91 112.62 70.09 118.69 55.97 118.83 C 43.13 119.20 30.27 114.80 20.32 106.69 C 8.47 97.23 1.01 82.68 0.00 67.57 L 0.00 60.44 C 0.76 50.81 3.78 41.32 9.30 33.35 Z" />
<path fill="#000000" opacity="1.00" d=" M 68.21 64.00 C 86.62 64.00 105.02 63.98 123.43 64.01 C 123.51 78.49 117.52 92.91 107.11 102.98 C 94.14 89.99 81.17 77.00 68.21 64.00 Z" />
</g>
</svg>
