<?xml version="1.0" encoding="UTF-8" ?>
<!DOCTYPE svg PUBLIC "-//W3C//DTD SVG 1.1//EN" "http://www.w3.org/Graphics/SVG/1.1/DTD/svg11.dtd">
<svg width="118pt" height="118pt" viewBox="0 0 118 118" version="1.1" xmlns="http://www.w3.org/2000/svg">
<g id="#000000ff">
<path fill="#000000" opacity="1.00" d=" M 41.71 19.70 C 44.36 17.00 48.29 16.26 51.94 16.32 C 69.32 16.34 86.70 16.30 104.07 16.34 C 108.12 16.25 112.43 17.68 114.83 21.11 C 117.93 25.16 117.64 30.58 118.00 35.40 L 118.00 54.28 C 117.58 60.14 118.29 67.16 113.63 71.62 C 109.85 75.51 104.03 75.11 99.05 75.04 C 96.38 78.12 93.77 81.25 91.12 84.34 C 88.36 81.26 85.63 78.15 82.92 75.01 C 82.92 65.32 82.92 55.62 82.93 45.92 C 83.00 41.23 81.53 36.26 77.94 33.06 C 75.26 30.63 71.58 29.69 68.03 29.68 C 57.86 29.59 47.69 29.70 37.52 29.62 C 38.02 26.03 38.97 22.27 41.71 19.70 Z" />
<path fill="#000000" opacity="1.00" d=" M 3.16 37.09 C 5.56 33.67 9.87 32.25 13.90 32.34 C 31.30 32.31 48.71 32.34 66.11 32.32 C 69.26 32.31 72.60 32.78 75.17 34.76 C 78.91 37.55 80.43 42.43 80.34 46.94 C 80.31 56.98 80.35 67.02 80.32 77.06 C 80.29 81.26 78.80 85.71 75.42 88.40 C 72.82 90.54 69.35 91.07 66.07 91.05 C 55.73 91.05 45.39 91.05 35.04 91.04 C 31.95 94.12 28.91 97.25 25.81 100.34 C 22.67 97.29 19.60 94.16 16.46 91.11 C 12.43 91.10 7.96 90.96 4.83 88.06 C 0.53 84.40 0.18 78.26 0.00 73.05 L 0.00 51.93 C 0.38 46.93 -0.09 41.28 3.16 37.09 Z" />
</g>
</svg>
