<?xml version="1.0" encoding="UTF-8" ?>
<!DOCTYPE svg PUBLIC "-//W3C//DTD SVG 1.1//EN" "http://www.w3.org/Graphics/SVG/1.1/DTD/svg11.dtd">
<svg width="40pt" height="40pt" viewBox="0 0 40 40" version="1.1" xmlns="http://www.w3.org/2000/svg">
<g id="#000000ff">
<path fill="#000000" opacity="1.00" d=" M 16.52 10.90 C 21.83 5.53 29.38 2.52 36.94 3.06 C 37.47 10.61 34.49 18.18 29.11 23.46 C 29.10 25.92 29.96 28.98 27.84 30.85 C 25.14 33.23 21.91 34.89 18.99 36.98 C 18.78 34.16 18.55 31.35 18.32 28.53 C 14.70 27.96 12.06 25.32 11.45 21.71 C 8.72 21.52 5.99 21.34 3.27 21.17 C 5.28 18.20 6.87 14.92 9.23 12.18 C 11.07 10.09 14.09 10.91 16.52 10.90 M 25.49 9.56 C 22.83 10.56 22.41 14.61 24.82 16.11 C 26.90 17.72 30.25 16.33 30.67 13.77 C 31.38 10.93 28.12 8.28 25.49 9.56 Z" />
<path fill="#000000" opacity="1.00" d=" M 3.91 28.97 C 5.65 27.24 7.41 25.51 9.12 23.73 C 10.07 27.29 12.76 29.87 16.27 30.88 C 14.50 32.59 12.76 34.33 11.03 36.09 C 11.02 35.20 10.99 33.44 10.98 32.56 C 9.21 33.14 7.45 33.72 5.68 34.31 C 6.27 32.55 6.85 30.78 7.44 29.02 C 6.56 29.01 4.79 28.98 3.91 28.97 Z" />
</g>
</svg>
