<?xml version="1.0" encoding="UTF-8" ?>
<!DOCTYPE svg PUBLIC "-//W3C//DTD SVG 1.1//EN" "http://www.w3.org/Graphics/SVG/1.1/DTD/svg11.dtd">
<svg width="128pt" height="128pt" viewBox="0 0 128 128" version="1.1" xmlns="http://www.w3.org/2000/svg">
<g id="#000000ff">
<path fill="#000000" opacity="1.00" d=" M 13.21 0.00 L 115.62 0.00 C 121.88 0.98 126.98 6.10 128.00 12.34 L 128.00 115.59 C 127.02 121.86 121.90 126.97 115.65 128.00 L 12.38 128.00 C 6.13 127.02 1.03 121.92 0.00 115.69 L 0.00 85.33 C 4.69 85.31 9.39 85.37 14.08 85.28 C 14.41 94.76 14.12 104.26 14.22 113.76 C 47.40 113.77 80.58 113.77 113.76 113.76 C 113.77 80.58 113.77 47.40 113.76 14.23 C 80.58 14.21 47.41 14.22 14.23 14.22 C 14.14 23.71 14.36 33.20 14.12 42.69 C 9.41 42.63 4.71 42.67 0.00 42.66 L 0.00 13.24 C 0.50 6.35 6.33 0.52 13.21 0.00 Z" />
<path fill="#000000" opacity="1.00" d=" M 50.50 38.37 C 53.81 35.06 57.11 31.76 60.42 28.45 C 72.31 40.27 84.14 52.14 95.98 64.00 C 84.13 75.85 72.31 87.74 60.39 99.53 C 57.12 96.21 53.81 92.92 50.50 89.62 C 56.60 83.40 62.83 77.32 68.94 71.12 C 45.96 71.10 22.98 71.11 0.00 71.11 L 0.00 56.87 C 22.98 56.87 45.96 56.88 68.94 56.87 C 62.82 50.67 56.60 44.58 50.50 38.37 Z" />
</g>
</svg>
