<?xml version="1.0" encoding="UTF-8" ?>
<!DOCTYPE svg PUBLIC "-//W3C//DTD SVG 1.1//EN" "http://www.w3.org/Graphics/SVG/1.1/DTD/svg11.dtd">
<svg width="110pt" height="110pt" viewBox="0 0 110 110" version="1.1" xmlns="http://www.w3.org/2000/svg">
<g id="#000000ff">
<path fill="#000000" opacity="1.00" d=" M 55.79 1.64 C 63.74 -0.04 71.93 1.10 79.99 0.83 C 80.00 7.06 80.01 13.29 79.98 19.52 C 75.66 19.61 71.32 19.33 67.00 19.62 C 64.78 19.66 63.08 21.77 63.10 23.90 C 62.86 27.95 63.08 32.01 63.02 36.07 C 68.77 36.09 74.52 36.06 80.27 36.08 C 79.62 42.50 78.97 48.91 78.28 55.32 C 73.19 55.34 68.11 55.32 63.03 55.33 C 62.99 73.49 63.03 91.66 63.01 109.82 C 55.54 109.93 48.06 109.63 40.59 110.00 L 40.42 110.00 C 40.27 91.79 40.39 73.57 40.36 55.35 C 36.78 55.34 33.19 55.31 29.60 55.32 C 29.58 48.91 29.59 42.49 29.60 36.08 C 33.18 36.09 36.76 36.06 40.35 36.07 C 40.60 29.72 39.74 23.27 41.13 17.02 C 42.63 9.66 48.36 3.28 55.79 1.64 Z" />
</g>
</svg>
