<?xml version="1.0" encoding="UTF-8" ?>
<!DOCTYPE svg PUBLIC "-//W3C//DTD SVG 1.1//EN" "http://www.w3.org/Graphics/SVG/1.1/DTD/svg11.dtd">
<svg width="113pt" height="113pt" viewBox="0 0 113 113" version="1.1" xmlns="http://www.w3.org/2000/svg">
<g id="#000000ff">
<path fill="#000000" opacity="1.00" d=" M 17.20 23.01 C 22.42 16.98 31.26 14.62 38.85 16.93 C 45.40 18.86 52.16 20.36 59.03 19.95 C 64.87 19.88 70.47 18.17 76.06 16.71 C 83.46 14.76 91.85 17.29 96.84 23.12 C 102.21 29.32 104.82 37.30 107.14 45.02 C 110.02 54.97 112.17 65.15 113.00 75.48 L 113.00 82.49 C 112.47 86.53 112.09 91.03 109.19 94.17 C 106.83 96.56 102.95 96.35 100.17 94.84 C 93.95 91.60 90.10 85.52 85.37 80.60 C 81.42 76.45 75.30 76.33 69.97 76.11 C 60.96 75.95 51.94 75.90 42.94 76.19 C 37.97 76.47 32.29 76.73 28.61 80.56 C 23.92 85.54 20.02 91.59 13.81 94.85 C 10.83 96.50 6.54 96.51 4.31 93.62 C 1.61 90.06 1.25 85.37 1.01 81.07 C 0.75 68.80 3.57 56.73 6.84 44.99 C 9.17 37.24 11.78 29.21 17.20 23.01 M 78.41 33.29 C 75.42 35.00 75.41 39.81 78.40 41.52 C 81.28 43.56 85.67 41.27 85.81 37.79 C 86.27 34.02 81.56 31.08 78.41 33.29 M 22.33 38.50 C 15.34 40.22 12.80 50.03 18.03 54.95 C 22.73 60.22 32.37 57.99 34.34 51.22 C 37.18 44.11 29.61 36.03 22.33 38.50 M 68.46 43.59 C 65.26 44.88 64.57 49.67 67.33 51.77 C 69.93 54.15 74.58 52.49 75.16 49.04 C 76.15 45.38 71.85 41.86 68.46 43.59 M 89.37 43.70 C 86.07 45.20 85.81 50.38 89.00 52.16 C 91.68 54.00 95.76 52.21 96.28 49.02 C 97.26 45.27 92.75 41.73 89.37 43.70 M 78.40 54.52 C 75.41 56.23 75.42 61.03 78.39 62.75 C 81.28 64.79 85.66 62.51 85.81 59.03 C 86.28 55.25 81.56 52.30 78.40 54.52 Z" />
</g>
</svg>
