<?xml version="1.0" encoding="UTF-8" ?>
<!DOCTYPE svg PUBLIC "-//W3C//DTD SVG 1.1//EN" "http://www.w3.org/Graphics/SVG/1.1/DTD/svg11.dtd">
<svg width="106pt" height="97pt" viewBox="0 0 106 97" version="1.1" xmlns="http://www.w3.org/2000/svg">
<g id="#000000ff">
<path fill="#000000" opacity="1.00" d=" M 7.86 0.00 L 97.91 0.00 C 101.96 0.73 105.11 3.90 106.00 7.90 L 106.00 88.86 C 105.28 92.93 102.12 96.09 98.12 97.00 L 8.10 97.00 C 4.05 96.27 0.91 93.10 0.00 89.12 L 0.00 8.10 C 0.73 4.06 3.88 0.90 7.86 0.00 M 12.76 18.71 C 12.08 24.11 12.64 29.62 12.47 35.06 C 12.19 37.46 13.63 40.14 16.16 40.53 C 20.11 40.88 24.09 40.57 28.06 40.66 C 28.05 38.57 28.05 36.48 28.05 34.39 C 24.99 34.47 21.91 34.43 18.85 34.19 C 18.66 30.15 18.54 26.10 18.94 22.08 C 22.88 22.05 26.90 21.49 30.78 22.28 C 31.72 29.19 30.90 36.30 31.18 43.29 C 25.03 44.44 18.70 43.50 12.48 43.80 C 12.48 45.89 12.47 47.97 12.47 50.06 C 19.35 50.01 26.23 50.19 33.11 49.99 C 35.62 49.95 37.59 47.50 37.38 45.04 C 37.34 36.40 37.64 27.72 37.23 19.09 C 35.56 13.90 29.06 16.11 25.01 15.67 C 20.98 16.17 14.80 13.90 12.76 18.71 M 43.20 16.10 C 39.75 17.66 40.61 21.95 40.51 24.99 C 40.76 29.28 40.04 33.66 40.93 37.87 C 43.20 42.35 49.04 40.17 53.01 40.66 C 57.12 40.25 63.84 42.45 65.32 37.01 C 65.62 31.36 65.50 25.67 65.39 20.01 C 65.41 17.22 62.57 15.31 59.95 15.66 C 54.39 15.90 48.68 15.12 43.20 16.10 M 68.59 27.99 C 69.09 32.05 66.84 38.23 71.61 40.36 C 75.74 41.07 79.99 40.49 84.17 40.67 C 84.17 38.57 84.17 36.48 84.17 34.38 C 81.11 34.47 78.05 34.44 74.99 34.18 C 74.94 30.23 74.33 26.15 75.22 22.27 C 79.11 21.50 83.13 22.04 87.07 22.08 C 87.50 28.75 87.28 35.44 87.24 42.12 C 87.55 43.98 85.21 43.76 84.07 43.82 C 78.91 43.82 73.75 43.78 68.59 43.81 C 68.59 45.89 68.59 47.97 68.59 50.06 C 75.41 50.01 82.24 50.18 89.05 50.00 C 91.65 50.05 93.72 47.55 93.51 45.03 C 93.56 37.00 93.53 28.97 93.52 20.94 C 93.79 18.33 91.76 15.60 89.00 15.71 C 83.35 15.68 77.68 15.49 72.05 15.82 C 66.87 17.46 69.01 23.95 68.59 27.99 M 12.52 60.93 C 12.43 66.25 12.41 71.58 12.53 76.91 C 12.52 79.26 14.64 81.37 17.01 81.29 C 22.77 81.43 28.53 81.29 34.29 81.33 C 34.29 79.24 34.29 77.16 34.30 75.07 C 29.19 75.03 24.08 75.17 18.97 74.94 C 18.50 70.91 18.68 66.86 18.84 62.82 C 23.98 62.38 29.14 62.69 34.30 62.59 C 34.29 60.51 34.29 58.43 34.30 56.35 C 28.51 56.37 22.72 56.23 16.94 56.38 C 14.53 56.34 12.43 58.54 12.52 60.93 M 40.45 56.62 C 38.69 57.25 37.41 59.04 37.46 60.93 C 37.37 66.23 37.35 71.54 37.46 76.84 C 37.43 79.22 39.56 81.38 41.96 81.29 C 47.31 81.37 52.68 81.41 58.03 81.27 C 60.26 81.26 62.25 79.24 62.27 77.02 C 62.44 71.70 62.38 66.36 62.31 61.03 C 62.47 58.21 59.75 56.03 57.04 56.34 C 51.52 56.48 45.94 55.97 40.45 56.62 M 65.50 61.14 C 65.40 67.87 65.50 74.60 65.48 81.33 C 67.55 81.33 69.62 81.33 71.69 81.34 C 71.78 75.17 71.56 68.99 71.84 62.82 C 73.35 62.73 74.86 62.63 76.38 62.52 C 76.40 68.79 76.37 75.06 76.40 81.34 C 78.46 81.33 80.53 81.33 82.60 81.34 C 82.63 75.09 82.60 68.85 82.62 62.60 C 84.18 62.61 85.73 62.61 87.29 62.60 C 87.32 68.85 87.25 75.10 87.33 81.35 C 89.39 81.34 91.46 81.33 93.52 81.33 C 93.54 73.00 93.52 64.67 93.53 56.34 C 85.66 56.38 77.78 56.24 69.91 56.39 C 67.42 56.34 65.36 58.70 65.50 61.14 Z" />
<path fill="#000000" opacity="1.00" d=" M 46.92 22.15 C 50.88 21.99 54.94 21.50 58.85 22.29 C 59.71 26.18 59.16 30.28 59.02 34.24 C 55.00 34.49 50.98 34.50 46.97 34.22 C 46.64 30.20 46.69 26.17 46.92 22.15 Z" />
<path fill="#000000" opacity="1.00" d=" M 43.81 62.79 C 47.85 62.51 51.90 62.46 55.94 62.81 C 56.00 66.74 56.61 70.81 55.73 74.66 C 51.88 75.59 47.80 74.92 43.86 74.91 C 43.50 70.87 43.58 66.82 43.81 62.79 Z" />
</g>
</svg>
