<?xml version="1.0" encoding="UTF-8" ?>
<!DOCTYPE svg PUBLIC "-//W3C//DTD SVG 1.1//EN" "http://www.w3.org/Graphics/SVG/1.1/DTD/svg11.dtd">
<svg width="112pt" height="112pt" viewBox="0 0 112 112" version="1.1" xmlns="http://www.w3.org/2000/svg">
<g id="#000000ff">
<path fill="#000000" opacity="1.00" d=" M 8.22 29.26 C 16.20 14.37 31.31 3.49 48.03 0.88 C 64.45 -1.96 82.10 3.05 94.23 14.57 C 89.08 19.81 83.85 24.97 78.67 30.18 C 70.60 22.61 58.53 19.93 47.98 23.14 C 34.51 26.99 24.46 40.04 23.91 54.00 C 23.05 67.95 31.82 81.84 44.78 87.07 C 54.22 90.94 65.44 90.18 74.35 85.26 C 81.17 81.52 85.99 74.58 87.40 66.95 C 77.29 66.92 67.19 66.96 57.08 66.94 C 57.07 59.72 57.07 52.49 57.08 45.27 C 74.51 45.24 91.95 45.24 109.38 45.28 C 112.21 61.57 109.29 79.51 98.73 92.62 C 83.40 111.88 54.11 116.22 32.57 105.52 C 18.06 98.43 6.96 84.74 3.17 69.03 C -0.17 55.75 1.65 41.27 8.22 29.26 Z" />
</g>
</svg>
