<?xml version="1.0" encoding="UTF-8" ?>
<!DOCTYPE svg PUBLIC "-//W3C//DTD SVG 1.1//EN" "http://www.w3.org/Graphics/SVG/1.1/DTD/svg11.dtd">
<svg width="113pt" height="113pt" viewBox="0 0 113 113" version="1.1" xmlns="http://www.w3.org/2000/svg">
<g id="#000000ff">
<path fill="#000000" opacity="1.00" d=" M 9.77 9.73 C 15.82 3.66 24.53 0.84 32.99 0.84 C 49.00 0.83 65.02 0.79 81.04 0.86 C 91.87 0.85 102.71 6.43 108.14 15.95 C 112.55 23.01 112.70 31.60 113.00 39.65 L 113.00 71.71 C 112.67 80.83 112.96 90.77 107.67 98.71 C 101.80 108.38 90.20 112.92 79.24 113.00 L 35.16 113.00 C 27.05 112.89 18.59 111.06 12.20 105.79 C 4.72 99.95 0.79 90.44 0.70 81.08 C 0.63 65.04 0.67 49.00 0.69 32.96 C 0.71 24.48 3.61 15.75 9.77 9.73 M 30.30 11.39 C 25.02 11.91 19.65 13.99 16.16 18.13 C 12.39 22.46 10.96 28.35 11.04 33.99 C 11.06 49.36 11.03 64.72 11.05 80.09 C 11.03 86.11 12.83 92.44 17.30 96.68 C 21.74 100.88 28.03 102.50 34.01 102.42 C 49.34 102.41 64.67 102.43 80.00 102.41 C 85.93 102.41 92.08 100.57 96.37 96.33 C 100.71 92.16 102.73 86.05 102.69 80.13 C 102.71 64.71 102.70 49.30 102.70 33.88 C 102.78 27.91 100.85 21.77 96.68 17.41 C 92.17 12.69 85.40 11.02 79.06 11.21 C 62.81 11.34 46.54 10.99 30.30 11.39 Z" />
<path fill="#000000" opacity="1.00" d=" M 83.38 21.34 C 87.46 18.70 93.44 22.15 93.23 26.99 C 93.46 31.84 87.49 35.33 83.40 32.69 C 79.08 30.47 79.08 23.58 83.38 21.34 Z" />
<path fill="#000000" opacity="1.00" d=" M 49.41 28.63 C 64.06 24.40 80.54 34.14 84.42 48.76 C 88.66 62.41 80.79 78.21 67.52 83.33 C 54.97 88.73 39.12 83.61 32.11 71.88 C 24.75 60.49 27.01 44.12 37.26 35.22 C 40.69 32.08 44.91 29.81 49.41 28.63 M 52.42 38.58 C 45.32 40.20 39.52 46.36 38.40 53.57 C 36.41 63.77 44.66 74.32 54.99 75.00 C 66.01 76.34 76.42 65.97 75.08 54.95 C 74.41 44.14 62.93 35.74 52.42 38.58 Z" />
</g>
</svg>
