<?xml version="1.0" encoding="UTF-8" ?>
<!DOCTYPE svg PUBLIC "-//W3C//DTD SVG 1.1//EN" "http://www.w3.org/Graphics/SVG/1.1/DTD/svg11.dtd">
<svg width="40pt" height="40pt" viewBox="0 0 40 40" version="1.1" xmlns="http://www.w3.org/2000/svg">
<g id="#000000ff">
<path fill="#000000" opacity="1.00" d=" M 9.09 3.91 C 9.05 2.44 10.47 1.08 11.92 1.09 C 16.65 0.88 21.40 0.98 26.14 1.03 C 27.90 0.81 29.90 2.03 29.88 3.95 C 30.10 7.60 30.23 11.29 29.74 14.92 C 28.42 17.92 24.57 16.77 22.00 17.04 C 21.94 22.42 22.11 27.80 21.96 33.18 C 22.08 34.68 21.32 36.24 19.84 36.77 C 16.92 37.21 13.95 36.99 11.00 36.99 C 11.00 35.33 11.00 33.66 11.00 32.00 C 13.00 32.01 15.00 31.99 17.00 32.00 C 17.00 30.33 17.00 28.67 17.00 27.00 C 15.00 27.01 13.00 26.99 11.00 27.00 C 11.00 25.33 11.00 23.67 11.00 22.00 C 13.00 22.00 15.00 21.99 17.00 22.00 C 17.00 20.34 17.00 18.69 17.00 17.04 C 14.41 16.76 10.58 17.93 9.21 14.94 C 8.81 11.28 8.91 7.58 9.09 3.91 M 14.00 6.00 C 14.00 8.00 14.00 10.00 14.00 12.00 C 17.67 12.00 21.33 12.00 25.00 12.00 C 24.99 10.00 24.99 8.00 25.00 6.00 C 21.33 6.00 17.67 6.00 14.00 6.00 Z" />
</g>
</svg>
