<?xml version="1.0" encoding="UTF-8" ?>
<!DOCTYPE svg PUBLIC "-//W3C//DTD SVG 1.1//EN" "http://www.w3.org/Graphics/SVG/1.1/DTD/svg11.dtd">
<svg width="106pt" height="106pt" viewBox="0 0 106 106" version="1.1" xmlns="http://www.w3.org/2000/svg">
<g id="#000000ff">
<path fill="#000000" opacity="1.00" d=" M 37.56 12.19 C 38.10 6.28 43.16 1.16 49.07 0.59 C 53.67 0.20 58.58 0.99 62.42 3.69 C 67.33 7.48 69.79 13.88 69.57 19.99 C 69.49 28.36 71.95 37.03 77.77 43.22 C 83.71 49.48 87.04 57.81 88.51 66.21 C 88.76 69.06 89.34 72.58 87.03 74.79 C 85.21 76.67 83.61 78.84 81.37 80.26 C 79.09 81.41 75.54 81.45 74.14 78.93 C 73.06 77.49 72.17 75.91 70.97 74.56 C 67.38 76.56 68.82 81.23 69.35 84.48 C 70.40 88.96 69.05 93.48 69.21 97.97 C 69.36 101.66 73.71 103.78 76.88 102.16 C 80.84 100.16 83.84 96.52 88.20 95.23 C 91.19 93.85 95.39 93.46 96.72 89.97 C 94.81 88.19 92.30 87.31 90.21 85.82 C 87.75 83.63 88.35 79.98 88.41 77.06 C 89.65 80.11 89.99 83.98 93.16 85.74 C 94.74 87.16 97.67 88.06 97.62 90.58 C 96.41 93.67 92.89 94.78 90.21 96.27 C 86.18 98.01 82.76 100.77 79.45 103.59 C 77.21 105.69 73.87 105.81 71.02 105.19 C 67.73 104.55 66.73 99.95 63.13 100.12 C 57.48 99.87 51.80 99.89 46.17 100.45 C 41.96 100.81 39.19 104.99 34.99 105.19 C 29.45 104.42 24.47 101.49 18.91 100.71 C 15.42 99.63 10.31 100.31 8.37 96.63 C 8.73 93.48 10.41 90.52 9.74 87.26 C 10.15 86.59 10.57 85.93 11.01 85.28 C 12.83 89.20 10.93 92.91 10.18 96.75 C 14.25 98.55 18.78 98.77 23.03 99.94 C 27.02 100.83 30.83 102.68 34.98 102.81 C 37.67 102.83 40.70 100.99 40.64 98.01 C 40.65 93.32 37.69 89.42 35.31 85.64 C 32.48 81.49 29.95 76.99 26.06 73.73 C 24.52 72.20 22.27 72.88 20.37 72.95 C 20.41 70.49 20.40 67.91 21.70 65.72 C 23.95 61.69 25.32 57.28 27.01 53.00 C 29.50 46.31 35.92 41.89 38.06 35.05 C 38.02 27.44 36.82 19.81 37.56 12.19 M 41.78 16.77 C 39.22 19.53 40.04 23.77 41.83 26.72 C 41.86 26.29 41.92 25.44 41.95 25.01 C 41.34 22.87 40.27 18.69 43.94 19.07 C 46.43 20.57 45.37 23.97 45.71 26.38 C 45.44 25.97 44.90 25.15 44.64 24.74 C 43.07 26.43 41.34 27.95 39.64 29.51 C 41.84 31.25 43.77 34.25 46.97 33.79 C 51.49 33.56 55.95 32.08 59.65 29.44 C 59.76 29.79 59.97 30.49 60.08 30.84 C 54.64 33.04 49.24 35.88 43.17 35.41 C 44.91 36.35 46.65 37.88 48.78 37.50 C 52.84 36.95 56.00 33.72 60.15 33.46 C 56.19 36.24 52.26 39.17 47.94 41.35 C 44.45 41.83 43.01 37.59 41.08 35.42 C 40.03 40.29 36.03 44.41 37.03 49.65 C 35.10 52.64 33.27 55.73 32.14 59.13 C 30.56 63.40 31.30 68.07 30.25 72.45 C 26.80 69.54 26.99 64.93 26.10 60.91 C 25.94 64.43 25.61 68.37 27.64 71.47 C 31.86 76.51 37.82 79.72 42.29 84.48 C 44.02 86.89 41.44 89.03 39.74 90.45 C 41.91 93.36 43.02 96.80 43.80 100.29 C 45.01 97.27 43.62 94.29 42.17 91.63 C 46.68 94.04 51.88 95.19 56.88 93.60 C 61.08 92.92 63.85 89.53 66.60 86.62 C 67.78 91.11 64.38 95.36 65.92 99.71 C 67.07 96.23 67.93 92.62 68.10 88.95 C 68.25 84.89 66.72 80.81 67.68 76.79 C 68.06 75.00 69.92 74.30 71.20 73.26 C 73.50 69.34 78.14 69.89 81.86 71.03 C 80.73 70.34 79.60 69.65 78.48 68.95 C 80.37 60.83 77.74 51.99 71.72 46.22 C 75.46 52.56 79.54 59.88 77.55 67.48 C 77.15 69.67 74.74 70.07 72.89 69.75 C 71.36 65.30 72.32 60.43 70.89 55.94 C 70.02 51.97 67.23 48.82 66.05 44.96 C 65.17 42.08 63.72 39.43 62.14 36.88 C 60.23 34.34 61.73 31.15 61.64 28.29 C 59.11 26.80 56.28 25.90 53.62 24.69 C 53.92 23.04 53.76 21.20 54.63 19.72 C 55.79 19.26 56.98 18.87 58.19 18.54 C 59.44 20.92 59.86 23.55 59.52 26.22 C 60.47 25.65 62.18 25.61 61.91 24.07 C 62.15 21.36 61.77 18.16 59.51 16.34 C 56.95 14.33 52.56 15.85 51.86 19.04 C 51.45 21.41 51.72 23.83 51.76 26.22 C 51.58 25.56 51.23 24.22 51.05 23.55 C 49.83 23.54 48.62 23.52 47.40 23.51 C 46.96 21.41 46.95 19.11 45.77 17.26 C 44.94 15.91 42.82 15.38 41.78 16.77 Z" />
<path fill="#000000" opacity="1.00" d=" M 20.48 75.47 C 19.69 77.50 19.77 80.37 17.48 81.40 C 15.39 82.21 13.10 82.09 10.90 82.30 C 10.29 83.53 9.66 84.77 8.92 85.93 C 8.99 84.97 9.14 83.06 9.21 82.10 C 10.77 80.49 13.51 81.00 15.54 80.26 C 18.09 79.91 19.13 77.28 20.48 75.47 Z" />
</g>
</svg>
