<?xml version="1.0" encoding="UTF-8" ?>
<!DOCTYPE svg PUBLIC "-//W3C//DTD SVG 1.1//EN" "http://www.w3.org/Graphics/SVG/1.1/DTD/svg11.dtd">
<svg width="127pt" height="127pt" viewBox="0 0 127 127" version="1.1" xmlns="http://www.w3.org/2000/svg">
<g id="#000000ff">
<path fill="#000000" opacity="1.00" d=" M 87.30 0.00 L 88.45 0.00 C 89.03 9.13 85.22 18.41 78.07 24.19 C 74.03 28.00 68.43 29.68 62.93 29.25 C 62.90 24.86 63.39 20.37 65.33 16.37 C 69.39 7.72 78.00 1.73 87.30 0.00 Z" />
<path fill="#000000" opacity="1.00" d=" M 28.17 35.20 C 33.52 32.04 39.84 30.78 46.01 30.88 C 51.65 31.47 56.55 34.68 61.99 36.02 C 66.02 36.98 69.75 34.69 73.42 33.40 C 80.55 30.54 88.66 29.42 96.07 31.91 C 102.02 33.93 107.81 37.43 111.24 42.84 C 106.21 46.27 101.83 50.86 99.66 56.63 C 95.65 66.39 97.75 78.35 104.98 86.06 C 107.65 89.04 111.14 91.07 114.61 92.95 C 111.17 103.34 105.37 112.94 97.77 120.82 C 94.97 123.74 91.18 125.90 87.06 126.04 C 79.31 126.44 72.81 120.48 64.98 121.27 C 57.57 121.15 51.34 126.32 43.97 126.24 C 39.20 126.20 35.49 122.79 32.38 119.57 C 24.79 111.57 19.28 101.71 15.83 91.27 C 12.25 80.29 10.56 68.36 13.12 56.97 C 15.06 48.16 20.37 39.91 28.17 35.20 Z" />
</g>
</svg>
