<?xml version="1.0" encoding="UTF-8" ?>
<!DOCTYPE svg PUBLIC "-//W3C//DTD SVG 1.1//EN" "http://www.w3.org/Graphics/SVG/1.1/DTD/svg11.dtd">
<svg width="128pt" height="128pt" viewBox="0 0 128 128" version="1.1" xmlns="http://www.w3.org/2000/svg">
<g id="#000000ff">
<path fill="#000000" opacity="1.00" d=" M 60.55 0.00 L 68.60 0.00 C 82.04 1.11 96.52 3.73 106.79 13.15 C 113.64 19.24 112.64 29.46 110.94 37.55 C 118.32 40.94 126.49 45.94 128.00 54.63 L 128.00 65.11 C 126.79 73.54 119.01 78.47 112.03 81.96 C 111.15 83.93 110.24 85.89 109.32 87.85 C 112.90 93.45 112.29 100.40 111.63 106.69 C 109.59 114.75 101.71 119.41 94.57 122.47 C 86.41 125.87 77.60 127.24 68.85 128.00 L 59.99 128.00 C 46.13 126.96 31.03 124.30 20.65 114.28 C 15.23 109.35 15.68 101.55 16.11 94.88 C 16.28 92.41 17.49 90.20 18.51 88.00 C 14.81 81.47 15.55 73.48 17.04 66.41 C 9.69 63.03 1.54 58.08 0.00 49.43 L 0.00 38.99 C 1.14 30.53 8.93 25.54 15.94 22.07 C 17.34 17.34 20.32 13.21 24.40 10.45 C 34.90 3.10 47.99 0.73 60.55 0.00 M 52.53 4.73 C 42.19 6.21 31.26 9.06 23.56 16.54 C 20.10 19.72 18.71 25.31 21.79 29.23 C 27.59 36.99 37.44 40.17 46.51 42.25 C 62.82 45.36 80.40 44.60 95.63 37.56 C 101.04 34.77 107.45 30.72 107.97 24.04 C 107.67 18.12 102.34 14.18 97.63 11.47 C 83.91 4.20 67.73 3.01 52.53 4.73 M 4.10 41.05 C 5.76 48.44 13.33 52.31 19.72 55.05 C 37.44 61.66 57.56 61.62 75.37 55.37 C 60.32 56.90 44.56 55.72 30.70 49.26 C 25.39 46.65 20.09 43.09 17.38 37.65 C 15.60 34.23 16.07 30.27 15.95 26.56 C 10.53 29.58 3.54 33.94 4.10 41.05 M 108.54 41.11 C 105.03 44.96 100.57 47.71 95.92 49.98 C 94.65 54.96 91.25 59.08 87.01 61.87 C 77.19 68.49 65.21 70.82 53.60 71.77 C 68.59 76.84 85.03 77.25 100.38 73.58 C 107.64 71.67 115.04 68.84 120.42 63.41 C 123.15 60.69 125.04 56.42 123.23 52.69 C 120.39 46.81 114.22 43.68 108.54 41.11 M 20.96 67.90 C 19.53 71.15 19.85 75.00 22.17 77.76 C 27.03 83.92 34.67 87.00 42.00 89.14 C 58.13 93.39 75.62 92.98 91.38 87.37 C 78.39 88.72 65.00 87.96 52.58 83.68 C 45.43 81.19 38.38 77.35 33.97 71.00 C 29.57 70.22 25.22 69.22 20.96 67.90 M 21.35 100.53 C 25.36 106.82 32.58 110.05 39.39 112.37 C 54.43 117.01 70.82 117.15 86.01 113.14 C 93.72 110.85 102.03 107.57 106.62 100.56 C 108.59 97.70 108.07 94.09 106.53 91.17 C 94.78 100.96 78.92 103.82 64.03 103.97 C 49.10 103.82 33.20 101.00 21.38 91.23 C 19.93 94.14 19.42 97.69 21.35 100.53 Z" />
<path fill="#000000" opacity="1.00" d=" M 60.14 7.99 C 62.66 7.99 65.18 7.99 67.70 7.99 C 67.71 8.68 67.73 10.08 67.74 10.77 C 73.62 11.23 80.10 12.05 84.34 16.62 C 80.88 17.32 77.40 17.90 73.91 18.40 C 69.79 14.59 63.16 13.70 58.18 16.21 C 56.49 16.76 57.13 18.97 58.63 19.23 C 65.89 21.44 73.69 21.29 80.86 23.85 C 82.91 24.68 85.25 25.83 85.98 28.08 C 86.64 30.51 84.75 32.67 82.77 33.75 C 78.21 36.35 72.83 36.64 67.72 37.10 C 67.72 38.31 67.72 39.52 67.72 40.74 C 65.19 40.74 62.67 40.74 60.15 40.74 C 60.14 39.53 60.13 38.32 60.12 37.11 C 53.51 36.61 45.77 35.89 41.54 30.04 C 45.39 29.55 49.25 29.13 53.12 28.79 C 56.37 33.06 62.27 32.93 67.11 32.64 C 69.40 32.62 71.46 31.53 73.10 29.98 C 72.12 28.98 71.10 27.86 69.63 27.64 C 62.92 26.03 55.88 25.94 49.32 23.71 C 47.11 22.84 44.49 21.60 43.92 19.05 C 43.51 16.86 45.25 15.07 46.94 14.00 C 50.86 11.53 55.62 11.27 60.10 10.78 C 60.11 10.08 60.13 8.68 60.14 7.99 Z" />
</g>
</svg>
