<?xml version="1.0" encoding="UTF-8" ?>
<!DOCTYPE svg PUBLIC "-//W3C//DTD SVG 1.1//EN" "http://www.w3.org/Graphics/SVG/1.1/DTD/svg11.dtd">
<svg width="128pt" height="128pt" viewBox="0 0 128 128" version="1.1" xmlns="http://www.w3.org/2000/svg">
<g id="#000000ff">
<path fill="#000000" opacity="1.00" d=" M 64.44 2.14 C 66.49 1.63 65.95 4.00 65.16 5.00 C 62.64 8.98 61.04 13.44 60.33 18.09 C 70.62 17.08 81.27 19.28 89.89 25.13 C 103.88 34.24 111.98 51.38 110.40 67.97 C 109.59 79.78 103.47 90.35 96.80 99.81 C 89.38 109.97 79.94 118.66 69.14 125.12 C 68.40 125.64 66.17 126.65 66.29 124.91 C 66.16 123.68 67.25 122.71 67.69 121.63 C 69.90 118.09 71.09 114.04 71.67 109.92 C 57.15 111.54 42.01 105.74 32.66 94.44 C 21.00 81.01 18.26 60.79 25.65 44.64 C 33.78 26.96 47.36 11.58 64.44 2.14 M 63.37 46.34 C 54.71 47.69 48.12 56.27 48.79 64.97 C 48.98 73.98 56.85 82.19 66.00 82.11 C 76.35 82.47 84.97 72.13 83.48 62.04 C 82.70 52.38 73.02 44.47 63.37 46.34 Z" />
</g>
</svg>
