<?xml version="1.0" encoding="UTF-8" ?>
<!DOCTYPE svg PUBLIC "-//W3C//DTD SVG 1.1//EN" "http://www.w3.org/Graphics/SVG/1.1/DTD/svg11.dtd">
<svg width="108pt" height="108pt" viewBox="0 0 108 108" version="1.1" xmlns="http://www.w3.org/2000/svg">
<g id="#000000ff">
<path fill="#000000" opacity="1.00" d=" M 18.22 1.34 C 20.05 0.63 22.05 0.66 23.99 0.63 C 37.02 0.68 50.05 0.65 63.08 0.64 C 64.56 0.29 65.52 1.58 66.47 2.43 C 76.27 12.34 86.18 22.13 96.00 32.01 C 97.05 33.03 96.51 34.68 96.69 35.98 C 96.59 56.33 96.75 76.70 96.61 97.05 C 96.57 102.58 91.56 107.44 86.03 107.30 C 65.05 107.37 44.06 107.30 23.07 107.34 C 17.18 107.93 11.36 103.05 11.37 97.04 C 11.27 68.69 11.36 40.33 11.32 11.98 C 11.05 7.43 13.91 2.91 18.22 1.34 M 59.31 8.73 C 59.33 18.48 59.35 28.22 59.30 37.97 C 69.08 38.04 78.87 37.98 88.65 38.00 C 78.86 28.26 69.18 18.40 59.31 8.73 Z" />
</g>
</svg>
