<?xml version="1.0" encoding="UTF-8" ?>
<!DOCTYPE svg PUBLIC "-//W3C//DTD SVG 1.1//EN" "http://www.w3.org/Graphics/SVG/1.1/DTD/svg11.dtd">
<svg width="96pt" height="96pt" viewBox="0 0 96 96" version="1.1" xmlns="http://www.w3.org/2000/svg">
<g id="#000000ff">
<path fill="#000000" opacity="1.00" d=" M 44.90 0.00 L 50.94 0.00 C 64.25 0.84 77.47 6.57 86.20 16.83 C 91.72 23.13 95.03 31.16 96.00 39.45 L 96.00 44.55 C 95.20 54.51 88.59 63.80 79.20 67.40 C 72.87 70.17 65.84 69.01 59.15 69.43 C 54.90 69.59 51.48 73.78 51.93 77.96 C 52.13 81.74 56.24 84.12 56.00 88.03 C 56.10 91.92 53.01 95.09 49.37 96.00 L 45.70 96.00 C 32.51 95.31 19.69 89.05 11.24 78.86 C 4.63 71.11 0.82 61.19 0.00 51.07 L 0.00 45.16 C 0.76 34.50 4.95 24.06 12.13 16.10 C 20.38 6.68 32.45 0.94 44.90 0.00 M 31.34 11.36 C 27.79 12.90 25.80 17.22 26.97 20.91 C 28.06 24.92 32.58 27.52 36.59 26.42 C 40.87 25.46 43.68 20.61 42.34 16.42 C 41.16 11.87 35.57 9.28 31.34 11.36 M 58.24 11.27 C 52.81 13.25 51.61 21.32 56.22 24.81 C 60.60 28.80 68.50 25.87 69.22 19.97 C 70.51 14.05 63.72 8.66 58.24 11.27 M 15.40 32.68 C 9.70 34.90 9.04 43.65 14.32 46.72 C 19.01 50.07 26.29 46.53 26.61 40.79 C 27.46 34.96 20.70 30.02 15.40 32.68 M 74.37 32.55 C 70.58 33.96 68.41 38.49 69.67 42.33 C 70.77 46.25 75.18 48.82 79.13 47.79 C 83.39 46.92 86.29 42.17 85.07 37.98 C 84.04 33.45 78.64 30.70 74.37 32.55 Z" />
</g>
</svg>
