<?xml version="1.0" encoding="UTF-8" ?>
<!DOCTYPE svg PUBLIC "-//W3C//DTD SVG 1.1//EN" "http://www.w3.org/Graphics/SVG/1.1/DTD/svg11.dtd">
<svg width="40pt" height="40pt" viewBox="0 0 40 40" version="1.1" xmlns="http://www.w3.org/2000/svg">
<g id="#000000ff">
<path fill="#000000" opacity="1.00" d=" M 4.62 10.63 C 8.04 7.71 11.57 4.91 15.02 2.00 C 18.34 2.00 21.66 2.00 24.99 2.00 C 28.43 4.92 31.97 7.72 35.40 10.65 C 36.51 11.41 36.86 12.73 37.39 13.89 C 25.80 14.08 14.21 14.07 2.62 13.89 C 3.14 12.72 3.49 11.39 4.62 10.63 M 6.63 11.99 C 15.53 12.00 24.43 12.00 33.33 12.00 C 30.23 9.33 27.11 6.66 24.00 4.00 C 21.34 4.00 18.67 4.00 16.01 4.00 C 12.88 6.66 9.75 9.32 6.63 11.99 Z" />
<path fill="#000000" opacity="1.00" d=" M 10.21 10.73 C 12.28 8.94 14.35 7.15 16.41 5.35 C 18.80 5.34 21.19 5.34 23.59 5.35 C 25.64 7.15 27.70 8.94 29.77 10.73 C 23.25 10.73 16.73 10.74 10.21 10.73 Z" />
<path fill="#000000" opacity="1.00" d=" M 6.00 16.00 C 7.33 16.00 8.67 16.00 10.00 16.00 C 10.00 20.67 10.00 25.33 10.00 30.00 C 8.67 30.00 7.33 30.00 6.00 30.00 C 6.00 25.33 6.00 20.67 6.00 16.00 Z" />
<path fill="#000000" opacity="1.00" d=" M 12.00 16.00 C 13.33 16.00 14.67 16.00 16.00 16.00 C 16.00 20.67 16.00 25.33 16.00 30.00 C 14.67 30.00 13.33 30.00 12.00 30.00 C 12.00 25.33 12.00 20.67 12.00 16.00 Z" />
<path fill="#000000" opacity="1.00" d=" M 18.00 16.00 C 19.33 16.00 20.67 16.00 22.00 16.00 C 22.00 20.67 22.00 25.33 22.00 30.00 C 20.67 30.00 19.33 30.00 18.00 30.00 C 18.00 25.33 18.00 20.67 18.00 16.00 Z" />
<path fill="#000000" opacity="1.00" d=" M 24.00 16.00 C 25.33 16.00 26.67 16.00 28.00 16.00 C 28.00 20.67 28.00 25.33 28.00 30.00 C 26.67 30.00 25.33 30.00 24.00 30.00 C 24.00 25.33 24.00 20.67 24.00 16.00 Z" />
<path fill="#000000" opacity="1.00" d=" M 30.00 16.00 C 31.33 16.00 32.67 16.00 34.00 16.00 C 34.00 20.67 34.00 25.33 34.00 30.00 C 32.67 30.00 31.33 30.00 30.00 30.00 C 30.00 25.33 30.00 20.67 30.00 16.00 Z" />
<path fill="#000000" opacity="1.00" d=" M 3.02 32.05 C 5.02 32.02 7.01 31.99 9.00 31.99 C 9.00 33.66 9.00 35.34 9.00 37.01 C 7.01 37.01 5.02 36.98 3.04 36.95 C 3.02 35.31 3.02 33.68 3.02 32.05 Z" />
<path fill="#000000" opacity="1.00" d=" M 10.00 32.00 C 16.67 32.00 23.33 32.00 30.00 32.00 L 30.00 33.00 C 23.33 33.00 16.67 33.00 10.00 33.00 L 10.00 32.00 Z" />
<path fill="#000000" opacity="1.00" d=" M 31.00 31.99 C 32.99 31.99 34.98 32.01 36.97 32.04 C 36.98 33.68 36.98 35.31 36.96 36.95 C 34.98 36.98 32.99 37.01 31.00 37.01 C 31.00 35.34 31.00 33.66 31.00 31.99 Z" />
<path fill="#000000" opacity="1.00" d=" M 10.00 34.00 C 16.67 34.00 23.33 34.00 30.00 34.00 L 30.00 35.00 C 23.33 35.00 16.67 35.00 10.00 35.00 L 10.00 34.00 Z" />
<path fill="#000000" opacity="1.00" d=" M 10.00 36.00 C 16.67 36.00 23.33 36.00 30.00 36.00 L 30.00 37.00 C 23.33 37.00 16.67 37.00 10.00 37.00 L 10.00 36.00 Z" />
</g>
</svg>
