<?xml version="1.0" encoding="UTF-8" ?>
<!DOCTYPE svg PUBLIC "-//W3C//DTD SVG 1.1//EN" "http://www.w3.org/Graphics/SVG/1.1/DTD/svg11.dtd">
<svg width="800pt" height="800pt" viewBox="0 0 800 800" version="1.1" xmlns="http://www.w3.org/2000/svg">
<g id="#000000ff">
<path fill="#000000" opacity="1.00" d=" M 300.01 100.00 C 339.22 106.98 377.78 117.22 415.96 128.47 C 442.39 136.43 468.87 144.24 494.95 153.30 C 526.23 164.05 557.34 178.25 581.15 201.79 C 593.99 214.23 604.14 229.38 610.92 245.91 C 619.08 265.65 622.64 286.96 624.14 308.17 C 625.39 327.73 625.57 347.51 622.55 366.93 C 619.39 386.10 612.80 405.19 600.63 420.57 C 589.47 434.73 573.02 444.65 555.19 447.53 C 539.49 449.95 523.44 448.12 507.98 444.94 C 496.76 442.55 485.71 439.22 475.25 434.49 C 475.02 365.01 475.24 295.52 475.14 226.04 C 475.19 217.03 470.58 207.96 462.80 203.24 C 456.32 199.19 447.87 198.81 440.90 201.78 C 431.40 205.75 424.93 215.74 425.02 226.01 C 424.93 384.01 424.94 542.00 424.84 700.00 C 383.23 686.59 341.61 673.22 300.00 659.83 C 300.00 473.22 299.99 286.61 300.01 100.00 Z" />
<path fill="#000000" opacity="1.00" d=" M 71.74 507.70 C 138.96 483.34 207.07 461.51 275.00 439.23 C 275.00 463.81 275.01 488.39 275.00 512.98 C 228.57 527.91 182.09 542.72 136.08 558.87 C 128.90 561.70 120.74 564.63 116.59 571.61 C 114.26 575.91 117.75 580.56 121.59 582.44 C 131.49 587.62 142.96 588.26 153.92 588.83 C 166.62 588.90 179.40 587.81 191.75 584.77 C 199.23 582.83 206.45 580.05 213.80 577.71 C 234.12 571.14 254.44 564.49 275.15 559.23 C 275.16 581.10 275.17 602.97 275.15 624.85 C 249.98 629.02 224.48 631.00 199.00 631.67 C 152.19 632.95 105.20 626.02 60.70 611.50 C 44.10 606.58 27.26 600.42 14.04 588.86 C 6.17 581.85 -0.52 572.04 0.13 561.06 C 0.52 551.06 7.06 542.50 14.83 536.76 C 32.15 524.17 51.89 515.46 71.74 507.70 Z" />
<path fill="#000000" opacity="1.00" d=" M 541.13 474.81 C 561.20 470.91 581.72 471.34 602.06 470.52 C 645.24 470.41 688.80 475.52 729.87 489.34 C 748.46 495.64 767.77 501.53 783.57 513.65 C 791.64 519.74 798.72 528.23 800.00 538.59 L 800.00 543.08 C 799.17 550.19 796.07 556.99 791.08 562.14 C 780.75 573.04 767.36 580.38 753.97 586.84 C 738.86 593.75 722.98 598.74 707.40 604.46 C 621.85 634.69 535.93 663.83 450.01 692.96 C 450.02 668.47 449.95 643.99 450.04 619.50 C 520.59 596.15 591.17 572.89 661.29 548.28 C 669.60 545.24 678.54 542.51 684.92 536.05 C 687.54 533.46 688.67 528.90 685.98 525.95 C 681.77 521.00 674.98 519.63 668.96 518.16 C 651.10 514.78 632.60 515.85 614.86 519.47 C 603.98 521.73 593.65 525.93 583.13 529.41 C 538.95 544.35 494.57 558.70 450.16 572.96 C 450.15 547.55 450.16 522.14 450.16 496.74 C 480.23 488.45 510.44 480.45 541.13 474.81 Z" />
</g>
</svg>
