<?xml version="1.0" encoding="UTF-8" ?>
<!DOCTYPE svg PUBLIC "-//W3C//DTD SVG 1.1//EN" "http://www.w3.org/Graphics/SVG/1.1/DTD/svg11.dtd">
<svg width="512pt" height="512pt" viewBox="0 0 512 512" version="1.1" xmlns="http://www.w3.org/2000/svg">
<g id="#000000ff">
<path fill="#000000" opacity="1.00" d=" M 247.44 0.00 L 263.53 0.00 C 298.96 1.24 334.20 9.48 366.18 24.86 C 418.97 49.93 462.59 93.69 487.49 146.57 C 502.64 178.34 510.73 213.28 512.00 248.41 L 512.00 262.63 C 510.80 303.55 499.97 344.20 480.00 379.98 C 451.21 432.17 403.64 473.68 347.96 494.96 C 320.77 505.52 291.76 511.05 262.65 512.00 L 248.45 512.00 C 203.95 510.52 159.82 497.62 121.95 474.13 C 70.48 442.61 30.80 392.34 12.37 334.85 C 4.86 311.85 0.96 287.77 0.00 263.62 L 0.00 247.57 C 1.49 209.69 10.97 172.08 28.52 138.44 C 56.21 84.66 103.60 41.34 159.72 18.72 C 187.55 7.30 217.43 1.29 247.44 0.00 M 217.96 98.78 C 192.37 103.26 166.94 114.74 150.18 135.16 C 135.39 152.99 129.06 176.34 128.01 199.14 C 152.31 199.16 176.61 199.16 200.92 199.15 C 200.96 185.14 206.94 171.54 216.22 161.21 C 226.41 150.68 241.87 148.04 255.92 148.22 C 268.63 148.44 282.46 150.00 292.59 158.44 C 301.75 166.97 307.26 179.45 306.98 192.02 C 306.89 201.45 302.97 210.70 296.61 217.62 C 292.02 221.68 287.37 225.69 282.70 229.67 C 266.43 241.19 248.29 250.80 235.23 266.23 C 230.12 272.05 227.48 279.52 225.94 287.00 C 223.36 299.30 222.45 311.89 221.92 324.42 C 244.63 324.44 267.34 324.44 290.04 324.42 C 290.26 316.72 290.57 308.93 292.58 301.45 C 295.40 291.57 302.64 283.57 310.92 277.79 C 324.33 268.73 338.17 260.27 350.95 250.31 C 357.90 244.89 364.68 239.09 370.01 232.01 C 377.12 222.78 381.57 211.62 383.15 200.10 C 385.48 182.06 383.07 162.93 373.97 146.96 C 366.90 134.47 355.85 124.61 343.47 117.54 C 323.88 106.12 301.58 100.00 279.15 97.49 C 258.82 95.33 238.14 95.27 217.96 98.78 M 220.15 353.89 C 220.13 374.59 220.15 395.29 220.14 415.99 C 245.21 416.01 270.29 416.00 295.37 415.99 C 295.37 395.30 295.38 374.60 295.36 353.91 C 270.29 353.87 245.22 353.91 220.15 353.89 Z" />
</g>
</svg>
