<?xml version="1.0" encoding="UTF-8" ?>
<!DOCTYPE svg PUBLIC "-//W3C//DTD SVG 1.1//EN" "http://www.w3.org/Graphics/SVG/1.1/DTD/svg11.dtd">
<svg width="126pt" height="128pt" viewBox="0 0 126 128" version="1.1" xmlns="http://www.w3.org/2000/svg">
<g id="#000000ff">
<path fill="#000000" opacity="1.00" d=" M 59.43 0.00 L 64.63 0.00 C 79.63 0.45 94.40 6.39 105.38 16.64 C 117.39 27.58 124.69 43.23 126.00 59.37 L 126.00 69.56 C 124.50 85.41 117.29 100.74 105.51 111.52 C 95.70 120.72 82.87 126.43 69.54 128.00 L 56.56 128.00 C 41.39 126.18 26.89 118.95 16.69 107.51 C 6.31 96.15 0.42 80.98 0.00 65.63 L 0.00 60.41 C 1.05 44.85 7.56 29.64 18.65 18.60 C 29.36 7.64 44.18 1.05 59.43 0.00 M 51.46 16.72 C 27.19 22.00 10.61 48.69 15.79 72.78 C 16.07 75.06 16.56 77.31 17.24 79.51 C 18.19 81.90 19.08 84.31 20.23 86.60 C 25.23 95.83 32.84 104.02 42.58 108.26 C 43.54 108.76 44.50 109.25 45.47 109.75 C 46.50 110.07 47.53 110.41 48.55 110.78 C 49.02 110.88 49.98 111.09 50.46 111.20 C 52.33 112.38 54.74 111.67 56.60 112.88 C 62.95 113.18 69.42 113.35 75.52 111.31 C 77.20 110.82 78.87 110.32 80.54 109.80 C 85.98 107.06 91.73 104.47 95.78 99.74 C 100.20 95.73 104.00 90.99 106.23 85.41 C 106.78 84.44 107.32 83.47 107.88 82.51 C 107.96 82.02 108.11 81.04 108.19 80.55 C 108.59 79.55 108.98 78.55 109.37 77.55 C 110.56 73.13 111.35 68.58 111.01 63.99 C 110.74 61.16 111.74 58.02 110.20 55.44 C 109.99 53.75 110.04 51.97 109.21 50.43 C 109.11 49.95 108.91 49.00 108.80 48.52 C 108.01 46.52 107.25 44.50 106.32 42.56 C 101.49 32.65 93.33 24.53 83.44 19.68 C 80.53 18.54 77.68 17.10 74.54 16.74 C 67.07 14.38 58.94 14.51 51.46 16.72 Z" />
<path fill="#000000" opacity="1.00" d=" M 54.53 22.17 C 58.07 22.26 61.45 20.13 64.98 21.26 C 67.82 22.00 70.80 22.12 73.56 23.18 C 80.29 25.84 85.61 31.12 88.89 37.52 C 88.96 38.00 89.10 38.98 89.17 39.46 C 90.93 43.27 89.72 47.81 89.94 51.91 C 89.75 52.32 89.37 53.15 89.19 53.57 C 89.11 54.05 88.96 55.03 88.88 55.52 C 85.93 60.24 81.82 64.29 76.95 67.01 C 74.38 68.53 72.52 70.94 71.02 73.47 C 70.99 77.98 71.00 82.49 71.00 87.00 C 66.00 87.00 61.00 87.00 56.00 87.00 C 56.49 79.49 54.85 71.69 57.14 64.40 C 58.13 62.71 59.11 60.92 60.78 59.80 C 65.35 56.62 70.30 53.84 73.96 49.55 C 73.94 46.87 74.44 44.07 73.68 41.46 C 68.42 33.49 53.78 35.00 51.06 44.49 C 50.47 47.86 52.12 52.10 49.82 54.88 C 45.20 55.21 40.55 54.89 35.91 55.01 C 36.21 50.51 35.27 45.76 36.70 41.46 C 37.16 39.76 37.65 38.07 38.14 36.38 C 40.71 32.65 43.04 28.47 47.00 26.01 C 49.30 24.36 51.96 23.33 54.53 22.17 Z" />
<path fill="#000000" opacity="1.00" d=" M 56.00 92.00 C 61.00 92.00 66.00 92.00 71.00 92.00 C 70.92 97.20 71.20 102.41 70.81 107.60 C 65.86 107.36 60.88 107.93 55.96 107.18 C 56.04 102.12 55.98 97.06 56.00 92.00 Z" />
</g>
</svg>
