<?xml version="1.0" encoding="UTF-8" ?>
<!DOCTYPE svg PUBLIC "-//W3C//DTD SVG 1.1//EN" "http://www.w3.org/Graphics/SVG/1.1/DTD/svg11.dtd">
<svg width="40pt" height="40pt" viewBox="0 0 40 40" version="1.1" xmlns="http://www.w3.org/2000/svg">
<g id="#000000ff">
<path fill="#000000" opacity="1.00" d=" M 0.97 3.59 C 3.41 1.27 7.58 1.30 10.03 3.59 C 7.03 4.08 3.97 4.08 0.97 3.59 Z" />
<path fill="#000000" opacity="1.00" d=" M 2.26 5.30 C 4.08 4.84 7.62 4.18 8.76 5.69 C 6.93 6.16 3.39 6.82 2.26 5.30 Z" />
<path fill="#000000" opacity="1.00" d=" M 10.00 6.72 C 11.58 4.50 14.40 4.56 16.01 6.70 C 14.01 6.84 12.01 6.84 10.00 6.72 Z" />
<path fill="#000000" opacity="1.00" d=" M 33.14 5.02 C 34.71 5.02 36.27 5.03 37.84 5.04 C 37.90 5.78 38.00 7.26 38.06 8.00 C 36.35 8.00 34.65 8.00 32.95 8.00 C 33.00 7.26 33.10 5.77 33.14 5.02 Z" />
<path fill="#000000" opacity="1.00" d=" M 2.00 7.00 C 4.33 7.00 6.67 7.00 9.00 7.00 C 9.00 15.00 9.00 23.00 9.00 31.00 C 6.67 31.00 4.33 31.00 2.00 31.00 C 2.00 23.00 2.00 15.00 2.00 7.00 Z" />
<path fill="#000000" opacity="1.00" d=" M 22.97 8.59 C 25.41 6.26 29.58 6.31 32.03 8.59 C 29.03 9.08 25.97 9.08 22.97 8.59 Z" />
<path fill="#000000" opacity="1.00" d=" M 11.00 9.00 C 12.33 9.00 13.67 9.00 15.00 9.00 C 15.00 16.67 15.00 24.33 15.00 32.00 C 13.67 32.00 12.33 32.00 11.00 32.00 C 11.00 24.33 11.00 16.67 11.00 9.00 Z" />
<path fill="#000000" opacity="1.00" d=" M 33.00 10.00 C 34.67 10.00 36.33 10.00 38.00 10.00 C 38.00 17.00 38.00 24.00 38.00 31.00 C 36.33 31.00 34.67 31.00 33.00 31.00 C 33.00 24.00 33.00 17.00 33.00 10.00 Z" />
<path fill="#000000" opacity="1.00" d=" M 16.00 12.70 C 17.78 10.39 21.20 10.44 23.00 12.69 C 20.68 12.92 18.33 12.93 16.00 12.70 Z" />
<path fill="#000000" opacity="1.00" d=" M 24.00 11.00 C 26.33 11.00 28.67 11.00 31.00 11.00 C 31.00 18.00 31.00 25.00 31.00 32.00 C 28.67 32.00 26.33 32.00 24.00 32.00 C 24.00 25.00 24.00 18.00 24.00 11.00 Z" />
<path fill="#000000" opacity="1.00" d=" M 17.49 14.30 C 18.47 13.52 21.21 13.22 21.51 14.70 C 20.54 15.48 17.79 15.78 17.49 14.30 Z" />
<path fill="#000000" opacity="1.00" d=" M 17.00 16.00 C 18.67 16.00 20.33 16.00 22.00 16.00 C 22.00 21.00 22.00 26.00 22.00 31.00 C 20.33 31.00 18.67 31.00 17.00 31.00 C 17.00 26.00 17.00 21.00 17.00 16.00 Z" />
<path fill="#000000" opacity="1.00" d=" M 2.23 32.33 C 4.07 31.81 7.52 31.21 8.77 32.67 C 6.93 33.19 3.47 33.79 2.23 32.33 Z" />
<path fill="#000000" opacity="1.00" d=" M 17.49 32.29 C 18.47 31.52 21.22 31.22 21.51 32.71 C 20.53 33.47 17.78 33.78 17.49 32.29 Z" />
<path fill="#000000" opacity="1.00" d=" M 32.95 33.00 C 34.65 33.00 36.36 33.00 38.06 33.00 C 38.00 33.74 37.89 35.22 37.83 35.96 C 36.27 35.97 34.71 35.97 33.15 35.97 C 33.10 35.23 33.00 33.74 32.95 33.00 Z" />
<path fill="#000000" opacity="1.00" d=" M 0.97 34.40 C 3.97 33.92 7.03 33.93 10.04 34.41 C 7.57 36.69 3.42 36.73 0.97 34.40 Z" />
<path fill="#000000" opacity="1.00" d=" M 10.00 34.28 C 12.00 34.16 14.01 34.16 16.01 34.30 C 14.39 36.44 11.59 36.49 10.00 34.28 Z" />
<path fill="#000000" opacity="1.00" d=" M 16.00 34.30 C 18.33 34.07 20.68 34.07 23.01 34.32 C 21.19 36.53 17.78 36.61 16.00 34.30 Z" />
<path fill="#000000" opacity="1.00" d=" M 22.97 34.40 C 25.97 33.92 29.03 33.92 32.04 34.41 C 29.57 36.69 25.42 36.73 22.97 34.40 Z" />
</g>
</svg>
