<?xml version="1.0" encoding="UTF-8" ?>
<!DOCTYPE svg PUBLIC "-//W3C//DTD SVG 1.1//EN" "http://www.w3.org/Graphics/SVG/1.1/DTD/svg11.dtd">
<svg width="40pt" height="40pt" viewBox="0 0 40 40" version="1.1" xmlns="http://www.w3.org/2000/svg">
<g id="#000000ff">
<path fill="#000000" opacity="1.00" d=" M 3.14 8.19 C 7.63 3.72 14.97 4.63 20.00 7.72 C 25.03 4.58 32.33 3.76 36.86 8.19 C 37.25 16.37 36.86 24.57 37.01 32.75 C 31.85 29.35 25.16 29.34 19.99 32.72 C 17.21 31.29 14.23 29.92 11.03 30.05 C 8.15 30.15 5.52 31.47 2.99 32.73 C 3.14 24.55 2.75 16.36 3.14 8.19 M 6.13 9.11 C 5.89 15.28 6.05 21.44 5.98 27.61 C 10.33 26.68 14.88 26.89 19.02 28.62 C 18.94 22.50 19.13 16.38 18.85 10.26 C 14.90 8.12 10.39 7.40 6.13 9.11 M 21.15 10.24 C 20.88 16.36 21.05 22.49 20.99 28.61 C 25.12 26.87 29.67 26.69 34.02 27.63 C 33.95 21.46 34.11 15.30 33.87 9.14 C 29.62 7.41 25.10 8.10 21.15 10.24 Z" />
<path fill="#000000" opacity="1.00" d=" M 7.27 11.42 C 10.71 10.01 14.89 10.00 17.78 12.59 C 14.25 12.49 10.75 11.99 7.27 11.42 Z" />
<path fill="#000000" opacity="1.00" d=" M 22.22 12.57 C 25.12 9.98 29.30 10.00 32.72 11.45 C 29.24 11.99 25.74 12.47 22.22 12.57 Z" />
<path fill="#000000" opacity="1.00" d=" M 7.12 14.94 C 10.43 12.93 14.68 13.30 17.74 15.63 C 14.19 15.53 10.66 15.21 7.12 14.94 Z" />
<path fill="#000000" opacity="1.00" d=" M 22.26 15.62 C 25.31 13.24 29.56 12.98 32.88 14.95 C 29.35 15.21 25.81 15.53 22.26 15.62 Z" />
<path fill="#000000" opacity="1.00" d=" M 7.17 18.01 C 10.05 16.35 13.36 16.92 16.48 17.43 C 16.69 17.93 17.12 18.91 17.34 19.41 C 14.02 18.48 10.58 18.34 7.17 18.01 Z" />
<path fill="#000000" opacity="1.00" d=" M 22.29 18.74 C 25.35 16.49 29.55 16.10 32.82 18.12 C 29.32 18.46 25.80 18.62 22.29 18.74 Z" />
<path fill="#000000" opacity="1.00" d=" M 7.31 21.22 C 10.58 19.14 14.98 19.71 17.85 22.23 C 14.33 22.00 10.83 21.47 7.31 21.22 Z" />
<path fill="#000000" opacity="1.00" d=" M 23.60 20.56 C 26.64 20.21 29.95 19.33 32.68 21.25 C 29.31 21.47 25.94 21.77 22.63 22.53 C 22.88 22.04 23.36 21.05 23.60 20.56 Z" />
<path fill="#000000" opacity="1.00" d=" M 7.30 24.30 C 10.62 22.48 14.96 22.78 17.78 25.39 C 14.27 25.17 10.78 24.71 7.30 24.30 Z" />
<path fill="#000000" opacity="1.00" d=" M 22.17 25.36 C 25.06 22.77 29.38 22.49 32.72 24.33 C 29.22 24.76 25.70 25.12 22.17 25.36 Z" />
</g>
</svg>
