<?xml version="1.0" encoding="UTF-8" ?>
<!DOCTYPE svg PUBLIC "-//W3C//DTD SVG 1.1//EN" "http://www.w3.org/Graphics/SVG/1.1/DTD/svg11.dtd">
<svg width="397pt" height="397pt" viewBox="0 0 397 397" version="1.1" xmlns="http://www.w3.org/2000/svg">
<g id="#000000ff">
<path fill="#000000" opacity="1.00" d=" M 55.08 0.00 L 189.35 0.00 C 207.91 1.18 227.85 3.32 243.03 15.15 C 255.56 24.74 261.44 40.59 262.55 55.92 C 264.22 76.39 260.72 98.80 246.61 114.60 C 235.74 127.02 219.53 132.96 203.59 135.35 C 209.19 137.45 215.16 139.21 219.55 143.51 C 227.40 150.71 229.63 161.84 230.15 172.04 C 230.60 187.00 229.65 201.97 229.38 216.93 C 228.73 230.59 230.57 244.75 237.11 256.94 C 240.26 256.96 243.42 256.94 246.58 256.81 C 262.89 228.91 279.46 201.15 295.97 173.36 C 300.55 201.40 304.88 229.49 309.43 257.54 C 337.62 257.52 365.81 257.54 394.00 257.53 C 368.56 275.34 343.14 293.18 317.69 310.97 C 321.79 339.01 325.93 367.03 330.02 395.06 C 307.98 378.15 285.96 361.20 263.90 344.31 C 234.31 361.85 204.77 379.48 175.14 396.95 C 188.94 367.22 202.80 337.53 216.61 307.81 C 200.99 291.30 185.34 274.81 169.68 258.33 C 167.98 256.57 166.77 254.39 166.15 252.03 C 164.41 245.84 163.92 239.36 164.11 232.95 C 164.49 218.35 166.15 203.77 165.63 189.15 C 165.14 180.73 162.56 171.67 155.66 166.26 C 148.49 160.56 138.89 159.70 130.06 159.79 C 116.06 159.82 102.07 159.79 88.07 159.81 C 81.61 190.26 75.18 220.72 68.75 251.18 C 46.50 251.22 24.25 251.19 2.01 251.20 C 19.67 167.46 37.39 83.73 55.08 0.00 M 112.03 52.20 C 107.75 72.36 103.59 92.54 99.31 112.69 C 117.20 112.78 135.08 112.72 152.97 112.73 C 164.17 112.57 176.13 111.23 185.46 104.48 C 192.68 99.38 196.55 90.66 197.05 82.00 C 197.83 74.19 196.18 65.42 189.96 60.08 C 182.34 53.49 171.73 52.38 162.05 52.23 C 145.38 52.15 128.70 52.22 112.03 52.20 M 287.78 209.20 C 287.37 210.62 286.81 211.99 286.00 213.24 C 281.77 219.94 278.07 226.97 273.79 233.64 C 272.95 235.38 271.96 237.04 270.81 238.60 C 266.59 246.00 262.28 253.37 257.80 260.62 C 256.48 263.40 254.48 265.79 253.30 268.65 C 234.24 268.56 215.19 268.69 196.13 268.59 C 203.23 277.44 211.59 285.34 219.48 293.55 C 223.02 297.75 226.74 301.80 230.78 305.54 C 228.28 310.21 226.17 315.08 223.86 319.85 C 217.41 333.81 211.01 347.81 204.31 361.67 C 203.64 363.09 203.19 364.60 202.78 366.13 C 203.94 365.84 205.09 365.54 206.24 365.25 C 207.48 364.18 208.77 363.15 210.22 362.38 C 216.68 358.78 222.89 354.77 229.36 351.21 C 230.94 350.07 232.61 349.07 234.36 348.21 C 243.29 342.76 252.31 337.41 261.39 332.20 C 262.60 331.48 263.81 329.82 265.40 330.51 C 279.78 341.80 294.44 352.75 308.84 364.03 C 310.40 365.17 311.78 366.66 313.78 367.04 C 311.53 346.36 307.41 325.88 305.26 305.20 C 306.29 304.52 307.31 303.83 308.36 303.18 C 322.30 293.15 336.52 283.53 350.50 273.57 C 351.51 272.62 352.84 272.36 354.16 272.13 C 354.42 271.20 354.68 270.28 354.94 269.36 C 336.46 269.52 317.98 269.27 299.50 269.48 C 298.86 266.60 298.32 263.70 298.24 260.74 C 297.78 259.57 297.52 258.34 297.41 257.10 C 294.96 241.21 292.24 225.35 290.02 209.45 C 289.46 209.39 288.34 209.27 287.78 209.20 Z" />
</g>
</svg>
