<?xml version="1.0" encoding="UTF-8" ?>
<!DOCTYPE svg PUBLIC "-//W3C//DTD SVG 1.1//EN" "http://www.w3.org/Graphics/SVG/1.1/DTD/svg11.dtd">
<svg width="128pt" height="128pt" viewBox="0 0 128 128" version="1.1" xmlns="http://www.w3.org/2000/svg">
<g id="#000000ff">
<path fill="#000000" opacity="1.00" d=" M 57.30 0.00 L 70.61 0.00 C 74.59 0.69 78.26 3.40 79.46 7.35 C 80.63 11.78 79.44 16.44 80.40 20.91 C 81.91 26.80 89.17 30.49 94.74 27.78 C 99.71 25.72 104.08 20.66 109.94 22.06 C 114.79 22.99 117.17 27.67 119.39 31.56 C 121.63 35.49 125.06 39.77 123.30 44.58 C 121.62 50.26 115.34 51.89 111.08 55.09 C 106.18 58.52 105.40 66.19 109.27 70.68 C 112.31 74.14 117.11 75.26 120.34 78.47 C 123.91 82.21 124.30 88.27 121.82 92.70 C 120.04 95.92 118.22 99.14 116.17 102.20 C 113.67 106.00 108.37 107.64 104.16 105.86 C 100.50 104.39 97.45 101.70 93.73 100.33 C 88.15 98.36 81.48 102.29 80.30 108.04 C 79.57 112.20 80.54 116.51 79.47 120.62 C 78.27 124.56 74.63 127.25 70.67 128.00 L 57.40 128.00 C 53.41 127.31 49.74 124.60 48.53 120.64 C 47.38 116.21 48.56 111.55 47.60 107.10 C 46.19 101.65 39.88 97.96 34.47 99.75 C 29.79 101.28 25.89 104.79 20.96 105.61 C 16.57 106.01 12.62 103.12 10.65 99.37 C 8.81 96.20 6.82 93.11 5.17 89.84 C 3.22 86.09 4.40 81.25 7.45 78.45 C 10.70 75.54 15.06 74.23 18.29 71.29 C 22.50 67.14 22.08 59.24 17.21 55.77 C 13.44 52.89 8.16 51.58 5.89 47.07 C 3.59 42.93 4.53 37.84 7.11 34.07 C 9.90 29.84 11.74 24.00 17.13 22.43 C 23.22 20.49 28.26 25.40 33.60 27.39 C 39.28 29.90 46.45 25.92 47.70 19.94 C 48.44 15.79 47.47 11.50 48.51 7.39 C 49.69 3.44 53.34 0.73 57.30 0.00 M 59.10 43.23 C 50.07 45.26 42.96 53.73 42.69 63.03 C 42.15 71.88 47.86 80.60 56.11 83.78 C 63.60 86.91 72.76 85.11 78.59 79.49 C 84.65 73.91 86.95 64.67 84.10 56.93 C 80.77 46.92 69.36 40.57 59.10 43.23 Z" />
</g>
</svg>
