<?xml version="1.0" encoding="UTF-8" ?>
<!DOCTYPE svg PUBLIC "-//W3C//DTD SVG 1.1//EN" "http://www.w3.org/Graphics/SVG/1.1/DTD/svg11.dtd">
<svg width="40pt" height="40pt" viewBox="0 0 40 40" version="1.1" xmlns="http://www.w3.org/2000/svg">
<g id="#000000ff">
<path fill="#000000" opacity="1.00" d=" M 15.17 6.94 C 16.49 5.59 17.88 3.82 20.01 4.03 C 22.12 3.87 23.53 5.54 24.81 6.94 C 27.52 7.02 30.22 7.01 32.92 7.06 C 32.97 8.35 32.98 9.65 32.93 10.94 C 30.23 10.99 27.53 10.98 24.83 11.06 C 23.53 12.47 22.10 14.17 19.98 14.01 C 17.87 14.14 16.47 12.42 15.15 11.06 C 12.46 10.98 9.77 10.99 7.08 10.93 C 7.03 9.65 7.03 8.36 7.08 7.07 C 9.78 7.00 12.47 7.02 15.17 6.94 M 20.02 11.26 C 21.42 10.32 22.64 7.61 20.03 7.29 C 17.29 7.72 18.54 10.15 20.02 11.26 Z" />
<path fill="#000000" opacity="1.00" d=" M 9.54 12.02 C 10.03 12.01 10.99 12.00 11.47 11.99 C 13.55 15.79 16.10 19.33 17.92 23.27 C 18.27 26.80 15.47 30.19 12.04 30.84 C 7.55 31.99 2.63 27.92 3.10 23.27 C 4.93 19.35 7.48 15.82 9.54 12.02 M 4.89 22.99 C 8.64 23.00 12.38 23.00 16.13 23.00 C 14.27 19.81 12.40 16.64 10.52 13.47 C 8.64 16.64 6.76 19.81 4.89 22.99 Z" />
<path fill="#000000" opacity="1.00" d=" M 28.54 12.03 C 29.02 12.02 29.97 12.00 30.44 11.99 C 32.54 15.77 35.07 19.31 36.90 23.23 C 37.34 27.14 33.89 30.78 30.04 30.99 C 25.82 31.41 21.65 27.54 22.11 23.25 C 23.92 19.33 26.48 15.81 28.54 12.03 M 29.51 13.49 C 27.62 16.65 25.75 19.82 23.89 22.99 C 27.64 23.00 31.38 23.00 35.13 23.00 C 33.27 19.81 31.40 16.65 29.51 13.49 Z" />
</g>
</svg>
