<?xml version="1.0" encoding="UTF-8" ?>
<!DOCTYPE svg PUBLIC "-//W3C//DTD SVG 1.1//EN" "http://www.w3.org/Graphics/SVG/1.1/DTD/svg11.dtd">
<svg width="116pt" height="116pt" viewBox="0 0 116 116" version="1.1" xmlns="http://www.w3.org/2000/svg">
<g id="#000000ff">
<path fill="#000000" opacity="1.00" d=" M 77.44 39.93 C 78.38 31.97 85.09 25.23 92.95 23.93 C 99.94 22.57 107.51 25.53 111.73 31.25 C 116.26 37.12 116.86 45.68 113.13 52.09 C 110.93 56.25 106.97 59.02 102.79 60.94 C 98.27 64.26 94.18 68.15 89.89 71.77 C 90.40 76.51 89.30 81.51 86.16 85.20 C 81.52 91.07 72.81 93.13 66.03 89.97 C 61.14 87.87 57.66 83.32 56.29 78.25 C 45.76 74.62 35.20 71.10 24.65 67.51 C 19.31 71.29 11.66 71.63 6.40 67.52 C 0.05 63.02 -1.56 53.33 3.05 47.04 C 7.17 40.81 16.19 38.69 22.65 42.43 C 26.46 44.42 28.93 48.18 30.19 52.19 C 40.36 55.67 50.54 59.10 60.72 62.53 C 64.01 59.54 68.19 57.73 72.63 57.43 C 74.28 51.61 77.16 46.06 77.44 39.93 M 92.32 28.46 C 84.91 30.35 79.92 38.53 81.76 45.98 C 83.25 53.57 91.35 58.97 98.93 57.41 C 106.87 56.22 112.72 47.80 110.94 39.94 C 109.56 31.67 100.34 25.99 92.32 28.46 M 12.35 45.56 C 6.54 47.29 3.36 54.54 6.14 59.96 C 8.26 64.74 13.91 66.79 18.84 65.80 C 16.09 64.44 12.57 64.02 10.82 61.22 C 7.72 57.06 9.86 50.44 14.77 48.84 C 18.24 47.38 21.71 49.45 25.00 50.39 C 22.40 46.23 17.10 43.85 12.35 45.56 M 67.70 64.84 C 70.95 66.25 75.14 66.52 77.15 69.82 C 79.91 73.77 78.21 79.81 73.82 81.76 C 68.91 84.16 64.12 80.22 59.35 79.31 C 61.26 84.76 67.27 88.48 72.98 86.94 C 79.38 85.62 83.44 78.13 80.98 72.05 C 79.15 66.71 73.14 63.71 67.70 64.84 Z" />
<path fill="#000000" opacity="1.00" d=" M 93.41 32.64 C 99.55 30.69 106.56 35.50 106.93 41.93 C 107.71 48.39 101.49 54.41 95.05 53.41 C 88.81 52.87 84.17 46.08 86.02 40.07 C 86.95 36.52 89.88 33.60 93.41 32.64 Z" />
</g>
</svg>
