<?xml version="1.0" encoding="UTF-8" ?>
<!DOCTYPE svg PUBLIC "-//W3C//DTD SVG 1.1//EN" "http://www.w3.org/Graphics/SVG/1.1/DTD/svg11.dtd">
<svg width="112pt" height="112pt" viewBox="0 0 112 112" version="1.1" xmlns="http://www.w3.org/2000/svg">
<g id="#000000ff">
<path fill="#000000" opacity="1.00" d=" M 55.10 27.00 C 57.60 17.38 67.05 10.17 77.00 10.33 C 83.38 10.14 89.40 13.17 93.92 17.52 C 98.96 16.44 103.73 14.44 108.30 12.09 C 106.39 17.29 102.81 21.63 98.26 24.74 C 102.66 23.92 107.00 22.77 111.21 21.23 C 108.08 25.66 104.26 29.54 99.99 32.86 C 100.70 54.23 90.71 75.83 73.42 88.53 C 58.75 99.43 39.26 102.98 21.50 99.24 C 13.82 98.02 6.79 94.43 0.00 90.80 L 0.00 90.37 C 11.85 92.02 24.10 88.41 33.60 81.25 C 24.22 80.53 15.55 74.39 12.51 65.37 C 15.82 65.65 19.15 65.48 22.42 64.90 C 18.44 63.46 14.38 61.80 11.40 58.68 C 6.86 54.46 4.78 48.34 4.32 42.28 C 7.64 43.61 11.08 44.62 14.62 45.16 C 11.12 41.96 7.64 38.45 6.12 33.83 C 3.66 27.59 4.71 20.63 7.40 14.66 C 11.00 17.71 13.94 21.46 17.74 24.28 C 28.17 32.71 41.28 37.50 54.63 38.39 C 54.31 34.60 53.92 30.69 55.10 27.00 Z" />
</g>
</svg>
