<?xml version="1.0" encoding="UTF-8" ?>
<!DOCTYPE svg PUBLIC "-//W3C//DTD SVG 1.1//EN" "http://www.w3.org/Graphics/SVG/1.1/DTD/svg11.dtd">
<svg width="652pt" height="652pt" viewBox="0 0 652 652" version="1.1" xmlns="http://www.w3.org/2000/svg">
<g id="#000000ff">
<path fill="#000000" opacity="1.00" d=" M 242.55 1.71 C 253.98 -0.25 266.08 1.91 276.07 7.81 C 287.30 14.20 295.81 25.24 299.14 37.74 C 302.71 50.02 301.05 63.71 294.85 74.87 C 284.48 94.88 259.38 105.64 237.76 99.15 C 221.62 94.90 208.12 81.89 203.34 65.89 C 200.13 56.08 200.23 45.23 203.55 35.46 C 208.94 18.10 224.67 4.70 242.55 1.71 Z" />
<path fill="#000000" opacity="1.00" d=" M 90.48 26.68 C 111.03 24.47 132.07 28.57 150.73 37.27 C 166.75 44.80 180.87 56.86 189.57 72.40 C 198.63 88.26 201.79 106.92 200.84 125.01 C 200.03 145.35 194.12 165.70 182.54 182.54 C 159.63 216.63 114.23 233.60 74.59 222.63 C 50.84 216.57 28.10 203.26 14.33 182.57 C 9.00 174.51 5.00 165.51 2.98 156.04 C 0.27 144.21 0.73 131.92 2.25 119.96 C 5.73 94.01 17.42 68.69 36.98 50.97 C 51.61 37.41 70.69 28.93 90.48 26.68 M 93.51 76.79 C 82.24 78.56 71.97 85.01 65.02 93.99 C 54.69 107.23 50.44 124.51 51.18 141.10 C 51.87 152.52 60.20 161.88 69.81 167.27 C 81.59 173.84 95.61 177.83 109.08 174.97 C 122.59 172.32 135.25 164.33 142.46 152.46 C 150.14 139.91 152.12 124.54 150.37 110.13 C 149.14 100.04 143.41 90.57 134.57 85.38 C 122.44 78.03 107.60 74.66 93.51 76.79 Z" />
<path fill="#000000" opacity="1.00" d=" M 392.56 101.80 C 399.34 101.21 406.16 101.09 412.97 101.04 C 428.11 101.47 442.80 105.87 456.92 111.05 C 494.97 125.58 529.94 147.68 560.50 174.50 C 588.55 199.39 612.74 229.09 628.99 263.02 C 638.22 282.25 644.83 302.77 648.19 323.85 C 652.22 348.67 651.41 374.02 648.49 398.91 C 639.37 475.95 602.10 550.28 542.53 600.57 C 511.00 626.96 472.54 646.87 431.10 650.46 C 405.19 652.38 379.24 648.11 354.19 641.75 C 316.09 631.69 279.58 615.70 246.24 594.71 C 213.64 574.00 183.82 548.11 161.66 516.28 C 138.67 483.68 125.14 444.01 126.06 403.94 C 126.46 365.81 133.41 327.69 147.17 292.09 C 173.98 221.43 227.76 160.91 296.05 128.06 C 326.21 113.42 359.10 104.27 392.56 101.80 M 395.55 151.72 C 368.65 153.82 342.24 161.24 317.97 172.99 C 282.63 190.01 251.83 216.01 228.36 247.38 C 192.42 295.10 174.21 355.44 176.25 415.03 C 177.82 441.07 187.61 466.18 202.52 487.45 C 212.62 502.03 224.85 515.06 238.21 526.71 C 267.58 552.07 302.08 571.15 338.44 584.50 C 362.42 593.11 387.44 599.53 412.98 600.82 C 432.05 601.92 451.05 597.13 468.31 589.23 C 497.92 575.60 523.10 553.60 543.27 528.22 C 571.20 492.95 589.50 450.35 596.96 406.05 C 600.65 383.23 602.33 359.86 599.55 336.84 C 596.51 313.21 588.18 290.39 576.04 269.92 C 558.25 239.82 533.12 214.55 505.00 193.99 C 485.73 180.07 465.01 168.03 442.90 159.22 C 433.91 155.77 424.71 152.54 415.13 151.28 C 408.61 150.76 402.05 151.29 395.55 151.72 Z" />
<path fill="#000000" opacity="1.00" d=" M 251.00 276.00 C 276.00 276.00 301.00 276.00 326.00 276.00 C 326.03 319.68 325.95 363.36 326.03 407.04 C 325.69 417.21 334.83 426.32 344.99 425.97 C 374.00 426.02 403.01 426.02 432.01 425.97 C 442.20 426.32 451.33 417.17 450.97 406.98 C 451.04 363.32 450.98 319.66 451.00 276.00 C 476.00 276.00 501.00 276.00 526.00 276.00 C 526.00 351.00 526.00 426.00 526.00 501.00 C 467.68 501.00 409.36 501.00 351.04 501.00 C 343.02 500.92 335.00 501.21 326.99 500.75 C 308.46 499.65 290.44 491.84 276.90 479.15 C 263.86 467.06 254.97 450.55 252.15 432.99 C 250.68 424.40 251.04 415.66 251.00 407.00 C 251.00 363.33 251.00 319.67 251.00 276.00 Z" />
</g>
</svg>
