<?xml version="1.0" encoding="UTF-8" ?>
<!DOCTYPE svg PUBLIC "-//W3C//DTD SVG 1.1//EN" "http://www.w3.org/Graphics/SVG/1.1/DTD/svg11.dtd">
<svg width="110pt" height="110pt" viewBox="0 0 110 110" version="1.1" xmlns="http://www.w3.org/2000/svg">
<g id="#000000ff">
<path fill="#000000" opacity="1.00" d=" M 46.32 1.45 C 57.50 -2.32 70.66 1.90 77.37 11.63 C 82.19 18.09 83.48 26.74 81.60 34.49 C 79.65 42.36 73.81 49.02 66.56 52.52 C 57.80 56.55 46.81 55.71 39.03 49.91 C 32.06 44.90 27.46 36.61 27.56 27.96 C 27.06 16.23 35.28 5.06 46.32 1.45 Z" />
<path fill="#000000" opacity="1.00" d=" M 22.40 51.49 C 25.30 50.75 28.79 49.52 31.51 51.39 C 35.72 54.00 39.75 57.06 44.55 58.52 C 52.24 61.34 60.92 60.75 68.34 57.39 C 72.60 55.68 76.03 52.50 80.15 50.53 C 86.76 49.98 93.51 53.26 97.29 58.70 C 102.57 66.02 104.27 75.21 105.03 84.02 C 105.37 89.94 105.95 96.43 102.65 101.69 C 99.45 107.04 93.14 109.81 87.06 109.82 C 66.03 109.89 45.00 109.83 23.98 109.85 C 17.82 110.01 11.27 107.63 7.75 102.35 C 4.19 97.33 4.54 90.88 4.88 85.04 C 5.52 76.33 7.06 67.30 11.90 59.84 C 14.34 55.99 18.02 52.88 22.40 51.49 Z" />
</g>
</svg>
