<?xml version="1.0" encoding="UTF-8" ?>
<!DOCTYPE svg PUBLIC "-//W3C//DTD SVG 1.1//EN" "http://www.w3.org/Graphics/SVG/1.1/DTD/svg11.dtd">
<svg width="150pt" height="150pt" viewBox="0 0 150 150" version="1.1" xmlns="http://www.w3.org/2000/svg">
<g id="#000000ff">
<path fill="#000000" opacity="1.00" d=" M 95.29 20.35 C 110.55 17.77 126.06 30.53 126.40 45.99 C 127.81 61.16 114.23 75.54 99.01 75.00 C 84.52 75.48 71.31 62.46 71.58 47.96 C 70.97 34.50 81.96 21.85 95.29 20.35 Z" />
<path fill="#000000" opacity="1.00" d=" M 20.14 56.98 C 22.20 45.79 33.62 37.16 44.94 38.30 C 53.86 39.71 62.14 46.22 64.55 55.08 C 66.07 60.23 65.52 65.79 63.54 70.73 C 56.91 72.36 51.70 77.28 48.86 83.36 C 41.51 85.50 33.09 83.76 27.46 78.51 C 21.41 73.31 18.49 64.79 20.14 56.98 Z" />
<path fill="#000000" opacity="1.00" d=" M 56.71 78.71 C 60.49 73.26 67.27 69.95 73.89 70.55 C 78.63 72.93 82.67 76.63 87.80 78.24 C 96.40 81.65 106.31 80.71 114.42 76.41 C 117.80 74.69 120.70 72.15 124.15 70.54 C 131.52 69.87 138.84 74.07 142.49 80.44 C 148.41 90.46 149.57 102.58 149.16 113.99 C 148.77 122.80 140.62 129.81 131.99 129.80 C 110.32 129.89 88.65 129.86 66.98 129.82 C 60.98 128.76 54.98 130.16 48.96 129.85 C 37.96 129.81 26.96 129.89 15.97 129.82 C 10.89 129.80 5.52 127.58 2.92 123.03 C -0.00 118.20 0.54 112.32 1.07 106.95 C 1.92 100.16 3.18 93.06 7.34 87.42 C 10.34 82.99 15.70 80.37 21.02 80.45 C 23.78 81.14 25.86 83.29 28.33 84.60 C 33.82 88.03 40.45 89.20 46.84 88.39 C 44.32 97.01 43.18 106.12 44.00 115.08 C 44.90 123.16 52.56 130.16 60.87 129.15 C 57.42 127.55 53.88 125.65 51.77 122.34 C 48.02 117.00 48.60 110.14 48.98 103.97 C 49.74 95.18 51.44 86.02 56.71 78.71 Z" />
</g>
</svg>
