<?xml version="1.0" encoding="UTF-8" ?>
<!DOCTYPE svg PUBLIC "-//W3C//DTD SVG 1.1//EN" "http://www.w3.org/Graphics/SVG/1.1/DTD/svg11.dtd">
<svg width="150pt" height="150pt" viewBox="0 0 150 150" version="1.1" xmlns="http://www.w3.org/2000/svg">
<g id="#000000ff">
<path fill="#000000" opacity="1.00" d=" M 47.33 20.34 C 62.58 17.80 78.06 30.56 78.38 46.01 C 79.77 61.17 66.23 75.51 51.03 75.00 C 36.56 75.50 23.35 62.54 23.56 48.07 C 22.89 34.56 33.93 21.81 47.33 20.34 Z" />
<path fill="#000000" opacity="1.00" d=" M 85.67 54.37 C 88.30 45.87 96.34 39.74 104.96 38.29 C 116.31 37.13 127.79 45.75 129.86 56.98 C 131.51 64.80 128.58 73.33 122.52 78.53 C 116.89 83.76 108.46 85.52 101.13 83.35 C 98.29 77.26 93.07 72.36 86.46 70.73 C 84.37 65.56 83.91 59.70 85.67 54.37 Z" />
<path fill="#000000" opacity="1.00" d=" M 8.68 78.71 C 12.47 73.25 19.25 69.97 25.88 70.54 C 28.64 71.83 31.03 73.76 33.64 75.31 C 41.43 80.04 51.21 81.79 59.99 78.98 C 64.82 77.66 69.09 74.99 73.18 72.18 C 77.66 68.65 83.91 71.18 88.25 73.76 C 96.79 79.89 99.48 90.95 100.73 100.83 C 101.23 107.76 102.46 115.47 98.63 121.73 C 96.59 125.28 92.94 127.39 89.35 129.08 C 97.21 130.09 104.51 123.63 105.82 116.09 C 107.01 106.83 105.73 97.32 103.15 88.38 C 111.06 89.60 119.03 87.01 125.33 82.25 C 129.20 78.83 134.78 80.99 138.62 83.36 C 145.37 88.32 147.57 97.02 148.68 104.89 C 149.39 111.13 150.39 118.16 146.67 123.69 C 143.53 128.48 137.46 130.12 132.02 129.86 C 117.39 129.62 102.72 130.33 88.13 129.35 C 85.75 129.55 83.37 129.92 80.98 129.89 C 60.30 129.79 39.62 129.89 18.95 129.84 C 12.35 129.97 5.53 126.43 2.59 120.38 C 0.07 115.33 0.67 109.50 0.95 104.06 C 1.70 95.23 3.41 86.05 8.68 78.71 Z" />
</g>
</svg>
