<?xml version="1.0" encoding="UTF-8" ?>
<!DOCTYPE svg PUBLIC "-//W3C//DTD SVG 1.1//EN" "http://www.w3.org/Graphics/SVG/1.1/DTD/svg11.dtd">
<svg width="198pt" height="198pt" viewBox="0 0 198 198" version="1.1" xmlns="http://www.w3.org/2000/svg">
<g id="#000000ff">
<path fill="#000000" opacity="1.00" d=" M 95.26 44.35 C 110.55 41.76 126.10 54.58 126.39 70.08 C 127.74 85.22 114.18 99.52 99.01 98.99 C 84.53 99.49 71.32 86.49 71.56 72.01 C 70.92 58.54 81.91 45.86 95.26 44.35 Z" />
<path fill="#000000" opacity="1.00" d=" M 134.11 77.09 C 137.02 69.48 144.27 64.11 152.10 62.42 C 163.69 60.66 175.72 69.45 177.85 80.94 C 179.52 88.78 176.58 97.34 170.50 102.55 C 164.87 107.77 156.46 109.49 149.14 107.36 C 146.30 101.25 141.06 96.36 134.44 94.71 C 132.19 89.13 131.88 82.73 134.11 77.09 Z" />
<path fill="#000000" opacity="1.00" d=" M 20.14 81.00 C 22.19 69.78 33.65 61.14 44.98 62.31 C 53.88 63.73 62.14 70.23 64.55 79.08 C 66.06 84.23 65.53 89.79 63.53 94.73 C 56.92 96.36 51.70 101.27 48.86 107.36 C 41.50 109.51 33.05 107.75 27.41 102.47 C 21.40 97.27 18.50 88.78 20.14 81.00 Z" />
<path fill="#000000" opacity="1.00" d=" M 56.69 102.69 C 60.49 97.25 67.29 93.92 73.92 94.57 C 78.65 96.96 82.70 100.66 87.84 102.26 C 96.44 105.65 106.33 104.69 114.42 100.40 C 117.78 98.70 120.65 96.19 124.05 94.57 C 131.49 93.80 138.90 98.12 142.54 104.56 C 148.26 114.25 149.40 125.92 149.21 136.96 C 149.21 144.34 143.98 150.78 137.12 153.12 C 143.72 153.95 150.14 149.65 152.70 143.68 C 154.60 139.41 154.35 134.61 154.16 130.05 C 153.88 124.06 152.88 118.13 151.16 112.39 C 155.74 112.84 160.46 112.69 164.79 110.96 C 168.92 109.59 172.24 106.67 176.04 104.68 C 180.17 103.92 184.52 105.69 187.76 108.23 C 193.90 113.67 195.80 122.11 196.81 129.91 C 197.40 135.61 198.18 141.90 195.07 147.05 C 192.29 151.91 186.45 154.00 181.08 153.85 C 168.37 153.80 155.65 153.92 142.94 153.79 C 138.95 153.22 134.95 153.31 130.96 153.82 C 111.31 153.91 91.66 153.79 72.01 153.87 C 66.33 154.12 60.68 152.76 55.02 153.79 C 42.33 153.92 29.64 153.80 16.96 153.85 C 11.81 153.98 6.25 152.14 3.32 147.67 C -0.01 142.77 0.50 136.57 1.06 130.98 C 1.92 124.17 3.17 117.05 7.35 111.41 C 10.35 106.98 15.71 104.37 21.02 104.45 C 23.79 105.16 25.90 107.31 28.38 108.64 C 33.87 112.04 40.48 113.21 46.84 112.39 C 44.32 121.01 43.18 130.12 44.00 139.08 C 44.90 147.09 52.45 154.12 60.72 153.12 C 57.32 151.48 53.82 149.62 51.74 146.34 C 47.99 141.01 48.58 134.17 48.95 128.01 C 49.71 119.19 51.42 110.02 56.69 102.69 Z" />
</g>
</svg>
