<?xml version="1.0" encoding="UTF-8" ?>
<!DOCTYPE svg PUBLIC "-//W3C//DTD SVG 1.1//EN" "http://www.w3.org/Graphics/SVG/1.1/DTD/svg11.dtd">
<svg width="120pt" height="120pt" viewBox="0 0 120 120" version="1.1" xmlns="http://www.w3.org/2000/svg">
<g id="#000000ff">
<path fill="#000000" opacity="1.00" d=" M 59.30 0.00 L 61.56 0.00 C 76.99 0.44 92.17 4.94 105.65 12.40 C 107.91 13.32 108.10 15.87 108.02 17.98 C 107.83 33.64 108.36 49.45 105.39 64.90 C 103.44 75.06 99.36 84.86 92.99 93.05 C 84.39 104.15 72.85 112.49 61.12 120.00 L 58.94 120.00 C 47.32 112.66 35.97 104.40 27.39 93.53 C 21.09 85.59 16.93 76.09 14.88 66.20 C 11.72 51.04 12.18 35.47 11.97 20.07 C 12.09 17.43 11.32 13.72 14.35 12.40 C 28.07 4.81 43.57 0.26 59.30 0.00 M 78.30 37.29 C 74.93 40.96 74.12 46.18 74.20 50.98 C 74.14 55.72 75.40 60.77 78.84 64.19 C 82.64 67.99 89.06 68.50 93.58 65.74 C 96.77 63.76 98.01 60.04 99.11 56.66 C 97.19 55.97 95.28 55.27 93.37 54.56 C 92.60 56.81 91.91 59.40 89.75 60.75 C 86.77 62.72 82.58 60.78 81.43 57.59 C 79.91 53.27 79.84 48.41 81.12 44.02 C 82.03 40.68 85.91 38.16 89.27 39.65 C 91.51 40.42 92.32 42.81 93.23 44.77 C 95.16 44.21 97.09 43.66 99.03 43.10 C 98.16 40.77 97.44 38.22 95.59 36.45 C 90.92 31.93 82.49 32.32 78.30 37.29 M 20.55 34.00 C 23.91 44.91 27.28 55.82 30.62 66.74 C 32.75 66.75 34.88 66.75 37.01 66.75 C 40.38 55.84 43.74 44.92 47.09 34.00 C 44.98 34.00 42.88 34.00 40.77 34.00 C 38.44 41.72 36.45 49.54 34.08 57.25 C 31.36 49.62 29.48 41.72 27.04 34.00 C 24.88 34.00 22.71 34.00 20.55 34.00 M 54.86 34.01 C 51.27 44.95 47.43 55.81 43.90 66.77 C 46.00 66.76 48.11 66.76 50.21 66.75 C 50.99 64.30 51.77 61.84 52.66 59.43 C 56.27 59.53 59.87 59.53 63.47 59.47 C 64.33 61.89 65.16 64.32 65.98 66.76 C 68.14 66.75 70.31 66.74 72.47 66.73 C 68.68 55.82 64.92 44.92 61.19 34.00 C 59.08 34.00 56.97 34.00 54.86 34.01 Z" />
<path fill="#000000" opacity="1.00" d=" M 54.30 53.74 C 55.60 50.10 56.35 46.25 58.09 42.78 C 59.34 46.41 60.47 50.08 61.63 53.74 C 59.19 53.75 56.75 53.75 54.30 53.74 Z" />
</g>
</svg>
