<?xml version="1.0" encoding="UTF-8" ?>
<!DOCTYPE svg PUBLIC "-//W3C//DTD SVG 1.1//EN" "http://www.w3.org/Graphics/SVG/1.1/DTD/svg11.dtd">
<svg width="120pt" height="120pt" viewBox="0 0 120 120" version="1.1" xmlns="http://www.w3.org/2000/svg">
<g id="#000000ff">
<path fill="#000000" opacity="1.00" d=" M 39.55 31.73 C 43.53 28.00 48.31 24.69 53.90 24.20 C 58.63 23.86 63.42 23.78 68.15 24.18 C 70.85 24.52 71.79 27.64 72.03 29.95 C 72.94 38.46 71.05 47.10 72.62 55.57 C 73.03 57.62 74.27 60.68 76.92 59.92 C 79.34 59.03 80.09 56.23 81.19 54.16 C 84.88 45.30 89.83 37.02 95.25 29.12 C 96.10 27.82 97.34 26.73 98.98 26.71 C 106.12 26.08 113.46 27.44 120.00 30.37 L 120.00 31.64 C 117.22 40.44 111.06 47.58 105.78 54.97 C 103.66 58.10 100.69 61.12 100.38 65.06 C 102.58 68.07 105.98 69.87 108.53 72.55 C 112.81 76.90 117.28 81.29 120.00 86.84 L 120.00 89.54 C 119.19 92.80 116.52 95.51 113.09 95.79 C 108.05 96.20 102.97 96.12 97.93 95.89 C 96.39 95.91 95.14 94.97 94.06 93.99 C 88.99 89.38 84.59 83.76 78.37 80.61 C 75.20 79.02 71.49 80.91 69.58 83.56 C 66.84 87.02 69.22 92.59 65.69 95.55 C 61.21 96.59 56.47 95.89 51.99 95.10 C 40.34 92.55 31.62 83.60 24.02 74.98 C 12.93 62.63 5.96 47.34 0.00 32.02 L 0.00 29.31 C 5.79 27.29 12.07 28.19 18.08 28.01 C 20.58 27.68 22.34 29.56 23.60 31.43 C 29.09 39.40 33.48 48.08 39.18 55.90 C 40.65 57.66 42.21 60.08 44.80 59.99 C 47.46 56.61 47.50 52.08 47.85 47.99 C 47.97 43.40 48.41 38.74 47.64 34.19 C 46.36 31.05 42.19 32.20 39.55 31.73 Z" />
</g>
</svg>
