<?xml version="1.0" encoding="UTF-8" ?>
<!DOCTYPE svg PUBLIC "-//W3C//DTD SVG 1.1//EN" "http://www.w3.org/Graphics/SVG/1.1/DTD/svg11.dtd">
<svg width="256pt" height="256pt" viewBox="0 0 256 256" version="1.1" xmlns="http://www.w3.org/2000/svg">
<g id="#000000ff">
<path fill="#000000" opacity="1.00" d=" M 119.93 0.00 L 133.36 0.00 C 153.73 1.12 173.77 7.01 191.50 17.10 C 187.61 20.66 183.68 24.17 179.74 27.68 C 173.89 21.59 168.09 15.45 162.22 9.38 C 152.13 18.30 142.12 27.31 132.02 36.22 C 126.06 29.82 120.18 23.36 114.24 16.95 C 95.74 33.62 77.26 50.30 58.79 67.00 C 70.60 80.11 82.42 93.22 94.28 106.28 C 89.80 110.53 85.02 114.45 80.45 118.61 C 92.13 131.72 103.84 144.82 115.50 157.95 C 110.92 162.05 106.26 166.08 101.67 170.17 C 118.33 188.84 135.05 207.46 151.77 226.09 C 161.69 216.99 171.53 207.81 181.48 198.74 C 190.10 208.54 198.74 218.32 207.34 228.14 C 186.11 244.92 159.65 254.94 132.58 256.00 L 121.62 256.00 C 92.80 254.49 64.61 243.12 43.09 223.86 C 19.51 203.00 4.00 173.21 0.76 141.87 C 0.53 139.36 0.25 136.85 0.00 134.34 L 0.00 122.45 C 0.58 112.66 1.93 102.90 4.61 93.46 C 13.26 62.00 34.56 34.31 62.66 17.75 C 79.97 7.31 99.84 1.60 119.93 0.00 Z" />
<path fill="#000000" opacity="1.00" d=" M 188.23 42.78 C 193.34 38.15 198.26 33.32 203.49 28.84 C 207.93 34.09 212.69 39.06 217.06 44.36 C 211.96 48.85 206.98 53.47 201.92 58.00 C 197.34 52.94 192.79 47.86 188.23 42.78 Z" />
<path fill="#000000" opacity="1.00" d=" M 138.05 53.30 C 145.62 46.44 153.17 39.55 160.77 32.72 C 167.55 40.41 174.68 47.79 181.20 55.69 C 173.57 62.47 166.14 69.47 158.59 76.34 C 151.70 68.70 144.89 60.98 138.05 53.30 Z" />
<path fill="#000000" opacity="1.00" d=" M 82.28 67.98 C 92.44 58.82 102.60 49.67 112.78 40.54 C 121.90 50.73 130.99 60.94 140.10 71.14 C 129.98 80.34 119.77 89.44 109.61 98.59 C 100.48 88.41 91.39 78.19 82.28 67.98 Z" />
<path fill="#000000" opacity="1.00" d=" M 207.73 88.02 C 212.76 83.42 217.82 78.85 222.88 74.28 C 227.45 79.33 231.99 84.42 236.56 89.47 C 231.52 94.08 226.50 98.72 221.35 103.22 C 216.84 98.13 212.24 93.11 207.73 88.02 Z" />
<path fill="#000000" opacity="1.00" d=" M 159.00 99.27 C 166.58 92.41 174.12 85.51 181.74 78.69 C 188.53 86.33 195.49 93.82 202.19 101.54 C 194.59 108.34 187.10 115.27 179.50 122.07 C 172.68 114.46 165.82 106.88 159.00 99.27 Z" />
<path fill="#000000" opacity="1.00" d=" M 103.97 120.03 C 114.14 110.90 124.27 101.71 134.48 92.62 C 143.56 102.84 152.70 113.02 161.79 123.24 C 151.63 132.39 141.46 141.55 131.27 150.67 C 122.18 140.45 113.01 130.29 103.97 120.03 Z" />
<path fill="#000000" opacity="1.00" d=" M 226.96 133.27 C 232.00 128.67 237.05 124.09 242.12 119.52 C 246.76 124.56 251.39 129.61 256.00 134.67 L 256.00 134.80 C 250.89 139.35 245.79 143.92 240.68 148.47 C 236.06 143.44 231.53 138.33 226.96 133.27 Z" />
<path fill="#000000" opacity="1.00" d=" M 178.52 147.59 C 186.00 140.56 193.54 133.53 201.40 126.93 C 208.03 134.70 214.97 142.20 221.71 149.88 C 214.15 156.76 206.58 163.63 199.00 170.49 C 192.14 162.89 185.45 155.13 178.52 147.59 Z" />
<path fill="#000000" opacity="1.00" d=" M 125.64 172.88 C 135.70 163.62 145.80 154.41 155.89 145.19 C 165.09 155.39 174.29 165.59 183.46 175.81 C 173.30 184.96 163.15 194.12 152.96 203.24 C 143.84 193.13 134.73 183.01 125.64 172.88 Z" />
<path fill="#000000" opacity="1.00" d=" M 198.47 193.67 C 206.01 186.77 213.60 179.92 221.18 173.07 C 228.02 180.65 234.86 188.25 241.67 195.86 C 234.11 202.82 226.55 209.76 218.97 216.69 C 212.12 209.03 205.30 201.34 198.47 193.67 Z" />
</g>
</svg>
