<?xml version="1.0" encoding="UTF-8" ?>
<!DOCTYPE svg PUBLIC "-//W3C//DTD SVG 1.1//EN" "http://www.w3.org/Graphics/SVG/1.1/DTD/svg11.dtd">
<svg width="123pt" height="123pt" viewBox="0 0 123 123" version="1.1" xmlns="http://www.w3.org/2000/svg">
<g id="#000000ff">
<path fill="#000000" opacity="1.00" d=" M 120.51 0.00 L 120.97 0.00 C 121.03 19.48 120.99 38.96 120.99 58.45 C 99.36 58.46 77.73 58.46 56.10 58.45 C 56.08 42.12 56.09 25.80 56.09 9.48 C 77.56 6.27 99.06 3.29 120.51 0.00 Z" />
<path fill="#000000" opacity="1.00" d=" M 1.51 17.18 C 17.55 14.89 33.59 12.60 49.63 10.31 C 49.65 26.36 49.66 42.41 49.62 58.46 C 33.59 58.45 17.55 58.47 1.51 58.45 C 1.49 44.69 1.48 30.93 1.51 17.18 Z" />
<path fill="#000000" opacity="1.00" d=" M 1.50 64.06 C 17.55 64.03 33.60 64.03 49.64 64.06 C 49.64 80.09 49.65 96.12 49.64 112.15 C 33.59 109.90 17.55 107.59 1.51 105.29 C 1.47 91.55 1.51 77.81 1.50 64.06 Z" />
<path fill="#000000" opacity="1.00" d=" M 56.10 64.05 C 77.73 64.03 99.36 64.05 120.99 64.04 C 121.01 83.53 121.00 103.01 121.00 122.49 C 99.36 119.35 77.73 116.20 56.10 113.02 C 56.08 96.70 56.09 80.37 56.10 64.05 Z" />
</g>
</svg>
