<?xml version="1.0" encoding="UTF-8" ?>
<!DOCTYPE svg PUBLIC "-//W3C//DTD SVG 1.1//EN" "http://www.w3.org/Graphics/SVG/1.1/DTD/svg11.dtd">
<svg width="128pt" height="128pt" viewBox="0 0 128 128" version="1.1" xmlns="http://www.w3.org/2000/svg">
<g id="#000000ff">
<path fill="#000000" opacity="1.00" d=" M 19.07 16.90 C 45.05 15.74 71.07 15.76 97.06 16.44 C 102.35 16.74 107.70 16.46 112.93 17.45 C 120.76 19.42 126.37 27.01 126.97 34.91 C 127.56 41.71 127.68 48.55 128.00 55.36 L 128.00 72.60 C 127.59 79.77 127.59 86.98 126.80 94.13 C 125.72 102.92 118.15 110.91 109.03 111.02 C 79.03 112.40 48.97 112.33 18.97 111.02 C 9.82 110.95 2.21 102.92 1.16 94.10 C 0.42 87.63 0.44 81.10 0.00 74.60 L 0.00 54.38 C 0.38 47.55 0.41 40.69 1.16 33.88 C 2.19 25.00 9.87 16.94 19.07 16.90 M 51.76 39.37 C 51.75 55.73 51.75 72.08 51.76 88.44 C 63.85 80.28 75.92 72.08 87.99 63.89 C 75.91 55.71 63.85 47.52 51.76 39.37 Z" />
</g>
</svg>
