<?xml version="1.0" encoding="UTF-8" ?>
<!DOCTYPE svg PUBLIC "-//W3C//DTD SVG 1.1//EN" "http://www.w3.org/Graphics/SVG/1.1/DTD/svg11.dtd">
<svg width="852pt" height="231pt" viewBox="0 0 852 231" version="1.1" xmlns="http://www.w3.org/2000/svg">
<g id="#f7971dff">
<path fill="#f7971d" opacity="1.00" d=" M 268.70 0.00 L 272.11 0.00 C 272.56 9.51 276.71 18.84 283.82 25.23 C 290.06 31.06 298.39 34.34 306.89 34.78 C 306.88 35.34 306.88 36.45 306.88 37.00 C 297.61 37.47 288.52 41.38 282.15 48.18 C 276.03 54.46 272.52 63.02 272.15 71.75 C 270.99 71.77 269.84 71.78 268.70 71.78 C 268.26 62.10 263.95 52.64 256.66 46.22 C 250.42 40.50 242.12 37.41 233.72 36.97 C 233.83 36.46 234.04 35.44 234.14 34.93 C 240.41 34.09 246.77 32.67 252.09 29.04 C 261.96 22.83 268.22 11.62 268.70 0.00 Z" />
<path fill="#f7971d" opacity="1.00" d=" M 196.00 18.00 C 203.59 18.01 211.18 17.97 218.77 18.02 C 218.72 87.60 218.76 157.17 218.75 226.75 C 211.17 226.76 203.60 226.73 196.02 226.76 C 195.97 157.18 196.01 87.59 196.00 18.00 Z" />
<path fill="#f7971d" opacity="1.00" d=" M 75.56 29.27 C 83.66 29.22 91.75 29.29 99.85 29.23 C 125.22 95.06 150.57 160.90 175.87 226.75 C 167.24 226.75 158.62 226.73 149.99 226.77 C 143.00 208.39 136.00 190.01 129.15 171.58 C 101.30 171.40 73.45 171.55 45.60 171.50 C 39.02 189.92 32.53 208.37 25.89 226.77 C 17.26 226.73 8.63 226.75 0.00 226.76 L 0.00 226.39 C 25.18 160.68 50.44 95.00 75.56 29.27 M 87.39 52.95 C 86.34 57.62 85.60 62.39 83.90 66.89 C 73.73 94.76 63.56 122.62 53.40 150.49 C 76.05 150.41 98.72 150.69 121.37 150.36 C 111.21 122.91 101.15 95.42 91.00 67.96 C 89.13 63.14 88.32 58.01 87.39 52.95 Z" />
<path fill="#f7971d" opacity="1.00" d=" M 258.73 85.55 C 266.32 85.44 273.91 85.53 281.50 85.51 C 281.55 132.55 281.40 179.59 281.58 226.64 C 274.01 226.92 266.43 226.61 258.86 226.81 C 258.60 179.73 258.85 132.64 258.73 85.55 Z" />
</g>
<g id="#e43225ff">
<path fill="#e43225" opacity="1.00" d=" M 365.33 36.27 C 381.81 27.91 400.64 25.06 418.97 26.00 C 432.61 26.43 446.38 28.55 459.00 33.95 C 459.00 42.28 459.00 50.60 459.00 58.93 C 439.35 48.10 415.85 44.38 393.86 48.87 C 378.35 52.04 364.09 60.75 354.13 73.04 C 343.43 85.89 337.83 102.38 336.40 118.90 C 334.92 136.66 336.48 155.21 344.43 171.41 C 352.59 188.06 367.73 201.44 385.76 206.29 C 400.98 210.48 417.21 209.68 432.53 206.42 C 441.84 204.31 450.82 200.73 459.00 195.80 C 458.96 203.45 459.08 211.10 458.94 218.75 C 439.57 228.52 417.34 231.11 395.91 229.90 C 375.00 228.76 354.16 220.67 339.28 205.68 C 323.68 190.54 314.64 169.53 312.32 148.07 C 310.26 128.32 311.49 107.88 318.39 89.12 C 326.62 66.42 343.80 47.16 365.33 36.27 Z" />
<path fill="#e43225" opacity="1.00" d=" M 793.25 51.22 C 800.92 48.79 808.55 46.22 816.24 43.84 C 816.32 57.75 816.13 71.66 816.33 85.56 C 828.22 85.35 840.11 85.68 852.00 85.39 L 852.00 85.83 C 851.44 92.29 851.89 98.77 851.75 105.25 C 839.91 105.26 828.08 105.24 816.25 105.25 C 816.24 132.17 816.26 159.09 816.24 186.00 C 816.29 191.60 816.94 197.39 819.56 202.42 C 821.97 207.01 826.95 209.72 832.00 210.31 C 838.87 211.51 846.06 209.92 851.80 205.96 C 851.63 212.57 851.91 219.18 851.62 225.79 C 841.99 230.07 831.08 230.77 820.78 229.09 C 812.71 227.76 804.86 223.55 800.29 216.62 C 794.59 208.29 793.41 197.88 793.26 188.04 C 793.24 160.44 793.26 132.85 793.25 105.25 C 785.17 105.24 777.08 105.26 769.00 105.25 C 769.00 98.66 768.97 92.07 769.03 85.48 C 777.10 85.51 785.17 85.50 793.25 85.49 C 793.26 74.07 793.25 62.64 793.25 51.22 Z" />
<path fill="#e43225" opacity="1.00" d=" M 532.81 83.50 C 548.31 80.75 565.36 82.40 578.72 91.26 C 591.74 99.98 599.39 114.86 602.10 130.00 C 604.30 140.52 603.65 151.30 603.77 161.97 C 570.59 162.04 537.41 161.99 504.23 161.99 C 504.63 174.85 507.74 188.50 516.91 198.06 C 523.82 205.64 533.87 209.70 543.96 210.61 C 561.88 212.51 580.07 206.34 594.00 195.11 C 593.99 202.33 594.02 209.56 593.98 216.78 C 578.73 227.67 559.34 230.69 540.99 230.12 C 526.32 229.66 511.42 224.65 500.82 214.22 C 489.31 203.29 483.38 187.69 481.52 172.17 C 479.40 153.63 480.64 133.97 489.43 117.17 C 498.18 100.48 514.01 87.00 532.81 83.50 M 522.41 109.31 C 512.09 117.33 506.39 129.91 504.50 142.62 C 529.88 142.81 555.29 142.91 580.67 142.56 C 580.09 134.92 579.34 127.07 575.92 120.09 C 572.44 112.55 566.03 106.26 558.11 103.57 C 546.24 99.61 532.28 101.37 522.41 109.31 Z" />
<path fill="#e43225" opacity="1.00" d=" M 668.45 93.38 C 681.05 82.86 698.74 80.34 714.47 83.62 C 725.02 85.78 734.63 92.32 740.22 101.57 C 747.64 113.27 749.27 127.51 749.47 141.07 C 749.61 169.58 749.35 198.10 749.60 226.60 C 741.88 226.86 734.14 226.80 726.42 226.63 C 726.59 198.72 726.46 170.81 726.49 142.89 C 726.10 131.75 724.29 119.78 716.92 110.95 C 709.95 102.75 698.24 100.39 688.01 102.01 C 679.05 103.16 670.87 108.20 665.25 115.18 C 658.56 123.18 655.24 133.62 655.00 143.97 C 654.98 171.57 655.04 199.17 654.97 226.77 C 647.32 226.73 639.68 226.73 632.04 226.77 C 631.96 179.68 632.02 132.59 632.00 85.50 C 639.67 85.50 647.33 85.50 655.00 85.50 C 655.04 93.31 654.91 101.12 655.07 108.92 C 658.97 103.30 662.96 97.59 668.45 93.38 Z" />
</g>
</svg>
