<?xml version="1.0" encoding="UTF-8" ?>
<!DOCTYPE svg PUBLIC "-//W3C//DTD SVG 1.1//EN" "http://www.w3.org/Graphics/SVG/1.1/DTD/svg11.dtd">
<svg width="500pt" height="224pt" viewBox="0 0 500 224" version="1.1" xmlns="http://www.w3.org/2000/svg">
<g id="#010101ff">
<path fill="#010101" opacity="1.00" d=" M 379.12 2.12 C 384.12 -0.12 389.70 0.40 395.02 0.69 C 401.00 0.73 407.02 0.83 412.94 1.85 C 420.68 3.88 428.17 6.94 434.99 11.15 C 443.23 15.87 452.44 19.99 458.27 27.80 C 462.12 34.46 465.10 42.14 464.24 49.96 C 463.91 52.98 463.49 56.01 462.92 59.00 C 460.93 65.53 457.15 71.36 452.80 76.57 C 462.00 80.59 471.92 82.51 481.40 85.70 C 486.87 88.54 492.93 91.18 496.52 96.46 C 501.57 103.52 500.49 113.32 496.70 120.69 C 494.21 125.98 489.23 129.40 484.32 132.23 C 478.38 135.77 471.68 137.92 464.93 139.23 C 457.01 139.96 449.46 142.53 441.86 144.73 C 435.40 147.30 428.47 148.78 422.54 152.53 C 418.90 154.75 413.94 154.75 411.26 158.42 C 405.38 164.97 397.89 169.73 390.57 174.49 C 383.67 178.09 376.74 181.94 369.08 183.66 C 363.10 184.34 357.00 184.95 351.02 183.97 C 347.63 183.37 344.23 184.03 340.87 184.47 C 334.21 185.11 328.41 189.17 324.00 193.99 C 321.57 196.62 318.12 197.97 315.54 200.44 C 311.87 203.44 309.54 207.81 305.59 210.50 C 302.10 212.88 297.73 213.25 294.02 215.14 C 288.66 217.65 283.80 221.36 277.92 222.62 C 271.06 224.29 263.98 223.36 257.01 223.67 C 245.61 224.13 234.34 221.91 222.98 221.51 C 218.35 221.48 213.69 221.56 209.10 221.04 C 201.56 218.45 196.58 209.59 187.92 210.18 C 183.15 211.01 177.08 210.67 173.93 215.00 C 168.63 215.71 163.43 217.37 158.03 217.19 C 149.36 217.07 140.67 217.40 132.00 216.92 C 127.96 217.14 124.04 218.44 119.96 218.41 C 107.65 218.46 95.33 219.12 83.02 218.73 C 79.31 218.69 75.96 216.96 72.66 215.45 C 68.54 213.39 64.10 211.56 61.08 207.93 C 57.03 203.25 51.95 199.66 47.50 195.39 C 43.09 191.83 37.13 189.81 34.46 184.42 C 32.08 181.18 33.44 176.64 35.93 173.90 C 40.71 169.82 47.16 168.19 51.59 163.62 C 54.97 160.70 56.41 155.54 54.69 151.38 C 52.65 147.98 48.81 146.15 45.10 145.16 C 40.67 143.64 35.87 144.78 31.39 143.45 C 21.84 140.52 10.82 141.81 2.44 135.55 C -0.06 133.94 -0.40 130.71 0.58 128.11 C 1.88 124.65 3.83 121.22 7.01 119.17 C 14.06 114.71 20.96 109.86 28.71 106.65 C 38.98 103.00 49.44 99.97 59.91 96.97 C 70.69 93.19 81.46 89.06 92.79 87.28 C 97.57 86.46 102.19 84.96 106.90 83.82 C 108.37 83.56 109.47 82.53 110.50 81.52 C 108.60 79.51 106.66 76.98 107.59 74.03 C 107.96 69.00 113.53 67.91 117.32 66.34 C 127.27 62.77 137.21 58.39 147.94 57.98 C 159.63 57.56 171.39 57.66 183.01 59.13 C 194.40 59.56 205.64 61.57 216.89 63.16 C 226.21 63.62 235.55 64.19 244.88 63.75 C 245.38 63.37 246.40 62.61 246.90 62.23 C 246.02 59.85 244.82 56.98 246.73 54.74 C 249.02 52.44 251.87 50.51 255.09 49.81 C 264.53 47.54 274.29 47.55 283.91 46.54 C 291.93 46.32 299.96 46.53 307.99 46.45 C 315.11 46.52 322.41 46.04 329.31 48.14 C 328.67 41.81 331.79 36.07 334.91 30.83 C 337.89 26.61 340.71 22.09 344.95 19.01 C 351.71 13.90 359.93 11.41 367.32 7.43 C 371.16 5.45 375.23 4.00 379.12 2.12 M 381.45 4.29 C 379.94 7.32 383.20 10.15 386.09 10.12 C 389.38 10.17 393.15 10.98 396.10 9.14 C 398.26 7.71 396.58 5.15 395.02 4.03 C 394.44 5.14 394.71 7.41 392.95 7.52 C 390.10 7.48 386.63 8.46 384.38 6.18 C 385.09 5.13 385.80 4.08 386.51 3.02 C 384.82 3.34 382.89 3.19 381.45 4.29 M 396.83 3.30 C 397.98 5.33 399.83 7.78 398.04 10.03 C 395.15 12.79 390.80 12.65 387.08 13.08 C 382.43 13.69 377.86 11.20 375.21 7.48 C 363.27 14.08 349.67 19.05 340.82 29.95 C 336.82 34.70 337.03 41.14 336.00 46.94 C 335.80 53.73 339.28 59.80 343.08 65.16 C 344.91 66.99 342.73 68.59 340.97 68.96 C 337.21 69.94 333.73 71.73 329.96 72.65 C 329.46 72.26 328.46 71.46 327.96 71.07 C 328.86 71.03 333.26 69.99 330.11 68.98 C 323.25 65.76 315.61 63.90 308.01 64.45 C 304.24 64.62 300.61 65.77 296.92 66.42 C 295.27 66.70 293.69 67.33 292.49 68.53 C 302.26 66.95 312.37 65.05 322.19 67.35 C 307.36 67.30 292.85 70.89 278.57 74.50 C 278.31 76.64 278.42 79.06 276.96 80.82 C 271.03 81.93 264.69 81.16 259.27 78.37 C 256.18 79.45 252.49 79.64 250.24 82.28 C 244.11 88.34 235.42 90.15 227.97 93.93 C 222.55 98.16 215.52 98.77 209.37 101.45 C 204.43 103.63 199.31 105.34 194.28 107.26 C 187.98 110.47 181.36 112.98 174.96 115.96 C 171.01 117.93 166.66 118.85 162.40 119.86 C 163.48 122.19 164.51 124.55 165.68 126.84 C 171.42 124.93 176.86 122.32 182.57 120.34 C 189.16 117.53 196.29 116.40 203.03 114.05 C 210.77 112.86 218.16 110.19 225.83 108.71 C 223.44 110.61 220.71 111.99 217.79 112.86 C 211.17 114.90 204.84 117.80 198.17 119.67 C 186.96 121.63 176.76 126.96 165.88 130.05 C 165.49 132.45 166.07 135.96 163.42 137.22 C 164.08 131.54 162.58 126.06 160.23 120.93 C 159.41 121.15 157.76 121.59 156.94 121.80 C 157.02 128.88 152.99 136.03 156.12 142.92 C 161.32 145.54 167.53 146.43 173.04 144.19 C 179.76 141.79 186.94 140.72 193.42 137.65 C 196.04 136.57 198.64 135.41 201.41 134.76 C 208.73 133.29 215.71 130.43 223.12 129.39 C 226.42 128.86 229.71 128.22 232.91 127.25 C 237.75 125.79 242.91 125.42 247.53 123.27 C 255.51 119.76 264.09 118.08 272.27 115.13 L 272.72 116.41 C 268.02 118.04 263.36 119.77 258.84 121.85 C 249.25 125.82 239.23 128.83 228.92 130.24 C 220.29 132.68 211.64 135.12 202.82 136.86 C 195.04 138.87 187.51 141.70 179.91 144.30 C 172.63 146.21 164.73 149.59 157.26 146.71 C 152.01 144.43 153.66 137.90 153.61 133.38 C 149.49 133.22 145.38 132.82 141.27 132.44 C 141.28 125.95 140.34 119.49 140.54 113.00 C 140.52 110.52 141.57 108.22 142.81 106.13 C 143.62 106.12 145.25 106.11 146.07 106.10 C 150.33 109.56 151.01 115.16 151.24 120.28 C 152.80 120.34 154.36 120.42 155.93 120.44 C 161.17 117.74 166.83 115.87 172.52 114.34 C 179.88 111.57 187.20 108.69 194.18 105.04 C 203.10 101.96 211.89 98.52 220.90 95.71 C 224.17 94.60 226.81 92.26 229.93 90.84 C 236.01 87.70 243.19 86.37 248.20 81.43 C 248.64 79.52 247.85 77.07 249.70 75.74 C 252.96 72.81 256.57 69.74 261.16 69.46 C 266.54 68.36 272.40 68.39 277.03 71.71 C 280.02 71.02 283.00 70.33 286.06 69.96 C 289.07 69.55 290.84 66.69 293.52 65.54 C 301.44 62.99 309.86 62.97 318.08 63.53 C 322.12 64.18 325.93 65.79 329.73 67.23 C 331.10 67.68 331.87 68.97 332.78 69.98 C 334.30 69.20 335.74 68.29 337.08 67.23 C 333.92 62.92 331.51 58.14 330.32 52.91 C 325.22 52.31 320.13 51.49 314.99 51.65 C 300.68 51.79 286.36 51.34 272.06 51.82 C 264.56 53.02 255.86 52.53 249.71 57.65 C 250.36 59.90 251.46 63.36 248.97 64.88 C 243.16 69.07 235.71 67.68 229.03 67.77 C 220.91 68.12 213.07 65.21 204.96 65.50 C 190.66 64.03 176.48 60.60 162.01 61.14 C 147.64 60.68 134.11 65.98 120.50 69.78 C 117.42 71.17 114.02 72.17 111.36 74.30 C 109.99 77.91 115.95 79.97 114.73 83.69 C 113.31 85.63 111.04 86.69 108.88 87.58 C 99.90 91.20 90.04 91.32 80.83 94.12 C 75.27 95.85 69.39 96.52 64.03 98.91 C 58.47 101.60 52.16 101.92 46.55 104.46 C 37.41 107.58 28.12 110.69 19.90 115.88 C 15.49 118.49 10.62 120.36 6.51 123.47 C 4.35 125.11 4.36 128.08 4.71 130.51 C 5.52 132.64 8.08 133.11 9.97 133.87 C 18.78 136.62 27.66 139.67 36.91 140.43 C 42.09 140.36 47.35 140.71 52.20 142.67 C 56.17 143.98 57.85 148.26 59.25 151.82 C 59.93 156.72 58.45 161.83 56.21 166.18 C 52.05 171.54 45.20 173.52 39.38 176.50 C 37.46 177.52 37.58 179.91 38.54 181.58 C 41.04 185.58 44.19 189.27 48.23 191.79 C 53.53 196.12 57.72 201.94 64.08 204.87 C 68.17 206.47 70.61 210.42 74.53 212.28 C 79.66 214.85 85.50 214.86 91.09 214.89 C 107.09 216.41 123.04 213.34 139.05 213.76 C 146.43 213.69 153.77 212.73 161.10 212.00 C 164.63 211.44 168.41 211.38 171.57 209.52 C 174.15 208.01 176.83 206.18 179.98 206.41 C 186.18 206.43 193.05 205.74 198.38 209.61 C 202.41 212.64 206.67 215.37 211.06 217.86 C 215.09 219.94 219.64 217.81 223.88 218.47 C 230.52 219.46 237.25 219.82 243.96 219.72 C 253.64 219.35 263.34 219.92 273.01 219.08 C 280.57 217.97 287.85 215.24 294.46 211.43 C 298.15 209.44 302.91 209.12 305.64 205.60 C 307.84 202.83 310.25 200.22 313.19 198.22 C 316.38 195.75 320.31 194.15 322.88 190.95 C 327.63 183.23 337.36 180.28 345.96 179.94 C 359.91 181.26 374.74 180.29 387.20 173.30 C 391.48 171.13 395.41 168.23 398.60 164.63 C 402.00 160.63 406.52 157.86 410.13 154.08 C 412.88 151.16 417.08 151.07 420.55 149.55 C 429.82 143.41 440.88 140.96 451.49 138.15 C 461.92 134.48 474.03 135.91 483.42 129.34 C 489.85 125.82 495.02 119.51 495.50 112.00 C 495.78 106.75 495.12 100.83 490.89 97.19 C 484.92 92.52 478.27 88.66 471.26 85.83 C 463.85 83.67 456.64 80.65 449.07 79.21 C 445.14 82.65 440.80 85.81 435.78 87.42 C 434.60 79.61 434.05 71.63 431.81 64.03 C 431.72 59.87 432.22 55.62 431.30 51.51 C 430.00 47.32 430.70 42.75 428.76 38.71 C 431.35 38.47 434.26 38.16 436.13 36.13 C 437.94 33.33 437.24 29.48 434.77 27.31 C 432.31 25.37 429.22 24.31 426.11 24.15 C 421.84 23.83 417.32 23.62 413.33 25.38 C 410.53 26.43 409.57 30.31 411.25 32.70 C 413.33 36.49 417.92 37.23 421.68 38.38 C 423.47 42.87 425.82 47.18 426.79 51.96 C 427.74 55.60 427.31 59.40 427.24 63.11 C 425.70 68.85 425.16 74.96 425.22 80.93 C 424.16 84.94 425.48 90.87 420.83 92.88 C 412.37 96.52 402.97 95.28 394.01 95.49 C 383.33 95.94 372.49 93.78 362.89 89.06 C 356.49 84.77 348.39 87.19 341.48 88.79 C 342.06 91.50 342.90 94.59 341.08 97.04 C 339.34 100.80 335.88 103.12 333.07 105.99 C 330.43 109.73 326.44 112.09 323.03 115.04 C 319.09 118.08 315.27 122.25 309.89 122.21 C 302.94 122.37 296.99 126.86 290.04 126.97 C 286.17 127.70 282.28 126.71 278.73 125.22 C 276.24 123.98 275.16 121.22 273.77 118.99 C 272.41 109.22 284.29 103.77 283.55 94.08 C 283.86 89.62 280.15 86.26 279.62 82.02 C 282.86 77.78 288.90 78.75 293.50 79.34 C 300.89 81.18 301.75 89.80 304.15 95.76 C 311.41 95.17 318.38 92.74 325.27 90.49 C 324.58 91.37 323.90 92.34 322.83 92.79 C 316.90 95.83 310.17 96.48 304.02 98.90 C 303.06 103.27 301.23 107.74 297.66 110.63 C 295.93 111.93 294.74 113.76 293.22 115.27 C 292.99 109.53 299.26 106.80 300.49 101.59 C 302.12 96.29 300.37 90.70 298.39 85.76 C 295.35 80.38 287.73 79.23 282.51 81.87 C 285.01 87.66 288.12 94.22 285.71 100.57 C 283.15 105.14 278.99 108.88 277.45 114.00 C 277.49 117.07 276.64 121.41 280.05 123.01 C 284.48 125.56 289.59 123.20 294.05 121.93 C 301.88 118.98 310.78 119.65 318.16 115.38 C 322.95 112.63 327.31 109.12 331.06 105.06 C 334.50 101.87 338.16 98.46 339.79 93.97 C 339.43 90.94 337.75 88.31 336.98 85.40 C 342.70 82.70 349.13 82.87 355.31 82.90 C 355.28 82.28 355.24 81.05 355.21 80.43 C 356.19 81.21 357.11 82.07 358.16 82.76 C 370.63 88.48 384.51 89.77 398.04 90.57 C 406.04 90.33 414.76 91.62 422.10 87.87 C 422.26 83.88 423.33 79.99 423.42 76.00 C 423.07 69.86 425.90 64.08 425.71 57.94 C 425.05 51.67 422.86 45.67 419.64 40.26 C 414.97 38.44 410.14 35.77 408.24 30.81 C 406.74 27.43 409.78 23.91 413.06 23.34 C 420.01 21.64 427.85 21.25 434.34 24.75 C 438.95 27.28 441.91 33.54 439.31 38.46 C 437.78 40.77 434.84 40.72 432.40 40.75 C 432.31 43.13 432.16 45.54 432.58 47.90 C 433.82 54.55 433.24 61.35 433.81 68.06 C 434.31 72.82 436.93 77.30 435.89 82.18 C 442.35 78.05 448.75 73.71 454.40 68.50 C 458.44 63.17 460.68 56.55 461.61 49.97 C 462.37 43.20 459.20 36.95 455.46 31.56 C 451.23 24.15 443.52 19.87 436.31 15.84 C 430.92 13.85 426.38 10.10 420.89 8.35 C 412.78 7.00 405.30 2.40 396.83 3.30 M 249.81 79.36 C 253.24 78.15 257.14 78.32 260.17 76.09 C 261.78 78.83 265.20 78.31 267.90 78.72 C 270.25 78.79 272.74 79.52 275.03 78.76 C 277.10 76.56 275.19 73.00 272.87 71.85 C 264.73 70.28 254.08 71.22 249.81 79.36 M 141.77 112.90 C 142.16 118.92 142.33 124.97 142.80 130.99 C 146.46 131.47 150.15 131.55 153.83 131.84 C 154.72 128.41 154.96 124.86 155.99 121.47 C 154.40 121.57 152.80 121.62 151.20 121.64 C 152.69 122.86 151.57 124.70 150.82 125.97 C 149.98 121.47 148.73 117.04 148.27 112.48 C 147.66 110.93 146.93 108.72 144.99 108.55 C 143.30 109.28 141.48 110.85 141.77 112.90 Z" />
<path fill="#010101" opacity="1.00" d=" M 375.02 20.85 C 380.49 16.88 387.50 24.28 385.08 29.98 C 382.81 25.98 380.08 21.44 375.02 20.85 Z" />
<path fill="#010101" opacity="1.00" d=" M 419.48 27.77 C 422.26 25.88 425.86 26.35 428.98 26.92 C 431.61 28.25 431.35 32.43 428.63 33.49 C 425.00 34.31 420.96 33.43 418.33 30.69 C 417.64 29.61 418.61 28.38 419.48 27.77 Z" />
</g>
<g id="#ffffffff">
<path fill="#ffffff" opacity="1.00" d=" M 381.45 4.29 C 382.89 3.19 384.82 3.34 386.51 3.02 C 385.80 4.08 385.09 5.13 384.38 6.18 C 386.63 8.46 390.10 7.48 392.95 7.52 C 394.71 7.41 394.44 5.14 395.02 4.03 C 396.58 5.15 398.26 7.71 396.10 9.14 C 393.15 10.98 389.38 10.17 386.09 10.12 C 383.20 10.15 379.94 7.32 381.45 4.29 Z" />
<path fill="#ffffff" opacity="1.00" d=" M 396.83 3.30 C 405.30 2.40 412.78 7.00 420.89 8.35 C 426.38 10.10 430.92 13.85 436.31 15.84 C 443.52 19.87 451.23 24.15 455.46 31.56 C 459.20 36.95 462.37 43.20 461.61 49.97 C 460.68 56.55 458.44 63.17 454.40 68.50 C 448.75 73.71 442.35 78.05 435.89 82.18 C 436.93 77.30 434.31 72.82 433.81 68.06 C 433.24 61.35 433.82 54.55 432.58 47.90 C 432.16 45.54 432.31 43.13 432.40 40.75 C 434.84 40.72 437.78 40.77 439.31 38.46 C 441.91 33.54 438.95 27.28 434.34 24.75 C 427.85 21.25 420.01 21.64 413.06 23.34 C 409.78 23.91 406.74 27.43 408.24 30.81 C 410.14 35.77 414.97 38.44 419.64 40.26 C 422.86 45.67 425.05 51.67 425.71 57.94 C 425.90 64.08 423.07 69.86 423.42 76.00 C 423.33 79.99 422.26 83.88 422.10 87.87 C 414.76 91.62 406.04 90.33 398.04 90.57 C 384.51 89.77 370.63 88.48 358.16 82.76 C 357.11 82.07 356.19 81.21 355.21 80.43 C 355.24 81.05 355.28 82.28 355.31 82.90 C 349.13 82.87 342.70 82.70 336.98 85.40 C 337.75 88.31 339.43 90.94 339.79 93.97 C 338.16 98.46 334.50 101.87 331.06 105.06 C 327.31 109.12 322.95 112.63 318.16 115.38 C 310.78 119.65 301.88 118.98 294.05 121.93 C 289.59 123.20 284.48 125.56 280.05 123.01 C 276.64 121.41 277.49 117.07 277.45 114.00 C 278.99 108.88 283.15 105.14 285.71 100.57 C 288.12 94.22 285.01 87.66 282.51 81.87 C 287.73 79.23 295.35 80.38 298.39 85.76 C 300.37 90.70 302.12 96.29 300.49 101.59 C 299.26 106.80 292.99 109.53 293.22 115.27 C 294.74 113.76 295.93 111.93 297.66 110.63 C 301.23 107.74 303.06 103.27 304.02 98.90 C 310.17 96.48 316.90 95.83 322.83 92.79 C 323.90 92.34 324.58 91.37 325.27 90.49 C 318.38 92.74 311.41 95.17 304.15 95.76 C 301.75 89.80 300.89 81.18 293.50 79.34 C 288.90 78.75 282.86 77.78 279.62 82.02 C 280.15 86.26 283.86 89.62 283.55 94.08 C 284.29 103.77 272.41 109.22 273.77 118.99 C 273.40 118.14 273.04 117.28 272.72 116.41 L 272.27 115.13 C 264.09 118.08 255.51 119.76 247.53 123.27 C 242.91 125.42 237.75 125.79 232.91 127.25 C 229.71 128.22 226.42 128.86 223.12 129.39 C 215.71 130.43 208.73 133.29 201.41 134.76 C 198.64 135.41 196.04 136.57 193.42 137.65 C 186.94 140.72 179.76 141.79 173.04 144.19 C 167.53 146.43 161.32 145.54 156.12 142.92 C 152.99 136.03 157.02 128.88 156.94 121.80 C 157.76 121.59 159.41 121.15 160.23 120.93 C 162.58 126.06 164.08 131.54 163.42 137.22 C 166.07 135.96 165.49 132.45 165.88 130.05 C 176.76 126.96 186.96 121.63 198.17 119.67 C 204.84 117.80 211.17 114.90 217.79 112.86 C 220.71 111.99 223.44 110.61 225.83 108.71 C 218.16 110.19 210.77 112.86 203.03 114.05 C 196.29 116.40 189.16 117.53 182.57 120.34 C 176.86 122.32 171.42 124.93 165.68 126.84 C 164.51 124.55 163.48 122.19 162.40 119.86 C 166.66 118.85 171.01 117.93 174.96 115.96 C 181.36 112.98 187.98 110.47 194.28 107.26 C 199.31 105.34 204.43 103.63 209.37 101.45 C 215.52 98.77 222.55 98.16 227.97 93.93 C 235.42 90.15 244.11 88.34 250.24 82.28 C 252.49 79.64 256.18 79.45 259.27 78.37 C 264.69 81.16 271.03 81.93 276.96 80.82 C 278.42 79.06 278.31 76.64 278.57 74.50 C 292.85 70.89 307.36 67.30 322.19 67.35 C 312.37 65.05 302.26 66.95 292.49 68.53 C 293.69 67.33 295.27 66.70 296.92 66.42 C 300.61 65.77 304.24 64.62 308.01 64.45 C 315.61 63.90 323.25 65.76 330.11 68.98 C 333.26 69.99 328.86 71.03 327.96 71.07 C 328.46 71.46 329.46 72.26 329.96 72.65 C 333.73 71.73 337.21 69.94 340.97 68.96 C 342.73 68.59 344.91 66.99 343.08 65.16 C 339.28 59.80 335.80 53.73 336.00 46.94 C 337.03 41.14 336.82 34.70 340.82 29.95 C 349.67 19.05 363.27 14.08 375.21 7.48 C 377.86 11.20 382.43 13.69 387.08 13.08 C 390.80 12.65 395.15 12.79 398.04 10.03 C 399.83 7.78 397.98 5.33 396.83 3.30 M 375.02 20.85 C 380.08 21.44 382.81 25.98 385.08 29.98 C 387.50 24.28 380.49 16.88 375.02 20.85 Z" />
<path fill="#ffffff" opacity="1.00" d=" M 413.33 25.38 C 417.32 23.62 421.84 23.83 426.11 24.15 C 429.22 24.31 432.31 25.37 434.77 27.31 C 437.24 29.48 437.94 33.33 436.13 36.13 C 434.26 38.16 431.35 38.47 428.76 38.71 C 430.70 42.75 430.00 47.32 431.30 51.51 C 432.22 55.62 431.72 59.87 431.81 64.03 C 429.89 61.33 429.57 58.02 429.31 54.82 C 429.37 57.22 429.43 59.63 429.29 62.03 C 428.77 62.30 427.75 62.84 427.24 63.11 C 427.31 59.40 427.74 55.60 426.79 51.96 C 425.82 47.18 423.47 42.87 421.68 38.38 C 417.92 37.23 413.33 36.49 411.25 32.70 C 409.57 30.31 410.53 26.43 413.33 25.38 M 419.48 27.77 C 418.61 28.38 417.64 29.61 418.33 30.69 C 420.96 33.43 425.00 34.31 428.63 33.49 C 431.35 32.43 431.61 28.25 428.98 26.92 C 425.86 26.35 422.26 25.88 419.48 27.77 Z" />
<path fill="#ffffff" opacity="1.00" d=" M 249.81 79.36 C 254.08 71.22 264.73 70.28 272.87 71.85 C 275.19 73.00 277.10 76.56 275.03 78.76 C 272.74 79.52 270.25 78.79 267.90 78.72 C 265.20 78.31 261.78 78.83 260.17 76.09 C 257.14 78.32 253.24 78.15 249.81 79.36 Z" />
<path fill="#ffffff" opacity="1.00" d=" M 141.77 112.90 C 141.48 110.85 143.30 109.28 144.99 108.55 C 146.93 108.72 147.66 110.93 148.27 112.48 C 148.73 117.04 149.98 121.47 150.82 125.97 C 151.57 124.70 152.69 122.86 151.20 121.64 C 152.80 121.62 154.40 121.57 155.99 121.47 C 154.96 124.86 154.72 128.41 153.83 131.84 C 150.15 131.55 146.46 131.47 142.80 130.99 C 142.33 124.97 142.16 118.92 141.77 112.90 Z" />
</g>
<g id="#acd2ffff">
<path fill="#acd2ff" opacity="1.00" d=" M 249.71 57.65 C 255.86 52.53 264.56 53.02 272.06 51.82 C 286.36 51.34 300.68 51.79 314.99 51.65 C 320.13 51.49 325.22 52.31 330.32 52.91 C 331.51 58.14 333.92 62.92 337.08 67.23 C 335.74 68.29 334.30 69.20 332.78 69.98 C 331.87 68.97 331.10 67.68 329.73 67.23 C 325.93 65.79 322.12 64.18 318.08 63.53 C 309.86 62.97 301.44 62.99 293.52 65.54 C 290.84 66.69 289.07 69.55 286.06 69.96 C 283.00 70.33 280.02 71.02 277.03 71.71 C 272.40 68.39 266.54 68.36 261.16 69.46 C 256.57 69.74 252.96 72.81 249.70 75.74 C 247.85 77.07 248.64 79.52 248.20 81.43 C 243.19 86.37 236.01 87.70 229.93 90.84 C 226.81 92.26 224.17 94.60 220.90 95.71 C 211.89 98.52 203.10 101.96 194.18 105.04 C 187.20 108.69 179.88 111.57 172.52 114.34 C 166.83 115.87 161.17 117.74 155.93 120.44 C 154.36 120.42 152.80 120.34 151.24 120.28 C 151.01 115.16 150.33 109.56 146.07 106.10 C 145.25 106.11 143.62 106.12 142.81 106.13 C 141.57 108.22 140.52 110.52 140.54 113.00 C 140.34 119.49 141.28 125.95 141.27 132.44 C 145.38 132.82 149.49 133.22 153.61 133.38 C 153.66 137.90 152.01 144.43 157.26 146.71 C 164.73 149.59 172.63 146.21 179.91 144.30 C 187.51 141.70 195.04 138.87 202.82 136.86 C 211.64 135.12 220.29 132.68 228.92 130.24 C 239.23 128.83 249.25 125.82 258.84 121.85 C 263.36 119.77 268.02 118.04 272.72 116.41 C 273.04 117.28 273.40 118.14 273.77 118.99 C 275.16 121.22 276.24 123.98 278.73 125.22 C 282.28 126.71 286.17 127.70 290.04 126.97 C 296.99 126.86 302.94 122.37 309.89 122.21 C 315.27 122.25 319.09 118.08 323.03 115.04 C 326.44 112.09 330.43 109.73 333.07 105.99 C 335.88 103.12 339.34 100.80 341.08 97.04 C 342.90 94.59 342.06 91.50 341.48 88.79 C 348.39 87.19 356.49 84.77 362.89 89.06 C 372.49 93.78 383.33 95.94 394.01 95.49 C 402.97 95.28 412.37 96.52 420.83 92.88 C 425.48 90.87 424.16 84.94 425.22 80.93 C 425.16 74.96 425.70 68.85 427.24 63.11 C 427.75 62.84 428.77 62.30 429.29 62.03 C 429.43 59.63 429.37 57.22 429.31 54.82 C 429.57 58.02 429.89 61.33 431.81 64.03 C 434.05 71.63 434.60 79.61 435.78 87.42 C 440.80 85.81 445.14 82.65 449.07 79.21 C 456.64 80.65 463.85 83.67 471.26 85.83 C 478.27 88.66 484.92 92.52 490.89 97.19 C 495.12 100.83 495.78 106.75 495.50 112.00 C 495.02 119.51 489.85 125.82 483.42 129.34 C 474.03 135.91 461.92 134.48 451.49 138.15 C 440.88 140.96 429.82 143.41 420.55 149.55 C 417.08 151.07 412.88 151.16 410.13 154.08 C 406.52 157.86 402.00 160.63 398.60 164.63 C 395.41 168.23 391.48 171.13 387.20 173.30 C 374.74 180.29 359.91 181.26 345.96 179.94 C 337.36 180.28 327.63 183.23 322.88 190.95 C 320.31 194.15 316.38 195.75 313.19 198.22 C 310.25 200.22 307.84 202.83 305.64 205.60 C 302.91 209.12 298.15 209.44 294.46 211.43 C 287.85 215.24 280.57 217.97 273.01 219.08 C 263.34 219.92 253.64 219.35 243.96 219.72 C 237.25 219.82 230.52 219.46 223.88 218.47 C 219.64 217.81 215.09 219.94 211.06 217.86 C 206.67 215.37 202.41 212.64 198.38 209.61 C 193.05 205.74 186.18 206.43 179.98 206.41 C 176.83 206.18 174.15 208.01 171.57 209.52 C 168.41 211.38 164.63 211.44 161.10 212.00 C 153.77 212.73 146.43 213.69 139.05 213.76 C 123.04 213.34 107.09 216.41 91.09 214.89 C 85.50 214.86 79.66 214.85 74.53 212.28 C 70.61 210.42 68.17 206.47 64.08 204.87 C 57.72 201.94 53.53 196.12 48.23 191.79 C 44.19 189.27 41.04 185.58 38.54 181.58 C 37.58 179.91 37.46 177.52 39.38 176.50 C 45.20 173.52 52.05 171.54 56.21 166.18 C 58.45 161.83 59.93 156.72 59.25 151.82 C 57.85 148.26 56.17 143.98 52.20 142.67 C 47.35 140.71 42.09 140.36 36.91 140.43 C 27.66 139.67 18.78 136.62 9.97 133.87 C 8.08 133.11 5.52 132.64 4.71 130.51 C 4.36 128.08 4.35 125.11 6.51 123.47 C 10.62 120.36 15.49 118.49 19.90 115.88 C 28.12 110.69 37.41 107.58 46.55 104.46 C 52.16 101.92 58.47 101.60 64.03 98.91 C 69.39 96.52 75.27 95.85 80.83 94.12 C 90.04 91.32 99.90 91.20 108.88 87.58 C 111.04 86.69 113.31 85.63 114.73 83.69 C 115.95 79.97 109.99 77.91 111.36 74.30 C 114.02 72.17 117.42 71.17 120.50 69.78 C 134.11 65.98 147.64 60.68 162.01 61.14 C 176.48 60.60 190.66 64.03 204.96 65.50 C 213.07 65.21 220.91 68.12 229.03 67.77 C 235.71 67.68 243.16 69.07 248.97 64.88 C 251.46 63.36 250.36 59.90 249.71 57.65 Z" />
</g>
</svg>
