<?xml version="1.0" encoding="UTF-8" ?>
<!DOCTYPE svg PUBLIC "-//W3C//DTD SVG 1.1//EN" "http://www.w3.org/Graphics/SVG/1.1/DTD/svg11.dtd">
<svg width="1470pt" height="348pt" viewBox="0 0 1470 348" version="1.1" xmlns="http://www.w3.org/2000/svg">
<g id="#e71372ff">
<path fill="#e71372" opacity="1.00" d=" M 127.08 0.16 C 138.45 1.52 149.91 2.59 160.95 5.75 C 212.36 18.72 255.86 58.83 273.17 108.90 C 278.81 123.92 281.10 139.87 282.71 155.75 C 274.52 155.63 266.33 155.63 258.14 155.75 C 256.56 145.25 255.54 134.60 252.27 124.45 C 244.11 96.13 226.33 70.88 203.00 52.98 C 190.55 43.85 176.79 36.42 162.08 31.67 C 150.70 27.99 138.82 26.14 126.94 24.99 C 126.82 16.71 126.84 8.43 127.08 0.16 Z" />
<path fill="#e71372" opacity="1.00" d=" M 126.97 45.07 C 153.32 46.94 179.11 57.47 198.66 75.33 C 221.56 95.63 235.76 125.23 237.83 155.70 C 229.55 155.76 221.27 155.67 213.00 155.20 C 211.19 132.48 200.39 110.77 183.92 95.11 C 168.51 80.52 148.08 71.48 126.93 69.77 C 126.87 61.54 126.85 53.31 126.97 45.07 Z" />
<path fill="#e71372" opacity="1.00" d=" M 87.63 91.60 C 104.29 84.24 123.52 83.04 141.01 88.06 C 158.34 92.99 173.80 104.13 184.01 118.97 C 194.14 133.46 199.06 151.46 197.81 169.09 C 196.72 187.02 189.05 204.30 176.89 217.48 C 175.43 217.48 173.97 217.49 172.51 217.50 C 172.51 215.49 172.51 213.49 172.51 211.48 C 169.80 211.41 167.08 211.38 164.37 211.42 C 164.36 209.46 164.53 207.09 161.76 207.63 C 161.82 189.03 161.51 170.40 161.91 151.81 C 163.39 149.00 163.87 145.91 163.53 142.76 C 165.32 141.30 169.14 140.27 168.73 137.46 C 164.59 135.26 159.48 134.22 156.15 130.88 C 153.10 122.35 144.35 117.85 136.02 115.96 C 133.34 115.14 130.40 115.27 127.79 114.30 C 124.88 109.63 123.22 104.28 120.36 99.57 C 117.75 104.30 115.50 109.20 113.01 113.99 C 105.10 114.83 96.90 116.51 90.37 121.34 C 87.13 123.68 84.68 127.04 83.54 130.88 C 79.35 133.64 74.51 135.12 70.21 137.65 C 71.83 139.54 73.85 141.02 76.08 142.14 C 75.71 145.58 76.65 148.79 77.86 151.92 C 78.02 170.48 77.84 189.04 77.95 207.60 C 75.12 206.92 75.54 209.57 75.41 211.47 C 72.67 211.38 69.93 211.37 67.19 211.45 C 67.19 213.43 67.19 215.41 67.19 217.39 C 65.49 217.45 63.70 217.36 62.20 218.31 C 52.13 207.28 44.68 193.74 41.92 178.99 C 38.34 160.63 41.40 141.00 50.76 124.77 C 59.08 110.15 72.20 98.31 87.63 91.60 Z" />
<path fill="#e71372" opacity="1.00" d=" M 88.29 148.37 C 89.38 148.39 90.47 148.41 91.56 148.44 C 92.05 149.57 92.93 150.61 92.91 151.91 C 93.12 170.53 92.92 189.14 93.08 207.76 C 92.41 207.85 91.08 208.03 90.42 208.12 C 90.45 208.94 90.51 210.58 90.53 211.40 L 89.03 211.47 C 89.00 210.55 88.95 208.70 88.92 207.78 C 88.30 207.74 87.05 207.67 86.43 207.64 C 86.61 188.72 86.47 169.80 86.50 150.89 C 87.09 150.05 87.69 149.21 88.29 148.37 Z" />
<path fill="#e71372" opacity="1.00" d=" M 103.32 148.38 C 107.12 148.45 110.93 148.43 114.73 148.40 C 115.31 149.23 115.90 150.06 116.48 150.89 C 116.49 169.78 116.31 188.68 116.52 207.58 C 115.88 207.64 114.58 207.75 113.93 207.81 C 113.94 208.71 113.94 210.50 113.95 211.39 C 110.73 211.36 107.51 211.35 104.29 211.37 C 104.40 209.25 104.45 206.95 101.49 207.77 C 101.62 189.49 101.60 171.22 101.52 152.94 C 101.40 151.22 102.66 149.86 103.32 148.38 Z" />
<path fill="#e71372" opacity="1.00" d=" M 126.68 148.42 C 129.98 148.43 133.28 148.43 136.58 148.39 C 137.14 149.24 137.71 150.09 138.28 150.94 C 137.91 169.83 138.34 188.72 138.06 207.61 C 137.46 207.67 136.28 207.79 135.69 207.86 C 135.67 209.05 135.65 210.24 135.64 211.43 C 132.93 211.38 130.23 211.37 127.53 211.39 C 127.52 210.17 127.52 208.96 127.52 207.75 C 126.88 207.73 125.59 207.69 124.95 207.66 C 125.27 189.43 124.96 171.19 125.08 152.95 C 124.94 151.26 126.02 149.88 126.68 148.42 Z" />
<path fill="#e71372" opacity="1.00" d=" M 148.19 148.53 C 149.01 148.48 150.64 148.38 151.45 148.33 C 152.36 150.10 153.49 151.87 153.22 153.96 C 153.16 171.91 153.18 189.86 153.21 207.81 C 152.65 207.82 151.54 207.84 150.99 207.85 C 150.66 209.30 151.21 211.38 149.45 212.05 C 149.32 210.64 149.21 209.22 149.12 207.81 C 148.50 207.75 147.25 207.64 146.62 207.58 C 146.85 189.36 146.64 171.15 146.72 152.93 C 146.64 151.32 147.67 149.97 148.19 148.53 Z" />
</g>
<g id="#5d63ddff">
<path fill="#5d63dd" opacity="1.00" d=" M 41.73 73.69 C 60.91 56.76 85.86 47.01 111.25 45.03 C 111.25 53.30 111.23 61.58 111.27 69.85 C 106.02 70.27 100.82 71.12 95.77 72.61 C 76.07 77.26 58.49 89.27 45.83 104.91 C 32.96 120.63 25.90 140.76 25.13 160.98 C 24.69 170.30 26.47 179.53 28.62 188.55 C 34.07 209.04 46.97 227.34 64.13 239.74 C 81.54 252.56 103.55 258.75 125.09 257.58 C 133.88 256.56 142.74 255.26 151.03 252.04 C 172.38 244.74 190.32 228.89 201.45 209.41 C 208.14 197.77 211.61 184.54 213.18 171.28 C 221.42 171.28 229.66 171.28 237.90 171.27 C 237.04 186.67 233.04 201.70 227.86 216.15 C 212.13 254.78 184.94 287.46 155.14 316.10 C 143.86 327.33 131.48 337.38 119.65 348.00 L 118.50 348.00 C 117.95 346.79 116.94 345.90 115.98 345.04 C 95.69 328.49 76.49 310.56 59.08 291.00 C 40.18 269.65 23.28 246.08 12.25 219.65 C 5.71 202.80 1.23 185.02 0.37 166.91 C 0.06 157.51 1.48 148.16 3.10 138.94 C 8.33 113.71 22.17 90.44 41.73 73.69 Z" />
<path fill="#5d63dd" opacity="1.00" d=" M 1059.58 83.64 C 1066.85 81.95 1075.10 83.16 1080.83 88.20 C 1089.16 94.94 1089.44 109.34 1081.26 116.29 C 1072.20 124.29 1056.46 123.72 1048.52 114.41 C 1044.39 109.55 1043.67 102.54 1045.32 96.55 C 1047.18 90.01 1053.11 85.23 1059.58 83.64 Z" />
<path fill="#5d63dd" opacity="1.00" d=" M 330.05 89.27 C 343.35 89.17 356.65 89.29 369.95 89.21 C 384.17 135.09 397.99 181.09 412.26 226.96 C 426.87 181.03 441.68 135.16 456.36 89.25 C 466.51 89.23 476.67 89.20 486.82 89.27 C 468.21 147.17 449.63 205.08 431.03 262.98 C 415.85 262.93 400.68 263.09 385.51 262.91 C 367.14 204.99 348.53 147.15 330.05 89.27 Z" />
<path fill="#5d63dd" opacity="1.00" d=" M 765.01 89.22 C 780.66 89.26 796.31 89.22 811.97 89.23 C 829.18 88.99 846.60 89.16 863.41 93.36 C 881.11 97.48 898.14 107.39 907.84 123.14 C 918.62 139.87 920.49 160.53 919.41 179.94 C 918.49 196.15 913.91 212.35 904.78 225.89 C 896.05 239.15 882.93 249.28 868.20 255.09 C 854.81 260.37 840.38 262.75 826.02 262.98 C 805.68 262.99 785.34 262.98 765.01 262.99 C 765.02 205.06 764.97 147.14 765.01 89.22 M 804.14 114.25 C 804.11 155.50 804.13 196.75 804.12 238.00 C 815.03 237.81 826.00 238.56 836.86 237.29 C 847.69 235.82 858.16 230.67 865.13 222.13 C 875.23 209.85 878.57 193.51 879.18 177.99 C 879.61 162.13 878.63 145.13 869.68 131.46 C 864.22 122.87 854.83 117.35 844.89 115.72 C 831.45 113.26 817.71 114.62 804.14 114.25 Z" />
<path fill="#5d63dd" opacity="1.00" d=" M 540.50 134.68 C 558.53 132.06 577.93 134.48 593.56 144.32 C 608.21 153.45 617.89 169.50 620.38 186.46 C 622.80 203.26 620.99 221.35 611.86 236.00 C 603.32 250.35 588.24 260.04 572.08 263.57 C 556.22 267.00 539.19 266.15 524.12 259.90 C 511.37 254.71 500.51 244.97 494.22 232.69 C 487.10 219.46 485.59 203.90 487.22 189.16 C 488.96 173.37 496.64 158.08 509.06 148.02 C 518.01 140.71 529.15 136.45 540.50 134.68 M 545.40 158.61 C 540.19 159.94 535.51 163.09 532.29 167.38 C 525.76 176.09 524.24 187.36 524.03 197.95 C 523.94 209.35 525.16 221.53 531.86 231.15 C 540.86 244.39 561.94 244.99 573.15 234.28 C 580.28 227.95 582.64 218.12 583.52 208.99 C 584.30 198.59 584.21 187.89 581.13 177.84 C 579.30 171.80 575.56 166.34 570.36 162.71 C 563.27 157.49 553.78 156.49 545.40 158.61 Z" />
<path fill="#5d63dd" opacity="1.00" d=" M 990.60 148.56 C 999.22 139.34 1011.67 134.46 1024.12 133.65 C 1024.13 145.52 1024.12 157.39 1024.12 169.26 C 1008.77 167.55 991.12 171.53 981.38 184.40 C 981.36 210.59 981.37 236.79 981.37 262.98 C 969.16 262.98 956.96 262.99 944.75 262.98 C 944.80 220.72 944.65 178.47 944.82 136.21 C 955.76 136.28 966.70 136.22 977.65 136.24 C 978.61 144.99 979.39 153.76 980.51 162.48 C 983.70 157.73 986.45 152.60 990.60 148.56 Z" />
<path fill="#5d63dd" opacity="1.00" d=" M 1264.61 144.63 C 1275.98 136.55 1290.19 133.20 1304.02 133.74 C 1320.08 133.91 1337.12 139.80 1346.87 153.18 C 1357.87 168.07 1358.93 187.81 1355.88 205.48 C 1329.16 205.55 1302.44 205.44 1275.72 205.53 C 1276.79 214.90 1279.42 224.79 1286.50 231.47 C 1293.73 238.48 1304.25 240.71 1314.03 240.40 C 1326.06 240.47 1337.66 236.26 1348.05 230.47 C 1350.45 237.91 1352.74 245.39 1355.12 252.84 C 1348.69 257.17 1341.43 260.12 1334.06 262.44 C 1322.02 265.84 1309.29 266.04 1296.91 264.96 C 1280.29 263.38 1263.30 256.66 1252.78 243.20 C 1240.82 228.10 1237.98 207.72 1239.96 189.03 C 1241.70 171.75 1250.06 154.61 1264.61 144.63 M 1286.97 161.01 C 1280.09 167.53 1277.57 177.17 1276.26 186.25 C 1291.93 186.25 1307.60 186.26 1323.27 186.24 C 1323.25 180.14 1323.02 173.87 1320.77 168.12 C 1318.83 162.95 1314.72 158.55 1309.51 156.62 C 1301.95 153.96 1292.82 155.33 1286.97 161.01 Z" />
<path fill="#5d63dd" opacity="1.00" d=" M 1428.00 148.04 C 1436.58 139.14 1448.79 134.45 1461.00 133.65 C 1461.00 145.52 1460.99 157.39 1461.00 169.26 C 1451.16 168.13 1440.95 169.41 1431.92 173.58 C 1426.65 176.05 1421.61 179.51 1418.41 184.45 C 1418.04 210.61 1418.35 236.81 1418.25 262.98 C 1406.04 262.98 1393.83 262.98 1381.63 262.98 C 1381.65 220.73 1381.58 178.48 1381.65 136.22 C 1392.62 136.27 1403.59 136.21 1414.56 136.26 C 1415.49 145.06 1416.32 153.87 1417.40 162.66 C 1420.55 157.53 1423.63 152.26 1428.00 148.04 Z" />
<path fill="#5d63dd" opacity="1.00" d=" M 638.93 136.22 C 672.33 136.27 705.72 136.23 739.12 136.24 C 739.05 143.19 739.27 150.15 739.04 157.09 C 738.29 159.14 736.71 160.75 735.51 162.54 C 716.93 188.35 698.38 214.18 679.82 240.01 C 699.67 240.02 719.52 240.01 739.37 240.01 C 739.37 247.67 739.37 255.33 739.37 262.98 C 705.21 262.98 671.04 262.99 636.88 262.98 C 636.91 256.32 636.82 249.65 636.89 242.99 C 636.73 241.59 637.83 240.55 638.51 239.46 C 658.26 212.76 677.91 185.99 697.62 159.26 C 678.03 159.24 658.45 159.26 638.87 159.25 C 638.90 151.57 638.80 143.90 638.93 136.22 Z" />
<path fill="#5d63dd" opacity="1.00" d=" M 1047.54 136.22 C 1059.72 136.27 1071.90 136.24 1084.09 136.23 C 1084.18 178.48 1084.10 220.73 1084.12 262.98 C 1071.92 262.99 1059.71 262.98 1047.50 262.99 C 1047.53 220.73 1047.44 178.47 1047.54 136.22 Z" />
<path fill="#5d63dd" opacity="1.00" d=" M 1102.84 136.24 C 1115.14 136.25 1127.45 136.24 1139.76 136.24 C 1149.80 168.55 1159.52 200.97 1169.72 233.22 C 1179.89 200.93 1189.78 168.55 1199.90 136.24 C 1210.12 136.30 1220.35 136.12 1230.58 136.33 C 1216.31 178.52 1202.24 220.78 1188.02 262.98 C 1173.72 262.98 1159.41 262.98 1145.11 262.98 C 1131.06 220.72 1116.87 178.50 1102.84 136.24 Z" />
</g>
</svg>
