<?xml version="1.0" ?><svg enable-background="new 0 0 128 128" id="icons" version="1.1" viewBox="0 0 128 128" xml:space="preserve" xmlns="http://www.w3.org/2000/svg" xmlns:xlink="http://www.w3.org/1999/xlink"><g id="wallet"><circle cx="30" cy="35" fill="#EEEEEE" r="7" stroke="#B0BEC5" stroke-linejoin="round" stroke-miterlimit="10" stroke-width="2"/><g><path d="M94,95.6l-61.8-5.4    c-2.2-0.2-3.8-2.1-3.6-4.3L31.7,50c0.2-2.2,2.1-3.8,4.3-3.6l61.8,5.4c2.2,0.2,3.8,2.1,3.6,4.3L98.3,92    C98.1,94.2,96.2,95.8,94,95.6z" fill="#B3E5FC" stroke="#90A4AE" stroke-linejoin="round" stroke-miterlimit="10" stroke-width="2"/><polygon fill="#DCEDC8" points="94,76.9     30,79.1 30,33.1 94,30.9   " stroke="#AFB42B" stroke-linejoin="round" stroke-miterlimit="10" stroke-width="2"/><rect fill="#DCEDC8" height="46" stroke="#AFB42B" stroke-linejoin="round" stroke-miterlimit="10" stroke-width="2" transform="matrix(0.9955 -9.500473e-002 9.500473e-002 0.9955 -5.1119 6.3413)" width="64" x="32" y="33.9"/><g id="XMLID_7_"><g><path d="M103.3,57.5l-1.4,15.9l-1.9-0.2L97,73l-11-1c-4.4-0.4-7.7-4.3-7.3-8.7c0.4-4.2,3.9-7.3,8-7.3      c0.2,0,0.5,0,0.7,0l9.5,0.8l3.1,0.3L103.3,57.5z" fill="#FFA726"/><path d="M94,37c3.3,0,6,2.7,6,6v14.2v0l-3.1-0.3L97,56V43c0-1.7-1.3-3-3-3H28c0-1.7,1.3-3,3-3H94z" fill="#FFB74D"/><path d="M86,72l11,1v12c0,1.7-1.3,3-3,3H28V40h66c1.7,0,3,1.3,3,3v13l-0.1,0.9l-9.5-0.8c-0.2,0-0.5,0-0.7,0      c-4.1,0-7.6,3.1-8,7.3C78.3,67.7,81.6,71.6,86,72z" fill="#FFA726"/><path d="M94,91H31c-1.7,0-3-1.3-3-3h66c1.7,0,3-1.3,3-3V73l3,0.3V85C100,88.3,97.3,91,94,91z" fill="#FB8C00"/></g><g><path d="M100,73.2V85      c0,3.3-2.7,6-6,6H31c-1.7,0-3-1.3-3-3" fill="none" stroke="#F57C00" stroke-linejoin="round" stroke-miterlimit="10" stroke-width="2"/><line fill="none" stroke="#F57C00" stroke-linejoin="round" stroke-miterlimit="10" stroke-width="2" x1="28" x2="28" y1="40" y2="88"/><path d="M100,57.2V43      c0-3.3-2.7-6-6-6H31c-1.7,0-3,1.3-3,3" fill="none" stroke="#F57C00" stroke-linejoin="round" stroke-miterlimit="10" stroke-width="2"/><path d="      M97,73v12c0,1.7-1.3,3-3,3H28" fill="none" stroke="#FFCCBC" stroke-dasharray="4,3" stroke-linecap="round" stroke-linejoin="round" stroke-miterlimit="10" stroke-width="2"/><path d="      M97,56V43c0-1.7-1.3-3-3-3H28" fill="none" stroke="#FBE9E7" stroke-dasharray="4,3" stroke-linecap="round" stroke-linejoin="round" stroke-miterlimit="10" stroke-width="2"/><path d="M100,57.2l3.3,0.3      l-1.4,15.9l-1.9-0.2L97,73l-11-1c-4.4-0.4-7.7-4.3-7.3-8.7c0.4-4.2,3.9-7.3,8-7.3c0.2,0,0.5,0,0.7,0l9.5,0.8L100,57.2z" fill="none" stroke="#F57C00" stroke-linejoin="round" stroke-miterlimit="10" stroke-width="2"/><path d="      M90,64.5c0,1.7-1.3,3-3,3" fill="none" stroke="#FB8C00" stroke-linecap="round" stroke-linejoin="round" stroke-miterlimit="10" stroke-width="2"/><path d="      M83,64.5c0-2.2,1.8-4,4-4" fill="none" stroke="#FFCC80" stroke-linecap="round" stroke-linejoin="round" stroke-miterlimit="10" stroke-width="2"/></g></g></g><g><circle cx="21" cy="104" fill="#FFE082" r="11" stroke="#FFB74D" stroke-linejoin="round" stroke-miterlimit="10" stroke-width="2"/><circle cx="34" cy="111" fill="#FFECB3" r="9" stroke="#FFAB91" stroke-linejoin="round" stroke-miterlimit="10" stroke-width="2"/><circle cx="64" cy="107" fill="#EEEEEE" r="7" stroke="#B0BEC5" stroke-linejoin="round" stroke-miterlimit="10" stroke-width="2"/></g><g><circle cx="109" cy="30" fill="#FFECB3" r="9" stroke="#FFAB91" stroke-linejoin="round" stroke-miterlimit="10" stroke-width="2"/><circle cx="78" cy="15" fill="#EEEEEE" r="7" stroke="#B0BEC5" stroke-linejoin="round" stroke-miterlimit="10" stroke-width="2"/></g></g></svg>