<?xml version="1.0" encoding="UTF-8" ?>
<!DOCTYPE svg PUBLIC "-//W3C//DTD SVG 1.1//EN" "http://www.w3.org/Graphics/SVG/1.1/DTD/svg11.dtd">
<svg width="450pt" height="465pt" viewBox="0 0 450 465" version="1.1" xmlns="http://www.w3.org/2000/svg">
<g id="#ff8c00ff">
<path fill="#ff8c00" opacity="1.00" d=" M 198.47 0.00 L 215.42 0.00 C 260.44 1.84 304.69 18.76 339.21 47.77 C 367.46 71.30 389.32 102.47 401.59 137.14 C 422.24 194.52 415.88 261.12 383.89 313.13 C 383.43 313.12 382.52 313.11 382.06 313.10 C 379.21 294.88 373.55 276.64 362.23 261.80 C 348.08 242.66 325.86 230.80 302.81 226.15 C 299.99 225.48 296.64 225.50 294.77 222.92 C 296.65 221.92 298.71 221.29 300.86 221.29 C 314.70 220.48 328.68 220.26 342.44 222.21 C 344.22 205.74 343.17 188.94 339.05 172.89 C 332.11 145.23 316.07 120.01 294.16 101.80 C 270.51 81.95 239.91 70.48 209.02 70.24 C 183.48 69.69 157.85 76.68 136.07 90.02 C 111.16 105.11 91.37 128.41 80.47 155.41 C 69.32 182.69 67.50 213.63 75.22 242.06 C 83.87 274.57 105.18 303.43 133.56 321.47 C 157.01 336.60 185.17 343.95 213.01 342.88 C 211.25 330.36 210.00 317.72 210.63 305.07 C 210.75 302.86 211.26 300.70 211.80 298.56 C 214.60 298.94 215.84 301.65 217.17 303.78 C 228.45 323.32 243.12 341.28 261.83 354.12 C 277.86 365.37 296.44 372.60 315.49 376.78 C 328.75 379.72 342.01 382.80 354.86 387.24 C 372.73 393.19 389.66 401.95 404.76 413.21 C 421.09 425.35 435.36 440.08 447.97 456.00 C 449.00 457.41 450.16 459.14 449.61 460.99 C 449.04 464.13 444.89 465.57 442.36 463.77 C 440.14 462.32 438.28 460.42 436.26 458.73 C 413.68 439.47 387.97 423.23 359.43 414.48 C 339.95 408.39 319.37 406.46 299.04 407.44 C 269.24 407.85 239.71 412.47 209.93 413.18 C 182.83 413.50 155.62 408.68 130.44 398.59 C 96.63 385.16 66.54 362.57 44.14 333.90 C 23.03 307.04 8.77 274.84 3.15 241.13 C -3.13 203.96 0.85 165.06 14.87 130.05 C 30.14 91.52 57.37 57.85 91.85 34.85 C 123.22 13.58 160.63 1.60 198.47 0.00 Z" />
<path fill="#ff8c00" opacity="1.00" d=" M 351.29 292.22 C 355.24 290.67 359.77 292.53 362.35 295.72 C 366.91 301.06 368.65 308.23 369.42 315.05 C 369.63 318.62 369.38 323.26 365.86 325.22 C 362.21 326.03 359.48 323.04 357.29 320.62 C 352.56 315.02 348.50 308.37 347.80 300.93 C 347.48 297.74 348.14 293.81 351.29 292.22 Z" />
<path fill="#ff8c00" opacity="1.00" d=" M 307.46 326.63 C 313.59 324.95 320.18 327.16 325.17 330.81 C 330.39 334.82 335.19 340.30 336.13 347.03 C 337.03 352.84 333.01 358.60 327.53 360.38 C 319.88 362.78 310.80 360.57 305.40 354.54 C 300.59 349.41 297.75 342.01 299.41 335.00 C 300.37 331.01 303.41 327.59 307.46 326.63 Z" />
</g>
</svg>
