<?xml version="1.0" encoding="UTF-8" ?>
<!DOCTYPE svg PUBLIC "-//W3C//DTD SVG 1.1//EN" "http://www.w3.org/Graphics/SVG/1.1/DTD/svg11.dtd">
<svg width="208pt" height="207pt" viewBox="0 0 208 207" version="1.1" xmlns="http://www.w3.org/2000/svg">
<g id="#006ab4ff">
<path fill="#006ab4" opacity="1.00" d=" M 97.30 0.00 L 110.61 0.00 C 126.51 1.12 142.09 5.87 155.89 13.84 C 152.67 16.84 149.36 19.74 146.07 22.67 C 141.35 17.71 136.63 12.74 131.77 7.91 C 124.02 14.80 116.35 21.77 108.57 28.62 C 107.48 29.95 106.50 27.86 105.73 27.27 C 101.71 22.73 97.51 18.36 93.54 13.78 C 78.46 27.04 63.73 40.70 48.75 54.07 C 58.34 64.69 67.99 75.24 77.52 85.90 C 73.78 89.23 70.02 92.53 66.26 95.83 C 75.65 106.48 85.14 117.05 94.58 127.67 C 90.88 131.04 87.08 134.28 83.39 137.66 C 96.84 152.63 110.14 167.75 123.77 182.57 C 131.62 175.08 139.71 167.82 147.65 160.41 C 154.74 168.36 161.69 176.44 168.72 184.44 C 152.14 197.52 131.68 205.60 110.58 207.00 L 97.38 207.00 C 66.14 205.08 36.35 188.11 18.78 162.22 C 5.11 142.49 -1.33 117.88 0.99 93.99 C 3.22 67.90 15.98 42.97 35.66 25.73 C 52.61 10.62 74.67 1.53 97.30 0.00 Z" />
<path fill="#006ab4" opacity="1.00" d=" M 165.48 23.13 C 169.44 27.10 172.93 31.51 176.86 35.51 C 172.81 39.47 168.47 43.13 164.28 46.95 C 160.59 42.69 156.68 38.62 153.06 34.30 C 157.24 30.62 161.36 26.88 165.48 23.13 Z" />
<path fill="#006ab4" opacity="1.00" d=" M 112.39 42.96 C 118.62 37.37 124.82 31.74 131.06 26.15 C 136.69 32.34 142.19 38.65 147.86 44.80 C 141.70 50.46 135.48 56.07 129.23 61.63 C 123.49 55.52 117.98 49.21 112.39 42.96 Z" />
<path fill="#006ab4" opacity="1.00" d=" M 67.39 54.97 C 75.51 47.38 83.85 40.03 92.10 32.58 C 99.58 40.86 107.21 49.03 114.40 57.57 C 106.06 64.87 97.92 72.39 89.67 79.79 C 82.23 71.53 74.78 63.27 67.39 54.97 Z" />
<path fill="#006ab4" opacity="1.00" d=" M 168.72 70.96 C 172.97 67.20 177.02 63.22 181.44 59.66 C 184.95 63.99 188.87 67.96 192.49 72.20 C 188.40 76.02 184.19 79.70 180.07 83.48 C 176.19 79.40 172.52 75.11 168.72 70.96 Z" />
<path fill="#006ab4" opacity="1.00" d=" M 129.37 80.13 C 135.52 74.49 141.79 68.95 147.94 63.30 C 153.71 69.40 159.20 75.75 164.81 81.99 C 158.63 87.64 152.34 93.16 146.21 98.86 C 140.57 92.64 135.01 86.35 129.37 80.13 Z" />
<path fill="#006ab4" opacity="1.00" d=" M 84.91 97.01 C 93.14 89.45 101.43 81.95 109.79 74.56 C 117.04 83.03 124.88 91.01 131.96 99.63 C 123.59 106.89 115.49 114.46 107.21 121.84 C 99.81 113.53 92.38 105.25 84.91 97.01 Z" />
<path fill="#006ab4" opacity="1.00" d=" M 184.42 107.51 C 188.59 103.76 192.72 99.97 196.91 96.25 C 200.68 100.26 204.32 104.39 208.00 108.48 L 208.00 108.89 C 203.94 112.71 199.82 116.49 195.53 120.06 C 191.99 115.73 188.10 111.71 184.42 107.51 Z" />
<path fill="#006ab4" opacity="1.00" d=" M 145.11 119.14 C 151.33 113.54 157.47 107.83 163.80 102.35 C 169.45 108.52 175.02 114.76 180.59 121.01 C 174.39 126.64 168.10 132.17 161.95 137.86 C 156.31 131.64 150.75 125.36 145.11 119.14 Z" />
<path fill="#006ab4" opacity="1.00" d=" M 102.39 139.59 C 110.46 131.89 118.99 124.66 127.14 117.04 C 134.56 125.36 142.06 133.61 149.48 141.94 C 142.06 148.76 134.51 155.42 127.08 162.23 C 126.28 163.01 125.37 163.66 124.38 164.15 C 117.19 155.84 109.77 147.74 102.39 139.59 Z" />
<path fill="#006ab4" opacity="1.00" d=" M 161.34 156.40 C 167.50 150.73 173.78 145.20 179.96 139.55 C 185.58 145.81 191.29 151.99 196.77 158.37 C 190.50 163.86 184.33 169.48 178.18 175.11 C 172.51 168.92 166.91 162.67 161.34 156.40 Z" />
</g>
</svg>
