<?xml version="1.0" encoding="UTF-8" ?>
<!DOCTYPE svg PUBLIC "-//W3C//DTD SVG 1.1//EN" "http://www.w3.org/Graphics/SVG/1.1/DTD/svg11.dtd">
<svg width="262pt" height="262pt" viewBox="0 0 262 262" version="1.1" xmlns="http://www.w3.org/2000/svg">
<g id="#ff6611ff">
<path fill="#ff6611" opacity="1.00" d=" M 174.03 2.18 C 178.90 -0.90 185.88 -0.12 189.69 4.30 C 191.98 6.54 192.85 9.81 192.75 12.94 C 192.70 62.64 192.74 112.34 192.73 162.04 C 192.93 166.39 190.10 170.25 186.46 172.35 C 150.18 193.73 113.85 215.03 77.57 236.40 C 76.62 236.99 76.01 237.84 75.74 238.96 C 80.68 237.53 85.18 234.98 89.91 233.00 C 126.76 216.53 163.55 199.93 200.43 183.53 C 203.53 182.05 207.03 181.01 209.43 178.41 C 211.85 175.90 212.73 172.34 212.68 168.94 C 212.69 143.28 212.71 117.62 212.66 91.96 C 212.71 90.69 212.80 89.42 212.92 88.16 C 218.95 87.74 225.01 87.75 231.05 88.08 C 237.23 88.15 242.76 93.77 242.56 99.99 C 242.55 149.97 242.60 199.95 242.53 249.93 C 242.45 255.87 237.57 260.11 232.36 262.00 L 29.66 262.00 C 24.34 260.14 19.34 255.92 19.33 249.84 C 19.16 200.55 19.35 151.24 19.24 101.95 C 19.26 98.99 19.46 95.76 21.36 93.33 C 24.30 89.42 28.99 87.56 33.03 85.06 C 80.02 57.41 127.02 29.78 174.03 2.18 M 138.27 85.16 C 133.15 86.12 128.76 89.89 126.77 94.67 C 125.61 98.80 125.59 103.48 127.65 107.34 C 130.72 113.81 139.00 116.83 145.69 114.73 C 153.04 112.66 157.77 104.51 156.09 97.09 C 154.78 89.08 146.16 83.30 138.27 85.16 Z" />
</g>
</svg>
