<?xml version="1.0" encoding="UTF-8" ?>
<!DOCTYPE svg PUBLIC "-//W3C//DTD SVG 1.1//EN" "http://www.w3.org/Graphics/SVG/1.1/DTD/svg11.dtd">
<svg width="910pt" height="207pt" viewBox="0 0 910 207" version="1.1" xmlns="http://www.w3.org/2000/svg">
<g id="#ffffffff">
<path fill="#ffffff" opacity="1.00" d=" M 56.86 0.00 L 65.50 0.00 C 75.16 0.76 85.18 1.54 93.95 6.06 C 99.28 8.89 104.09 13.72 104.84 19.96 C 106.40 29.66 100.87 38.81 94.16 45.33 C 85.88 38.80 75.31 35.58 64.93 34.56 C 59.43 34.24 53.72 34.40 48.54 36.45 C 42.56 39.10 40.65 47.43 44.21 52.73 C 46.21 55.47 49.13 57.32 51.95 59.11 C 62.98 65.68 75.88 68.33 86.72 75.25 C 92.06 78.53 96.95 82.69 100.52 87.88 C 98.67 102.89 99.56 118.51 104.81 132.79 C 102.05 138.95 98.30 144.75 93.19 149.23 C 80.96 160.15 64.00 163.98 47.98 163.92 C 35.49 163.78 22.28 163.16 11.21 156.71 C 6.41 153.94 2.05 149.64 1.04 143.98 C -1.07 134.03 3.62 123.93 10.65 117.05 C 22.90 125.35 38.06 129.42 52.82 128.38 C 57.80 127.93 63.26 126.62 66.57 122.57 C 70.16 118.44 69.33 111.30 64.75 108.23 C 54.12 100.08 40.66 97.29 29.08 90.91 C 17.52 84.58 7.42 74.04 4.65 60.83 C 1.50 45.07 4.61 27.00 16.45 15.43 C 27.00 4.80 42.29 0.74 56.86 0.00 Z" />
<path fill="#ffffff" opacity="1.00" d=" M 322.33 3.79 C 323.42 2.76 324.52 1.73 325.64 0.72 C 335.77 0.84 345.89 0.76 356.02 0.76 C 357.09 1.82 358.16 2.88 359.23 3.95 C 359.22 23.82 359.22 43.69 359.23 63.56 C 378.19 63.53 397.16 63.55 416.13 63.55 C 416.05 43.65 416.13 23.75 416.08 3.85 C 417.21 2.83 418.10 1.43 419.51 0.80 C 429.63 0.74 439.74 0.80 449.86 0.77 C 450.86 1.80 451.88 2.82 452.91 3.83 C 452.81 23.47 453.09 43.12 452.77 62.74 C 444.94 77.01 442.71 93.80 444.14 109.85 C 444.91 119.94 447.22 130.10 452.37 138.91 C 453.14 140.12 452.84 141.62 452.92 142.99 C 452.88 148.04 452.91 153.10 452.90 158.16 C 451.91 159.15 450.92 160.16 449.95 161.18 C 439.68 161.28 429.41 161.20 419.14 161.22 C 418.12 160.20 417.11 159.18 416.09 158.17 C 416.11 137.52 416.08 116.87 416.11 96.22 C 397.15 96.22 378.19 96.23 359.22 96.22 C 359.23 116.83 359.21 137.43 359.24 158.04 C 358.16 159.11 357.09 160.17 356.02 161.24 C 345.89 161.24 335.76 161.17 325.63 161.27 C 324.54 160.29 323.46 159.29 322.37 158.30 C 322.26 106.80 322.34 55.29 322.33 3.79 Z" />
<path fill="#ffffff" opacity="1.00" d=" M 563.10 3.85 C 564.09 2.84 565.08 1.83 566.06 0.81 C 576.09 0.71 586.12 0.85 596.15 0.74 C 597.25 1.77 598.34 2.82 599.45 3.86 C 599.46 55.29 599.46 106.71 599.44 158.14 C 598.35 159.18 597.26 160.22 596.18 161.26 C 586.16 161.18 576.15 161.25 566.13 161.22 C 565.12 160.20 564.11 159.18 563.09 158.17 C 563.10 106.73 563.10 55.29 563.10 3.85 Z" />
<path fill="#ffffff" opacity="1.00" d=" M 153.53 36.83 C 167.91 34.93 183.40 36.28 196.06 43.90 C 206.12 49.84 213.35 59.91 216.88 70.94 L 216.86 72.05 C 210.42 90.22 209.91 110.46 215.30 128.95 C 214.05 134.78 210.32 139.96 206.71 144.66 C 196.09 157.91 178.69 164.14 162.04 163.92 C 146.48 164.28 129.98 159.56 119.26 147.73 C 108.21 135.75 105.08 118.81 104.76 103.03 C 104.45 86.90 107.77 69.96 117.86 56.98 C 126.38 45.75 139.70 38.80 153.53 36.83 M 158.35 68.60 C 153.57 69.57 149.49 72.99 147.38 77.35 C 142.98 85.76 142.37 95.59 142.79 104.91 C 143.30 111.60 144.17 118.57 147.81 124.37 C 154.10 135.13 172.83 134.70 178.27 123.35 C 182.42 115.59 182.87 106.57 183.13 97.97 C 182.79 89.29 181.96 79.77 176.15 72.84 C 171.83 67.79 164.45 67.15 158.35 68.60 Z" />
<path fill="#ffffff" opacity="1.00" d=" M 230.51 57.09 C 240.23 44.36 256.06 37.42 271.80 36.36 C 282.26 35.72 293.16 35.94 303.00 39.96 C 309.44 42.58 315.16 48.58 314.92 55.92 C 315.52 63.83 311.59 71.12 306.79 77.10 C 304.67 76.55 303.10 74.93 301.21 73.94 C 292.65 69.33 282.41 68.22 272.93 69.99 C 263.89 71.85 257.46 80.00 255.73 88.79 C 253.44 99.92 253.56 112.80 260.80 122.19 C 265.18 128.14 272.91 130.45 280.02 130.56 C 289.82 130.68 300.15 128.08 307.56 121.37 C 313.61 127.14 316.89 135.56 316.11 143.90 C 315.43 150.17 311.03 155.55 305.47 158.27 C 295.77 163.13 284.67 164.13 273.97 163.90 C 258.27 163.82 241.53 159.24 230.76 147.18 C 220.21 135.53 216.97 119.27 216.76 104.00 C 216.69 87.56 220.13 70.27 230.51 57.09 Z" />
<path fill="#ffffff" opacity="1.00" d=" M 489.23 38.25 C 500.68 35.28 513.02 35.20 524.43 38.45 C 538.22 42.41 549.76 53.28 554.35 66.90 C 559.27 80.29 558.23 94.82 556.17 108.66 C 533.02 108.68 509.87 108.72 486.73 108.64 C 488.41 116.98 492.59 125.82 501.19 128.80 C 517.04 134.31 535.03 130.61 548.99 121.82 C 553.76 128.39 556.73 136.76 555.06 144.90 C 553.66 150.69 548.85 154.88 543.78 157.57 C 534.63 162.25 524.18 163.48 514.04 163.87 C 498.78 164.43 482.56 162.10 469.99 152.80 C 458.78 144.74 452.35 131.53 450.28 118.12 C 447.50 100.76 448.48 82.21 456.18 66.15 C 462.49 52.65 474.84 42.17 489.23 38.25 M 498.74 66.83 C 492.36 69.42 488.46 75.88 487.02 82.38 C 498.76 82.25 510.50 82.35 522.24 82.32 C 521.70 77.79 520.76 72.88 517.32 69.59 C 512.53 64.82 504.77 64.49 498.74 66.83 Z" />
<path fill="#ffffff" opacity="1.00" d=" M 637.43 51.38 C 643.24 41.99 654.26 37.36 664.89 36.36 C 675.56 35.37 687.04 36.62 696.06 42.86 C 704.78 48.52 710.26 58.12 712.86 67.99 C 705.47 87.29 704.64 109.18 710.86 128.94 C 706.62 140.66 698.89 151.60 687.66 157.47 C 673.57 165.02 656.88 164.78 641.45 162.81 C 641.07 176.28 642.16 189.83 641.35 203.25 C 640.43 204.24 639.42 205.18 638.76 206.37 L 638.75 207.00 L 638.31 207.00 C 637.00 206.26 635.45 206.44 634.02 206.42 C 625.40 206.49 616.78 206.44 608.16 206.44 C 607.15 205.46 606.15 204.49 605.14 203.52 C 605.03 149.64 605.14 95.75 605.09 41.87 C 606.08 40.84 607.09 39.82 608.09 38.79 C 616.37 38.76 624.64 38.78 632.92 38.78 C 634.75 42.86 636.41 47.02 637.43 51.38 M 641.51 75.30 C 641.34 93.68 641.54 112.07 641.41 130.45 C 648.40 132.41 656.00 132.78 663.00 130.70 C 667.91 129.25 671.89 125.53 674.00 120.91 C 678.47 111.38 679.06 100.50 678.24 90.15 C 677.66 83.33 675.39 75.43 668.55 72.43 C 659.73 68.70 649.78 71.36 641.51 75.30 Z" />
<path fill="#ffffff" opacity="1.00" d=" M 740.28 43.27 C 752.47 36.12 767.28 34.90 781.04 36.94 C 793.06 38.90 804.39 45.44 811.46 55.45 C 818.70 65.71 821.18 78.60 820.92 90.98 C 820.96 96.93 819.67 102.77 819.16 108.68 C 796.02 108.65 772.88 108.74 749.74 108.64 C 751.31 115.08 753.52 122.07 759.24 126.04 C 766.61 131.32 776.22 131.76 784.95 131.09 C 794.60 130.44 803.82 126.84 812.01 121.80 C 816.72 128.40 819.73 136.72 818.07 144.87 C 816.75 150.43 812.23 154.53 807.43 157.23 C 798.45 162.04 788.11 163.37 778.08 163.83 C 762.99 164.48 746.97 162.49 734.26 153.70 C 722.87 146.10 715.97 133.22 713.61 119.95 C 710.68 103.73 711.14 86.52 717.07 70.99 C 721.40 59.49 729.50 49.31 740.28 43.27 M 761.17 67.07 C 755.09 69.81 751.50 76.07 750.00 82.34 C 761.75 82.30 773.49 82.33 785.24 82.32 C 784.69 77.88 783.81 73.04 780.50 69.75 C 775.56 64.71 767.37 64.41 761.17 67.07 Z" />
<path fill="#ffffff" opacity="1.00" d=" M 857.93 53.04 C 861.17 43.43 870.98 37.21 880.80 36.32 C 887.74 35.83 895.22 35.80 901.48 39.26 C 906.45 41.93 909.39 47.30 910.00 52.79 L 910.00 57.04 C 909.39 64.03 906.93 70.88 902.57 76.41 C 900.73 76.34 898.63 77.23 897.03 76.03 C 891.13 72.25 883.71 71.42 876.88 72.23 C 870.97 72.93 864.80 76.12 862.54 81.90 C 862.34 107.37 862.50 132.85 862.46 158.33 C 861.41 159.37 860.37 160.42 859.34 161.46 C 849.30 161.45 839.27 161.43 829.24 161.47 C 828.20 160.48 827.16 159.49 826.13 158.50 C 826.05 119.62 826.13 80.74 826.09 41.85 C 827.09 40.83 828.10 39.81 829.12 38.79 C 837.13 38.75 845.15 38.80 853.17 38.76 C 855.17 43.37 857.10 48.05 857.93 53.04 Z" />
</g>
</svg>
