<svg id="Режим_изоляции" xmlns="http://www.w3.org/2000/svg" viewBox="0 0 639.6386719 619.6425781"><style>.st0{fill:#ed1c24}.st1{fill:#ffd077}.st2{fill:#ffe200}.st3{fill:#d77827}.st4{fill:#ffca31}.st5{fill:#ffd144}.st6{fill:#fbab1f}.st7{fill:#feebab}.st8{opacity:.1;fill:#1e0d0d}.st9{fill:#ffc714}.st10{opacity:.1}.st11{fill:#1e0d0d}.st12{fill:#fff}.st13{fill:#181617}.st14{fill:#f05323}.st15{fill:#f99f1c}</style><path class="st0" d="M466.48 126.611c3.735 1.4 1.605 28.567-3.973 33.372-5.578 4.808-1.976-29.906-1.976-29.906l5.948-3.466z"/><path class="st1" d="M338.191 133.015l.186 2.824-2.406 15.347-29.144-10.725-1.808-27.38z"/><path class="st2" d="M464.355 90.897l-30.109 44.292.577 2.409 13.411 55.127-.743.82-.072.059-49.815 53.277-47.194-17.5-.036.009-1.09-.408 3.723-27.633 17.156 8.79 66.363-36.404-18.335-53.11-.196-2.981 44.922-28.384c.986-.603 2.004-.736 2.822-.42l-1.384 2.057z"/><path class="st3" d="M338.377 135.839l-1.823 15.561-.362 3.16-29.178-11.275-1.867-28.244L337.9 135.52zm96.109 2.984l14.113 59.42-50.547 55.444-48.38-18.822 3.67-28.46 17.181 9.193 66.324-37.02-18.657-57.968 48.01-30.933z"/><path class="st2" d="M467.702 91.503l.055.825a519.601 519.601 0 0 0-2.282 12.645l-.325 1.994-3.207 4.98c-1.714 10.31-5.803 37.596-7.07 69.047-.175 4.269-.304 8.647-.433 13.025l1.512 6.761-1.705 1.818c-.625 33.684.196 65.694.196 65.694s3.367-.832 3.708 4.344l.062.942c-1.515 16.761-62.527 44.983-138.38 63.76l-13.006-196.877 29.144 10.725.583.214 22.092 8.126.388 5.884-6.027 35.939-3.723 27.633 1.09.408.036-.01 47.194 17.5 49.815-53.276.072-.058.743-.821-9.69-36.792-3.91-14.86-.388-5.884 30.11-44.292 1.383-2.057c1.087.33 1.873 1.29 1.963 2.663z"/><path class="st4" d="M467.757 92.328a519.601 519.601 0 0 0-2.282 12.645l-.325 1.994-3.207 4.98c-1.714 10.31-5.803 37.596-7.07 69.047-.175 4.269-.304 8.647-.433 13.025l1.512 6.761-1.705 1.818c-.486 25.437-.125 49.906.11 60.373.037 3.42.086 5.32.086 5.32s3.367-.831 3.708 4.345l.062.942c.124 1.883.216 3.255.306 4.031.07.5.089.776.089.776.667 10.12-22.005 24.823-57.329 39.11-22.734 9.175-50.724 18.218-81.058 25.729l-13.005-196.88 29.142 10.727 21.547 7.94 1.13.4-4.926 36.502-.61 4.576-.103.744-2.986 22.148-.738 5.485 48.32 17.9 36.82-39.376 13.81-14.781-.057-.306-1.146-4.7-12.785-52.53.277-.428.486-.678 32.36-47.639z"/><path class="st5" d="M461.943 111.946c-1.714 10.312-5.803 37.597-7.07 69.048-.175 4.269-.304 8.647-.433 13.025l-11.635-52.417 19.138-29.656z"/><path class="st6" d="M454.443 268.292c.203 3.06 4.388 12.31-69.978 39.81l-.038.009c-17.18 6.367-38.518 13.681-65.064 22.128l-11.545-174.754 43.018 15.862-9.367 69.418 57.556 21.313 7.38-7.968 47.842-51.512c-.625 33.684.196 65.694.196 65.694z"/><path class="st7" d="M458.151 272.636c-2.004 4.763-20.112 16.661-47.875 29.715-24.22 11.417-55.797 23.7-90.582 32.908l-.33-5.02c26.584-8.455 47.957-15.78 65.1-22.137l.038-.01c74.33-27.49 70.144-36.74 69.941-39.8 0 0 3.367-.832 3.708 4.344z"/><path class="st1" d="M275.505 148.534l.185 2.825 4.325 13.68 26.812-24.578-1.808-27.38z"/><path class="st2" d="M147.925 169.234l34.898 28.2-.246 2.61-5.814 59.888.828.432.076.02 55.138 27.296 43.4-39.929.035-.009 1.003-.925-7.195-24.93-15.461 16.864-68.961-2.901 10.84-60.333-.196-2.982-47.165-5.586c-1.034-.103-2.036.264-2.788.97l1.608 1.315z"/><path class="st3" d="M275.69 151.359l3.788 14.172.76 2.881 26.776-25.127-1.867-28.244-29.037 35.775zm-92.627 49.707l-5.935 64.384 56.127 29.035 44.377-41.786-7.25-25.755-15.435 17.267-69.001-3.52 10.52-65.189-50.486-6.549z"/><path class="st2" d="M144.764 171.452l.054.824a395.691 395.691 0 0 1 3.853 11.126c.191.591.383 1.181.573 1.772l3.75 3.258c3 9.144 10.505 33.56 15.82 63.382.724 4.044 1.418 8.219 2.111 12.393l-.583 7.28 1.887.93c4.984 32.294 8.35 63.675 8.35 63.675s-3.367.833-3.025 6.01l.062.942c3.646 15.484 66.362 13.074 142.216-5.705L306.827 140.46l-26.812 24.578-.537.492-20.325 18.626.388 5.885 10.507 31.844 7.195 24.93-1.003.926-.036.01-43.4 39.928-55.137-27.295-.076-.02-.828-.433 4.597-40.33 1.852-16.286-.39-5.882-34.897-28.2-1.608-1.315c-1.007.847-1.644 2.16-1.553 3.533z"/><path class="st4" d="M144.818 172.276a395.691 395.691 0 0 1 3.853 11.126c.191.591.383 1.181.573 1.772l3.75 3.258c3 9.144 10.505 33.56 15.82 63.382.724 4.044 1.418 8.219 2.111 12.393l-.583 7.28 1.887.93c4.984 32.294 8.35 63.675 8.35 63.675s-3.367.833-3.025 6.01l.062.942c.125 1.883.215 3.256.23 4.05-.005.52.013.794.013.794 1.1 16.632 64.864 14.521 142.362-4.664l-13.005-196.88-26.812 24.578-19.82 18.183-1.043.937 9.513 32.928 1.187 4.13.196.67 5.767 19.981 1.428 4.95-44.439 40.863-40.752-20.171-15.29-7.578.018-.323.498-5.107 5.545-57.069-.323-.278-.56-.42-37.511-30.342z"/><path class="st5" d="M152.994 188.432c3 9.144 10.505 33.56 15.82 63.382.724 4.044 1.418 8.219 2.111 12.393l4.449-56.398-22.38-19.377z"/><path class="st8" d="M173.307 210.688l-18.274-15.822a356.81 356.81 0 0 0-2.039-6.434l22.38 19.377-4.449 56.398c-.413-2.486-.837-4.924-1.257-7.383l3.639-46.136z"/><path class="st9" d="M180.578 336.092s-3.365-31.381-8.35-63.675l61.176 30.662 52.934-48.666-18.089-62.62 39.57-36.308 11.543 174.744c-142.9 25.41-138.535 9.628-138.784 5.863z"/><path class="st10 st11" d="M286.515 257.11l-52.932 48.666-60.927-30.538c-.143-.942-.282-1.878-.427-2.821l61.175 30.662 52.458-48.23.653 2.26zm-18.265-65.318l39.568-36.307.18 2.697-39.095 35.872z"/><path class="st7" d="M180.578 336.092c.25 3.765-4.116 19.547 138.784-5.863l.332 5.03c-74.7 17.219-137.32 13.624-142.14 6.844-.342-5.178 3.024-6.011 3.024-6.011z"/><path class="st8" d="M350.836 171.347l-43.018-15.862.18 2.697 42.5 15.672z"/><path class="st6" d="M461.943 111.946c-1.714 10.312-5.803 37.597-7.07 69.048-.175 4.269-.304 8.647-.433 13.025l-11.635-52.417 19.138-29.656z"/><path class="st0" d="M332.834 190.216c.856 12.959-8.468 25.944-20.822 29.003-12.358 3.06-23.069-4.966-23.925-17.925-.855-12.959 8.467-25.944 20.824-29.002 12.356-3.06 23.066 4.965 23.923 17.924z"/><path class="st0" d="M327.959 191.423c.669 10.135-6.622 20.29-16.285 22.683-9.666 2.393-18.042-3.884-18.712-14.02-.67-10.135 6.622-20.29 16.287-22.682 9.663-2.392 18.041 3.883 18.71 14.019zm132.163-67.544c-7.246 10.094-9.038 32.832-4.415 41.965l6.8-5.86s-1.752-2.552-.961-14.543c.792-11.99 4.933-18.83 4.933-18.83l-6.357-2.732zm-309.61 80.955c-3.433 3.176 2.16 28.428 8.183 30.363 6.024 1.936-1.976-29.907-1.976-29.907l-6.207-.456z"/><path class="st0" d="M156.31 199.092c8.326 6.239 13.014 27.372 9.728 38.465l-7.343-2.36s1.365-3.324-.96-14.543c-2.325-11.218-7.223-15.82-7.223-15.82l5.799-5.742z"/><path class="st12" d="M158.075 532.227v-127.34c0-36.283 18.327-60.246 113.144-81.468 94.815-21.224 128.282-27.386 156.17-34.232 27.886-6.846 54.977-10.953 54.977-44.5v164.308c0 32.863-43.026 38.339-98.005 52.715-54.977 14.377-226.286 34.23-226.286 70.517z"/><path class="st13" d="M158.075 541.227v-127.34c0-36.283 18.327-60.246 113.144-81.468 94.815-21.224 128.282-27.386 156.17-34.232 27.886-6.846 54.977-10.953 54.977-44.5v164.308c0 32.863-43.026 38.339-98.005 52.715-54.977 14.377-226.286 34.23-226.286 70.517z"/><path class="st12" d="M221.88 389.439l27.18 38.796 18.83-50.646c2.28-4.825 7.261-7.875 14.271-9.698 8.188-2.13 13.342.473 13.574 6.677.079 2.15-.327 4.984-1.558 8.032l-30.053 69.836c-2.93 7.293-6.678 10.864-13.36 12.604-6.519 1.695-10.11.17-13.165-4.89l-40.326-56.547c-.897-1.53-1.655-3.783-1.73-5.813-.233-6.333 5.61-12.478 13.626-14.564 6.014-1.565 9.464.398 12.71 6.213zm112.457-20.453l1.623 65.768c.248 10.09-4.124 15.871-13.629 17.564-9.502 1.69-14.117-2.494-14.367-12.586l-1.62-65.765c-.251-10.09 4.114-15.862 13.62-17.553 9.506-1.69 14.124 2.478 14.373 12.572zm59.244-25.428c28.163-5.009 45.404 4.428 45.881 23.682.482 19.524-14.945 34.374-42.078 39.201l-18.831 3.352.391 15.979c.255 10.093-4.119 15.873-13.625 17.566-9.505 1.687-14.124-2.494-14.37-12.584l-1.591-64.328c-.255-10.346 3.435-15.611 18.985-18.377l25.238-4.49zm-15.504 46.977l12.096-2.152c12.79-2.276 19.074-7.604 18.873-15.734-.206-8.381-6.52-11.072-19.479-8.767l-12.094 2.15.604 24.503z" id="Layer_2"/><path class="st14" d="M135.187 294.975s-2.54-30.805-26.657-32.539c-24.117-1.734-45.697-19.165-47.6-56.78 7.615 1.733 15.866 0 15.866 0s2.539 24.581 14.598 36.006 22.848 9.814 34.907 20.774c12.06 10.96 12.694 26.827 13.964 32.539-1.27 3.173-5.078 0-5.078 0z"/><path class="st0" d="M518.715 140.074s22.213 6.98 43.157-15.233c20.944-22.213 27.926-64.102 56.486-64.102 2.54-6.98-5.077-10.805-5.077-10.805s-24.117 9.218-33.636 26.355c-9.52 17.136-7.33 23.392-19.993 40.301-10.471 13.983-26.974 15.233-40.937 15.868.634.635 0 7.616 0 7.616z"/><path class="st15" d="M491.229 619.643s12.388-19.715-3.786-45.61c-16.172-25.894-54.92-43.273-47.674-70.901-6.11-4.227-11.742 2.17-11.742 2.17s2.8 25.667 16.961 39.222c14.162 13.557 20.768 13.024 33.91 29.563 10.87 13.676 7.891 29.957 4.964 43.624.776-.454 7.367 1.932 7.367 1.932zM72.354 310.441s19.04 7.805 22.848 21.47c9.52.338 22.848-9.31 22.848-9.31s-8.568-23.315-22.848-23.97c-3.808 14.578-22.848 11.81-22.848 11.81zM441.02 11.81s19.04 7.805 22.848 21.47c9.52.338 22.849-9.31 22.849-9.31S478.148.654 463.868 0c-3.807 14.578-22.848 11.81-22.848 11.81z"/><path class="st14" d="M593.941 415.164s19.04 7.804 22.85 21.47c9.52.337 22.848-9.31 22.848-9.31s-8.569-23.317-22.849-23.971c-3.808 14.577-22.849 11.811-22.849 11.811zM9.52 28.455s19.04 7.804 22.849 21.47c9.52.338 22.848-9.31 22.848-9.31S46.649 17.3 32.369 16.645C28.56 31.222 9.52 28.455 9.52 28.455zm553.123 269.328s3.807-23.172 7.615-20.154c3.808 3.018 28.443-.272 28.443-.272l-12.259 20.426h-23.8z"/><path class="st15" d="M573.879 188.962l24.752-30.99 7.616 16.583-14.339 22.975zM341.465 584.6l24.752-30.99 7.616 16.581-14.339 22.977z"/><path class="st14" d="M0 362.91l24.753-30.99 7.616 16.582-14.34 22.976z"/><path class="st15" d="M154.616 88.06l24.753-30.99 7.616 16.582-14.339 22.976z"/><path class="st14" d="M430.318 60.04h12.369v23.5h-12.369zM32.369 483.73h12.37v23.5h-12.37zm524.088 0h12.37v23.5h-12.37zM3.335 132.721h12.37v23.499H3.335z"/><path class="st0" d="M83.301 107.891l7.773 22.986 16.028-11.493v-18.646zM279.468 8.728l7.772 22.986 16.03-11.494V1.575zm278.414 571.813l7.772 22.986 16.029-11.493v-18.646z"/><path class="st15" d="M79.97 424.297l21.896 9.545 8.568-24.777-22.848-5.712z"/><path class="st0" d="M210.008 594.157l21.896 9.545 8.569-24.776-22.849-5.713z"/><path class="st15" d="M529.581 369.92l-4.5 19.992 14.02-3.808 4.76-16.184zM520.19 61.793l-4.5 19.993 14.021-3.808 4.76-16.185zM78.412 572.812l-4.5 19.992 14.02-3.808 4.76-16.184zm63.941-395.061l-4.501 19.992 14.02-3.807 4.76-16.185z"/></svg>