<svg id="Режим_изоляции" data-name="Режим изоляции" xmlns="http://www.w3.org/2000/svg" viewBox="0 0 611.5 606.1"><defs><style>.cls-1{fill:#fff;}.cls-2{fill:#ed1c24;}.cls-3{fill:#efbb6a;}.cls-4{fill:#d89f55;}.cls-5{fill:#f97c64;}.cls-6{fill:#d88948;}.cls-7{fill:#c4783f;}.cls-8{fill:#e6e6e6;}.cls-9{fill:#b3b3b3;}.cls-10{fill:#181617;}.cls-11{fill:#f05323;}.cls-12{fill:#f99f1c;}</style></defs><title>indie</title><g id="Режим_изоляции-2" data-name="Режим изоляции"><path class="cls-1" d="M353.2,34.7c5.8,8.6,3.2,30.1-3.6,39.5l-6.1-4.7s2.4-2.7,3.9-14-1.6-17.3-1.6-17.3l7.4-3.5Z" transform="translate(-6.7 -13.5)"/><path class="cls-1" d="M158.1,534.2V406.8c0-36.3,18.3-60.2,113.1-81.5s128.3-27.4,156.2-34.2,55-11,55-44.5V410.9c0,32.9-43,38.3-98,52.7s-226.3,34.3-226.3,70.6Z" transform="translate(-6.7 -13.5)"/><path class="cls-1" d="M158.1,541.2V413.8c0-36.3,18.3-60.2,113.1-81.5s128.3-27.4,156.2-34.2,55-11,55-44.5V417.9c0,32.9-43,38.3-98,52.7s-226.3,34.3-226.3,70.6Z" transform="translate(-6.7 -13.5)"/><path class="cls-1" d="M543.4,177.5s28.5-22,22.6-45.5,4-39.4,39.1-52.9c.7,7.8,4.9,15.1,4.9,15.1s-22.6,10.1-29.7,25.1-2.2,24.8-8.9,39.6-21.5,20.4-26.6,23.4C541.5,182.1,543.4,177.5,543.4,177.5Z" transform="translate(-6.7 -13.5)"/><path class="cls-1" d="M24.3,231.3s-1.1,23.3,25.8,37.8,69.1,10.6,76.4,38.2c7.4.7,9.1-7.7,9.1-7.7s-15.1-21-34.1-25.8-24.5-1.1-44.1-9c-16.2-6.5-21.6-22.2-25.8-35.5-.4.8-7.3,2-7.3,2Z" transform="translate(-6.7 -13.5)"/><path class="cls-1" d="M491.2,619.6s12.4-19.7-3.8-45.6-54.9-43.3-47.7-70.9c-6.1-4.2-11.7,2.2-11.7,2.2s2.8,25.7,17,39.2,20.8,13,33.9,29.6c10.9,13.7,7.9,30,5,43.6.7-.5,7.3,1.9,7.3,1.9Z" transform="translate(-6.7 -13.5)"/><path class="cls-1" d="M540.1,435.7s19,7.8,22.8,21.5c9.5.3,22.8-9.3,22.8-9.3s-8.6-23.3-22.8-24C559.1,438.4,540.1,435.7,540.1,435.7ZM6.7,345.6s19,7.8,22.8,21.5c9.5.3,22.8-9.3,22.8-9.3s-8.6-23.3-22.8-24C25.7,348.4,6.7,345.6,6.7,345.6Zm502.1-67.3s3.8-23.2,7.6-20.2,28.4-.3,28.4-.3l-12.3,20.4H508.8Z" transform="translate(-6.7 -13.5)"/><path class="cls-1" d="M585.8,318.6l24.8-31,7.6,16.6-14.3,23Z" transform="translate(-6.7 -13.5)"/><path class="cls-1" d="M223.6,44.5l24.8-31L256,30.1l-14.3,23Z" transform="translate(-6.7 -13.5)"/><path class="cls-1" d="M569.7,595.8,558,591.9l7.4-22.3,11.7,3.9Z" transform="translate(-6.7 -13.5)"/><path class="cls-1" d="M87.7,76.5l-10.2-22L62.8,67.6l2,18.5Z" transform="translate(-6.7 -13.5)"/><path class="cls-1" d="M70,454.3l21.9,9.5,8.6-24.8-22.8-5.7Z" transform="translate(-6.7 -13.5)"/><path class="cls-1" d="M210,594.1l21.9,9.5,8.6-24.8-22.8-5.7Z" transform="translate(-6.7 -13.5)"/><path class="cls-1" d="M47,533.6,36.1,551l14.5,1.1,9.9-13.7Zm66.3-351.3-10.9,17.4,14.5,1.1,9.9-13.7-8.9-3.1Z" transform="translate(-6.7 -13.5)"/><path class="cls-1" d="M243.7,432.4q-1.65,29.25-28.8,35.7-27.45,6.6-25.7-22.6l1.7-29.2a11.16,11.16,0,0,1,3.2-7.4,13.68,13.68,0,0,1,6.6-3.9,8,8,0,0,1,6.4.8c1.7,1.1,2.5,3.2,2.3,6.1L207.5,444c-.3,5.4,2.4,7.4,8.2,6s8.9-4.8,9.2-10.2l1.9-32.1a11.8,11.8,0,0,1,3.2-7.4,14.25,14.25,0,0,1,3-2.5,12,12,0,0,1,3.5-1.5c2.6-.6,4.7-.4,6.5.8s2.6,3.1,2.4,6Z" transform="translate(-6.7 -13.5)"/><path class="cls-1" d="M268.6,445.7c-.4,6.3-3.7,10.2-9.8,11.7-6.3,1.5-9.2-.8-8.8-7l2.8-48.4c.4-6.2,3.5-10,9.5-11.4l18.9-4.6a30.6,30.6,0,0,1,10.4-1,13.67,13.67,0,0,1,7.1,2.5,11.69,11.69,0,0,1,3.9,5.7,23,23,0,0,1,.9,8.6,32.8,32.8,0,0,1-1.8,8.8,27.75,27.75,0,0,1-4.1,7.6,26.32,26.32,0,0,1-6.1,5.9,22.49,22.49,0,0,1-7.9,3.5l-3.3.8c-3.1.7-12.3,3-12.3,3l-.6-14.5s10.6-2.6,12.7-3.1l1.5-.4a7.41,7.41,0,0,0,3.8-2.1,6.62,6.62,0,0,0,1.6-4.1c.1-1.9-.4-3.1-1.4-3.7s-2.5-.6-4.5-.2l-10,2.4Z" transform="translate(-6.7 -13.5)"/><path class="cls-1" d="M315,443.5c-6.1,1.5-9-.9-8.6-7.1l2.8-48.5a11.56,11.56,0,0,1,3.1-7.4,13.25,13.25,0,0,1,6.6-3.9,8.13,8.13,0,0,1,6.4.8q2.7,1.65,2.4,6l-2.3,39.4,9.9-2.4c2.9-.7,5-.3,6.4,1.1a7.55,7.55,0,0,1,1.9,5.9,12.88,12.88,0,0,1-2.6,7.1,11.12,11.12,0,0,1-6.7,4.3Z" transform="translate(-6.7 -13.5)"/><path class="cls-1" d="M387.6,413.3l-19.9,4.8-3.4,8a15.37,15.37,0,0,1-3.8,5.3,11.63,11.63,0,0,1-4.7,2.6,11.43,11.43,0,0,1-3.6.3,7.56,7.56,0,0,1-3.1-1,5.56,5.56,0,0,1-2.1-2.2,7.12,7.12,0,0,1-.7-3.4,10.19,10.19,0,0,1,.9-3.9l25.7-54.9a17.71,17.71,0,0,1,3.2-4.7,11.8,11.8,0,0,1,5.7-2.9c2.4-.6,4.2-.5,5.4.2a6.28,6.28,0,0,1,2.7,3.4l17.9,44.3a8.65,8.65,0,0,1-.6,7.2,12.66,12.66,0,0,1-2.4,3.3,21,21,0,0,1-3.3,2.6,14.39,14.39,0,0,1-3.7,1.5c-4.1,1-6.7-.3-7.9-4Zm-13.2-11,9-2.2-3.4-11Z" transform="translate(-6.7 -13.5)"/><path class="cls-1" d="M439.7,352.2a14.2,14.2,0,0,1,3.8-4.5,13.93,13.93,0,0,1,4.4-2.2,8.31,8.31,0,0,1,3.5-.1,7.89,7.89,0,0,1,3,1.2,6.42,6.42,0,0,1,2,2.3,6.29,6.29,0,0,1,.6,3.4,12.31,12.31,0,0,1-1.8,5.4l-16.3,27.6-1.2,20.1a11.2,11.2,0,0,1-3.2,7.5,13.68,13.68,0,0,1-6.6,3.9c-2.6.6-4.7.4-6.4-.7s-2.5-3.2-2.3-6.2l1.2-20.1-13.7-20.5a7.49,7.49,0,0,1-1.3-4.3,10.73,10.73,0,0,1,1-3.8,16.28,16.28,0,0,1,2.3-3.5,11.8,11.8,0,0,1,3.2-2.7,13.39,13.39,0,0,1,3.7-1.6,8.17,8.17,0,0,1,4.1.1,5.65,5.65,0,0,1,3.4,2.7l7.5,12.4Z" transform="translate(-6.7 -13.5)"/><path class="cls-2" d="M353.2,34.7c5.8,8.6,3.2,30.1-3.6,39.5l-6.1-4.7s2.4-2.7,3.9-14-1.6-17.3-1.6-17.3l7.4-3.5Z" transform="translate(-6.7 -13.5)"/><polygon class="cls-3" points="444.9 327.85 462.47 346.88 450.2 358.19 412.34 393.15 394.77 374.13 444.9 327.85"/><polygon class="cls-4" points="411.27 358.89 428.85 377.93 416.58 389.24 412.34 393.15 394.77 374.13 411.27 358.89"/><polygon class="cls-3" points="421.25 266.5 335.51 345.67 317.94 326.64 403.68 247.48 421.25 266.5"/><polygon class="cls-4" points="356.9 325.92 335.51 345.67 317.94 326.64 339.32 306.9 356.9 325.92"/><path class="cls-5" d="M431.3,395.34l25.61-23.64a17.43,17.43,0,1,1-25.61,23.64Z" transform="translate(-6.7 -13.5)"/><polygon class="cls-6" points="393.6 292.02 435.06 336.93 404.62 365.04 363.16 320.14 393.6 292.02"/><polygon class="cls-7" points="374.78 309.4 416.24 354.31 404.62 365.04 363.16 320.14 374.78 309.4"/><polygon class="cls-8" points="183.3 94.81 192.06 160.03 248.01 220.62 255.07 228.27 276.52 251.5 333.03 312.7 388.6 261.4 247.63 108.73 183.3 94.81"/><polygon class="cls-1" points="255.07 228.27 276.52 251.5 383.39 255.76 361.94 232.53 255.07 228.27"/><polygon class="cls-1" points="216.21 186.19 248.01 220.62 354.88 224.88 323.08 190.45 216.21 186.19"/><polygon class="cls-9" points="183.3 94.81 247.63 108.73 388.6 261.4 360.81 287.06 183.3 94.81"/><polygon class="cls-3" points="210.87 366.79 191.83 384.37 180.52 372.1 145.56 334.24 164.58 316.67 210.87 366.79"/><polygon class="cls-4" points="179.82 333.17 160.78 350.74 149.47 338.47 145.56 334.24 164.58 316.67 179.82 333.17"/><polygon class="cls-3" points="272.21 343.14 193.05 257.4 212.07 239.84 291.23 325.57 272.21 343.14"/><polygon class="cls-4" points="212.79 278.79 193.05 257.4 212.07 239.84 231.82 261.22 212.79 278.79"/><path class="cls-5" d="M163.58,360l23.64,25.61A17.43,17.43,0,0,1,163.58,360Z" transform="translate(-6.7 -13.5)"/><polygon class="cls-6" points="246.69 315.49 201.78 356.96 173.67 326.51 218.57 285.05 246.69 315.49"/><polygon class="cls-7" points="229.31 296.67 184.4 338.14 173.67 326.51 218.57 285.05 229.31 296.67"/><polygon class="cls-8" points="443.9 105.19 429.98 169.51 369.39 225.46 361.74 232.52 338.51 253.97 277.31 310.48 226 254.92 378.67 113.95 443.9 105.19"/><polygon class="cls-1" points="361.74 232.52 338.51 253.97 231.64 249.71 254.87 228.26 361.74 232.52"/><polygon class="cls-1" points="403.82 193.66 369.39 225.46 262.52 221.2 296.95 189.41 403.82 193.66"/><polygon class="cls-9" points="443.9 105.19 378.67 113.95 226 254.92 251.66 282.7 443.9 105.19"/><path d="M474,355.82l-17.57-19a5.92,5.92,0,0,0-8.36-.33l-5.49,5.07-33.43-36.21,23.3-21.51a5.92,5.92,0,0,0,.33-8.36l-17.57-19a5.92,5.92,0,0,0-8.36-.33L396.08,266l-8.78-9.51a5.92,5.92,0,1,0-8.7,8l8.78,9.51-8.19,7.56a5.92,5.92,0,0,0,8,8.7L410.5,268.8,420,279.13l-77,71.14-9.54-10.33L372,304.37a5.92,5.92,0,1,0-8-8.7l-23.43,21.63L321.8,297l119.35-110.2a5.92,5.92,0,0,0,1.77-3.1l13.93-64.32a5.92,5.92,0,0,0-6.57-7.12L385,121.05a5.93,5.93,0,0,0-3.23,1.52L318,181.47l-58.9-63.79a5.91,5.91,0,0,0-3.1-1.77L191.71,102a5.92,5.92,0,0,0-7.12,6.57l8.76,65.22a5.92,5.92,0,0,0,1.52,3.23l50.6,54.81a5.92,5.92,0,0,0,8.7-8l-49.34-53.43-7.39-55,54.25,11.75,57.63,62.41-75.84,70-9.91-10.74a5.92,5.92,0,0,0-8.36-.33l-19,17.57a5.92,5.92,0,0,0-.33,8.36l21.51,23.3-36.2,33.43-5.08-5.5a5.92,5.92,0,0,0-8.36-.33l-19,17.57a5.92,5.92,0,0,0-.33,8.36l7.82,8.47a23.35,23.35,0,0,0,30.64,33.19l7.82,8.47a5.92,5.92,0,0,0,4.11,1.9h0a5.91,5.91,0,0,0,4.25-1.57l19-17.57a5.92,5.92,0,0,0,.33-8.36l-5.07-5.49,24.58-22.7a5.92,5.92,0,0,0-8-8.7l-24.58,22.7-20.08-21.75,36.2-33.43L275,360.12a5.92,5.92,0,0,0,8.36.33l19-17.57a5.92,5.92,0,0,0,.33-8.36l-9.91-10.74,20.28-18.72,18.72,20.28-10.74,9.92a5.92,5.92,0,0,0-.33,8.36l17.57,19a5.92,5.92,0,0,0,8.36.33L370,341.47l33.43,36.21-5.49,5.07a5.92,5.92,0,0,0-.33,8.36l17.57,19a5.92,5.92,0,0,0,8.36.33l8.47-7.82A23.35,23.35,0,0,0,465.17,372l8.47-7.82A5.91,5.91,0,0,0,474,355.82ZM175.39,383.77A11.49,11.49,0,0,1,164.82,369l13.37,14.48A11.58,11.58,0,0,1,175.39,383.77Zm29.2-9.83,5.07,5.49L199.33,389l-38.25-41.43L171.4,338l5.08,5.5h0Zm75.11-26.19-71.14-77,10.33-9.54,71.13,77ZM267.17,296,329,238.9a5.92,5.92,0,0,0-8-8.7l-61.85,57.11-17.62-19.09L388.47,132.54l55-7.39L431.74,179.4,284.79,315.09Zm111.5,37.43,21.75-20.08,33.43,36.21-21.75,20.08Zm41.16,64.32-9.54-10.33,5.49-5.07h0l30.44-28.11h0l5.49-5.07,9.54,10.33Zm36.23-14.32A11.47,11.47,0,0,1,441.34,394l14.48-13.37A11.48,11.48,0,0,1,456.06,383.44Z" transform="translate(-6.7 -13.5)"/><path d="M340,226.39a5.9,5.9,0,0,0,4.25-1.57l7.78-7.18a5.92,5.92,0,0,0-8-8.7l-7.78,7.18A5.92,5.92,0,0,0,340,226.39Z" transform="translate(-6.7 -13.5)"/><path d="M363,205.21a5.9,5.9,0,0,0,4.25-1.57L403.69,170a5.92,5.92,0,1,0-8-8.7l-36.48,33.69A5.92,5.92,0,0,0,363,205.21Z" transform="translate(-6.7 -13.5)"/><path d="M279.63,195.63,235.75,148.1a5.92,5.92,0,1,0-8.7,8l43.88,47.53a5.92,5.92,0,0,0,8.7-8Z" transform="translate(-6.7 -13.5)"/><path class="cls-1" d="M158.1,534.2V406.8c0-36.3,18.3-60.2,113.1-81.5s128.3-27.4,156.2-34.2,55-11,55-44.5V410.9c0,32.9-43,38.3-98,52.7s-226.3,34.3-226.3,70.6Z" transform="translate(-6.7 -13.5)"/><path class="cls-10" d="M158.1,541.2V413.8c0-36.3,18.3-60.2,113.1-81.5s128.3-27.4,156.2-34.2,55-11,55-44.5V417.9c0,32.9-43,38.3-98,52.7s-226.3,34.3-226.3,70.6Z" transform="translate(-6.7 -13.5)"/><path class="cls-11" d="M543.4,177.5s28.5-22,22.6-45.5,4-39.4,39.1-52.9c.7,7.8,4.9,15.1,4.9,15.1s-22.6,10.1-29.7,25.1-2.2,24.8-8.9,39.6-21.5,20.4-26.6,23.4C541.5,182.1,543.4,177.5,543.4,177.5Z" transform="translate(-6.7 -13.5)"/><path class="cls-2" d="M24.3,231.3s-1.1,23.3,25.8,37.8,69.1,10.6,76.4,38.2c7.4.7,9.1-7.7,9.1-7.7s-15.1-21-34.1-25.8-24.5-1.1-44.1-9c-16.2-6.5-21.6-22.2-25.8-35.5-.4.8-7.3,2-7.3,2Z" transform="translate(-6.7 -13.5)"/><path class="cls-12" d="M491.2,619.6s12.4-19.7-3.8-45.6-54.9-43.3-47.7-70.9c-6.1-4.2-11.7,2.2-11.7,2.2s2.8,25.7,17,39.2,20.8,13,33.9,29.6c10.9,13.7,7.9,30,5,43.6.7-.5,7.3,1.9,7.3,1.9Z" transform="translate(-6.7 -13.5)"/><path class="cls-11" d="M540.1,435.7s19,7.8,22.8,21.5c9.5.3,22.8-9.3,22.8-9.3s-8.6-23.3-22.8-24C559.1,438.4,540.1,435.7,540.1,435.7ZM6.7,345.6s19,7.8,22.8,21.5c9.5.3,22.8-9.3,22.8-9.3s-8.6-23.3-22.8-24C25.7,348.4,6.7,345.6,6.7,345.6Zm502.1-67.3s3.8-23.2,7.6-20.2,28.4-.3,28.4-.3l-12.3,20.4H508.8Z" transform="translate(-6.7 -13.5)"/><path class="cls-12" d="M475.7,97.9l24.8-31,7.6,16.6-14.3,23ZM318.5,558.3l24.8-31,7.6,16.6-14.3,23Z" transform="translate(-6.7 -13.5)"/><path class="cls-11" d="M585.8,318.6l24.8-31,7.6,16.6-14.3,23Z" transform="translate(-6.7 -13.5)"/><path class="cls-12" d="M223.6,44.5l24.8-31L256,30.1l-14.3,23Z" transform="translate(-6.7 -13.5)"/><path class="cls-11" d="M569.7,595.8,558,591.9l7.4-22.3,11.7,3.9Z" transform="translate(-6.7 -13.5)"/><path class="cls-2" d="M87.7,76.5l-10.2-22L62.8,67.6l2,18.5Z" transform="translate(-6.7 -13.5)"/><path class="cls-12" d="M70,454.3l21.9,9.5,8.6-24.8-22.8-5.7Z" transform="translate(-6.7 -13.5)"/><path class="cls-2" d="M210,594.1l21.9,9.5,8.6-24.8-22.8-5.7Z" transform="translate(-6.7 -13.5)"/><path class="cls-12" d="M47,533.6,36.1,551l14.5,1.1,9.9-13.7Zm66.3-351.3-10.9,17.4,14.5,1.1,9.9-13.7-8.9-3.1Z" transform="translate(-6.7 -13.5)"/><path class="cls-1" d="M224.9,448.6a10.72,10.72,0,0,1-3.3,7.7,14.41,14.41,0,0,1-7.2,4,9.88,9.88,0,0,1-7.1-.7q-2.85-1.65-2.7-6.3l1.8-50.2a11.18,11.18,0,0,1,3.2-7.6,14.49,14.49,0,0,1,7.2-4.1,9.19,9.19,0,0,1,7,.8c2,1.2,2.9,3.2,2.8,6.2Z" transform="translate(-6.7 -13.5)"/><path class="cls-1" d="M272.7,387.3a10.37,10.37,0,0,1,3.1-7.3,14,14,0,0,1,7-3.9,8.57,8.57,0,0,1,6.6.7c1.9,1.1,2.7,3.1,2.6,6l-1.9,50.6a11.76,11.76,0,0,1-1,4.2,15.87,15.87,0,0,1-2.2,3.5,10.67,10.67,0,0,1-3.1,2.5,13.79,13.79,0,0,1-3.6,1.5,10.15,10.15,0,0,1-4.9,0,7.21,7.21,0,0,1-4-2.7l-18-21.9-.8,22.2a10.37,10.37,0,0,1-3.1,7.3,14,14,0,0,1-7,3.9,9,9,0,0,1-6.6-.7c-1.8-1.1-2.7-3.1-2.6-6l1.9-50.7a14.33,14.33,0,0,1,.9-4.1,15.87,15.87,0,0,1,2.2-3.5,12.18,12.18,0,0,1,3.1-2.5,9.34,9.34,0,0,1,3.6-1.4,10.56,10.56,0,0,1,5,0,7.21,7.21,0,0,1,4,2.7l17.9,21.9Z" transform="translate(-6.7 -13.5)"/><path class="cls-1" d="M300.5,381.7a8.19,8.19,0,0,1,1.1-3.8,15,15,0,0,1,2.6-3.6,16.38,16.38,0,0,1,3.5-2.9,10.33,10.33,0,0,1,3.8-1.6l9.8-2.3a39.42,39.42,0,0,1,16.5-.8,25.72,25.72,0,0,1,11.6,5.1,22.29,22.29,0,0,1,6.7,9.5,30.46,30.46,0,0,1,1.9,12.1,42.5,42.5,0,0,1-2.7,12.9,44.91,44.91,0,0,1-7.3,12.4,49.19,49.19,0,0,1-27.5,16.7L309,438.1c-3.2.7-5.7.5-7.6-.7s-2.7-3.3-2.6-6.3Zm20.6,34.8a21.43,21.43,0,0,0,7.1-3,23.77,23.77,0,0,0,5.2-4.7,22.28,22.28,0,0,0,3.3-5.8,19.66,19.66,0,0,0,1.3-6,12.43,12.43,0,0,0-.8-5.1,8.54,8.54,0,0,0-2.8-3.9,9.52,9.52,0,0,0-5-2.1,18.06,18.06,0,0,0-7.2.4l-1.8.4-1.1,30.2Z" transform="translate(-6.7 -13.5)"/><path class="cls-1" d="M383.9,411.8a10.72,10.72,0,0,1-3.3,7.7,15.21,15.21,0,0,1-7.2,4,9.88,9.88,0,0,1-7.1-.7q-2.85-1.65-2.7-6.3l1.8-50.2a11.18,11.18,0,0,1,3.2-7.6,14.49,14.49,0,0,1,7.2-4.1,9.19,9.19,0,0,1,7,.8c2,1.2,2.9,3.2,2.8,6.2Z" transform="translate(-6.7 -13.5)"/><path class="cls-1" d="M402.1,416.5c-6.7,1.6-9.9-.8-9.7-7.2l1.8-49.2c.2-6.3,3.7-10.3,10.4-11.8l34.4-8c3.2-.7,5.6-.4,7.3,1.1a7.19,7.19,0,0,1,2.4,6,12.47,12.47,0,0,1-2.9,7.3,12.82,12.82,0,0,1-7.6,4.5l-24.3,5.6-.2,6.5,20.2-4.7c2.9-.7,5.2-.3,6.7,1a6.36,6.36,0,0,1,2.2,5.5,11.16,11.16,0,0,1-2.7,6.6,11.64,11.64,0,0,1-6.9,4.1L413,388.5l-.2,6.6,24.3-5.6c3.2-.7,5.6-.4,7.3,1a7,7,0,0,1,2.4,6,12.47,12.47,0,0,1-2.9,7.3,12.82,12.82,0,0,1-7.6,4.5Z" transform="translate(-6.7 -13.5)"/></g></svg>