<svg id="Layer_2" xmlns="http://www.w3.org/2000/svg" xmlns:xlink="http://www.w3.org/1999/xlink" viewBox="0 0 563.7138062 572.8344116"><style>.st0{clip-path:url(#SVGID_2_);fill:#fbab1f}.st1,.st2{fill:#e48c25}.st2,.st3{clip-path:url(#SVGID_4_)}.st3{fill:#fbab1f}.st4{fill:#f99f1c}.st5{fill:#f05323}.st6{fill:#ed1c24}.st7{fill:#fff}.st8{fill:#181617}</style><defs><path id="SVGID_1_" d="M122.753 100.55l297.922-44.091 25.696 323.065-297.923 44.09z"/></defs><clipPath id="SVGID_2_"><use xlink:href="#SVGID_1_" overflow="visible"/></clipPath><path class="st0" d="M133.507 214.721l116.32 148.006c4.455 5.676 12.016-1.416 8.726-8.183l-74.937-154.132c-1.075-2.215-3.129-3.435-5.255-3.12l-41.381 6.125c-4.523.668-6.573 7.356-3.473 11.304zm292.364-77.556L403.74 107.61c-2.78-3.714-7.877-2.324-9.256 2.518l-9.75 34.277c-1.316 4.637 1.721 9.262 5.7 8.673l31.875-4.717c4.47-.668 6.547-7.21 3.563-11.196zm-278.575 8.187l-17.074 35.566c-2.292 4.766.771 10.552 5.234 9.891l32.06-4.744c3.975-.588 6.216-5.99 4.203-10.132l-14.984-30.82c-2.104-4.334-7.306-4.201-9.44.239zm0 0"/><path class="st1" d="M387.425 85.817l-14.623-19.528c-1.16-1.552-2.876-2.32-4.61-2.063L294.913 75.07c-5.072.75-6.786 8.774-2.604 12.195a58802.813 58802.813 0 0 0 73.374 59.855c2.973 2.424 7.084.655 8.278-3.54l14.543-51.158c.658-2.307.243-4.835-1.08-6.605zm0 0"/><defs><path id="SVGID_3_" d="M122.753 100.55l297.922-44.091 25.696 323.065-297.923 44.09z"/></defs><clipPath id="SVGID_4_"><use xlink:href="#SVGID_3_" overflow="visible"/></clipPath><path class="st2" d="M248.632 81.92l-73.545 10.884c-1.734.257-3.29 1.508-4.18 3.364l-11.1 23.117c-1.013 2.112-1.02 4.708-.017 6.77l22.322 45.92c1.822 3.752 6.113 4.284 8.637 1.045 14.52-18.59 42.209-54.062 62.342-79.949 3.547-4.564.613-11.902-4.46-11.15zm0 0"/><path class="st3" d="M197.66 203.95l94.432 194.231c2.356 4.847 8.36 3.96 9.9-1.462l61.794-217.351c1.32-4.64-1.719-9.26-5.698-8.671l-156.225 23.12c-3.976.586-6.218 5.987-4.204 10.133zm149.593-56.296c-21.094-17.191-51.326-41.843-71.035-57.984-2.201-1.805-5.164-1.366-7.035 1.04-16.41 21.154-42.274 54.307-60.318 77.424-3.56 4.558-.616 11.9 4.462 11.149l131.321-19.436c5.076-.75 6.798-8.78 2.605-12.193zm-9.42 201.692l90.145-178.204c2.409-4.763-.649-10.695-5.17-10.026l-41.215 6.1c-2.127.315-3.943 2.102-4.645 4.578L328.017 343.9c-2.149 7.575 6.35 12.295 9.816 5.446zm0 0"/><path class="st4" d="M18.09 278.059s20 8.198 24 22.553c10 .354 24-9.78 24-9.78s-9-24.49-24-25.178c-4 15.312-24 12.405-24 12.405z"/><path class="st5" d="M512.714 159.994l26-32.552 8 17.418-15.062 24.134z"/><path class="st4" d="M99.977 39.946l26-32.552 8 17.419-15.062 24.133zm429.737 199.608l26-32.552 8 17.418-15.062 24.134z"/><path class="st5" d="M389.574 10.515h12.993v24.684h-12.993zM352.273 508.8h12.993v24.684h-12.993z"/><path class="st6" d="M218.621 7.514l8.164 24.144 16.836-12.072V0zM17.09 160.679l8.165 24.144 16.836-12.072v-19.586z"/><path class="st4" d="M534.441 324.967l-4.727 21 14.727-4 5-17zM4.728 428.42L0 449.42l14.728-4 5-17zm82.367-294.262l-4.728 21 14.728-4 5-17z"/><path class="st7" d="M85.482 572.834v-174.87c0-49.829 21.624-82.735 133.502-111.88 111.878-29.145 151.367-37.607 184.272-47.008 32.904-9.401 64.87-15.042 64.87-61.11v225.638c0 45.129-50.768 52.648-115.64 72.392-64.87 19.743-267.004 47.006-267.004 96.838z"/><path class="st8" d="M85.482 526.437V384.972c0-40.308 21.624-66.929 133.502-90.505 111.878-23.577 151.367-30.423 184.272-38.028 32.904-7.606 64.87-12.169 64.87-49.437v182.534c0 36.507-50.768 42.591-115.64 58.563-64.87 15.97-267.004 38.026-267.004 78.338z"/><path class="st7" d="M147.798 375.141c11.326-2.6 18.289 2.468 18.524 12.729.241 10.402-5.934 18.279-16.842 20.787l-7.576 1.74.197 8.517c.124 5.376-1.621 8.446-5.443 9.32-3.82.88-5.69-1.359-5.813-6.734l-.791-34.279c-.127-5.514 1.345-8.311 7.6-9.747l10.144-2.333zm-6.13 24.994l4.863-1.119c5.143-1.183 7.662-4.006 7.563-8.336-.104-4.468-2.65-5.918-7.863-4.719l-4.865 1.116.302 13.058zm47.262-34.445c12.16-2.793 18.978 2.027 19.19 11.174.162 7.053-4.099 13.153-11.506 16.118l9.124 7.871c2.28 2.001 3.443 3.911 3.485 5.726.068 2.932-2.109 5.468-5.236 6.187-2.223.51-3.986-.209-6.13-2.31l-13.515-13.532.282 12.218c.124 5.376-1.621 8.446-5.442 9.323-3.822.878-5.69-1.36-5.815-6.735l-.79-34.28c-.128-5.515 1.346-8.31 7.6-9.747l8.754-2.012zm-4.761 23.694l5.21-1.197c4.587-1.055 7.104-3.948 7.017-7.788-.086-3.7-2.637-5.29-7.154-4.252l-5.351 1.23.278 12.007zm42.171-12.776l7.922-1.82c5.35-1.23 8.029-.16 8.112 3.4.082 3.56-2.52 5.842-7.87 7.072l-7.922 1.82.214 9.284 9.52-2.189c5.351-1.226 8.03-.158 8.11 3.402.085 3.56-2.518 5.844-7.867 7.07l-13.134 3.02c-5.976 1.372-7.683.011-7.807-5.365l-.797-34.56c-.127-5.515 1.344-8.309 7.598-9.746l12.646-2.907c5.35-1.23 8.032-.089 8.114 3.471.082 3.561-2.522 5.773-7.871 7.003l-9.173 2.106.206 8.939zm42.355-23.141l8.188 27.95 6.332-31.356c.943-4.567 3.455-7.67 7.556-8.613 4.933-1.134 7.084 1.25 8.115 6.558l6.275 32.878c.237 1.14.326 2.03.34 2.658.086 3.702-2.227 6.41-5.56 7.175-3.198.735-5.123-1-5.711-5.286l-4.159-28.874-.07.019-6.938 32.335c-.693 3.245-1.884 6.117-6.123 7.09-3.682.847-5.59-.118-6.732-4.138l-7.93-28.918-.071.016-3.222 29.868c-.58 5.117-2.263 7.82-5.738 8.618-3.197.735-5.541-.904-5.626-4.605-.018-.838.095-1.987.339-3.516l5.264-35.25c.782-5.443 2.665-8.613 7.46-9.714 4.17-.958 6.794.824 8.011 5.105zm53.109-11.079l.808 35.049c.124 5.375-1.62 8.442-5.443 9.32-3.82.88-5.689-1.36-5.813-6.734l-.808-35.048c-.123-5.376 1.62-8.444 5.443-9.322 3.822-.88 5.689 1.36 5.813 6.735zm20.286-4.662l.46 19.899c.203 8.796 3.709 12.413 10.242 10.91 6.531-1.5 9.834-6.681 9.63-15.478l-.458-19.896c-.123-5.377 1.622-8.445 5.443-9.324 3.822-.877 5.69 1.36 5.813 6.736l.488 21.154c.342 14.803-7.743 24.661-20.667 27.63-12.925 2.97-21.377-3.088-21.718-17.889l-.49-21.155c-.123-5.376 1.624-8.443 5.445-9.322 3.822-.878 5.69 1.36 5.813 6.735zm58.687-14.608l8.19 27.947 6.33-31.354c.944-4.568 3.457-7.672 7.556-8.613 4.933-1.135 7.085 1.25 8.115 6.558l6.277 32.878c.235 1.138.326 2.029.34 2.658.086 3.7-2.228 6.409-5.564 7.175-3.195.734-5.12-1-5.708-5.285l-4.159-28.875-.07.016-6.937 32.338c-.695 3.246-1.885 6.115-6.123 7.09-3.684.846-5.591-.12-6.732-4.137l-7.932-28.92-.069.017-3.224 29.867c-.58 5.116-2.264 7.821-5.737 8.617-3.197.736-5.541-.901-5.626-4.601-.02-.84.096-1.988.339-3.518l5.264-35.25c.783-5.444 2.666-8.614 7.46-9.715 4.17-.957 6.795.825 8.01 5.107z"/></svg>