<?xml version="1.0" encoding="UTF-8" ?>
<!DOCTYPE svg PUBLIC "-//W3C//DTD SVG 1.1//EN" "http://www.w3.org/Graphics/SVG/1.1/DTD/svg11.dtd">
<svg width="1920pt" height="435pt" viewBox="0 0 1920 435" version="1.1" xmlns="http://www.w3.org/2000/svg">
<g id="#ff0000ff">
<path fill="#ff0000" opacity="1.00" d=" M 903.84 0.00 L 1027.38 0.00 C 1029.56 1.62 1032.41 1.21 1034.97 1.55 C 1049.11 2.50 1063.17 4.36 1077.19 6.36 C 1102.99 10.81 1128.83 16.64 1152.83 27.35 C 1177.60 37.60 1200.14 54.29 1215.29 76.60 C 1225.10 91.01 1231.05 107.68 1234.67 124.65 C 1228.10 124.54 1221.56 125.07 1215.01 125.26 C 1158.46 127.39 1101.91 129.60 1045.35 131.74 C 1043.33 124.88 1041.08 117.96 1036.98 112.02 C 1030.25 100.78 1019.23 92.78 1007.51 87.33 C 991.53 80.81 974.21 78.23 957.04 77.74 C 944.64 77.33 932.18 77.55 919.89 79.35 C 907.54 81.22 894.86 84.86 885.44 93.49 C 878.69 98.96 874.49 109.10 878.72 117.28 C 883.71 124.94 892.19 129.39 900.51 132.55 C 922.67 139.73 945.98 141.95 968.89 145.57 C 985.25 148.06 1001.62 150.53 1017.99 153.02 C 1043.91 157.39 1069.75 162.27 1095.47 167.72 C 1117.89 173.04 1140.41 178.45 1161.90 186.90 C 1180.67 193.94 1198.76 203.07 1214.86 215.07 C 1231.47 227.47 1244.72 244.71 1251.33 264.43 C 1257.59 283.82 1256.48 305.28 1248.89 324.13 C 1242.69 340.97 1231.07 355.09 1218.52 367.63 C 1202.99 382.20 1184.58 393.38 1165.29 402.25 C 1126.50 419.85 1084.05 427.46 1041.89 431.51 C 1006.05 435.22 969.96 434.91 933.98 434.32 C 893.49 432.87 852.83 430.06 813.16 421.43 C 792.68 416.95 772.44 410.79 753.61 401.47 C 743.64 396.95 734.75 390.49 725.80 384.26 C 710.63 372.86 696.86 359.33 686.69 343.22 C 676.13 326.96 669.68 308.17 667.25 288.98 C 730.86 286.43 794.46 283.81 858.07 281.25 C 859.74 289.44 862.33 297.47 866.06 304.96 C 872.48 318.39 883.36 329.53 896.51 336.45 C 913.96 346.38 934.05 350.46 953.86 352.15 C 972.62 353.80 991.56 352.77 1010.10 349.61 C 1021.52 347.01 1032.98 343.39 1042.61 336.53 C 1049.67 332.02 1056.23 325.92 1059.16 317.89 C 1061.93 310.83 1061.04 302.42 1056.73 296.17 C 1049.79 285.41 1038.20 278.64 1026.42 274.34 C 993.06 262.81 957.75 259.28 923.15 253.33 C 901.04 249.61 878.85 246.17 857.02 241.00 C 824.93 234.14 793.18 225.12 763.15 211.77 C 747.21 203.80 731.52 194.81 718.44 182.56 C 711.55 175.41 704.87 167.82 700.35 158.90 C 691.64 142.45 689.41 122.77 693.75 104.71 C 698.49 86.14 710.40 70.12 724.47 57.46 C 736.13 46.44 750.07 38.14 764.60 31.49 C 804.65 12.33 849.12 4.91 893.06 1.59 C 896.64 1.09 900.51 1.71 903.84 0.00 Z" />
<path fill="#ff0000" opacity="1.00" d=" M 0.00 6.49 C 72.00 6.49 143.99 6.49 215.99 6.49 C 270.00 6.63 324.01 6.11 378.01 7.03 C 405.82 7.96 433.69 9.76 461.17 14.26 C 475.17 16.74 489.20 19.53 502.57 24.48 C 525.44 32.62 547.25 45.37 563.18 63.96 C 573.18 75.19 579.88 89.19 583.08 103.84 C 586.45 122.16 585.52 141.62 578.13 158.89 C 570.87 176.58 557.18 190.76 542.19 202.23 C 525.69 214.19 507.04 222.86 487.89 229.64 C 470.50 235.44 452.37 238.56 434.26 241.19 C 457.18 263.83 478.67 287.86 500.57 311.48 C 511.59 323.16 522.04 335.35 532.57 347.47 C 546.77 363.63 560.96 379.80 574.64 396.41 C 583.87 407.11 592.51 418.34 602.08 428.74 C 594.05 428.23 586.00 428.63 577.96 428.51 C 522.41 428.44 466.84 428.63 411.29 428.41 C 408.18 425.59 405.95 421.95 403.21 418.79 C 376.85 385.54 349.60 353.01 322.94 320.00 C 305.86 299.39 289.79 277.98 273.21 256.99 C 249.06 257.02 224.90 256.99 200.75 257.00 C 200.77 314.19 200.71 371.38 200.78 428.57 C 133.86 428.42 66.93 428.55 0.00 428.51 L 0.00 6.49 M 201.19 71.45 C 201.32 110.63 201.22 149.81 201.25 188.99 C 239.16 188.99 277.08 189.03 315.00 188.98 C 329.81 189.01 344.68 188.14 359.22 185.23 C 373.01 182.00 386.75 176.05 396.52 165.49 C 411.06 149.25 414.86 123.93 404.42 104.56 C 396.69 90.71 382.79 80.75 367.60 76.58 C 354.10 72.66 339.97 71.62 325.98 71.52 C 284.38 71.45 242.79 71.59 201.19 71.45 Z" />
<path fill="#ff0000" opacity="1.00" d=" M 1311.02 6.49 C 1514.01 6.50 1717.01 6.49 1920.00 6.49 L 1920.00 110.75 C 1851.83 110.71 1783.65 110.82 1715.48 110.70 C 1715.58 216.72 1715.40 322.75 1715.57 428.78 C 1648.72 428.71 1581.86 428.77 1515.01 428.75 C 1514.99 322.75 1515.01 216.75 1515.00 110.75 C 1447.00 110.75 1379.00 110.74 1311.01 110.75 C 1311.00 76.00 1310.98 41.24 1311.02 6.49 Z" />
</g>
</svg>
