<?xml version="1.0" encoding="UTF-8" ?>
<!DOCTYPE svg PUBLIC "-//W3C//DTD SVG 1.1//EN" "http://www.w3.org/Graphics/SVG/1.1/DTD/svg11.dtd">
<svg width="2207pt" height="521pt" viewBox="0 0 2207 521" version="1.1" xmlns="http://www.w3.org/2000/svg">
<g id="#ffffffff">
<path fill="#ffffff" opacity="1.00" d=" M 634.46 1.18 C 635.00 1.02 636.07 0.70 636.60 0.54 C 637.82 1.33 639.10 2.06 640.38 2.77 C 643.44 4.20 646.43 5.80 649.48 7.27 C 651.75 8.48 654.07 9.59 656.38 10.74 C 660.69 12.78 665.16 14.48 669.38 16.75 C 682.34 22.50 695.36 28.16 708.60 33.26 C 711.25 34.30 713.98 35.17 716.61 36.28 C 719.17 37.50 721.96 38.13 724.57 39.26 C 738.03 44.17 751.66 48.64 765.39 52.74 C 780.49 57.44 796.05 60.43 811.52 63.64 C 828.08 68.04 845.21 69.50 862.18 71.06 C 862.66 72.43 862.83 73.87 862.79 75.33 C 863.15 108.89 862.76 142.45 862.86 176.01 C 862.58 184.00 861.81 191.97 862.01 199.97 C 860.81 219.92 858.35 239.73 854.77 259.41 C 850.78 279.07 845.57 298.56 838.73 317.44 C 837.10 321.36 835.86 325.43 834.27 329.36 C 833.12 332.10 831.60 334.69 830.80 337.56 C 830.29 338.51 829.78 339.45 829.26 340.39 C 827.76 344.12 826.11 347.80 824.26 351.37 C 824.01 351.86 823.50 352.85 823.25 353.35 C 820.69 358.46 818.15 363.57 815.26 368.50 C 815.02 368.99 814.54 369.96 814.29 370.44 C 812.26 373.75 810.41 377.17 808.27 380.40 C 801.69 391.25 794.18 401.46 786.68 411.67 C 783.09 415.17 781.02 419.93 777.25 423.25 C 773.84 426.53 770.66 430.02 767.68 433.69 C 747.10 455.36 723.94 474.56 698.49 490.28 C 693.27 493.60 687.88 496.63 682.54 499.75 C 680.79 500.56 679.10 501.44 677.38 502.28 C 676.14 503.05 674.83 503.69 673.52 504.29 C 670.82 505.62 668.22 507.16 665.42 508.26 C 664.46 508.75 663.50 509.26 662.55 509.77 C 660.53 510.61 658.52 511.49 656.47 512.26 C 654.16 513.36 651.77 514.27 649.42 515.26 C 645.29 517.38 640.47 517.73 636.42 519.96 C 633.74 519.13 631.01 518.45 628.48 517.27 C 624.71 516.36 621.20 514.67 617.62 513.25 C 614.89 512.06 612.12 510.98 609.42 509.76 C 607.78 508.93 606.13 508.13 604.52 507.27 C 600.73 505.56 597.05 503.63 593.35 501.76 C 589.37 499.72 585.47 497.54 581.64 495.25 C 580.19 494.43 578.78 493.57 577.34 492.77 C 575.72 491.74 574.14 490.67 572.49 489.74 C 571.20 488.90 569.91 488.08 568.63 487.25 C 527.97 461.02 492.86 426.18 466.75 385.39 C 463.53 380.53 460.66 375.46 457.73 370.43 C 455.67 366.78 453.54 363.15 451.76 359.35 C 451.04 358.06 450.35 356.75 449.74 355.41 C 447.97 352.10 445.75 349.02 444.79 345.33 C 443.54 342.78 442.49 340.13 441.25 337.58 C 438.69 331.97 436.60 326.16 434.29 320.45 C 433.97 319.47 433.63 318.50 433.27 317.54 C 431.12 311.60 429.09 305.61 427.27 299.55 C 421.53 281.25 417.45 262.45 414.54 243.50 C 413.83 240.88 414.16 238.07 413.15 235.52 C 412.68 227.28 411.09 219.17 410.84 210.91 C 409.17 204.67 410.46 198.15 409.85 191.80 C 409.00 183.21 409.11 174.57 409.07 165.95 C 409.11 134.95 409.01 103.95 409.12 72.96 C 408.72 70.57 411.49 71.07 412.99 70.97 C 420.25 69.88 427.61 69.52 434.87 68.21 C 440.77 68.02 446.40 65.82 452.31 65.73 C 457.72 64.87 463.07 63.60 468.49 62.79 C 476.41 60.58 484.53 58.85 492.51 56.75 C 500.52 54.53 508.53 52.23 516.48 49.75 C 524.87 46.99 533.38 44.50 541.57 41.17 C 542.05 41.09 543.00 40.93 543.48 40.85 C 545.08 39.91 546.86 39.32 548.62 38.74 C 552.59 37.28 556.59 35.88 560.51 34.26 C 561.89 33.80 563.26 33.28 564.62 32.74 C 567.46 31.38 570.49 30.51 573.39 29.28 C 577.77 27.43 582.21 25.71 586.55 23.73 C 588.15 22.97 589.81 22.35 591.49 21.75 C 595.02 19.77 598.88 18.47 602.55 16.76 C 607.11 14.49 611.83 12.56 616.37 10.24 C 617.43 9.75 618.50 9.24 619.58 8.75 C 620.90 8.03 622.26 7.38 623.64 6.74 C 624.90 6.00 626.21 5.34 627.55 4.73 C 629.16 3.93 630.77 3.12 632.36 2.24 C 632.88 1.98 633.94 1.45 634.46 1.18 M 621.37 51.27 C 610.91 56.39 600.03 60.62 589.34 65.24 C 588.10 65.78 586.83 66.23 585.59 66.76 C 583.90 67.37 582.19 67.94 580.59 68.73 C 570.25 72.67 559.93 76.70 549.45 80.25 C 547.49 81.06 545.46 81.71 543.42 82.27 C 533.67 86.21 523.39 88.51 513.39 91.73 C 495.60 96.58 477.75 101.48 459.49 104.20 C 456.06 105.27 452.40 105.51 448.86 106.14 C 448.57 131.41 448.76 156.69 448.85 181.97 C 449.28 189.94 448.38 198.01 449.92 205.90 C 449.86 214.33 451.54 222.59 452.24 230.96 C 455.58 254.52 460.65 277.97 468.74 300.40 C 469.56 302.82 470.32 305.26 471.25 307.64 C 472.68 310.93 473.82 314.34 475.22 317.66 C 476.03 319.32 476.86 320.98 477.89 322.54 C 477.94 323.04 478.05 324.03 478.11 324.53 C 481.99 332.64 485.83 340.77 490.24 348.61 C 493.13 353.68 496.12 358.69 499.26 363.61 C 526.44 405.93 564.43 441.16 608.56 465.29 C 614.14 468.16 619.59 471.29 625.39 473.71 C 626.76 474.29 628.13 474.92 629.40 475.75 C 632.00 476.31 634.33 478.45 637.09 477.87 C 639.64 476.92 642.09 475.74 644.63 474.74 C 650.22 471.88 656.02 469.42 661.47 466.27 C 664.26 464.89 666.90 463.22 669.67 461.78 C 714.44 435.80 752.51 398.32 778.74 353.65 C 780.13 350.86 781.94 348.30 783.30 345.49 C 786.72 339.34 789.87 333.06 792.77 326.65 C 794.22 323.19 795.68 319.74 797.26 316.34 C 798.56 313.45 799.38 310.38 800.76 307.52 C 801.57 305.14 802.39 302.76 803.27 300.41 C 805.30 294.82 806.92 289.10 808.74 283.44 C 818.81 247.86 823.56 210.93 823.15 173.97 C 822.95 151.36 823.25 128.75 823.15 106.14 C 819.61 105.48 815.93 105.29 812.52 104.19 C 796.63 101.87 781.08 97.72 765.55 93.74 C 757.21 91.25 748.77 89.02 740.50 86.26 C 735.51 84.66 730.46 83.20 725.60 81.22 C 719.74 79.81 714.24 77.25 708.57 75.28 C 705.86 74.41 703.19 73.44 700.62 72.25 C 697.94 71.30 695.26 70.34 692.63 69.27 C 689.32 67.86 685.97 66.59 682.64 65.27 C 678.02 63.14 673.13 61.62 668.63 59.25 C 667.28 58.69 665.93 58.16 664.53 57.77 C 663.54 57.24 662.55 56.73 661.57 56.23 C 658.86 55.04 656.17 53.84 653.43 52.75 C 652.11 52.00 650.74 51.36 649.36 50.75 C 644.87 48.80 640.51 46.42 635.98 44.68 C 630.97 46.56 626.28 49.16 621.37 51.27 Z" />
<path fill="#ffffff" opacity="1.00" d=" M 1170.10 85.11 C 1183.75 83.91 1197.66 84.15 1211.13 86.90 C 1223.66 89.44 1235.83 94.95 1245.08 103.93 C 1255.31 114.13 1261.34 127.87 1264.02 141.92 C 1266.46 153.80 1267.19 165.96 1267.00 178.07 C 1267.00 234.04 1267.00 290.01 1267.00 345.98 C 1266.46 366.56 1262.62 388.13 1250.07 405.00 C 1240.90 417.55 1226.53 425.39 1211.55 428.74 C 1198.59 431.71 1185.16 432.13 1171.94 431.23 C 1158.60 430.22 1145.11 427.26 1133.52 420.35 C 1124.41 415.07 1117.17 406.98 1112.11 397.82 C 1103.75 382.67 1101.23 365.09 1100.99 348.00 C 1101.01 291.67 1101.00 235.33 1101.00 178.99 C 1100.81 163.06 1102.39 146.89 1107.78 131.81 C 1112.19 119.52 1119.57 108.02 1130.05 100.05 C 1141.55 91.23 1155.78 86.55 1170.10 85.11 M 1177.65 134.72 C 1169.05 136.24 1162.15 143.01 1158.84 150.87 C 1154.76 160.31 1154.17 170.82 1154.25 180.98 C 1154.25 236.67 1154.25 292.36 1154.25 348.05 C 1154.39 357.30 1156.99 366.84 1162.95 374.07 C 1169.63 381.77 1180.95 382.82 1190.42 381.30 C 1198.03 380.14 1204.88 375.14 1208.00 368.06 C 1213.50 357.96 1213.49 346.19 1213.25 335.01 C 1213.25 279.67 1213.25 224.34 1213.25 169.01 C 1212.96 160.00 1210.77 150.81 1205.78 143.22 C 1199.54 134.47 1187.48 133.21 1177.65 134.72 Z" />
<path fill="#ffffff" opacity="1.00" d=" M 1900.53 85.76 C 1914.98 83.76 1929.80 83.95 1944.19 86.42 C 1960.92 89.31 1977.48 97.54 1987.23 111.85 C 1998.93 128.41 2001.69 149.27 2002.48 169.03 C 2002.52 224.69 2002.49 280.34 2002.50 336.00 C 2002.86 356.68 2000.87 378.27 1990.84 396.76 C 1984.42 408.92 1973.79 418.77 1961.10 424.12 C 1942.87 431.92 1922.46 432.62 1902.98 430.82 C 1885.09 428.96 1866.48 422.53 1854.75 408.23 C 1841.21 392.17 1836.97 370.51 1836.51 350.02 C 1836.49 294.04 1836.51 238.05 1836.50 182.06 C 1836.11 161.30 1838.15 139.68 1848.03 121.05 C 1854.29 109.09 1864.29 99.13 1876.47 93.25 C 1884.02 89.46 1892.20 87.05 1900.53 85.76 M 1913.54 134.66 C 1904.38 136.05 1897.21 143.43 1893.92 151.79 C 1889.12 163.58 1889.74 176.57 1889.75 189.04 C 1889.76 242.36 1889.72 295.68 1889.77 348.99 C 1890.24 359.50 1893.58 371.09 1902.40 377.60 C 1910.95 382.89 1922.13 383.07 1931.44 379.70 C 1939.74 376.62 1944.29 368.21 1946.63 360.16 C 1949.42 351.35 1948.66 342.04 1948.75 332.95 C 1948.75 278.29 1948.75 223.62 1948.74 168.96 C 1948.44 159.89 1946.22 150.61 1941.14 143.00 C 1934.89 134.58 1923.20 133.26 1913.54 134.66 Z" />
<path fill="#ffffff" opacity="1.00" d=" M 626.60 87.67 C 627.25 87.43 628.56 86.96 629.21 86.72 C 626.25 93.29 621.85 99.06 618.75 105.55 C 616.29 109.85 613.82 114.14 611.25 118.38 C 608.52 123.84 605.21 129.00 602.25 134.35 C 597.13 143.83 591.44 152.98 586.28 162.43 C 585.14 164.52 583.86 166.53 582.74 168.62 C 579.69 173.90 576.78 179.25 573.72 184.52 C 572.40 186.87 570.96 189.15 569.74 191.55 C 568.25 194.16 566.63 196.69 565.28 199.37 C 555.80 215.62 546.76 232.12 537.25 248.36 C 534.72 253.11 531.97 257.75 529.25 262.40 C 523.55 272.37 518.17 282.52 512.26 292.38 C 511.22 294.26 510.14 296.11 509.06 297.97 C 498.00 272.35 492.13 244.64 489.55 216.94 C 488.46 212.00 489.38 206.92 488.74 201.94 C 487.79 193.98 488.09 185.96 488.04 177.96 C 488.03 163.01 488.03 148.06 488.05 133.11 C 496.32 131.43 504.77 130.82 513.02 128.95 C 525.29 126.17 537.58 123.26 549.51 119.25 C 551.20 118.77 552.87 118.20 554.58 117.73 C 561.93 115.14 569.30 112.60 576.56 109.74 C 579.46 108.42 582.57 107.63 585.45 106.26 C 589.40 104.52 593.47 103.07 597.40 101.26 C 601.51 99.51 605.64 97.77 609.63 95.72 C 613.24 93.94 616.97 92.42 620.63 90.73 C 621.90 89.97 623.25 89.32 624.63 88.74 C 625.12 88.47 626.11 87.93 626.60 87.67 Z" />
<path fill="#ffffff" opacity="1.00" d=" M 642.73 86.74 C 644.40 87.09 645.90 87.94 647.39 88.76 C 648.46 89.25 649.53 89.75 650.64 90.21 C 651.54 90.71 652.45 91.22 653.37 91.74 C 656.78 93.17 660.05 94.93 663.52 96.26 C 664.84 96.97 666.20 97.64 667.59 98.27 C 669.89 99.29 672.20 100.33 674.55 101.24 C 676.44 102.17 678.41 102.94 680.37 103.74 C 682.41 104.60 684.48 105.42 686.53 106.30 C 687.46 106.68 688.43 107.00 689.42 107.26 C 698.21 111.17 707.34 114.25 716.46 117.28 C 721.70 119.16 727.04 120.78 732.41 122.29 C 746.66 126.55 761.28 129.64 775.96 131.93 C 778.57 132.05 781.29 132.05 783.67 133.31 C 784.15 153.83 783.76 174.38 783.86 194.90 C 784.39 199.01 782.52 202.91 783.00 207.03 C 783.43 211.76 781.85 216.33 781.96 221.04 C 779.54 245.40 774.09 269.53 765.26 292.38 C 764.55 294.31 764.09 296.43 762.62 297.96 C 759.32 291.24 755.21 284.98 751.76 278.36 C 749.05 273.71 746.33 269.06 743.72 264.36 C 742.40 261.67 740.79 259.14 739.24 256.58 C 729.99 240.20 720.70 223.83 711.26 207.55 C 708.54 202.43 705.53 197.48 702.72 192.42 C 701.43 190.04 700.16 187.66 698.70 185.38 C 686.47 163.66 673.97 142.09 661.72 120.39 C 660.22 117.80 658.79 115.18 657.26 112.60 C 654.56 107.97 652.05 103.22 649.25 98.64 C 647.08 94.67 644.67 90.83 642.73 86.74 Z" />
<path fill="#ffffff" opacity="1.00" d=" M 0.75 87.50 C 54.09 87.51 107.43 87.49 160.77 87.51 C 160.72 201.26 160.76 315.00 160.75 428.75 C 143.01 428.77 125.27 428.70 107.52 428.78 C 107.47 332.10 107.52 235.43 107.50 138.75 C 89.67 138.75 71.83 138.75 54.00 138.75 C 54.00 235.42 54.01 332.09 54.00 428.75 C 36.25 428.75 18.50 428.74 0.75 428.76 C 0.74 315.00 0.75 201.25 0.75 87.50 Z" />
<path fill="#ffffff" opacity="1.00" d=" M 201.75 87.50 C 229.16 87.51 256.56 87.48 283.97 87.52 C 304.03 88.27 325.14 92.86 340.68 106.33 C 353.91 117.61 360.92 134.40 364.44 151.06 C 367.40 164.84 368.15 178.99 368.22 193.05 C 367.53 215.86 365.65 239.81 354.05 260.03 C 344.23 277.55 326.48 289.88 307.10 294.55 C 290.08 298.85 272.39 297.87 255.00 298.00 C 255.00 341.58 255.01 385.17 255.00 428.75 C 237.25 428.74 219.50 428.75 201.75 428.75 C 201.75 315.00 201.75 201.25 201.75 87.50 M 255.00 137.75 C 255.00 174.25 255.00 210.75 255.00 247.25 C 269.55 246.87 285.36 249.08 298.53 241.42 C 309.75 234.84 313.90 221.33 315.70 209.23 C 317.71 193.34 317.70 176.72 312.36 161.45 C 309.54 153.30 304.33 145.49 296.24 141.86 C 283.37 135.69 268.75 138.31 255.00 137.75 Z" />
<path fill="#ffffff" opacity="1.00" d=" M 903.25 428.75 C 903.26 315.00 903.24 201.24 903.26 87.49 C 930.17 87.52 957.09 87.48 984.00 87.51 C 1000.68 88.16 1017.97 91.45 1031.97 101.04 C 1044.35 109.34 1052.64 122.56 1057.37 136.49 C 1062.85 152.98 1064.20 170.58 1063.42 187.84 C 1062.56 201.79 1059.41 216.00 1051.93 227.97 C 1046.17 237.07 1037.07 243.36 1027.53 247.97 C 1027.53 248.48 1027.52 249.50 1027.52 250.01 C 1039.77 254.00 1050.82 262.38 1056.54 274.12 C 1062.85 287.51 1065.68 302.32 1066.44 317.04 C 1067.08 333.40 1066.13 349.93 1062.43 365.92 C 1059.27 379.22 1053.82 392.29 1044.73 402.66 C 1035.23 413.71 1021.87 420.88 1007.92 424.59 C 995.27 428.09 982.06 428.71 969.01 428.75 C 947.09 428.74 925.17 428.75 903.25 428.75 M 956.50 137.25 C 956.49 166.58 956.50 195.92 956.50 225.25 C 965.50 225.12 974.57 225.73 983.51 224.32 C 991.56 223.00 999.61 219.24 1004.47 212.46 C 1011.18 203.49 1012.84 191.89 1012.91 180.97 C 1012.71 170.95 1011.83 160.42 1006.66 151.60 C 1002.92 145.13 996.19 140.88 989.07 139.07 C 978.46 136.10 967.35 137.63 956.50 137.25 M 956.50 273.50 C 956.49 308.66 956.52 343.82 956.48 378.99 C 964.05 378.94 971.62 379.16 979.19 378.87 C 986.63 378.64 994.42 377.11 1000.34 372.30 C 1010.08 365.10 1013.91 352.63 1014.89 341.04 C 1016.08 326.39 1017.06 311.25 1012.85 296.96 C 1010.47 288.60 1005.16 280.60 996.91 277.14 C 984.18 271.48 969.96 274.09 956.50 273.50 Z" />
<path fill="#ffffff" opacity="1.00" d=" M 1305.00 87.50 C 1322.58 87.49 1340.16 87.52 1357.74 87.49 C 1357.76 135.49 1357.74 183.49 1357.75 231.50 C 1366.58 231.50 1375.69 231.92 1384.14 228.85 C 1392.09 226.14 1399.02 220.60 1403.43 213.44 C 1410.52 202.17 1413.31 188.94 1416.13 176.11 C 1423.05 146.89 1428.30 117.31 1434.85 88.00 C 1451.43 88.00 1468.02 87.99 1484.61 88.00 C 1477.48 122.54 1470.00 157.00 1462.71 191.50 C 1458.58 210.20 1450.83 228.94 1436.41 242.06 C 1431.87 246.29 1426.53 249.48 1420.92 252.06 C 1428.29 255.22 1435.63 258.83 1441.52 264.41 C 1454.30 276.13 1460.60 293.04 1464.75 309.47 C 1473.30 346.52 1480.05 383.95 1488.34 421.06 C 1488.93 423.18 1488.88 425.61 1490.31 427.41 C 1512.99 314.08 1536.03 200.83 1558.74 87.50 C 1578.43 87.50 1598.13 87.50 1617.83 87.50 C 1640.80 201.24 1663.93 314.95 1686.91 428.70 C 1668.85 428.82 1650.79 428.71 1632.73 428.75 C 1628.34 405.08 1623.92 381.41 1619.50 357.74 C 1598.68 357.77 1577.85 357.74 1557.03 357.75 C 1552.33 381.34 1548.29 405.05 1544.22 428.76 C 1508.41 428.73 1472.61 428.75 1436.81 428.75 C 1430.36 395.80 1424.08 362.82 1417.02 330.00 C 1414.70 318.67 1411.85 307.17 1405.72 297.23 C 1401.17 289.80 1393.86 284.13 1385.51 281.62 C 1376.54 278.65 1367.00 280.08 1357.75 279.75 C 1357.75 329.42 1357.75 379.08 1357.75 428.75 C 1340.17 428.75 1322.58 428.74 1305.00 428.75 C 1304.99 315.00 1305.00 201.25 1305.00 87.50 M 1586.68 168.12 C 1580.21 214.86 1573.00 261.51 1564.93 308.00 C 1580.32 308.00 1595.70 308.00 1611.09 308.00 C 1603.86 260.76 1596.36 213.57 1589.11 166.33 C 1587.49 166.10 1586.68 166.69 1586.68 168.12 Z" />
<path fill="#ffffff" opacity="1.00" d=" M 1668.50 87.50 C 1723.00 87.50 1777.50 87.50 1832.00 87.50 C 1832.00 104.09 1832.00 120.67 1832.00 137.25 C 1813.67 137.25 1795.33 137.26 1777.01 137.25 C 1776.99 234.41 1777.01 331.58 1777.00 428.75 C 1759.08 428.74 1741.16 428.75 1723.25 428.75 C 1723.26 331.59 1723.23 234.43 1723.27 137.27 C 1705.01 137.22 1686.76 137.27 1668.50 137.25 C 1668.50 120.67 1668.50 104.08 1668.50 87.50 Z" />
<path fill="#ffffff" opacity="1.00" d=" M 2040.50 87.50 C 2067.69 87.50 2094.88 87.50 2122.07 87.50 C 2136.80 87.97 2151.72 90.49 2165.09 96.91 C 2177.24 102.73 2187.49 112.40 2193.76 124.35 C 2203.96 143.41 2206.29 165.43 2207.00 186.70 L 2207.00 195.13 C 2206.05 217.42 2204.11 240.85 2192.53 260.50 C 2184.37 274.82 2170.84 285.65 2155.55 291.54 C 2135.88 299.14 2114.43 297.90 2093.75 298.00 C 2093.75 341.58 2093.75 385.17 2093.75 428.75 C 2076.00 428.78 2058.26 428.69 2040.52 428.80 C 2040.48 315.03 2040.51 201.27 2040.50 87.50 M 2093.75 137.75 C 2093.75 174.25 2093.75 210.75 2093.75 247.25 C 2107.66 246.88 2122.53 248.90 2135.43 242.44 C 2144.61 238.06 2149.89 228.54 2152.43 219.07 C 2155.59 207.30 2156.14 194.95 2155.37 182.84 C 2154.57 171.78 2152.15 160.48 2145.95 151.11 C 2141.40 144.43 2133.84 140.41 2126.05 138.87 C 2115.41 136.80 2104.51 138.12 2093.75 137.75 Z" />
<path fill="#ffffff" opacity="1.00" d=" M 633.27 167.36 C 634.04 165.71 635.07 164.21 636.23 162.82 C 637.02 164.36 637.84 165.90 638.72 167.40 C 639.87 169.48 641.14 171.51 642.27 173.61 C 650.42 187.88 658.56 202.18 666.72 216.46 C 667.95 218.83 669.48 221.04 670.74 223.40 C 673.84 228.67 676.48 234.19 679.76 239.34 C 681.13 241.97 682.72 244.48 684.18 247.05 C 652.05 246.95 619.92 247.00 587.79 247.03 C 589.82 243.60 591.70 240.08 593.76 236.67 C 594.59 234.92 595.43 233.18 596.22 231.42 C 599.67 226.31 602.70 220.95 605.73 215.59 C 606.86 213.50 608.12 211.47 609.27 209.39 C 613.48 202.17 617.44 194.80 621.74 187.63 C 622.91 185.18 624.35 182.88 625.74 180.55 C 628.18 176.11 630.73 171.74 633.27 167.36 Z" />
<path fill="#ffffff" opacity="1.00" d=" M 562.51 291.09 C 610.66 290.87 658.82 291.07 706.97 290.99 C 709.67 290.55 710.63 293.63 711.73 295.48 C 714.54 300.52 717.44 305.51 720.27 310.54 C 722.92 315.23 725.67 319.87 728.27 324.59 C 729.65 326.90 731.07 329.20 732.26 331.62 C 734.70 335.38 736.67 339.41 738.90 343.29 C 732.70 351.93 726.57 360.70 719.20 368.40 C 714.81 374.51 708.87 379.27 703.75 384.74 C 686.58 400.81 667.36 414.82 646.44 425.68 C 643.14 427.23 639.90 428.99 636.41 430.08 C 633.91 430.04 631.73 428.55 629.43 427.75 C 611.23 418.33 593.78 407.20 578.28 393.77 C 561.22 378.95 545.74 362.19 533.18 343.36 C 533.62 340.96 535.71 338.93 536.72 336.63 C 540.64 329.92 544.49 323.17 548.27 316.39 C 552.71 308.82 556.94 301.13 561.29 293.51 C 561.60 292.90 562.21 291.70 562.51 291.09 Z" />
</g>
</svg>
