<?xml version="1.0" encoding="UTF-8" ?>
<!DOCTYPE svg PUBLIC "-//W3C//DTD SVG 1.1//EN" "http://www.w3.org/Graphics/SVG/1.1/DTD/svg11.dtd">
<svg width="148pt" height="32pt" viewBox="0 0 148 32" version="1.1" xmlns="http://www.w3.org/2000/svg">
<g id="#ff7500ff">
<path fill="#ff7500" opacity="1.00" d=" M 49.43 0.00 L 52.07 0.00 C 52.54 1.24 54.65 2.54 53.40 3.93 C 52.69 5.92 49.63 6.25 48.69 4.30 C 47.70 2.89 49.01 1.36 49.43 0.00 Z" />
<path fill="#ff7500" opacity="1.00" d=" M 32.83 11.26 C 35.35 8.32 37.74 5.25 40.42 2.44 C 40.44 4.31 40.43 6.18 40.44 8.05 C 42.31 8.06 44.19 8.07 46.06 8.09 C 46.06 8.93 46.07 10.62 46.07 11.47 C 44.17 11.50 42.26 11.51 40.35 11.54 C 40.63 14.37 39.83 17.46 41.02 20.12 C 42.65 21.07 44.59 20.17 46.32 20.07 C 46.17 21.25 45.95 22.40 45.67 23.55 C 42.43 24.99 37.42 24.87 35.98 21.00 C 35.26 17.94 35.69 14.76 35.72 11.65 C 34.99 11.55 33.55 11.36 32.83 11.26 Z" />
<path fill="#ff7500" opacity="1.00" d=" M 0.85 9.36 C 4.78 7.73 10.75 6.17 13.52 10.45 C 14.23 13.88 13.76 17.43 13.88 20.90 C 14.78 20.83 16.59 20.67 17.50 20.60 C 16.24 24.29 12.01 25.22 8.93 23.22 C 5.86 24.48 2.02 25.11 0.00 21.79 L 0.00 19.25 C 1.83 15.42 6.42 14.92 9.85 13.25 C 7.48 9.72 3.38 11.61 0.60 13.50 C 0.66 12.46 0.79 10.39 0.85 9.36 M 4.64 19.97 C 5.48 22.24 7.59 21.03 9.17 20.52 C 9.16 19.04 9.16 17.56 9.15 16.08 C 7.46 17.13 5.25 17.85 4.64 19.97 Z" />
<path fill="#ff7500" opacity="1.00" d=" M 21.33 9.21 C 24.35 6.98 28.27 7.71 31.63 8.62 C 31.66 9.53 31.71 11.35 31.74 12.26 C 29.59 11.84 27.24 10.90 25.12 11.98 C 22.18 13.70 22.21 18.52 25.13 20.24 C 27.29 21.34 29.68 20.28 31.87 19.86 C 31.88 20.74 31.91 22.48 31.92 23.35 C 28.43 24.46 24.32 25.09 21.13 22.83 C 16.55 19.79 16.70 12.14 21.33 9.21 Z" />
<path fill="#ff7500" opacity="1.00" d=" M 48.57 7.95 C 50.18 7.95 51.78 7.95 53.38 7.96 C 53.39 13.34 53.38 18.73 53.39 24.12 C 51.78 24.12 50.17 24.12 48.56 24.11 C 48.57 18.73 48.56 13.34 48.57 7.95 Z" />
<path fill="#ff7500" opacity="1.00" d=" M 61.36 8.50 C 66.64 5.78 74.35 9.61 73.88 15.94 C 74.55 22.68 65.99 26.56 60.66 23.26 C 55.01 20.33 55.37 10.82 61.36 8.50 M 63.40 11.34 C 60.19 14.12 61.36 22.97 66.84 21.12 C 69.23 18.90 69.29 14.93 67.92 12.15 C 67.20 10.47 64.66 10.16 63.40 11.34 Z" />
<path fill="#ff7500" opacity="1.00" d=" M 76.99 8.16 C 78.60 8.07 80.20 7.99 81.81 7.91 C 81.77 8.48 81.70 9.63 81.66 10.20 C 83.28 9.15 84.85 7.55 86.94 7.68 C 89.79 7.59 92.39 10.13 92.32 13.00 C 92.49 16.70 92.33 20.41 92.37 24.12 C 90.76 24.12 89.15 24.12 87.55 24.12 C 87.43 20.24 87.90 16.32 87.31 12.48 C 86.14 9.77 82.27 11.56 81.93 13.93 C 81.66 17.32 81.88 20.72 81.85 24.12 C 80.25 24.12 78.66 24.12 77.06 24.11 C 77.06 18.79 77.14 13.47 76.99 8.16 Z" />
<path fill="#ff7500" opacity="1.00" d=" M 96.18 8.15 C 97.52 8.06 98.87 7.97 100.22 7.90 C 100.47 8.12 100.98 8.58 101.24 8.81 C 103.38 8.28 105.70 7.08 107.88 8.18 C 113.83 10.72 114.15 20.35 108.61 23.51 C 106.24 25.00 103.41 24.06 100.89 23.63 C 100.99 26.42 101.07 29.21 101.12 32.00 L 96.23 32.00 C 96.20 24.05 96.28 16.10 96.18 8.15 M 100.94 20.30 C 102.64 20.59 104.75 21.63 106.19 20.11 C 108.79 17.72 108.18 11.35 103.97 11.32 C 99.23 11.37 101.45 17.28 100.94 20.30 Z" />
<path fill="#ff7500" opacity="1.00" d=" M 115.46 9.52 C 119.25 7.68 124.91 6.26 127.98 10.02 C 129.28 13.54 128.28 17.46 128.67 21.13 C 129.43 20.91 130.96 20.46 131.72 20.23 C 131.86 24.46 126.36 25.37 123.65 23.07 C 121.40 23.85 118.64 25.31 116.44 23.59 C 114.20 22.19 114.12 18.73 116.13 17.10 C 118.49 15.20 121.58 14.64 124.31 13.45 C 122.55 9.39 117.81 11.67 115.28 13.61 C 115.32 12.59 115.41 10.55 115.46 9.52 M 119.89 20.92 C 121.11 22.28 122.62 20.58 123.95 20.35 C 123.86 18.90 123.75 17.46 123.64 16.02 C 122.07 17.39 118.44 18.27 119.89 20.92 Z" />
<path fill="#ff7500" opacity="1.00" d=" M 131.19 7.92 C 132.94 7.98 134.68 8.05 136.43 8.15 C 137.49 10.86 138.53 13.59 139.63 16.29 C 140.75 13.49 141.90 10.70 143.08 7.92 C 144.72 7.99 146.36 8.06 148.00 8.13 L 148.00 8.24 C 144.59 16.04 141.22 23.87 137.83 31.68 C 136.10 31.70 134.37 31.71 132.64 31.71 C 134.21 28.30 135.72 24.86 137.22 21.41 C 135.16 16.94 133.18 12.43 131.19 7.92 Z" />
</g>
</svg>
