<?xml version="1.0" encoding="UTF-8" ?>
<!DOCTYPE svg PUBLIC "-//W3C//DTD SVG 1.1//EN" "http://www.w3.org/Graphics/SVG/1.1/DTD/svg11.dtd">
<svg width="1024pt" height="278pt" viewBox="0 0 1024 278" version="1.1" xmlns="http://www.w3.org/2000/svg">
<g id="#ffef00ff">
<path fill="#ffef00" opacity="1.00" d=" M 362.43 7.19 C 380.19 7.18 397.94 7.18 415.69 7.19 C 415.69 94.02 415.69 180.85 415.69 267.69 C 398.77 267.69 381.86 267.69 364.94 267.69 C 364.93 260.40 364.94 253.11 364.94 245.82 C 355.57 257.41 342.01 265.28 327.46 268.27 C 304.77 272.92 280.23 269.58 260.17 257.76 C 243.74 248.53 231.44 233.09 224.04 215.94 C 215.97 196.79 214.41 175.36 217.19 154.92 C 219.80 135.79 228.19 117.47 241.28 103.25 C 254.58 88.77 273.31 79.92 292.58 76.83 C 308.44 74.54 325.19 75.47 339.99 82.00 C 348.60 85.77 356.24 91.59 362.45 98.63 C 362.42 68.15 362.45 37.67 362.43 7.19 M 309.54 121.74 C 297.90 123.21 286.98 129.56 279.95 138.94 C 271.79 149.72 269.20 163.69 269.81 176.95 C 270.29 190.76 275.21 204.97 285.67 214.40 C 297.09 225.04 314.11 227.86 328.98 224.36 C 340.33 221.72 350.09 213.92 355.96 203.96 C 363.04 191.98 364.45 177.45 362.81 163.86 C 361.24 150.94 355.16 138.26 344.70 130.24 C 334.90 122.46 321.73 120.09 309.54 121.74 Z" />
<path fill="#ffef00" opacity="1.00" d=" M 442.50 22.38 C 476.84 22.36 511.17 22.38 545.51 22.37 C 545.49 104.14 545.50 185.91 545.50 267.68 C 527.07 267.70 508.63 267.68 490.19 267.69 C 490.18 201.11 490.19 134.53 490.18 67.94 C 474.29 67.93 458.39 67.95 442.50 67.94 C 442.50 52.75 442.50 37.57 442.50 22.38 Z" />
<path fill="#ffef00" opacity="1.00" d=" M 772.03 80.07 C 781.57 77.22 791.57 76.24 801.50 76.24 C 801.50 93.16 801.50 110.08 801.50 127.00 C 786.35 125.64 769.48 126.22 757.07 136.18 C 744.78 145.77 740.35 162.01 740.19 176.99 C 740.04 207.56 740.17 238.12 740.12 268.69 C 722.37 268.69 704.63 268.69 686.88 268.69 C 686.87 205.40 686.87 142.11 686.88 78.82 C 703.79 78.81 720.70 78.82 737.62 78.81 C 737.63 87.15 737.63 95.49 737.62 103.82 C 746.13 92.45 758.40 84.04 772.03 80.07 Z" />
<path fill="#ffef00" opacity="1.00" d=" M 48.99 82.64 C 66.19 77.65 84.26 76.87 102.06 77.29 C 119.32 77.95 137.04 82.26 151.01 92.84 C 161.82 100.87 169.71 112.49 173.87 125.24 C 177.83 137.03 179.02 149.56 179.00 161.94 C 179.00 197.35 179.00 232.77 179.00 268.19 C 162.41 268.19 145.83 268.19 129.25 268.18 C 129.25 260.38 129.24 252.58 129.26 244.77 C 125.70 250.81 121.03 256.26 115.19 260.19 C 104.64 267.50 91.62 270.12 79.00 270.67 C 61.27 271.48 42.63 268.45 27.77 258.22 C 15.65 250.06 7.38 236.52 5.57 222.04 C 3.96 209.09 5.87 195.21 13.28 184.22 C 20.12 173.87 30.97 166.68 42.66 162.90 C 60.13 157.03 78.79 157.12 97.00 157.25 C 106.57 157.25 116.13 157.25 125.70 157.25 C 125.82 146.77 122.38 135.70 114.10 128.84 C 105.13 121.65 93.12 120.12 81.99 120.23 C 63.79 120.84 44.96 125.98 30.91 138.00 C 24.45 125.26 18.05 112.51 11.60 99.77 C 22.77 91.64 35.62 86.00 48.99 82.64 M 62.05 197.06 C 53.96 206.29 56.43 222.70 67.38 228.66 C 75.25 233.55 84.98 234.25 93.98 233.14 C 105.08 231.63 116.32 226.17 122.27 216.32 C 124.22 212.86 126.55 209.18 126.21 205.04 C 126.16 199.59 126.20 194.14 126.18 188.69 C 112.79 188.75 99.39 188.55 85.99 188.80 C 77.55 189.23 68.18 190.65 62.05 197.06 Z" />
<path fill="#ffef00" opacity="1.00" d=" M 833.37 174.99 C 833.38 142.93 833.36 110.87 833.38 78.81 C 851.13 78.81 868.87 78.81 886.62 78.81 C 886.63 110.54 886.62 142.27 886.62 174.00 C 886.60 185.92 887.31 198.63 893.85 209.00 C 898.30 216.24 906.13 220.94 914.43 222.35 C 924.63 224.05 935.72 223.24 944.79 217.88 C 952.43 213.29 958.34 205.95 961.48 197.62 C 964.73 189.17 965.68 180.03 965.68 171.04 C 965.69 140.30 965.68 109.56 965.69 78.82 C 983.44 78.81 1001.19 78.81 1018.94 78.81 C 1018.94 141.77 1018.95 204.73 1018.93 267.69 C 1002.18 267.68 985.43 267.70 968.69 267.68 C 968.69 260.22 968.68 252.76 968.69 245.30 C 956.35 260.41 937.22 268.74 918.00 270.06 C 901.96 271.01 885.38 268.58 871.09 260.96 C 858.31 254.22 847.65 243.35 841.78 230.08 C 833.87 212.90 833.01 193.60 833.37 174.99 Z" />
<path fill="#ffef00" opacity="1.00" d=" M 612.45 202.75 C 622.29 201.10 633.11 203.48 640.52 210.41 C 645.48 214.76 649.20 220.59 650.50 227.11 C 652.39 236.57 651.61 247.06 646.24 255.32 C 641.57 262.43 634.42 268.22 625.97 269.99 C 616.90 271.91 606.79 270.46 599.31 264.75 C 592.93 259.68 587.85 252.63 586.29 244.52 C 584.54 235.19 585.48 224.88 590.79 216.80 C 595.75 209.51 603.71 204.19 612.45 202.75 Z" />
</g>
</svg>
