<?xml version="1.0" encoding="UTF-8" ?>
<!DOCTYPE svg PUBLIC "-//W3C//DTD SVG 1.1//EN" "http://www.w3.org/Graphics/SVG/1.1/DTD/svg11.dtd">
<svg width="570pt" height="112pt" viewBox="0 0 570 112" version="1.1" xmlns="http://www.w3.org/2000/svg">
<g id="#6b30bcff">
<path fill="#6b30bc" opacity="1.00" d=" M 100.47 0.00 L 104.01 0.00 C 109.20 0.98 113.56 5.55 113.52 10.96 C 113.64 37.01 113.52 63.07 113.57 89.12 C 123.37 89.10 133.17 89.17 142.96 89.09 C 152.59 89.03 162.09 84.66 168.36 77.36 C 176.81 67.80 178.92 53.19 173.30 41.69 C 168.15 30.46 156.36 22.75 144.02 22.40 C 138.96 22.68 133.66 19.95 131.96 14.97 C 129.32 8.45 134.29 0.72 141.20 0.00 L 145.63 0.00 C 161.04 0.86 176.00 8.14 185.93 20.00 C 196.53 32.32 201.16 49.45 198.22 65.43 C 194.76 85.83 178.87 103.28 159.06 109.04 C 149.35 112.22 139.04 111.32 129.00 111.44 C 119.99 111.40 110.98 111.50 101.97 111.41 C 95.96 111.53 90.66 106.03 90.95 100.03 C 90.91 79.40 90.96 58.76 90.93 38.12 C 73.47 55.28 56.06 72.49 38.64 89.68 C 46.09 89.75 53.54 89.58 60.98 89.74 C 67.27 89.73 72.61 95.87 71.73 102.09 C 71.30 107.06 67.15 110.99 62.40 112.00 L 9.64 112.00 C 4.81 111.19 0.90 107.34 0.00 102.53 L 0.00 99.34 C 0.54 96.81 1.72 94.41 3.62 92.62 C 33.65 62.99 63.70 33.37 93.73 3.73 C 95.54 1.83 97.92 0.61 100.47 0.00 Z" />
<path fill="#6b30bc" opacity="1.00" d=" M 318.05 26.27 C 322.65 25.60 327.38 25.97 332.03 26.04 C 333.70 25.89 333.53 27.91 333.58 28.99 C 333.58 46.34 333.51 63.69 333.60 81.03 C 333.36 82.63 334.36 83.76 335.47 84.75 C 335.27 87.40 334.44 90.48 331.61 91.40 C 327.02 92.89 320.71 92.69 318.05 87.98 C 310.53 95.17 296.16 92.83 291.77 83.21 C 287.94 74.74 287.93 64.36 291.84 55.92 C 296.17 46.52 310.15 44.10 317.52 51.26 C 317.56 43.21 317.34 35.15 317.61 27.12 L 318.05 26.27 M 308.21 61.26 C 305.55 62.79 305.22 66.23 305.11 68.97 C 305.13 71.90 305.16 75.40 307.53 77.51 C 310.48 79.60 314.40 78.70 317.52 77.45 C 317.49 72.22 317.49 66.99 317.52 61.77 C 314.58 60.66 311.19 59.81 308.21 61.26 Z" />
<path fill="#6b30bc" opacity="1.00" d=" M 425.15 26.28 C 430.39 24.52 436.01 29.71 434.88 35.05 C 434.27 40.82 426.49 43.76 422.28 39.71 C 417.69 36.03 419.39 27.72 425.15 26.28 Z" />
<path fill="#6b30bc" opacity="1.00" d=" M 553.10 26.14 C 557.69 25.78 562.33 25.80 566.93 26.10 C 568.82 26.14 568.09 28.70 568.34 29.91 C 568.31 46.96 568.27 64.02 568.34 81.07 C 568.15 82.54 569.19 83.61 570.00 84.70 L 570.00 86.80 C 569.44 88.82 568.28 90.84 566.15 91.47 C 561.53 92.95 555.55 92.51 552.70 88.07 C 544.96 95.31 530.32 92.65 526.22 82.63 C 522.73 74.17 522.71 63.98 526.69 55.69 C 531.14 46.47 544.89 44.19 552.22 51.22 C 552.26 43.24 551.96 35.23 552.34 27.26 C 552.53 26.98 552.91 26.42 553.10 26.14 M 542.48 61.56 C 539.73 63.78 539.81 67.75 539.88 70.96 C 540.01 73.72 540.68 77.31 543.70 78.30 C 546.42 79.06 549.91 78.96 552.13 77.12 C 552.31 72.00 552.10 66.89 552.20 61.77 C 549.15 60.58 545.45 59.69 542.48 61.56 Z" />
<path fill="#6b30bc" opacity="1.00" d=" M 252.56 34.40 C 252.94 32.30 255.46 32.94 257.00 32.79 C 260.66 32.95 264.38 32.47 268.01 33.11 C 268.67 34.10 269.00 35.27 269.39 36.38 C 274.75 53.61 280.27 70.78 285.61 88.01 C 286.02 89.15 286.44 91.38 284.67 91.54 C 280.25 91.68 275.79 91.78 271.38 91.47 C 269.43 89.43 269.63 86.15 268.47 83.66 C 263.20 83.84 257.92 83.72 252.65 83.74 C 251.80 86.24 251.60 89.07 250.18 91.31 C 245.64 91.99 240.91 91.58 236.31 91.52 C 234.44 90.69 235.60 88.40 235.92 86.98 C 241.50 69.46 246.91 51.89 252.56 34.40 M 260.51 53.71 C 259.23 59.62 257.72 65.49 256.09 71.32 C 259.11 71.31 262.13 71.31 265.15 71.30 C 263.39 65.49 262.26 59.50 260.51 53.71 Z" />
<path fill="#6b30bc" opacity="1.00" d=" M 448.15 37.30 C 451.99 36.50 456.01 37.12 459.93 36.93 C 461.16 37.12 463.41 36.47 463.54 38.34 C 463.78 41.40 463.56 44.48 463.62 47.55 C 466.12 47.89 469.41 46.69 471.38 48.48 C 471.58 51.32 471.98 54.40 471.19 57.13 C 469.02 58.41 466.08 57.49 463.63 57.75 C 463.78 65.25 463.27 72.77 463.94 80.24 C 466.40 80.86 468.86 79.98 471.32 79.75 C 471.52 82.72 472.08 85.93 470.83 88.75 C 467.69 92.30 462.42 92.39 458.04 92.33 C 453.20 92.40 448.09 89.09 447.70 83.97 C 447.35 75.25 447.70 66.51 447.53 57.78 C 445.59 57.80 443.63 57.81 441.77 57.25 C 441.84 54.19 441.24 51.03 442.08 48.05 C 443.78 47.24 445.74 47.66 447.56 47.54 C 447.88 44.17 446.84 40.42 448.15 37.30 Z" />
<path fill="#6b30bc" opacity="1.00" d=" M 359.78 53.08 C 363.20 50.01 367.18 46.93 372.04 47.06 C 376.81 46.74 381.77 49.30 383.42 53.96 C 388.21 47.31 398.58 44.55 405.39 49.65 C 409.13 52.93 409.58 58.30 409.57 62.97 C 409.47 72.18 409.74 81.42 409.44 90.63 C 409.24 90.84 408.83 91.27 408.62 91.49 C 403.86 91.70 399.04 91.81 394.29 91.43 C 394.12 91.21 393.79 90.77 393.62 90.56 C 393.16 81.74 393.91 72.86 393.26 64.05 C 392.12 60.07 387.36 61.95 384.69 63.03 C 384.64 72.01 384.78 80.98 384.63 89.95 C 384.59 92.35 381.50 91.45 379.98 91.64 C 376.33 91.26 372.26 92.41 368.87 91.01 C 367.95 81.97 369.17 72.76 368.27 63.72 C 366.85 60.10 362.42 62.03 359.81 63.04 C 359.80 71.73 359.85 80.42 359.80 89.10 C 359.98 90.29 359.40 91.81 357.95 91.59 C 353.24 91.51 348.46 92.04 343.80 91.22 C 343.73 76.76 343.38 62.25 343.98 47.80 C 349.44 47.47 357.95 46.14 359.78 53.08 Z" />
<path fill="#6b30bc" opacity="1.00" d=" M 482.56 49.55 C 487.07 47.44 492.13 47.03 497.03 46.74 C 501.94 46.58 507.27 46.79 511.51 49.60 C 514.92 51.87 516.41 56.05 516.65 59.99 C 516.97 67.71 516.50 75.45 516.91 83.17 C 517.34 83.53 518.22 84.24 518.66 84.60 C 518.40 87.18 517.79 90.28 515.02 91.28 C 510.53 92.88 504.15 92.82 501.42 88.23 C 497.11 92.55 490.29 92.84 484.75 91.21 C 474.81 88.19 473.66 72.45 482.29 67.28 C 487.91 63.84 494.89 64.26 501.14 65.31 C 500.92 63.25 501.48 60.04 498.88 59.29 C 492.31 57.68 486.18 61.24 479.81 62.04 C 479.17 57.93 477.62 51.53 482.56 49.55 M 493.21 73.28 C 491.86 75.50 491.88 78.56 493.11 80.83 C 494.92 83.33 498.39 82.38 500.92 81.86 C 501.13 78.65 501.14 75.43 500.91 72.22 C 498.38 71.91 495.11 71.00 493.21 73.28 Z" />
<path fill="#6b30bc" opacity="1.00" d=" M 419.23 50.99 C 419.27 49.79 419.01 47.46 420.92 47.65 C 425.65 47.52 430.42 47.35 435.14 47.86 C 435.68 61.20 435.21 74.58 435.39 87.94 C 435.26 89.22 435.73 91.68 433.72 91.57 C 429.28 91.66 424.81 91.74 420.37 91.52 C 418.81 91.06 419.40 89.19 419.23 88.01 C 419.26 75.67 419.26 63.33 419.23 50.99 Z" />
</g>
</svg>
