<?xml version="1.0" encoding="UTF-8" ?>
<!DOCTYPE svg PUBLIC "-//W3C//DTD SVG 1.1//EN" "http://www.w3.org/Graphics/SVG/1.1/DTD/svg11.dtd">
<svg width="1200pt" height="1200pt" viewBox="0 0 1200 1200" version="1.1" xmlns="http://www.w3.org/2000/svg">
<g id="#fd8d00fe">
<path fill="#fd8d00" opacity="1.00" d=" M 87.77 0.00 L 1112.23 0.00 C 1117.28 1.23 1122.43 2.08 1127.44 3.50 C 1159.71 12.58 1186.45 38.84 1196.01 70.98 C 1197.66 76.85 1198.76 82.84 1200.00 88.80 L 1200.00 257.72 C 1198.09 248.90 1197.08 239.81 1193.59 231.42 C 1181.89 199.88 1153.30 175.30 1120.27 168.74 C 1110.03 166.15 1099.43 167.16 1089.00 167.00 C 762.66 167.00 436.33 167.00 110.00 167.00 C 103.34 167.12 96.69 166.73 90.04 167.14 C 72.38 168.83 55.32 175.57 40.97 185.95 C 24.57 198.01 11.87 215.05 5.34 234.36 C 2.54 241.89 1.77 249.93 0.00 257.72 L 0.00 87.76 C 1.72 80.37 2.97 72.82 5.70 65.70 C 10.93 52.11 18.58 39.26 29.22 29.22 C 39.26 18.58 52.11 10.93 65.69 5.70 C 72.82 2.97 80.37 1.72 87.77 0.00 Z" />
</g>
<g id="#db2a00fe">
<path fill="#db2a00" opacity="1.00" d=" M 40.97 185.95 C 55.32 175.57 72.38 168.83 90.04 167.14 C 96.69 166.73 103.34 167.12 110.00 167.00 C 436.33 167.00 762.66 167.00 1089.00 167.00 C 1099.43 167.16 1110.03 166.15 1120.27 168.74 C 1153.30 175.30 1181.89 199.88 1193.59 231.42 C 1197.08 239.81 1198.09 248.90 1200.00 257.72 L 1200.00 1111.23 C 1197.92 1121.46 1196.04 1131.91 1191.34 1141.34 C 1181.38 1163.30 1163.30 1181.39 1141.34 1191.33 C 1131.91 1196.04 1121.46 1197.92 1111.23 1200.00 L 88.77 1200.00 C 78.54 1197.92 68.09 1196.04 58.66 1191.34 C 36.70 1181.39 18.61 1163.30 8.67 1141.34 C 3.99 1131.89 1.89 1121.51 0.00 1111.22 L 0.00 257.72 C 1.77 249.93 2.54 241.89 5.34 234.36 C 11.87 215.05 24.57 198.01 40.97 185.95 M 295.44 333.65 C 286.13 335.09 277.42 340.31 272.29 348.29 C 267.50 355.16 266.32 363.79 266.67 371.98 C 267.42 389.72 268.52 407.53 271.85 425.01 C 278.91 465.29 293.51 504.28 314.84 539.18 C 352.01 601.15 410.13 650.10 477.30 676.66 C 519.08 693.09 564.14 701.20 609.03 699.84 C 678.08 698.18 746.40 674.24 801.29 632.28 C 853.10 593.26 892.93 538.62 914.42 477.42 C 926.88 442.04 933.27 404.53 933.32 367.03 C 933.12 361.17 931.90 355.22 928.86 350.15 C 923.15 339.86 911.68 333.41 900.00 333.29 C 888.07 333.41 876.37 340.15 870.79 350.78 C 866.13 358.73 866.65 368.21 866.59 377.08 C 865.58 400.04 861.81 422.92 855.02 444.90 C 838.38 500.16 802.78 549.32 756.03 583.04 C 726.81 604.16 693.23 619.24 658.02 627.02 C 619.97 635.49 580.04 635.46 541.98 627.03 C 503.29 618.48 466.55 601.12 435.42 576.59 C 411.13 557.56 390.20 534.26 373.82 508.11 C 350.87 471.80 337.28 429.76 334.05 386.95 C 332.31 375.37 335.37 362.92 329.89 352.07 C 323.91 339.40 309.29 331.57 295.44 333.65 Z" />
</g>
<g id="#fefefeff">
<path fill="#fefefe" opacity="1.00" d=" M 295.44 333.65 C 309.29 331.57 323.91 339.40 329.89 352.07 C 335.37 362.92 332.31 375.37 334.05 386.95 C 337.28 429.76 350.87 471.80 373.82 508.11 C 390.20 534.26 411.13 557.56 435.42 576.59 C 466.55 601.12 503.29 618.48 541.98 627.03 C 580.04 635.46 619.97 635.49 658.02 627.02 C 693.23 619.24 726.81 604.16 756.03 583.04 C 802.78 549.32 838.38 500.16 855.02 444.90 C 861.81 422.92 865.58 400.04 866.59 377.08 C 866.65 368.21 866.13 358.73 870.79 350.78 C 876.37 340.15 888.07 333.41 900.00 333.29 C 911.68 333.41 923.15 339.86 928.86 350.15 C 931.90 355.22 933.12 361.17 933.32 367.03 C 933.27 404.53 926.88 442.04 914.42 477.42 C 892.93 538.62 853.10 593.26 801.29 632.28 C 746.40 674.24 678.08 698.18 609.03 699.84 C 564.14 701.20 519.08 693.09 477.30 676.66 C 410.13 650.10 352.01 601.15 314.84 539.18 C 293.51 504.28 278.91 465.29 271.85 425.01 C 268.52 407.53 267.42 389.72 266.67 371.98 C 266.32 363.79 267.50 355.16 272.29 348.29 C 277.42 340.31 286.13 335.09 295.44 333.65 Z" />
</g>
</svg>
