<?xml version="1.0" encoding="UTF-8" ?>
<!DOCTYPE svg PUBLIC "-//W3C//DTD SVG 1.1//EN" "http://www.w3.org/Graphics/SVG/1.1/DTD/svg11.dtd">
<svg width="240pt" height="300pt" viewBox="0 0 240 300" version="1.1" xmlns="http://www.w3.org/2000/svg">
<g id="#2196f3ff">
<path fill="#2196f3" opacity="1.00" d=" M 197.76 2.86 C 201.72 1.68 205.79 0.88 209.84 0.01 C 209.74 4.34 209.98 8.68 209.63 13.00 C 205.64 13.79 201.66 14.63 197.70 15.56 C 197.71 11.32 197.66 7.09 197.76 2.86 Z" />
<path fill="#2196f3" opacity="1.00" d=" M 182.78 6.90 C 185.93 4.10 190.87 4.69 194.77 3.40 C 194.73 7.65 194.74 11.89 194.75 16.14 C 190.69 16.85 186.65 17.64 182.62 18.46 C 182.70 14.61 182.43 10.74 182.78 6.90 Z" />
<path fill="#2196f3" opacity="1.00" d=" M 167.67 8.79 C 171.69 7.90 175.74 7.23 179.79 6.50 C 179.60 10.53 180.03 14.59 179.57 18.60 C 175.85 20.14 171.59 20.07 167.65 20.94 C 167.63 16.89 167.62 12.84 167.67 8.79 Z" />
<path fill="#2196f3" opacity="1.00" d=" M 137.48 13.22 C 141.49 12.62 145.52 12.15 149.53 11.55 C 149.51 15.55 149.51 19.54 149.54 23.54 C 145.54 24.09 141.52 24.57 137.50 24.98 C 137.48 21.06 137.49 17.14 137.48 13.22 Z" />
<path fill="#2196f3" opacity="1.00" d=" M 212.70 15.36 C 216.57 13.88 220.70 13.30 224.71 12.28 C 224.68 16.22 224.69 20.16 224.67 24.10 C 220.69 24.89 216.73 25.77 212.77 26.64 C 212.77 22.88 212.81 19.12 212.70 15.36 Z" />
<path fill="#2196f3" opacity="1.00" d=" M 122.25 14.84 C 126.33 14.50 130.39 14.04 134.45 13.53 C 134.44 17.44 134.44 21.36 134.44 25.28 C 130.37 25.82 126.29 26.26 122.20 26.57 C 122.25 22.66 122.23 18.75 122.25 14.84 Z" />
<path fill="#2196f3" opacity="1.00" d=" M 106.86 16.34 C 110.93 15.84 115.03 15.50 119.12 15.25 C 119.11 19.05 119.08 22.85 119.19 26.65 C 115.12 27.45 110.97 27.44 106.85 27.76 C 106.86 23.96 106.86 20.15 106.86 16.34 Z" />
<path fill="#2196f3" opacity="1.00" d=" M 91.73 17.23 C 95.77 16.89 99.83 16.68 103.88 16.49 C 103.82 20.35 103.86 24.21 103.79 28.07 C 99.77 28.27 95.74 28.50 91.72 28.73 C 91.73 24.89 91.73 21.06 91.73 17.23 Z" />
<path fill="#2196f3" opacity="1.00" d=" M 45.83 17.88 C 49.75 18.14 54.07 17.33 57.74 18.27 C 58.56 21.74 57.82 25.63 58.11 29.26 C 54.01 29.30 49.92 29.29 45.82 29.27 C 45.82 25.48 45.81 21.68 45.83 17.88 Z" />
<path fill="#2196f3" opacity="1.00" d=" M 61.27 18.09 C 65.28 18.10 69.29 18.11 73.30 18.08 C 73.30 21.82 73.30 25.55 73.30 29.29 C 69.29 29.28 65.28 29.29 61.26 29.28 C 61.29 25.55 61.28 21.82 61.27 18.09 Z" />
<path fill="#2196f3" opacity="1.00" d=" M 182.67 21.22 C 186.65 20.21 190.71 19.60 194.74 18.81 C 194.75 22.57 194.75 26.33 194.73 30.09 C 190.68 30.71 186.66 31.42 182.63 32.14 C 182.62 28.50 182.60 24.86 182.67 21.22 Z" />
<path fill="#2196f3" opacity="1.00" d=" M 137.27 27.78 C 151.44 25.79 165.61 23.77 179.77 21.75 C 179.74 26.30 179.73 30.86 179.78 35.41 C 175.91 36.02 172.03 36.58 168.15 37.17 C 168.11 40.63 168.13 44.08 168.07 47.54 C 171.95 47.10 175.82 46.55 179.69 46.07 C 179.73 46.75 179.81 48.11 179.85 48.79 C 188.17 48.40 196.67 47.43 204.88 49.43 C 213.35 51.40 221.88 55.74 226.50 63.41 C 232.53 73.42 233.11 85.59 232.30 96.95 C 230.87 113.05 220.49 127.91 205.90 134.84 C 200.66 137.67 194.78 138.99 189.49 141.65 C 188.00 144.16 188.91 147.34 188.67 150.13 C 196.87 151.23 204.81 153.78 212.58 156.54 C 213.65 160.97 212.49 165.81 212.88 170.39 C 218.31 170.64 223.73 171.01 229.16 171.21 C 230.64 171.09 231.62 172.46 232.38 173.53 C 238.10 182.95 239.70 194.21 239.64 205.06 C 239.54 215.87 237.85 227.32 231.31 236.26 C 225.62 244.13 216.44 248.73 207.10 250.65 C 198.13 252.59 188.90 251.64 179.82 251.16 C 179.83 260.18 179.84 269.20 179.82 278.22 C 165.70 276.13 151.57 274.12 137.42 272.22 C 137.34 263.60 137.40 254.98 137.40 246.36 C 131.34 245.80 125.27 245.33 119.20 245.01 C 119.20 250.30 119.20 255.60 119.21 260.90 C 115.24 260.61 111.29 260.26 107.32 260.02 C 107.33 263.20 107.33 266.38 107.35 269.57 C 97.05 269.16 86.76 268.56 76.45 268.21 C 76.45 259.87 76.45 251.53 76.45 243.19 C 70.20 243.19 63.95 243.18 57.70 243.19 C 57.68 239.92 57.69 236.66 57.71 233.39 C 53.75 233.38 49.78 233.40 45.81 233.38 C 45.83 224.84 45.81 216.31 45.82 207.78 C 50.92 207.75 56.03 207.81 61.13 207.73 C 61.08 194.30 61.21 180.87 61.07 167.44 C 64.98 167.40 68.89 167.43 72.80 167.40 C 72.74 164.18 72.74 160.96 72.78 157.75 C 68.90 157.74 65.03 157.75 61.15 157.74 C 61.20 152.61 61.20 147.49 61.15 142.36 C 65.03 142.35 68.91 142.37 72.79 142.35 C 72.74 139.10 72.74 135.85 72.80 132.60 C 68.91 132.57 65.02 132.60 61.12 132.56 C 61.26 119.11 61.15 105.67 61.19 92.23 C 56.06 92.23 50.94 92.23 45.82 92.22 C 45.82 87.99 45.82 83.76 45.81 79.53 C 49.78 79.51 53.75 79.52 57.71 79.51 C 57.69 76.25 57.68 72.98 57.70 69.72 C 53.74 69.73 49.78 69.73 45.82 69.71 C 45.82 65.41 45.81 61.12 45.82 56.82 C 56.00 56.81 66.18 56.81 76.36 56.82 C 76.42 48.48 76.22 40.13 76.46 31.79 C 91.70 31.21 106.92 30.07 122.15 29.36 C 122.15 34.27 122.16 39.18 122.14 44.09 C 118.37 44.30 114.60 44.47 110.83 44.70 C 110.83 48.10 110.83 51.50 110.83 54.90 C 119.66 54.59 128.49 54.21 137.31 53.72 C 137.28 45.07 137.34 36.43 137.27 27.78 M 91.86 68.66 C 91.86 71.94 91.86 75.23 91.85 78.51 C 95.81 78.40 99.77 78.21 103.73 78.07 C 103.76 74.76 103.75 71.45 103.78 68.14 C 99.80 68.28 95.83 68.45 91.86 68.66 M 76.72 69.17 C 76.72 72.36 76.72 75.56 76.72 78.76 C 80.65 78.76 84.57 78.76 88.50 78.76 C 88.48 75.56 88.48 72.37 88.50 69.18 C 84.57 69.16 80.65 69.17 76.72 69.17 M 213.08 70.67 C 213.17 74.43 213.14 78.19 213.13 81.95 C 216.98 81.58 220.82 81.12 224.64 80.55 C 224.59 76.70 224.60 72.85 224.60 69.00 C 220.74 69.45 216.91 70.03 213.08 70.67 M 114.23 86.35 C 114.28 102.19 114.27 118.03 114.24 133.86 C 124.96 133.39 135.73 133.39 146.40 132.09 C 155.28 130.69 164.84 127.94 170.64 120.57 C 175.86 113.98 176.07 105.06 175.29 97.06 C 174.94 92.66 172.06 88.65 167.98 86.95 C 160.43 83.66 151.96 84.53 143.95 84.78 C 134.05 85.41 124.13 85.66 114.23 86.35 M 70.32 104.46 C 74.28 104.49 78.24 104.53 82.19 104.41 C 82.13 101.22 82.13 98.04 82.14 94.86 C 78.23 94.86 74.32 94.87 70.42 94.83 C 70.35 98.04 70.36 101.25 70.32 104.46 M 213.23 99.95 C 213.09 103.78 213.15 107.62 213.11 111.46 C 216.92 111.29 220.72 110.94 224.53 110.66 C 224.50 106.78 224.51 102.90 224.51 99.02 C 220.75 99.37 217.00 99.72 213.23 99.95 M 87.42 107.50 C 87.44 110.63 87.44 113.76 87.43 116.89 C 91.34 116.90 95.24 116.92 99.15 116.85 C 99.14 113.74 99.14 110.64 99.15 107.54 C 95.24 107.49 91.33 107.50 87.42 107.50 M 85.88 145.24 C 85.89 148.41 85.89 151.59 85.86 154.76 C 89.78 154.83 93.70 154.82 97.62 154.79 C 97.59 151.60 97.59 148.41 97.62 145.22 C 93.71 145.17 89.79 145.16 85.88 145.24 M 114.21 166.49 C 114.37 182.31 114.14 198.13 114.32 213.95 C 117.81 214.58 121.39 214.23 124.92 214.50 C 136.92 214.77 148.94 215.94 160.95 215.28 C 168.01 214.54 176.36 212.74 180.15 206.04 C 182.43 200.77 183.61 194.64 181.87 189.04 C 180.47 184.05 179.02 178.58 174.82 175.17 C 169.89 171.23 163.51 169.92 157.45 168.84 C 143.15 166.67 128.64 166.81 114.21 166.49 M 73.71 182.88 C 73.70 186.09 73.70 189.30 73.69 192.50 C 77.61 192.49 81.54 192.49 85.46 192.51 C 85.45 189.30 85.45 186.09 85.44 182.88 C 81.53 182.88 77.62 182.88 73.71 182.88 M 73.58 195.53 C 73.60 198.73 73.60 201.94 73.62 205.15 C 77.55 205.14 81.49 205.14 85.43 205.15 C 85.45 201.94 85.45 198.74 85.47 195.53 C 81.51 195.51 77.54 195.51 73.58 195.53 M 213.10 203.29 C 213.16 207.06 213.16 210.83 213.10 214.60 C 216.92 215.15 220.76 215.60 224.61 215.95 C 224.60 212.10 224.59 208.25 224.64 204.40 C 220.80 203.96 216.95 203.54 213.10 203.29 M 61.47 220.76 C 61.47 223.99 61.47 227.22 61.44 230.45 C 65.38 230.46 69.31 230.46 73.24 230.45 C 73.23 227.22 73.23 223.99 73.24 220.76 C 69.31 220.76 65.39 220.76 61.47 220.76 M 122.86 221.81 C 122.86 224.99 122.86 228.17 122.85 231.35 C 126.79 231.54 130.73 231.71 134.67 231.85 C 134.65 228.50 134.65 225.15 134.64 221.80 C 130.71 221.81 126.78 221.80 122.86 221.81 M 153.39 223.14 C 153.40 226.49 153.40 229.85 153.39 233.20 C 157.29 233.51 161.19 233.81 165.10 233.96 C 165.09 230.60 165.09 227.23 165.09 223.87 C 161.19 223.64 157.29 223.36 153.39 223.14 M 91.86 245.85 C 91.86 249.03 91.86 252.22 91.85 255.42 C 95.83 255.45 99.80 255.44 103.78 255.43 C 103.75 252.23 103.75 249.03 103.75 245.84 C 99.79 245.83 95.82 245.83 91.86 245.85 Z" />
<path fill="#2196f3" opacity="1.00" d=" M 212.82 29.46 C 216.75 28.55 220.71 27.72 224.67 26.96 C 224.69 30.85 224.66 34.73 224.73 38.62 C 220.79 39.50 216.82 40.22 212.84 40.90 C 212.83 37.09 212.84 33.28 212.82 29.46 Z" />
<path fill="#2196f3" opacity="1.00" d=" M 197.76 32.31 C 201.76 31.47 205.77 30.70 209.80 30.01 C 209.82 33.81 209.78 37.62 209.87 41.43 C 205.84 42.17 201.80 42.84 197.77 43.53 C 197.78 39.79 197.78 36.05 197.76 32.31 Z" />
<path fill="#2196f3" opacity="1.00" d=" M 61.24 31.87 C 65.25 32.04 69.26 32.00 73.28 31.88 C 73.31 35.17 73.31 38.45 73.30 41.74 C 69.25 41.70 65.20 41.72 61.16 41.71 C 61.17 38.43 61.17 35.15 61.24 31.87 Z" />
<path fill="#2196f3" opacity="1.00" d=" M 182.70 34.76 C 186.68 34.12 190.66 33.52 194.60 32.66 C 194.85 36.46 194.74 40.26 194.72 44.06 C 190.71 44.57 186.71 45.22 182.71 45.83 C 182.71 42.14 182.71 38.45 182.70 34.76 Z" />
<path fill="#2196f3" opacity="1.00" d=" M 61.23 44.49 C 65.30 44.47 69.36 44.48 73.42 44.48 C 73.40 47.80 73.40 51.12 73.41 54.45 C 69.34 54.43 65.27 54.48 61.21 54.38 C 61.31 51.08 61.30 47.79 61.23 44.49 Z" />
<path fill="#2196f3" opacity="1.00" d=" M 45.81 44.50 C 49.91 44.47 54.02 44.45 58.12 44.53 C 57.82 47.81 57.82 51.12 58.12 54.40 C 54.02 54.46 49.91 54.45 45.81 54.43 C 45.82 51.12 45.82 47.81 45.81 44.50 Z" />
<path fill="#2196f3" opacity="1.00" d=" M 0.11 55.13 C 4.16 55.30 8.22 55.51 12.27 55.73 C 12.26 59.13 12.27 62.54 12.26 65.94 C 8.20 65.78 4.15 65.58 0.10 65.35 C 0.14 61.94 0.14 58.54 0.11 55.13 Z" />
<path fill="#2196f3" opacity="1.00" d=" M 15.29 56.24 C 19.31 56.24 23.32 56.25 27.33 56.23 C 27.33 59.58 27.33 62.94 27.34 66.29 C 23.32 66.29 19.30 66.30 15.28 66.28 C 15.33 62.94 15.32 59.59 15.29 56.24 Z" />
<path fill="#2196f3" opacity="1.00" d=" M 30.57 56.72 C 34.61 56.73 38.65 56.74 42.69 56.71 C 42.72 60.06 42.72 63.42 42.73 66.78 C 38.68 66.78 34.63 66.77 30.58 66.80 C 30.57 63.44 30.58 60.08 30.57 56.72 Z" />
<path fill="#2196f3" opacity="1.00" d=" M 15.34 68.85 C 19.33 68.86 23.32 68.86 27.32 68.86 C 27.34 72.21 27.34 75.56 27.33 78.91 C 23.32 78.88 19.32 78.89 15.31 78.91 C 15.31 75.55 15.31 72.20 15.34 68.85 Z" />
<path fill="#2196f3" opacity="1.00" d=" M 0.00 80.93 C 4.09 80.92 8.17 80.92 12.25 80.93 C 12.27 84.31 12.27 87.70 12.26 91.08 C 8.17 91.08 4.05 91.34 0.00 90.70 L 0.00 80.93 Z" />
<path fill="#2196f3" opacity="1.00" d=" M 30.56 82.13 C 34.61 82.11 38.66 82.12 42.71 82.11 C 42.71 85.38 42.71 88.65 42.73 91.92 C 38.68 91.92 34.63 91.88 30.58 91.92 C 30.58 88.66 30.58 85.39 30.56 82.13 Z" />
<path fill="#2196f3" opacity="1.00" d=" M 0.00 93.77 C 4.09 93.74 8.18 93.75 12.27 93.75 C 12.27 97.13 12.27 100.51 12.26 103.89 C 8.18 103.88 4.09 103.89 0.00 103.84 L 0.00 93.77 Z" />
<path fill="#2196f3" opacity="1.00" d=" M 30.56 94.50 C 34.58 94.51 38.61 94.51 42.63 94.51 C 42.60 97.85 42.60 101.21 42.64 104.56 C 38.61 104.57 34.59 104.56 30.57 104.57 C 30.58 101.21 30.58 97.86 30.56 94.50 Z" />
<path fill="#2196f3" opacity="1.00" d=" M 45.81 94.72 C 49.84 94.70 53.87 94.74 57.90 94.65 C 58.19 97.96 57.78 101.28 58.11 104.59 C 54.00 104.70 49.88 104.72 45.76 104.57 C 45.83 101.29 45.83 98.00 45.81 94.72 Z" />
<path fill="#2196f3" opacity="1.00" d=" M 15.41 116.90 C 15.40 113.55 15.40 110.19 15.43 106.84 C 19.39 106.85 23.36 106.85 27.32 106.84 C 27.34 110.20 27.34 113.55 27.33 116.91 C 23.35 116.87 19.38 116.88 15.41 116.90 Z" />
<path fill="#2196f3" opacity="1.00" d=" M 45.79 107.38 C 49.90 107.30 54.01 107.29 58.12 107.40 C 57.78 110.71 58.22 114.05 57.87 117.36 C 53.85 117.25 49.83 117.29 45.82 117.28 C 45.82 113.98 45.82 110.68 45.79 107.38 Z" />
<path fill="#2196f3" opacity="1.00" d=" M 0.10 119.30 C 4.15 119.28 8.21 119.29 12.27 119.28 C 12.26 122.70 12.26 126.12 12.27 129.55 C 8.21 129.54 4.15 129.55 0.09 129.52 C 0.15 126.12 0.14 122.71 0.10 119.30 Z" />
<path fill="#2196f3" opacity="1.00" d=" M 15.27 119.60 C 19.33 119.57 23.39 119.58 27.46 119.59 C 27.43 122.94 27.43 126.29 27.46 129.64 C 23.40 129.65 19.34 129.65 15.28 129.64 C 15.33 126.29 15.33 122.95 15.27 119.60 Z" />
<path fill="#2196f3" opacity="1.00" d=" M 30.57 129.74 C 30.58 126.41 30.58 123.08 30.58 119.75 C 34.59 119.77 38.60 119.76 42.60 119.76 C 42.61 123.08 42.61 126.41 42.61 129.74 C 38.60 129.72 34.58 129.72 30.57 129.74 Z" />
<path fill="#2196f3" opacity="1.00" d=" M 30.57 132.38 C 34.62 132.40 38.68 132.39 42.74 132.39 C 42.70 135.71 42.70 139.02 42.74 142.34 C 38.68 142.35 34.63 142.34 30.57 142.35 C 30.58 139.03 30.58 135.70 30.57 132.38 Z" />
<path fill="#2196f3" opacity="1.00" d=" M 45.81 132.51 C 49.91 132.49 54.02 132.48 58.12 132.53 C 57.88 135.79 57.96 139.06 58.14 142.32 C 54.03 142.36 49.92 142.35 45.82 142.34 C 45.82 139.06 45.82 135.78 45.81 132.51 Z" />
<path fill="#2196f3" opacity="1.00" d=" M 15.40 145.13 C 19.38 145.14 23.36 145.15 27.33 145.13 C 27.33 148.40 27.33 151.67 27.36 154.94 C 23.38 155.22 19.39 155.14 15.40 155.05 C 15.41 151.74 15.41 148.43 15.40 145.13 Z" />
<path fill="#2196f3" opacity="1.00" d=" M 45.76 145.16 C 49.72 144.68 53.71 145.00 57.69 144.79 C 58.41 148.08 58.03 151.46 58.09 154.80 C 54.00 154.89 49.91 154.87 45.81 154.84 C 45.83 151.61 45.83 148.39 45.76 145.16 Z" />
<path fill="#2196f3" opacity="1.00" d=" M 30.47 167.61 C 30.48 164.29 30.49 160.97 30.47 157.65 C 34.56 157.66 38.65 157.65 42.74 157.66 C 42.70 160.97 42.71 164.29 42.73 167.61 C 38.64 167.61 34.56 167.60 30.47 167.61 Z" />
<path fill="#2196f3" opacity="1.00" d=" M 45.81 157.66 C 49.91 157.65 54.02 157.64 58.12 157.67 C 58.04 160.94 58.03 164.20 58.11 167.47 C 54.01 167.52 49.91 167.51 45.81 167.49 C 45.82 164.21 45.82 160.94 45.81 157.66 Z" />
<path fill="#2196f3" opacity="1.00" d=" M 15.28 170.36 C 19.34 170.35 23.40 170.35 27.46 170.36 C 27.43 173.71 27.43 177.06 27.46 180.41 C 23.40 180.42 19.34 180.42 15.28 180.41 C 15.33 177.06 15.32 173.71 15.28 170.36 Z" />
<path fill="#2196f3" opacity="1.00" d=" M 30.46 170.28 C 34.55 170.27 38.64 170.27 42.73 170.27 C 42.71 173.57 42.71 176.86 42.70 180.15 C 38.63 180.15 34.56 180.15 30.50 180.16 C 30.48 176.86 30.48 173.57 30.46 170.28 Z" />
<path fill="#2196f3" opacity="1.00" d=" M 0.09 170.57 C 4.15 170.55 8.21 170.56 12.27 170.56 C 12.26 173.88 12.26 177.19 12.27 180.51 C 8.21 180.51 4.15 180.52 0.08 180.50 C 0.15 177.19 0.15 173.88 0.09 170.57 Z" />
<path fill="#2196f3" opacity="1.00" d=" M 15.30 183.19 C 19.31 183.20 23.32 183.21 27.33 183.18 C 27.33 186.43 27.33 189.68 27.36 192.92 C 23.35 192.96 19.34 192.90 15.33 193.00 C 15.31 189.73 15.31 186.46 15.30 183.19 Z" />
<path fill="#2196f3" opacity="1.00" d=" M 45.82 182.72 C 49.83 182.70 53.84 182.75 57.85 182.64 C 58.23 185.95 57.78 189.29 58.12 192.61 C 54.02 192.70 49.91 192.68 45.81 192.64 C 45.82 189.33 45.82 186.02 45.82 182.72 Z" />
<path fill="#2196f3" opacity="1.00" d=" M 0.08 183.39 C 4.14 183.35 8.21 183.36 12.27 183.36 C 12.26 186.71 12.26 190.07 12.28 193.42 C 8.21 193.42 4.14 193.43 0.07 193.40 C 0.15 190.06 0.15 186.72 0.08 183.39 Z" />
<path fill="#2196f3" opacity="1.00" d=" M 45.81 195.36 C 49.91 195.33 54.02 195.30 58.12 195.40 C 57.85 198.71 58.16 202.03 57.91 205.34 C 53.88 205.26 49.85 205.29 45.82 205.28 C 45.82 201.97 45.82 198.66 45.81 195.36 Z" />
<path fill="#2196f3" opacity="1.00" d=" M 15.39 205.68 C 15.41 202.32 15.41 198.97 15.40 195.61 C 19.38 195.63 23.36 195.63 27.34 195.62 C 27.33 198.97 27.33 202.33 27.34 205.69 C 23.35 205.67 19.37 205.68 15.39 205.68 Z" />
<path fill="#2196f3" opacity="1.00" d=" M 30.57 195.43 C 34.63 195.44 38.69 195.42 42.75 195.46 C 42.70 198.77 42.70 202.08 42.73 205.39 C 38.68 205.39 34.62 205.39 30.57 205.40 C 30.58 202.07 30.58 198.75 30.57 195.43 Z" />
<path fill="#2196f3" opacity="1.00" d=" M 15.39 208.44 C 19.37 208.44 23.36 208.45 27.34 208.44 C 27.33 211.76 27.33 215.08 27.34 218.41 C 23.36 218.39 19.38 218.39 15.40 218.41 C 15.41 215.09 15.41 211.76 15.39 208.44 Z" />
<path fill="#2196f3" opacity="1.00" d=" M 15.31 221.15 C 19.32 221.16 23.32 221.17 27.33 221.14 C 27.34 224.47 27.34 227.81 27.32 231.14 C 23.35 231.14 19.39 231.11 15.42 231.20 C 15.27 227.85 15.30 224.50 15.31 221.15 Z" />
<path fill="#2196f3" opacity="1.00" d=" M 30.56 220.70 C 34.62 220.70 38.68 220.69 42.74 220.71 C 42.70 223.99 42.70 227.27 42.74 230.55 C 38.68 230.55 34.62 230.54 30.56 230.55 C 30.58 227.27 30.58 223.98 30.56 220.70 Z" />
<path fill="#2196f3" opacity="1.00" d=" M 30.57 233.29 C 34.59 233.30 38.61 233.29 42.64 233.31 C 42.61 236.60 42.61 239.90 42.59 243.19 C 38.59 243.18 34.59 243.18 30.59 243.20 C 30.58 239.89 30.58 236.59 30.57 233.29 Z" />
<path fill="#2196f3" opacity="1.00" d=" M 0.11 234.66 C 4.16 234.43 8.21 234.22 12.26 234.06 C 12.27 237.45 12.27 240.84 12.27 244.23 C 8.18 244.48 4.09 244.71 0.00 244.87 L 0.00 244.43 C 0.13 241.17 0.15 237.92 0.11 234.66 Z" />
<path fill="#2196f3" opacity="1.00" d=" M 15.28 246.55 C 19.30 246.37 23.32 246.22 27.33 246.08 C 27.33 249.46 27.33 252.85 27.34 256.24 C 23.32 256.39 19.31 256.58 15.29 256.78 C 15.32 253.37 15.33 249.96 15.28 246.55 Z" />
<path fill="#2196f3" opacity="1.00" d=" M 30.58 245.85 C 34.62 245.85 38.67 245.85 42.71 245.85 C 42.71 249.13 42.71 252.42 42.73 255.71 C 38.67 255.70 34.61 255.72 30.54 255.68 C 30.58 252.40 30.58 249.12 30.58 245.85 Z" />
<path fill="#2196f3" opacity="1.00" d=" M 45.81 245.57 C 49.91 245.55 54.01 245.53 58.12 245.60 C 57.91 248.89 57.90 252.18 58.12 255.47 C 54.01 255.55 49.91 255.53 45.81 255.50 C 45.82 252.19 45.82 248.88 45.81 245.57 Z" />
<path fill="#2196f3" opacity="1.00" d=" M 61.14 245.57 C 65.20 245.55 69.25 245.57 73.31 245.55 C 73.30 248.87 73.30 252.20 73.31 255.52 C 69.25 255.52 65.19 255.53 61.13 255.50 C 61.20 252.19 61.20 248.88 61.14 245.57 Z" />
<path fill="#2196f3" opacity="1.00" d=" M 0.00 247.54 C 4.09 247.27 8.18 246.96 12.27 246.66 C 12.26 250.07 12.26 253.48 12.29 256.90 C 8.24 257.28 4.18 257.53 0.11 257.78 C 0.15 254.46 0.13 251.15 0.00 247.84 L 0.00 247.54 Z" />
<path fill="#2196f3" opacity="1.00" d=" M 122.15 247.68 C 126.19 248.02 130.24 248.27 134.26 248.83 C 134.53 252.26 134.48 255.71 134.40 259.15 C 130.34 258.64 126.25 258.41 122.18 258.10 C 122.15 254.62 122.16 251.15 122.15 247.68 Z" />
<path fill="#2196f3" opacity="1.00" d=" M 182.71 254.17 C 186.68 254.76 190.64 255.43 194.63 255.91 C 194.65 259.68 194.64 263.45 194.66 267.22 C 190.67 266.53 186.69 265.88 182.71 265.22 C 182.71 261.54 182.71 257.85 182.71 254.17 Z" />
<path fill="#2196f3" opacity="1.00" d=" M 197.70 256.44 C 201.72 257.15 205.75 257.79 209.76 258.55 C 209.69 262.36 209.72 266.16 209.70 269.97 C 205.68 268.99 201.35 269.11 197.57 267.34 C 197.67 263.71 197.72 260.07 197.70 256.44 Z" />
<path fill="#2196f3" opacity="1.00" d=" M 61.17 258.19 C 65.21 258.19 69.25 258.21 73.29 258.17 C 73.30 261.49 73.30 264.81 73.30 268.14 C 69.26 268.14 65.22 268.14 61.19 268.14 C 61.18 264.82 61.18 261.51 61.17 258.19 Z" />
<path fill="#2196f3" opacity="1.00" d=" M 30.56 258.47 C 34.63 258.47 38.69 258.45 42.76 258.49 C 42.70 261.81 42.70 265.12 42.74 268.43 C 38.68 268.43 34.62 268.42 30.57 268.44 C 30.58 265.11 30.58 261.79 30.56 258.47 Z" />
<path fill="#2196f3" opacity="1.00" d=" M 122.20 260.54 C 126.25 260.86 130.30 261.33 134.36 261.61 C 134.35 265.07 134.36 268.54 134.35 272.00 C 130.31 271.66 126.27 271.36 122.25 270.91 C 122.23 267.45 122.24 263.99 122.20 260.54 Z" />
<path fill="#2196f3" opacity="1.00" d=" M 212.84 259.11 C 216.81 259.78 220.78 260.50 224.72 261.36 C 224.67 265.25 224.69 269.14 224.67 273.03 C 220.70 272.26 216.75 271.46 212.82 270.55 C 212.84 266.73 212.83 262.92 212.84 259.11 Z" />
<path fill="#2196f3" opacity="1.00" d=" M 182.71 267.89 C 186.72 268.57 190.72 269.29 194.74 269.90 C 194.74 273.66 194.74 277.42 194.74 281.18 C 190.74 280.43 186.75 279.66 182.73 279.00 C 182.70 275.29 182.71 271.59 182.71 267.89 Z" />
<path fill="#2196f3" opacity="1.00" d=" M 61.16 270.72 C 65.21 270.71 69.25 270.72 73.30 270.71 C 73.30 274.44 73.30 278.18 73.30 281.92 C 69.25 281.89 65.21 281.90 61.17 281.90 C 61.18 278.17 61.19 274.45 61.16 270.72 Z" />
<path fill="#2196f3" opacity="1.00" d=" M 76.45 271.09 C 80.49 271.11 84.53 271.12 88.57 271.09 C 88.57 274.85 88.56 278.61 88.60 282.37 C 84.54 282.38 80.49 282.37 76.43 282.37 C 76.46 278.61 76.45 274.85 76.45 271.09 Z" />
<path fill="#2196f3" opacity="1.00" d=" M 91.53 271.33 C 95.62 271.54 99.72 271.73 103.81 271.91 C 103.85 275.77 103.82 279.63 103.88 283.50 C 99.84 283.33 95.79 283.24 91.77 282.72 C 91.40 278.94 91.52 275.13 91.53 271.33 Z" />
<path fill="#2196f3" opacity="1.00" d=" M 106.86 272.22 C 110.87 272.82 115.43 271.92 119.05 273.96 C 119.38 277.55 119.14 281.16 119.20 284.76 C 115.08 284.48 110.96 284.16 106.85 283.66 C 106.86 279.85 106.86 276.03 106.86 272.22 Z" />
<path fill="#2196f3" opacity="1.00" d=" M 137.39 275.01 C 141.45 275.42 145.50 275.90 149.54 276.45 C 149.51 280.44 149.51 284.44 149.54 288.44 C 145.48 287.81 141.40 287.39 137.36 286.74 C 137.40 282.83 137.38 278.92 137.39 275.01 Z" />
<path fill="#2196f3" opacity="1.00" d=" M 152.66 276.81 C 156.70 277.47 160.77 277.99 164.82 278.63 C 164.75 282.67 164.76 286.73 164.80 290.78 C 160.77 290.19 156.75 289.46 152.70 288.97 C 152.63 284.91 152.66 280.86 152.66 276.81 Z" />
<path fill="#2196f3" opacity="1.00" d=" M 182.63 281.55 C 186.65 282.39 190.69 283.14 194.75 283.86 C 194.74 288.11 194.75 292.36 194.74 296.61 C 190.74 295.76 186.74 294.94 182.74 294.09 C 182.54 289.91 182.64 285.73 182.63 281.55 Z" />
<path fill="#2196f3" opacity="1.00" d=" M 197.69 284.52 C 201.72 285.35 205.76 286.12 209.74 287.16 C 209.85 291.44 209.81 295.72 209.81 300.00 L 209.44 300.00 C 205.53 299.08 201.61 298.19 197.72 297.15 C 197.69 292.94 197.70 288.73 197.69 284.52 Z" />
</g>
</svg>
