<?xml version="1.0" encoding="UTF-8" ?>
<!DOCTYPE svg PUBLIC "-//W3C//DTD SVG 1.1//EN" "http://www.w3.org/Graphics/SVG/1.1/DTD/svg11.dtd">
<svg width="270pt" height="64pt" viewBox="0 0 270 64" version="1.1" xmlns="http://www.w3.org/2000/svg">
<g id="#00a1c3ff">
<path fill="#00a1c3" opacity="1.00" d=" M 29.06 0.00 L 34.29 0.00 C 44.48 0.93 54.06 6.89 59.17 15.79 C 65.33 26.18 64.89 40.07 57.99 50.01 C 54.01 55.93 47.95 60.23 41.27 62.63 C 41.20 49.25 41.24 35.86 41.25 22.48 C 43.38 21.57 45.51 20.65 47.64 19.74 C 47.67 31.26 47.60 42.79 47.68 54.32 C 55.78 48.35 60.37 37.92 58.71 27.91 C 57.06 14.99 45.04 4.42 31.98 4.60 C 19.13 4.24 7.11 14.27 4.99 26.91 C 2.89 37.18 7.47 48.15 15.85 54.31 C 15.90 47.40 15.91 40.49 15.84 33.59 C 17.38 32.89 18.92 32.20 20.46 31.51 C 20.47 41.66 20.49 51.81 20.44 61.95 C 9.01 57.60 0.86 46.38 0.00 34.21 L 0.00 29.96 C 0.78 14.60 13.76 1.31 29.06 0.00 Z" />
<path fill="#00a1c3" opacity="1.00" d=" M 232.05 12.49 C 233.88 11.90 235.70 11.29 237.52 10.68 C 237.54 22.18 237.54 33.68 237.52 45.18 C 236.53 45.20 234.56 45.23 233.57 45.25 C 233.32 44.60 232.81 43.31 232.56 42.66 C 227.83 46.12 221.29 46.54 215.92 44.45 C 206.36 40.49 206.03 24.83 215.04 20.06 C 220.29 17.29 227.05 17.53 232.02 20.84 C 231.98 18.06 231.99 15.27 232.05 12.49 M 219.07 40.57 C 223.38 42.07 228.11 40.89 231.96 38.68 C 232.01 34.20 232.07 29.72 231.91 25.24 C 228.20 22.73 223.34 21.70 219.08 23.40 C 212.24 26.15 212.28 37.81 219.07 40.57 Z" />
<path fill="#00a1c3" opacity="1.00" d=" M 125.70 13.66 C 126.97 13.22 128.25 12.80 129.52 12.37 C 129.53 14.47 129.53 16.56 129.53 18.66 C 133.23 18.68 136.94 18.63 140.65 18.72 C 141.17 19.83 141.69 20.95 142.21 22.06 C 137.99 22.07 133.76 22.06 129.53 22.07 C 129.56 27.02 129.47 31.98 129.55 36.93 C 129.45 38.87 130.37 41.03 132.36 41.62 C 135.87 42.69 139.58 41.75 142.88 40.43 C 143.07 41.08 143.45 42.40 143.64 43.06 C 139.74 45.68 134.57 46.29 130.16 44.72 C 127.09 43.53 125.64 40.12 125.73 37.00 C 125.66 29.22 125.74 21.44 125.70 13.66 Z" />
<path fill="#00a1c3" opacity="1.00" d=" M 90.59 20.60 C 96.10 17.31 103.03 17.90 108.88 19.92 C 108.56 20.91 108.24 21.89 107.92 22.88 C 103.18 21.77 97.81 20.81 93.29 23.17 C 86.60 26.62 86.92 38.25 94.02 41.06 C 98.52 42.83 103.54 42.00 108.08 40.82 C 108.39 41.84 108.69 42.86 108.99 43.88 C 103.30 45.81 96.73 46.50 91.18 43.78 C 82.65 39.47 82.53 25.46 90.59 20.60 Z" />
<path fill="#00a1c3" opacity="1.00" d=" M 178.35 20.44 C 183.95 18.22 190.27 17.42 196.15 18.94 C 199.42 19.79 202.55 22.35 202.76 25.92 C 203.05 32.36 202.80 38.82 202.88 45.27 C 200.78 45.78 199.55 44.22 198.47 42.71 C 192.86 46.21 185.33 46.58 179.46 43.53 C 174.61 40.93 174.53 32.97 179.34 30.28 C 184.85 27.12 191.48 28.53 197.53 28.19 C 197.37 26.26 196.89 23.92 194.77 23.28 C 189.75 21.86 184.37 22.68 179.43 24.06 C 179.16 23.16 178.62 21.34 178.35 20.44 M 183.36 33.46 C 180.55 34.69 180.63 39.14 183.46 40.30 C 187.92 42.22 193.06 41.25 197.37 39.34 C 197.35 37.05 197.35 34.76 197.35 32.47 C 192.71 32.78 187.77 31.63 183.36 33.46 Z" />
<path fill="#00a1c3" opacity="1.00" d=" M 247.22 20.06 C 253.84 17.06 261.58 17.96 268.34 20.08 C 267.88 21.35 267.41 22.61 266.95 23.88 C 261.61 22.65 255.82 21.70 250.51 23.53 C 248.49 24.04 248.34 27.11 250.31 27.81 C 254.27 29.15 258.58 28.70 262.64 29.62 C 265.90 30.17 269.11 32.16 270.00 35.53 L 270.00 38.12 C 269.50 41.52 266.64 43.90 263.44 44.68 C 256.91 46.40 249.89 45.87 243.55 43.64 C 244.00 42.30 244.46 40.97 244.92 39.64 C 250.53 41.26 256.70 42.09 262.37 40.28 C 264.69 39.69 265.62 36.00 263.25 34.89 C 257.95 32.72 251.74 34.15 246.59 31.48 C 242.20 29.18 242.66 21.94 247.22 20.06 Z" />
<path fill="#00a1c3" opacity="1.00" d=" M 114.77 18.68 C 115.72 18.67 117.62 18.67 118.58 18.66 C 118.59 27.51 118.59 36.35 118.58 45.20 C 117.62 45.20 115.72 45.20 114.77 45.19 C 114.76 36.35 114.77 27.51 114.77 18.68 Z" />
<path fill="#00a1c3" opacity="1.00" d=" M 145.29 18.66 C 146.73 18.67 148.17 18.68 149.62 18.69 C 153.23 26.23 156.92 33.73 160.55 41.26 C 163.76 33.74 166.90 26.20 170.09 18.67 C 171.46 18.67 172.84 18.67 174.22 18.67 C 169.67 28.99 165.37 39.43 160.67 49.68 C 159.13 53.04 155.03 53.79 151.74 53.06 C 151.81 52.32 151.93 50.83 151.99 50.08 C 155.39 50.77 158.23 48.61 158.78 45.27 C 154.23 36.43 149.79 27.53 145.29 18.66 Z" />
<path fill="#00a1c3" opacity="1.00" d=" M 27.65 28.30 C 29.51 27.58 31.37 26.86 33.23 26.14 C 33.23 38.76 33.24 51.38 33.23 64.00 L 27.71 64.00 C 27.57 52.10 27.68 40.20 27.65 28.30 Z" />
</g>
</svg>
