<?xml version="1.0" encoding="utf-8"?>
<!-- Generator: Adobe Illustrator 22.1.0, SVG Export Plug-In . SVG Version: 6.00 Build 0)  -->
<svg version="1.1"
	 id="svg3444" xmlns:cc="http://creativecommons.org/ns#" xmlns:dc="http://purl.org/dc/elements/1.1/" xmlns:rdf="http://www.w3.org/1999/02/22-rdf-syntax-ns#" xmlns:svg="http://www.w3.org/2000/svg"
	 xmlns="http://www.w3.org/2000/svg" xmlns:xlink="http://www.w3.org/1999/xlink" x="0px" y="0px" viewBox="0 0 135 26.1"
	 style="enable-background:new 0 0 135 26.1;" xml:space="preserve">
<style type="text/css">
	.st0{fill:#F16737;}
	.st1{fill:url(#path362-5_1_);}
	.st2{fill:url(#path362-5-9_1_);}
</style>
<g id="layer1" transform="translate(0,-1026.2122)">
	<path id="path342-3" class="st0" d="M88.9,1045.1v-2.7v0v-2.7c0,0,0.4-1.7,2.1-0.6c1.9,1.3,3.6,2.3,3.6,2.3s0.5,0.4,0.5,1h0
		c0,0,0,0,0,0c0,0,0,0,0,0h0c0,0.6-0.5,1-0.5,1s-1.8,1.2-3.6,2.3C89.3,1046.8,88.9,1045.1,88.9,1045.1"/>
	
		<linearGradient id="path362-5_1_" gradientUnits="userSpaceOnUse" x1="54.8853" y1="1045.9875" x2="55.8849" y2="1045.9875" gradientTransform="matrix(0 26.1541 26.1542 0 -27293.8008 -409.2584)">
		<stop  offset="0" style="stop-color:#FFFFFF"/>
		<stop  offset="1" style="stop-color:#C5C8CD"/>
	</linearGradient>
	<path id="path362-5" class="st1" d="M59.6,1031.4h5.2v-5.2h-5.2L59.6,1031.4z M26.1,1052.3h5.3v-26.1h-5.3V1052.3z M19.8,1031.4
		h5.2v-5.2h-5.2V1031.4z M6.2,1026.2c-1.8,0-3.2,0.6-4.4,1.8l0,0c-1.2,1.2-1.8,2.6-1.8,4.5l0,0v19.9h5.2v-9.4h13.6v-5.3H5.2v-3.1
		c0-0.9,0.3-1.6,0.9-2.2l0,0c0.6-0.6,1.3-0.9,2.2-0.9l0,0h10.5v-5.2L6.2,1026.2z M59.6,1052.3h5.2v-19.9h-5.2L59.6,1052.3z
		 M19.8,1052.3h5.2v-19.9h-5.2V1052.3z M123.2,1032.5c-1.7,0-3.2,0.6-4.4,1.8l0,0c-1.2,1.2-1.8,2.7-1.8,4.4l0,0v7.5
		c0,1.8,0.6,3.3,1.8,4.4l0,0c1.2,1.2,2.6,1.8,4.4,1.8l0,0l3.1,0v-5.2l-1,0c-3.1,0-3.1-0.5-3.1-2.1l0,0h0v-5.3h0c0-2.1,1-2,3.1-2l0,0
		l1,0v-5.3L123.2,1032.5z M104.4,1032.5c-1.7,0-3.2,0.6-4.4,1.8l0,0c-1.2,1.2-1.8,2.7-1.8,4.4l0,0v7.5c0,1.8,0.6,3.3,1.8,4.4l0,0
		c1.2,1.2,2.6,1.8,4.4,1.8l0,0h9.5l0-5.2h-7.3c-3.1,0-3.1-0.5-3.1-2.1l0,0h0v-5.3h0c0-2.1,1-2,3.1-2l0,0h7.3v-5.3L104.4,1032.5z
		 M81.2,1032.5l-5,7.1l-5-7.1h-5.4l6.9,9.9l-6.9,10h5.4l5-7.2l5,7.2h5.5l-6.9-10l6.9-9.9H81.2z M32.4,1032.5v19.9h5.3v-14.6h5.2
		v14.6h5.2v-14.6h2.2c0.9,0,1.6,0.3,2.2,0.9l0,0c0.6,0.6,0.9,1.3,0.9,2.2l0,0v11.5h5.2v-13.7c0-1.8-0.6-3.3-1.8-4.4l0,0
		c-1.2-1.2-2.6-1.8-4.4-1.8l0,0H32.4z"/>
	
		<linearGradient id="path362-5-9_1_" gradientUnits="userSpaceOnUse" x1="54.8853" y1="1052.437" x2="55.8853" y2="1052.437" gradientTransform="matrix(0 26.154 -26.1542 0 27655.8633 -409.2536)">
		<stop  offset="0" style="stop-color:#FFFFFF"/>
		<stop  offset="1" style="stop-color:#C5C8CD"/>
	</linearGradient>
	<path id="path362-5-9" class="st2" d="M128.8,1032.5c1.7,0,3.2,0.6,4.4,1.8l0,0c1.2,1.2,1.8,2.7,1.8,4.4l0,0v7.5
		c0,1.8-0.6,3.3-1.8,4.4l0,0c-1.2,1.2-2.6,1.8-4.4,1.8l0,0l-3.4,0v-5.2l1.3,0c3.1,0,3.1-0.5,3.1-2.1l0,0h0v-5.3h0c0-2.1-1-2-3.1-2
		l0,0l-1.3,0v-5.3H128.8z"/>
</g>
</svg>
