<?xml version="1.0" encoding="UTF-8" ?>
<!DOCTYPE svg PUBLIC "-//W3C//DTD SVG 1.1//EN" "http://www.w3.org/Graphics/SVG/1.1/DTD/svg11.dtd">
<svg width="512pt" height="512pt" viewBox="0 0 512 512" version="1.1" xmlns="http://www.w3.org/2000/svg">
<g id="#fcd31bff">
<path fill="#fcd31b" opacity="1.00" d=" M 93.35 0.00 L 383.43 0.00 C 382.97 1.80 381.53 3.08 380.51 4.56 C 356.39 36.71 332.28 68.88 308.16 101.04 C 305.92 103.93 303.91 107.02 301.40 109.70 C 301.73 107.27 302.12 104.85 302.61 102.45 C 276.85 102.31 251.08 102.49 225.32 102.35 C 216.79 150.03 208.63 197.77 200.15 245.45 C 188.80 259.72 178.20 274.60 167.14 289.11 C 120.12 351.81 73.11 414.51 26.09 477.21 C 25.72 477.00 24.99 476.57 24.62 476.36 C 11.98 461.64 3.43 443.24 0.95 423.97 C 0.71 423.27 0.24 421.88 0.00 421.18 L 0.00 93.42 C 2.38 71.59 11.18 50.29 26.10 34.03 C 43.11 14.62 67.80 2.70 93.35 0.00 Z" />
</g>
<g id="#ffffffff">
<path fill="#ffffff" opacity="1.00" d=" M 383.43 0.00 L 411.78 0.00 C 445.81 0.53 478.82 19.39 496.53 48.45 C 506.37 64.15 511.78 82.58 512.00 101.11 L 512.00 411.90 C 511.42 445.89 492.56 478.86 463.53 496.54 C 448.11 506.22 430.05 511.57 411.86 512.00 L 101.16 512.00 C 82.58 511.79 64.11 506.37 48.38 496.49 C 39.44 491.10 31.69 483.99 24.62 476.36 C 24.99 476.57 25.72 477.00 26.09 477.21 C 73.11 414.51 120.12 351.81 167.14 289.11 C 178.20 274.60 188.80 259.72 200.15 245.45 C 196.25 267.62 192.16 289.75 188.30 311.93 C 185.33 330.18 185.08 349.78 193.12 366.85 C 200.36 382.63 214.88 394.03 230.81 400.25 C 242.33 404.86 254.62 407.34 266.94 408.59 C 283.19 410.25 299.62 409.82 315.77 407.44 C 319.73 386.09 323.52 364.69 327.01 343.27 C 313.17 343.11 299.14 344.11 285.47 341.35 C 278.31 339.87 270.66 336.65 267.12 329.81 C 263.34 322.43 264.74 313.84 266.07 306.02 C 278.23 240.65 289.14 175.05 301.40 109.70 C 303.91 107.02 305.92 103.93 308.16 101.04 C 332.28 68.88 356.39 36.71 380.51 4.56 C 381.53 3.08 382.97 1.80 383.43 0.00 Z" />
</g>
<g id="#121212ff">
<path fill="#121212" opacity="1.00" d=" M 225.32 102.35 C 251.08 102.49 276.85 102.31 302.61 102.45 C 302.12 104.85 301.73 107.27 301.40 109.70 C 289.14 175.05 278.23 240.65 266.07 306.02 C 264.74 313.84 263.34 322.43 267.12 329.81 C 270.66 336.65 278.31 339.87 285.47 341.35 C 299.14 344.11 313.17 343.11 327.01 343.27 C 323.52 364.69 319.73 386.09 315.77 407.44 C 299.62 409.82 283.19 410.25 266.94 408.59 C 254.62 407.34 242.33 404.86 230.81 400.25 C 214.88 394.03 200.36 382.63 193.12 366.85 C 185.08 349.78 185.33 330.18 188.30 311.93 C 192.16 289.75 196.25 267.62 200.15 245.45 C 208.63 197.77 216.79 150.03 225.32 102.35 Z" />
</g>
</svg>
