<?xml version="1.0" encoding="UTF-8" ?>
<!DOCTYPE svg PUBLIC "-//W3C//DTD SVG 1.1//EN" "http://www.w3.org/Graphics/SVG/1.1/DTD/svg11.dtd">
<svg width="96pt" height="96pt" viewBox="0 0 96 96" version="1.1" xmlns="http://www.w3.org/2000/svg">
<g id="#a5a8adff">
<path fill="#a5a8ad" opacity="1.00" d=" M 0.00 0.00 L 32.00 0.00 C 32.00 5.33 32.00 10.66 32.00 15.99 C 26.67 16.08 21.34 16.15 16.01 16.23 C 15.99 37.48 16.00 58.74 16.00 80.00 C 37.33 80.00 58.67 80.00 80.00 80.00 C 80.01 72.00 79.99 64.00 80.00 56.00 C 85.33 56.00 90.67 56.00 96.00 56.00 L 96.00 96.00 L 0.00 96.00 L 0.00 0.00 Z" />
<path fill="#a5a8ad" opacity="1.00" d=" M 47.96 0.00 L 96.00 0.00 L 96.00 48.03 C 90.70 42.65 85.33 37.35 80.00 32.01 C 71.99 39.99 64.01 48.01 56.00 55.99 C 50.66 50.67 45.33 45.34 40.01 40.00 C 47.99 31.99 56.01 24.01 63.99 16.00 C 58.65 10.67 53.35 5.29 47.96 0.00 Z" />
</g>
</svg>
