<?xml version="1.0" encoding="UTF-8" ?>
<!DOCTYPE svg PUBLIC "-//W3C//DTD SVG 1.1//EN" "http://www.w3.org/Graphics/SVG/1.1/DTD/svg11.dtd">
<svg width="522pt" height="614pt" viewBox="0 0 522 614" version="1.1" xmlns="http://www.w3.org/2000/svg">
<g id="#f9ae19ff">
<path fill="#f9ae19" opacity="1.00" d=" M 208.10 31.06 C 225.73 20.75 243.65 10.90 261.11 0.32 C 261.33 100.70 261.20 201.10 261.14 301.49 C 258.50 300.52 256.03 299.17 253.67 297.64 C 253.56 297.58 253.33 297.44 253.22 297.37 C 249.27 295.11 245.35 292.81 241.42 290.54 C 241.41 290.53 241.38 290.52 241.37 290.51 C 231.14 284.56 220.90 278.64 210.69 272.66 C 210.58 272.60 210.35 272.46 210.24 272.40 C 189.61 260.50 169.06 248.45 148.43 236.54 C 148.42 236.53 148.40 236.52 148.39 236.51 C 138.09 230.50 127.77 224.51 117.45 218.54 C 117.44 218.53 117.42 218.52 117.41 218.51 C 107.09 212.52 96.78 206.51 86.45 200.54 C 86.44 200.53 86.42 200.52 86.40 200.51 C 72.09 192.19 57.79 183.85 43.46 175.56 C 43.45 175.56 43.42 175.54 43.41 175.54 C 33.14 169.53 22.83 163.60 12.58 157.57 L 12.49 157.53 L 12.40 157.47 C 8.64 154.95 4.59 152.91 0.83 150.40 C 69.93 110.64 139.01 70.84 208.10 31.06 Z" />
</g>
<g id="#f26e26ff">
<path fill="#f26e26" opacity="1.00" d=" M 261.11 0.32 C 347.95 50.71 434.88 100.98 521.62 151.56 C 506.87 160.65 491.64 168.94 476.71 177.73 C 404.82 219.04 333.03 260.53 261.13 301.81 L 261.14 301.49 C 261.20 201.10 261.33 100.70 261.11 0.32 Z" />
</g>
<g id="#cd1f46ff">
<path fill="#cd1f46" opacity="1.00" d=" M 476.71 177.73 C 491.64 168.94 506.87 160.65 521.62 151.56 L 522.00 151.80 L 522.00 453.24 C 488.86 434.45 456.07 415.04 423.05 396.04 C 385.04 373.99 347.05 351.91 309.02 329.90 C 293.28 320.92 277.84 311.39 261.85 302.85 C 261.39 338.24 261.77 373.64 261.65 409.04 C 261.46 427.42 262.09 445.82 261.32 464.18 C 261.38 414.81 261.32 365.44 261.34 316.06 C 261.26 311.31 261.63 306.55 261.13 301.81 C 333.03 260.53 404.82 219.04 476.71 177.73 Z" />
</g>
<g id="#72533f35">
<path fill="#72533f" opacity="0.21" d=" M 12.40 157.47 L 12.49 157.53 L 12.58 157.57 C 12.53 157.55 12.44 157.50 12.40 157.47 Z" />
<path fill="#72533f" opacity="0.21" d=" M 43.41 175.54 C 43.42 175.54 43.45 175.56 43.46 175.56 C 43.45 175.56 43.42 175.54 43.41 175.54 Z" />
<path fill="#72533f" opacity="0.21" d=" M 86.40 200.51 C 86.42 200.52 86.44 200.53 86.45 200.54 C 86.44 200.53 86.42 200.52 86.40 200.51 Z" />
<path fill="#72533f" opacity="0.21" d=" M 117.41 218.51 C 117.42 218.52 117.44 218.53 117.45 218.54 C 117.44 218.53 117.42 218.52 117.41 218.51 Z" />
<path fill="#72533f" opacity="0.21" d=" M 148.39 236.51 C 148.40 236.52 148.42 236.53 148.43 236.54 C 148.42 236.53 148.40 236.52 148.39 236.51 Z" />
<path fill="#72533f" opacity="0.21" d=" M 210.24 272.40 C 210.35 272.46 210.58 272.60 210.69 272.66 C 210.58 272.60 210.35 272.46 210.24 272.40 Z" />
<path fill="#72533f" opacity="0.21" d=" M 241.37 290.51 C 241.38 290.52 241.41 290.53 241.42 290.54 C 241.41 290.53 241.38 290.52 241.37 290.51 Z" />
<path fill="#72533f" opacity="0.21" d=" M 253.22 297.37 C 253.33 297.44 253.56 297.58 253.67 297.64 C 253.56 297.58 253.33 297.44 253.22 297.37 Z" />
</g>
<g id="#285490ee">
<path fill="#285490" opacity="0.93" d=" M 0.24 451.89 C 87.13 401.73 174.13 351.77 261.13 301.81 C 261.63 306.55 261.26 311.31 261.34 316.06 C 261.32 365.44 261.38 414.81 261.32 464.18 C 261.05 510.60 261.20 557.03 261.24 603.45 C 244.97 593.76 228.50 584.41 212.16 574.84 C 141.50 533.90 71.01 492.65 0.24 451.89 Z" />
</g>
<g id="#7d1a50f1">
<path fill="#7d1a50" opacity="0.95" d=" M 261.85 302.85 C 277.84 311.39 293.28 320.92 309.02 329.90 C 347.05 351.91 385.04 373.99 423.05 396.04 C 456.07 415.04 488.86 434.45 522.00 453.24 L 522.00 453.46 C 506.71 461.96 491.65 470.90 476.45 479.55 C 404.72 520.86 332.97 562.14 261.24 603.45 C 261.20 557.03 261.05 510.60 261.32 464.18 C 262.09 445.82 261.46 427.42 261.65 409.04 C 261.77 373.64 261.39 338.24 261.85 302.85 Z" />
</g>
</svg>
