<?xml version="1.0" encoding="UTF-8" ?>
<!DOCTYPE svg PUBLIC "-//W3C//DTD SVG 1.1//EN" "http://www.w3.org/Graphics/SVG/1.1/DTD/svg11.dtd">
<svg width="60pt" height="59pt" viewBox="0 0 60 59" version="1.1" xmlns="http://www.w3.org/2000/svg">
<g id="#7fcdc4ff">
<path fill="#7fcdc4" opacity="1.00" d=" M 26.85 0.00 L 32.17 0.00 C 35.28 0.38 38.30 1.25 41.28 2.17 C 32.37 3.50 23.87 6.94 16.52 12.16 C 12.44 13.17 8.34 14.20 4.12 14.43 C 8.88 6.35 17.58 1.04 26.85 0.00 Z" />
</g>
<g id="#5ec3beff">
<path fill="#5ec3be" opacity="1.00" d=" M 21.32 16.42 C 28.21 10.23 36.71 4.63 46.19 4.12 C 43.53 5.96 40.36 6.83 37.59 8.49 C 33.75 10.68 30.42 13.62 27.39 16.81 C 25.36 16.68 23.34 16.56 21.32 16.42 Z" />
</g>
<g id="#54bfbcff">
<path fill="#54bfbc" opacity="1.00" d=" M 36.12 14.41 C 39.43 10.83 43.57 8.17 47.90 6.00 C 49.54 7.53 51.19 9.06 52.69 10.74 C 47.33 12.56 41.88 14.66 36.12 14.41 Z" />
</g>
<g id="#37b7b7ff">
<path fill="#37b7b7" opacity="1.00" d=" M 36.12 14.41 C 41.88 14.66 47.33 12.56 52.69 10.74 C 54.14 12.58 55.41 14.57 56.50 16.65 C 47.63 18.95 38.89 21.89 29.82 23.29 C 31.53 20.07 33.61 17.05 36.12 14.41 Z" />
</g>
<g id="#64c4bfff">
<path fill="#64c4bf" opacity="1.00" d=" M 4.12 14.43 C 8.34 14.20 12.44 13.17 16.52 12.16 C 12.87 14.97 9.44 18.08 6.38 21.53 C 4.71 21.15 3.05 20.76 1.38 20.38 C 2.13 18.33 3.03 16.33 4.12 14.43 Z" />
</g>
<g id="#44bbb9ff">
<path fill="#44bbb9" opacity="1.00" d=" M 21.32 16.42 C 23.34 16.56 25.36 16.68 27.39 16.81 C 25.66 18.81 24.23 21.03 22.63 23.13 L 21.94 23.39 C 19.57 23.60 17.20 23.86 14.83 24.03 C 16.82 21.35 18.97 18.80 21.32 16.42 Z" />
</g>
<g id="#16adb1ff">
<path fill="#16adb1" opacity="1.00" d=" M 29.82 23.29 C 38.89 21.89 47.63 18.95 56.50 16.65 C 57.25 18.35 57.90 20.09 58.46 21.85 C 50.16 23.99 41.83 26.03 33.64 28.55 C 31.55 29.18 29.36 29.32 27.19 29.44 C 27.96 27.34 28.80 25.27 29.82 23.29 Z" />
</g>
<g id="#50bebbff">
<path fill="#50bebb" opacity="1.00" d=" M 0.00 26.90 C 0.36 24.71 0.79 22.52 1.38 20.38 C 3.05 20.76 4.71 21.15 6.38 21.53 C 4.04 24.21 1.86 27.04 0.00 30.07 L 0.00 26.90 Z" />
</g>
<g id="#00a0a6ff">
<path fill="#00a0a6" opacity="1.00" d=" M 33.64 28.55 C 41.83 26.03 50.16 23.99 58.46 21.85 C 60.18 28.57 59.51 35.83 56.57 42.12 C 52.50 42.46 48.49 43.27 44.59 44.48 C 37.94 46.49 31.16 48.02 24.45 49.85 C 24.12 42.96 24.89 35.96 27.19 29.44 C 29.36 29.32 31.55 29.18 33.64 28.55 Z" />
</g>
<g id="#2bb3b5ff">
<path fill="#2bb3b5" opacity="1.00" d=" M 14.83 24.03 C 17.20 23.86 19.57 23.60 21.94 23.39 L 22.17 23.89 C 21.35 25.77 20.19 27.48 19.24 29.29 C 16.81 29.54 14.37 29.77 11.93 29.76 L 11.77 29.15 C 12.43 27.26 13.75 25.69 14.83 24.03 Z" />
</g>
<g id="#00a3aaff">
<path fill="#00a3aa" opacity="1.00" d=" M 11.93 29.76 C 14.37 29.77 16.81 29.54 19.24 29.29 C 15.73 37.15 13.68 45.65 13.43 54.27 C 10.46 51.93 7.16 49.60 5.42 46.16 C 6.40 40.47 8.35 34.88 11.28 29.90 L 11.93 29.76 Z" />
</g>
<g id="#00878bff">
<path fill="#00878b" opacity="1.00" d=" M 44.59 44.48 C 48.49 43.27 52.50 42.46 56.57 42.12 C 52.19 51.55 42.57 57.95 32.30 59.00 L 26.16 59.00 C 25.29 56.01 24.65 52.95 24.45 49.85 C 31.16 48.02 37.94 46.49 44.59 44.48 Z" />
</g>
</svg>
