<?xml version="1.0" encoding="UTF-8" ?>
<!DOCTYPE svg PUBLIC "-//W3C//DTD SVG 1.1//EN" "http://www.w3.org/Graphics/SVG/1.1/DTD/svg11.dtd">
<svg width="314pt" height="309pt" viewBox="0 0 314 309" version="1.1" xmlns="http://www.w3.org/2000/svg">
<g id="#75af26ff">
<path fill="#75af26" opacity="1.00" d=" M 0.00 0.00 L 314.00 0.00 L 314.00 153.80 C 313.03 160.55 313.48 167.36 313.45 174.15 C 313.38 219.10 313.37 264.05 313.30 309.00 L 161.20 309.00 C 160.27 288.00 162.21 266.80 158.72 245.95 C 155.03 220.84 144.59 195.76 125.13 178.80 C 108.17 163.72 86.01 155.81 63.82 152.54 C 42.70 149.27 21.28 150.65 0.00 150.25 L 0.00 0.00 M 65.13 64.04 C 65.14 72.25 65.11 80.46 65.13 88.67 C 99.02 92.67 132.88 103.70 160.00 124.94 C 170.18 132.62 179.20 141.78 187.22 151.68 C 208.32 178.34 219.68 211.59 223.66 245.09 C 231.98 245.09 240.31 245.11 248.63 245.10 C 248.70 184.80 248.75 124.51 248.81 64.22 C 187.59 64.15 126.36 64.09 65.13 64.04 Z" />
</g>
<g id="#000000ff">
<path fill="#000000" opacity="1.00" d=" M 0.00 188.09 C 40.86 187.99 81.71 188.12 122.57 188.13 C 122.49 228.42 122.57 268.71 122.39 309.00 L 0.00 309.00 L 0.00 188.09 Z" />
</g>
</svg>
