<?xml version="1.0" encoding="UTF-8" ?>
<!DOCTYPE svg PUBLIC "-//W3C//DTD SVG 1.1//EN" "http://www.w3.org/Graphics/SVG/1.1/DTD/svg11.dtd">
<svg width="450pt" height="465pt" viewBox="0 0 450 465" version="1.1" xmlns="http://www.w3.org/2000/svg">
<g id="#ff8c00ff">
<path fill="#ff8c00" opacity="1.00" d=" M 198.37 0.00 L 215.48 0.00 C 260.49 1.85 304.73 18.79 339.24 47.80 C 367.46 71.31 389.30 102.45 401.57 137.08 C 422.14 194.21 415.97 260.51 384.30 312.43 C 383.73 312.69 382.58 313.21 382.01 313.48 C 379.37 294.59 373.22 275.76 361.32 260.61 C 347.14 242.15 325.39 230.72 302.84 226.17 C 299.94 225.56 296.70 225.33 294.63 222.91 C 296.63 222.06 298.69 221.26 300.91 221.29 C 314.74 220.47 328.71 220.27 342.46 222.20 C 343.50 211.81 343.61 201.31 342.37 190.94 C 339.03 160.95 325.25 132.32 304.04 110.89 C 283.70 90.15 256.59 76.14 227.85 71.78 C 197.58 67.05 165.72 72.80 139.19 88.18 C 113.06 103.06 92.18 126.87 80.77 154.68 C 69.70 181.33 67.54 211.54 74.57 239.52 C 82.67 272.59 103.84 302.15 132.37 320.70 C 156.05 336.35 184.71 343.95 213.02 342.90 C 211.82 334.30 210.81 325.67 210.55 316.99 C 210.45 310.77 210.12 304.44 211.81 298.39 C 214.96 299.32 216.32 302.43 217.89 305.00 C 229.16 324.28 243.84 341.92 262.43 354.54 C 276.78 364.50 293.18 371.23 310.07 375.51 C 319.10 377.64 328.19 379.54 337.17 381.93 C 357.16 387.11 376.69 394.65 394.11 405.87 C 413.13 417.98 429.61 433.72 443.95 451.04 C 445.97 453.60 448.46 455.94 449.63 459.05 C 450.58 462.62 446.35 465.73 443.14 464.19 C 440.53 462.78 438.48 460.59 436.23 458.71 C 413.66 439.45 387.96 423.23 359.43 414.48 C 339.96 408.39 319.38 406.47 299.05 407.44 C 268.94 407.86 239.09 412.56 209.00 413.20 C 193.28 413.24 177.54 411.74 162.18 408.33 C 123.66 399.92 87.76 380.03 60.08 351.97 C 34.61 326.37 16.07 293.95 6.98 259.00 C -2.04 224.50 -1.98 187.67 7.21 153.21 C 18.98 108.51 46.43 68.17 83.58 40.68 C 116.58 15.91 157.18 1.72 198.37 0.00 Z" />
<path fill="#ff8c00" opacity="1.00" d=" M 351.23 292.25 C 354.37 290.98 358.22 291.88 360.73 294.14 C 365.32 298.07 367.33 304.09 368.63 309.81 C 369.49 314.31 370.38 319.53 367.73 323.64 C 365.65 326.78 361.30 325.01 359.29 322.69 C 353.49 316.79 348.67 309.30 347.79 300.91 C 347.49 297.75 348.12 293.86 351.23 292.25 Z" />
<path fill="#ff8c00" opacity="1.00" d=" M 307.47 326.63 C 313.35 325.01 319.68 327.01 324.57 330.38 C 329.60 334.03 334.06 338.97 335.78 345.06 C 337.17 349.85 335.40 355.37 331.35 358.31 C 327.32 361.47 321.81 361.74 316.95 360.92 C 305.74 358.96 297.33 347.05 299.24 335.83 C 299.96 331.52 303.12 327.64 307.47 326.63 Z" />
</g>
</svg>
