<?xml version="1.0" encoding="UTF-8" ?>
<!DOCTYPE svg PUBLIC "-//W3C//DTD SVG 1.1//EN" "http://www.w3.org/Graphics/SVG/1.1/DTD/svg11.dtd">
<svg width="101pt" height="77pt" viewBox="0 0 101 77" version="1.1" xmlns="http://www.w3.org/2000/svg">
<g id="#066bc6ff">
<path fill="#066bc6" opacity="1.00" d=" M 57.09 0.00 L 57.84 0.00 C 72.00 5.71 86.18 11.40 100.30 17.22 C 98.49 34.52 97.06 51.87 95.16 69.17 C 65.30 71.58 35.43 73.82 5.58 76.22 C 7.36 58.96 9.00 41.67 10.59 24.39 C 17.72 20.20 25.27 16.75 32.52 12.78 C 40.71 8.52 48.91 4.27 57.09 0.00 M 20.75 30.54 C 20.76 38.77 20.73 47.00 20.77 55.23 C 22.59 55.27 24.41 55.26 26.23 55.23 C 26.30 52.32 26.19 49.42 26.28 46.51 C 27.59 46.49 28.91 46.46 30.23 46.54 C 32.14 49.40 33.67 52.55 35.75 55.26 C 37.82 55.24 39.88 55.28 41.94 55.21 C 39.97 52.11 37.88 49.09 35.99 45.94 C 40.53 44.38 41.65 38.33 39.61 34.45 C 38.27 31.64 35.00 30.33 32.03 30.49 C 28.27 30.54 24.51 30.43 20.75 30.54 M 44.75 30.55 C 44.77 38.78 44.72 47.01 44.77 55.23 C 50.59 55.26 56.41 55.26 62.23 55.23 C 62.24 53.68 62.26 52.13 62.29 50.57 C 58.54 49.62 54.04 50.82 50.25 50.00 C 50.24 48.34 50.24 46.68 50.25 45.03 C 53.83 44.95 57.41 45.04 60.99 44.99 C 61.01 43.41 61.03 41.83 60.97 40.25 C 57.40 40.23 53.82 40.29 50.25 40.23 C 50.24 38.57 50.23 36.92 50.26 35.27 C 54.25 35.21 58.24 35.29 62.23 35.23 C 62.26 33.67 62.27 32.10 62.24 30.54 C 56.41 30.48 50.58 30.45 44.75 30.55 M 66.82 35.82 C 63.32 41.44 64.63 49.83 70.36 53.49 C 75.93 57.06 83.90 56.11 88.41 51.25 C 88.61 48.09 88.49 44.91 88.47 41.75 C 84.57 41.76 80.67 41.73 76.77 41.77 C 76.73 43.34 76.73 44.91 76.76 46.48 C 78.81 46.54 80.86 46.49 82.90 46.47 C 82.93 47.09 82.97 48.34 83.00 48.96 C 80.39 51.08 76.36 51.45 73.66 49.32 C 69.36 46.33 69.42 38.75 74.08 36.12 C 77.25 33.85 81.76 35.09 83.86 38.22 C 85.32 37.35 86.84 36.58 88.35 35.78 C 84.07 27.85 71.35 28.45 66.82 35.82 Z" />
<path fill="#066bc6" opacity="1.00" d=" M 26.26 35.27 C 28.97 35.45 32.24 34.45 34.38 36.62 C 35.64 38.11 34.93 40.39 33.27 41.23 C 31.08 42.22 28.59 41.59 26.26 41.74 C 26.23 39.58 26.24 37.42 26.26 35.27 Z" />
</g>
<g id="#c6c5c5ff">
<path fill="#c6c5c5" opacity="1.00" d=" M 6.85 9.77 C 14.21 8.90 21.65 8.48 29.04 7.99 C 31.68 7.69 32.92 10.54 32.52 12.78 C 25.27 16.75 17.72 20.20 10.59 24.39 C 9.00 41.67 7.36 58.96 5.58 76.22 C 3.49 58.00 2.01 39.69 0.00 21.46 L 0.00 19.41 C 2.03 19.30 4.67 19.45 5.47 17.08 C 5.74 14.62 4.18 11.41 6.85 9.77 Z" />
</g>
<g id="#ffffffff">
<path fill="#ffffff" opacity="1.00" d=" M 20.75 30.54 C 24.51 30.43 28.27 30.54 32.03 30.49 C 35.00 30.33 38.27 31.64 39.61 34.45 C 41.65 38.33 40.53 44.38 35.99 45.94 C 37.88 49.09 39.97 52.11 41.94 55.21 C 39.88 55.28 37.82 55.24 35.75 55.26 C 33.67 52.55 32.14 49.40 30.23 46.54 C 28.91 46.46 27.59 46.49 26.28 46.51 C 26.19 49.42 26.30 52.32 26.23 55.23 C 24.41 55.26 22.59 55.27 20.77 55.23 C 20.73 47.00 20.76 38.77 20.75 30.54 M 26.26 35.27 C 26.24 37.42 26.23 39.58 26.26 41.74 C 28.59 41.59 31.08 42.22 33.27 41.23 C 34.93 40.39 35.64 38.11 34.38 36.62 C 32.24 34.45 28.97 35.45 26.26 35.27 Z" />
<path fill="#ffffff" opacity="1.00" d=" M 44.75 30.55 C 50.58 30.45 56.41 30.48 62.24 30.54 C 62.27 32.10 62.26 33.67 62.23 35.23 C 58.24 35.29 54.25 35.21 50.26 35.27 C 50.23 36.92 50.24 38.57 50.25 40.23 C 53.82 40.29 57.40 40.23 60.97 40.25 C 61.03 41.83 61.01 43.41 60.99 44.99 C 57.41 45.04 53.83 44.95 50.25 45.03 C 50.24 46.68 50.24 48.34 50.25 50.00 C 54.04 50.82 58.54 49.62 62.29 50.57 C 62.26 52.13 62.24 53.68 62.23 55.23 C 56.41 55.26 50.59 55.26 44.77 55.23 C 44.72 47.01 44.77 38.78 44.75 30.55 Z" />
<path fill="#ffffff" opacity="1.00" d=" M 66.82 35.82 C 71.35 28.45 84.07 27.85 88.35 35.78 C 86.84 36.58 85.32 37.35 83.86 38.22 C 81.76 35.09 77.25 33.85 74.08 36.12 C 69.42 38.75 69.36 46.33 73.66 49.32 C 76.36 51.45 80.39 51.08 83.00 48.96 C 82.97 48.34 82.93 47.09 82.90 46.47 C 80.86 46.49 78.81 46.54 76.76 46.48 C 76.73 44.91 76.73 43.34 76.77 41.77 C 80.67 41.73 84.57 41.76 88.47 41.75 C 88.49 44.91 88.61 48.09 88.41 51.25 C 83.90 56.11 75.93 57.06 70.36 53.49 C 64.63 49.83 63.32 41.44 66.82 35.82 Z" />
</g>
</svg>
