<?xml version="1.0" encoding="UTF-8" ?>
<!DOCTYPE svg PUBLIC "-//W3C//DTD SVG 1.1//EN" "http://www.w3.org/Graphics/SVG/1.1/DTD/svg11.dtd">
<svg width="241pt" height="241pt" viewBox="0 0 241 241" version="1.1" xmlns="http://www.w3.org/2000/svg">
<g id="#b0f5a7ff">
<path fill="#b0f5a7" opacity="1.00" d=" M 51.71 22.35 C 88.46 -4.27 140.70 -6.77 179.87 16.12 C 174.43 18.07 168.59 16.93 162.95 17.18 C 156.64 17.47 150.21 16.35 144.03 18.01 C 141.85 16.91 139.13 16.33 137.00 17.89 C 133.07 20.55 130.71 24.88 128.57 28.99 C 124.51 27.62 120.21 27.84 116.00 27.94 C 100.71 27.99 85.42 27.96 70.14 27.96 C 69.41 28.68 68.67 29.40 67.93 30.12 C 66.00 26.61 63.70 22.61 59.57 21.47 C 56.56 20.63 53.80 22.56 51.47 24.20 L 51.60 23.05 L 51.71 22.35 Z" />
</g>
<g id="#a6f09dff">
<path fill="#a6f09d" opacity="1.00" d=" M 179.87 16.12 C 192.79 23.38 204.33 33.10 213.67 44.60 C 210.12 44.87 206.56 45.02 203.00 44.99 C 176.50 44.96 150.00 44.94 123.50 44.95 C 123.55 44.33 123.65 43.09 123.70 42.47 C 128.31 36.68 133.05 29.46 140.89 28.11 C 148.41 27.67 152.36 35.35 155.62 40.90 C 152.73 32.86 150.11 24.31 144.03 18.01 C 150.21 16.35 156.64 17.47 162.95 17.18 C 168.59 16.93 174.43 18.07 179.87 16.12 Z" />
</g>
<g id="#231f20ff">
<path fill="#231f20" opacity="1.00" d=" M 137.00 17.89 C 139.13 16.33 141.85 16.91 144.03 18.01 C 150.11 24.31 152.73 32.86 155.62 40.90 C 152.36 35.35 148.41 27.67 140.89 28.11 C 133.05 29.46 128.31 36.68 123.70 42.47 L 122.90 43.23 C 124.68 38.44 126.31 33.58 128.57 28.99 C 130.71 24.88 133.07 20.55 137.00 17.89 Z" />
<path fill="#231f20" opacity="1.00" d=" M 51.47 24.20 C 53.80 22.56 56.56 20.63 59.57 21.47 C 63.70 22.61 66.00 26.61 67.93 30.12 C 70.70 35.57 72.34 41.48 74.08 47.32 C 69.90 42.03 66.11 35.10 58.95 33.64 C 52.33 33.10 47.17 38.01 42.52 42.01 C 44.59 35.67 47.20 29.41 51.47 24.20 Z" />
<path fill="#231f20" opacity="1.00" d=" M 120.28 72.31 C 130.23 67.75 141.01 64.32 152.07 64.59 C 155.24 64.74 159.33 64.77 161.10 67.93 C 162.88 71.05 160.95 74.52 159.30 77.22 C 155.44 81.93 150.72 85.89 145.61 89.18 C 148.50 84.72 153.64 80.71 153.07 74.88 C 149.12 71.83 143.64 72.05 138.92 72.43 C 120.59 75.26 103.12 83.85 90.22 97.28 C 89.51 97.86 88.81 98.45 88.12 99.06 C 88.46 98.50 89.13 97.39 89.46 96.83 C 92.05 92.85 95.16 89.23 98.55 85.91 C 104.95 80.17 112.55 75.97 120.28 72.31 Z" />
<path fill="#231f20" opacity="1.00" d=" M 114.60 133.44 C 143.92 126.40 170.35 110.77 194.26 92.82 C 193.77 94.14 193.28 95.47 192.71 96.77 C 180.96 121.91 169.25 147.08 158.00 172.46 L 157.53 171.80 C 155.97 167.98 151.79 166.60 147.96 166.82 C 137.04 166.27 128.44 174.29 121.19 181.41 C 120.78 179.31 121.22 176.28 118.79 175.29 C 115.02 174.25 111.42 176.50 108.20 178.19 C 97.80 184.44 88.21 193.07 83.33 204.40 C 82.11 206.86 82.16 209.67 82.85 212.28 C 81.00 211.13 79.22 209.88 77.58 208.44 C 67.86 200.18 58.89 190.98 51.22 180.77 C 40.32 165.70 33.93 147.84 30.01 129.79 C 42.39 133.29 55.04 136.19 67.94 136.81 C 83.54 137.52 99.36 137.20 114.60 133.44 Z" />
</g>
<g id="#9deb93ff">
<path fill="#9deb93" opacity="1.00" d=" M 19.31 56.39 C 27.56 43.00 38.74 31.36 51.67 22.41 L 51.60 23.05 L 51.47 24.20 C 47.20 29.41 44.59 35.67 42.52 42.01 C 47.17 38.01 52.33 33.10 58.95 33.64 C 66.11 35.10 69.90 42.03 74.08 47.32 C 74.18 47.47 74.39 47.79 74.50 47.95 C 74.72 47.25 75.17 45.85 75.39 45.15 C 89.60 44.81 103.82 45.11 118.03 45.02 C 119.81 45.02 121.68 44.63 122.90 43.23 L 123.70 42.47 C 123.65 43.09 123.55 44.33 123.50 44.95 C 150.00 44.94 176.50 44.96 203.00 44.99 C 206.56 45.02 210.12 44.87 213.67 44.60 C 218.19 50.12 222.26 56.02 225.64 62.32 C 215.11 61.62 204.55 62.16 194.01 61.97 C 160.35 62.00 126.68 61.95 93.02 61.99 C 86.89 62.26 80.64 61.20 74.64 62.87 C 73.08 56.91 69.71 50.03 63.05 48.75 C 56.37 47.64 50.97 52.89 47.41 57.87 C 38.15 55.82 28.60 58.06 19.31 56.39 Z" />
</g>
<g id="#a5f09cff">
<path fill="#a5f09c" opacity="1.00" d=" M 67.93 30.12 C 68.67 29.40 69.41 28.68 70.14 27.96 C 85.42 27.96 100.71 27.99 116.00 27.94 C 120.21 27.84 124.51 27.62 128.57 28.99 C 126.31 33.58 124.68 38.44 122.90 43.23 C 121.68 44.63 119.81 45.02 118.03 45.02 C 103.82 45.11 89.60 44.81 75.39 45.15 C 75.17 45.85 74.72 47.25 74.50 47.95 C 74.39 47.79 74.18 47.47 74.08 47.32 C 72.34 41.48 70.70 35.57 67.93 30.12 Z" />
</g>
<g id="#0e0009ff">
<path fill="#0e0009" opacity="1.00" d=" M 47.41 57.87 C 50.97 52.89 56.37 47.64 63.05 48.75 C 69.71 50.03 73.08 56.91 74.64 62.87 C 76.26 70.16 76.07 77.75 75.12 85.12 C 74.49 88.71 73.50 92.21 72.48 95.71 C 70.28 101.34 67.52 106.87 63.26 111.25 C 60.41 113.76 56.96 116.19 52.96 115.90 C 50.31 116.03 48.03 114.54 45.79 113.36 C 41.45 108.56 39.49 102.22 38.73 95.91 C 38.14 90.26 38.48 84.55 39.43 78.96 C 39.85 76.34 40.47 73.75 41.28 71.22 C 42.70 66.52 44.72 61.99 47.41 57.87 M 57.50 51.57 C 51.08 54.70 47.48 61.40 44.77 67.70 C 40.57 78.87 38.94 91.47 42.42 103.05 C 43.93 107.62 46.73 112.85 51.91 113.77 C 57.50 114.50 61.85 109.98 64.86 105.87 C 72.47 94.46 75.09 80.12 73.24 66.63 C 72.37 62.11 70.95 57.48 67.88 53.94 C 65.40 51.02 61.00 49.70 57.50 51.57 Z" />
</g>
<g id="#ffffffff">
<path fill="#ffffff" opacity="1.00" d=" M 57.50 51.57 C 61.00 49.70 65.40 51.02 67.88 53.94 C 70.95 57.48 72.37 62.11 73.24 66.63 C 75.09 80.12 72.47 94.46 64.86 105.87 C 61.85 109.98 57.50 114.50 51.91 113.77 C 46.73 112.85 43.93 107.62 42.42 103.05 C 38.94 91.47 40.57 78.87 44.77 67.70 C 47.48 61.40 51.08 54.70 57.50 51.57 M 62.31 68.28 C 57.50 71.38 56.12 77.68 56.17 83.05 C 56.29 87.29 57.34 92.36 61.34 94.62 C 64.42 96.38 67.87 94.01 69.57 91.43 C 73.35 85.53 73.78 77.59 70.75 71.29 C 69.33 68.26 65.34 66.18 62.31 68.28 Z" />
</g>
<g id="#96e78dff">
<path fill="#96e78d" opacity="1.00" d=" M 19.13 56.37 L 19.31 56.39 C 28.60 58.06 38.15 55.82 47.41 57.87 C 44.72 61.99 42.70 66.52 41.28 71.22 C 40.29 70.12 39.85 68.00 38.03 68.08 C 29.74 67.43 21.31 68.95 13.10 67.25 C 14.88 63.50 16.99 59.92 19.13 56.37 Z" />
</g>
<g id="#91e587ff">
<path fill="#91e587" opacity="1.00" d=" M 74.64 62.87 C 80.64 61.20 86.89 62.26 93.02 61.99 C 126.68 61.95 160.35 62.00 194.01 61.97 C 204.55 62.16 215.11 61.62 225.64 62.32 L 225.83 62.33 C 228.15 67.09 230.78 71.74 232.41 76.79 C 232.37 77.20 232.27 78.03 232.22 78.45 C 229.95 77.45 227.51 76.84 225.01 76.98 C 203.11 77.24 181.20 76.80 159.30 77.22 C 160.95 74.52 162.88 71.05 161.10 67.93 C 159.33 64.77 155.24 64.74 152.07 64.59 C 141.01 64.32 130.23 67.75 120.28 72.31 C 112.55 75.97 104.95 80.17 98.55 85.91 C 90.92 83.76 82.92 85.09 75.12 85.12 C 76.07 77.75 76.26 70.16 74.64 62.87 Z" />
</g>
<g id="#8ee384ff">
<path fill="#8ee384" opacity="1.00" d=" M 8.20 78.54 C 9.59 74.68 11.22 70.88 13.10 67.25 C 21.31 68.95 29.74 67.43 38.03 68.08 C 39.85 68.00 40.29 70.12 41.28 71.22 C 40.47 73.75 39.85 76.34 39.43 78.96 C 38.98 79.31 38.08 80.00 37.64 80.35 C 29.43 79.78 21.21 80.21 13.00 80.13 C 11.23 80.26 9.61 79.54 8.20 78.54 Z" />
</g>
<g id="#0e4e91ff">
<path fill="#0e4e91" opacity="1.00" d=" M 62.31 68.28 C 65.34 66.18 69.33 68.26 70.75 71.29 C 73.78 77.59 73.35 85.53 69.57 91.43 C 67.87 94.01 64.42 96.38 61.34 94.62 C 57.34 92.36 56.29 87.29 56.17 83.05 C 56.12 77.68 57.50 71.38 62.31 68.28 Z" />
</g>
<g id="#86de7cff">
<path fill="#86de7c" opacity="1.00" d=" M 90.22 97.28 C 103.12 83.85 120.59 75.26 138.92 72.43 C 143.64 72.05 149.12 71.83 153.07 74.88 C 153.64 80.71 148.50 84.72 145.61 89.18 C 150.72 85.89 155.44 81.93 159.30 77.22 C 181.20 76.80 203.11 77.24 225.01 76.98 C 227.51 76.84 229.95 77.45 232.22 78.45 C 232.27 78.03 232.37 77.20 232.41 76.79 C 234.87 82.39 236.57 88.32 237.84 94.30 C 237.52 94.22 236.89 94.06 236.58 93.99 C 230.52 92.35 224.21 93.37 218.03 93.12 C 211.17 92.86 204.23 93.77 197.45 92.41 C 197.87 90.61 200.31 88.19 198.00 86.83 C 192.30 90.58 187.26 95.26 181.52 98.97 C 179.08 98.27 176.57 97.74 174.02 97.80 C 148.33 97.98 122.64 97.74 96.95 97.94 C 94.69 97.92 92.45 97.62 90.22 97.28 Z" />
</g>
<g id="#85dd7aff">
<path fill="#85dd7a" opacity="1.00" d=" M 8.04 78.44 L 8.20 78.54 C 9.61 79.54 11.23 80.26 13.00 80.13 C 21.21 80.21 29.43 79.78 37.64 80.35 C 38.08 80.00 38.98 79.31 39.43 78.96 C 38.48 84.55 38.14 90.26 38.73 95.91 C 38.46 96.28 37.92 97.02 37.65 97.39 C 26.68 96.56 15.65 97.01 4.65 97.11 C 3.87 98.53 3.06 99.95 2.30 101.39 C 3.04 93.49 5.70 85.97 8.04 78.44 Z" />
</g>
<g id="#83dd79ff">
<path fill="#83dd79" opacity="1.00" d=" M 72.48 95.71 C 73.50 92.21 74.49 88.71 75.12 85.12 C 82.92 85.09 90.92 83.76 98.55 85.91 C 95.16 89.23 92.05 92.85 89.46 96.83 C 83.97 95.87 77.99 95.02 72.76 97.48 C 72.69 97.04 72.55 96.15 72.48 95.71 Z" />
</g>
<g id="#188240ff">
<path fill="#188240" opacity="1.00" d=" M 181.52 98.97 C 187.26 95.26 192.30 90.58 198.00 86.83 C 200.31 88.19 197.87 90.61 197.45 92.41 C 193.69 100.05 190.26 107.84 186.61 115.54 C 183.46 122.06 180.59 128.70 177.48 135.24 C 174.75 141.04 172.19 146.92 169.55 152.77 C 167.03 157.86 164.84 163.11 162.53 168.29 C 160.07 173.55 157.93 178.96 155.53 184.25 C 152.42 191.02 149.38 197.83 145.63 204.28 C 141.17 211.91 135.71 219.18 128.24 224.11 C 121.49 227.58 113.64 229.44 106.10 227.80 C 101.85 226.80 97.85 224.96 93.97 223.00 C 87.96 219.17 82.09 215.10 76.50 210.67 C 68.78 203.99 61.51 196.81 54.75 189.17 C 51.55 185.34 48.60 181.31 45.80 177.18 C 41.85 170.87 38.63 164.15 35.77 157.28 C 33.18 150.93 31.24 144.33 29.33 137.75 C 28.76 134.93 28.12 132.12 27.57 129.30 C 27.41 128.43 27.10 126.70 26.95 125.84 C 41.05 131.06 55.99 133.82 70.99 134.59 C 83.68 135.00 96.50 134.69 108.98 132.14 C 126.45 128.71 143.17 121.96 158.64 113.24 C 166.54 108.94 174.25 104.27 181.52 98.97 M 114.60 133.44 C 99.36 137.20 83.54 137.52 67.94 136.81 C 55.04 136.19 42.39 133.29 30.01 129.79 C 33.93 147.84 40.32 165.70 51.22 180.77 C 58.89 190.98 67.86 200.18 77.58 208.44 C 79.22 209.88 81.00 211.13 82.85 212.28 C 88.36 217.40 95.09 221.09 101.96 224.08 C 112.51 228.61 125.23 225.08 133.11 217.06 C 142.48 207.65 147.81 195.21 153.32 183.34 C 154.81 179.54 157.24 175.96 157.53 171.80 L 158.00 172.46 C 169.25 147.08 180.96 121.91 192.71 96.77 C 193.28 95.47 193.77 94.14 194.26 92.82 C 170.35 110.77 143.92 126.40 114.60 133.44 Z" />
</g>
<g id="#79d76eff">
<path fill="#79d76e" opacity="1.00" d=" M 186.61 115.54 C 190.26 107.84 193.69 100.05 197.45 92.41 C 204.23 93.77 211.17 92.86 218.03 93.12 C 224.21 93.37 230.52 92.35 236.58 93.99 C 236.89 94.06 237.52 94.22 237.84 94.30 L 237.84 94.30 C 239.80 102.57 240.80 111.07 240.72 119.58 C 239.91 118.10 239.07 116.64 238.25 115.18 C 225.84 114.83 213.41 115.07 200.99 115.03 C 196.19 114.91 191.38 114.95 186.61 115.54 Z" />
<path fill="#79d76e" opacity="1.00" d=" M 37.65 97.39 C 37.92 97.02 38.46 96.28 38.73 95.91 C 39.49 102.22 41.45 108.56 45.79 113.36 C 42.33 112.29 38.68 111.91 35.07 111.98 C 26.05 112.15 17.02 111.97 7.99 111.93 C 5.87 111.83 3.86 112.53 1.94 113.34 C 1.76 112.99 1.41 112.31 1.23 111.97 C 0.95 108.43 1.41 104.82 2.30 101.39 C 3.06 99.95 3.87 98.53 4.65 97.11 C 15.65 97.01 26.68 96.56 37.65 97.39 Z" />
<path fill="#79d76e" opacity="1.00" d=" M 63.26 111.25 C 67.52 106.87 70.28 101.34 72.48 95.71 C 72.55 96.15 72.69 97.04 72.76 97.48 C 77.99 95.02 83.97 95.87 89.46 96.83 C 89.13 97.39 88.46 98.50 88.12 99.06 C 88.81 98.45 89.51 97.86 90.22 97.28 C 92.45 97.62 94.69 97.92 96.95 97.94 C 122.64 97.74 148.33 97.98 174.02 97.80 C 176.57 97.74 179.08 98.27 181.52 98.97 C 174.25 104.27 166.54 108.94 158.64 113.24 C 156.80 112.66 154.94 111.99 152.99 111.98 C 125.64 112.12 98.29 111.95 70.94 112.09 C 68.36 112.13 65.79 111.75 63.26 111.25 Z" />
</g>
<g id="#6dd061ff">
<path fill="#6dd061" opacity="1.00" d=" M 52.96 115.90 C 56.96 116.19 60.41 113.76 63.26 111.25 C 65.79 111.75 68.36 112.13 70.94 112.09 C 98.29 111.95 125.64 112.12 152.99 111.98 C 154.94 111.99 156.80 112.66 158.64 113.24 C 143.17 121.96 126.45 128.71 108.98 132.14 C 96.50 134.69 83.68 135.00 70.99 134.59 C 55.99 133.82 41.05 131.06 26.95 125.84 C 27.10 126.70 27.41 128.43 27.57 129.30 C 21.65 126.98 15.23 128.30 9.06 127.90 C 6.15 127.60 3.33 128.38 0.86 129.92 C 0.43 123.70 0.40 117.45 0.86 111.23 L 1.23 111.97 C 1.41 112.31 1.76 112.99 1.94 113.34 C 3.86 112.53 5.87 111.83 7.99 111.93 C 17.02 111.97 26.05 112.15 35.07 111.98 C 38.68 111.91 42.33 112.29 45.79 113.36 C 48.03 114.54 50.31 116.03 52.96 115.90 Z" />
</g>
<g id="#6ace5dff">
<path fill="#6ace5d" opacity="1.00" d=" M 186.61 115.54 C 191.38 114.95 196.19 114.91 200.99 115.03 C 213.41 115.07 225.84 114.83 238.25 115.18 C 239.07 116.64 239.91 118.10 240.72 119.58 C 240.89 126.58 240.35 133.58 239.13 140.47 C 238.61 139.01 238.05 137.57 237.50 136.12 C 220.02 135.67 202.51 136.01 185.02 135.97 C 182.59 135.65 179.39 137.33 177.48 135.24 C 180.59 128.70 183.46 122.06 186.61 115.54 Z" />
</g>
<g id="#64cb57ff">
<path fill="#64cb57" opacity="1.00" d=" M 0.86 129.92 C 3.33 128.38 6.15 127.60 9.06 127.90 C 15.23 128.30 21.65 126.98 27.57 129.30 C 28.12 132.12 28.76 134.93 29.33 137.75 C 29.28 138.17 29.18 139.01 29.13 139.42 C 27.17 138.62 25.12 137.93 22.96 138.05 C 16.81 138.13 10.66 138.06 4.51 138.23 C 3.95 139.93 3.34 141.62 2.84 143.34 C 1.82 138.93 1.39 134.41 0.86 129.92 Z" />
</g>
<g id="#5cc74fff">
<path fill="#5cc74f" opacity="1.00" d=" M 169.55 152.77 C 172.19 146.92 174.75 141.04 177.48 135.24 C 179.39 137.33 182.59 135.65 185.02 135.97 C 202.51 136.01 220.02 135.67 237.50 136.12 C 238.05 137.57 238.61 139.01 239.13 140.47 C 238.37 144.69 237.47 148.88 236.41 153.03 C 214.13 152.73 191.83 153.29 169.55 152.77 Z" />
</g>
<g id="#59c54cff">
<path fill="#59c54c" opacity="1.00" d=" M 4.51 138.23 C 10.66 138.06 16.81 138.13 22.96 138.05 C 25.12 137.93 27.17 138.62 29.13 139.42 C 29.18 139.01 29.28 138.17 29.33 137.75 C 31.24 144.33 33.18 150.93 35.77 157.28 C 27.34 159.15 18.66 157.24 10.16 158.23 C 9.02 158.96 8.43 160.25 7.65 161.31 C 5.73 155.42 3.66 149.51 2.84 143.34 C 3.34 141.62 3.95 139.93 4.51 138.23 Z" />
</g>
<g id="#50c043ff">
<path fill="#50c043" opacity="1.00" d=" M 162.53 168.29 C 164.84 163.11 167.03 157.86 169.55 152.77 C 191.83 153.29 214.13 152.73 236.41 153.03 C 234.76 158.42 232.96 163.76 230.67 168.92 C 223.59 167.14 216.25 168.33 209.04 167.99 C 193.54 168.22 178.02 167.63 162.53 168.29 Z" />
</g>
<g id="#4bbd3dff">
<path fill="#4bbd3d" opacity="1.00" d=" M 35.77 157.28 C 38.63 164.15 41.85 170.87 45.80 177.18 C 35.84 179.23 25.53 176.60 15.56 178.72 C 12.50 173.12 9.79 167.32 7.65 161.31 C 8.43 160.25 9.02 158.96 10.16 158.23 C 18.66 157.24 27.34 159.15 35.77 157.28 Z" />
</g>
<g id="#f05443ff">
<path fill="#f05443" opacity="1.00" d=" M 121.19 181.41 C 128.44 174.29 137.04 166.27 147.96 166.82 C 151.79 166.60 155.97 167.98 157.53 171.80 C 157.24 175.96 154.81 179.54 153.32 183.34 C 147.81 195.21 142.48 207.65 133.11 217.06 C 125.23 225.08 112.51 228.61 101.96 224.08 C 95.09 221.09 88.36 217.40 82.85 212.28 C 82.16 209.67 82.11 206.86 83.33 204.40 C 88.21 193.07 97.80 184.44 108.20 178.19 C 111.42 176.50 115.02 174.25 118.79 175.29 C 121.22 176.28 120.78 179.31 121.19 181.41 Z" />
</g>
<g id="#46bb38ff">
<path fill="#46bb38" opacity="1.00" d=" M 155.53 184.25 C 157.93 178.96 160.07 173.55 162.53 168.29 C 178.02 167.63 193.54 168.22 209.04 167.99 C 216.25 168.33 223.59 167.14 230.67 168.92 C 228.24 174.38 225.40 179.67 222.23 184.74 C 219.17 184.20 216.07 183.84 212.95 183.93 C 193.81 184.29 174.66 183.62 155.53 184.25 Z" />
</g>
<g id="#41b833ff">
<path fill="#41b833" opacity="1.00" d=" M 45.80 177.18 C 48.60 181.31 51.55 185.34 54.75 189.17 C 44.04 189.56 33.22 188.19 22.59 189.82 C 20.02 186.26 17.67 182.56 15.56 178.72 C 25.53 176.60 35.84 179.23 45.80 177.18 Z" />
</g>
<g id="#3bb52dff">
<path fill="#3bb52d" opacity="1.00" d=" M 145.63 204.28 C 149.38 197.83 152.42 191.02 155.53 184.25 C 174.66 183.62 193.81 184.29 212.95 183.93 C 216.07 183.84 219.17 184.20 222.23 184.74 C 217.03 193.04 210.70 200.59 203.71 207.44 C 203.63 206.31 203.56 205.18 203.49 204.06 C 184.21 204.00 164.91 203.70 145.63 204.28 Z" />
</g>
<g id="#37b228ff">
<path fill="#37b228" opacity="1.00" d=" M 22.59 189.82 C 33.22 188.19 44.04 189.56 54.75 189.17 C 61.51 196.81 68.78 203.99 76.50 210.67 C 67.34 211.28 58.16 210.81 48.99 210.91 C 46.93 210.92 44.95 211.49 42.99 212.05 L 42.90 212.07 C 35.22 205.55 28.34 198.09 22.59 189.82 Z" />
</g>
<g id="#30af21ff">
<path fill="#30af21" opacity="1.00" d=" M 128.24 224.11 C 135.71 219.18 141.17 211.91 145.63 204.28 C 164.91 203.70 184.21 204.00 203.49 204.06 C 203.56 205.18 203.63 206.31 203.71 207.44 C 195.80 214.63 187.17 221.60 177.55 226.14 C 172.91 224.34 167.91 224.97 163.06 224.94 C 157.04 224.95 151.02 224.98 145.00 224.94 C 139.41 224.84 133.73 225.52 128.24 224.11 Z" />
</g>
<g id="#2fae20ff">
<path fill="#2fae20" opacity="1.00" d=" M 42.99 212.05 C 44.95 211.49 46.93 210.92 48.99 210.91 C 58.16 210.81 67.34 211.28 76.50 210.67 C 82.09 215.10 87.96 219.17 93.97 223.00 C 83.52 225.95 72.27 221.92 61.90 225.19 L 61.77 225.23 C 55.11 221.45 48.68 217.18 42.99 212.05 Z" />
</g>
<g id="#29ab1aff">
<path fill="#29ab1a" opacity="1.00" d=" M 93.97 223.00 C 97.85 224.96 101.85 226.80 106.10 227.80 C 113.64 229.44 121.49 227.58 128.24 224.11 C 133.73 225.52 139.41 224.84 145.00 224.94 C 151.02 224.98 157.04 224.95 163.06 224.94 C 167.91 224.97 172.91 224.34 177.55 226.14 C 142.44 245.98 96.73 245.45 61.90 225.19 C 72.27 221.92 83.52 225.95 93.97 223.00 Z" />
</g>
</svg>
