<?xml version="1.0" encoding="UTF-8"?>
<svg baseProfile="tiny" version="1.1" viewBox="0 0 640 170" xml:space="preserve" xmlns="http://www.w3.org/2000/svg">
<g id="full-logo"><path id="logo" d="m0 167.5v-140.7h111.3c20.6 0 36.4 1.1 47.3 3.5 10.9 2.3 19.7 6.6 26.4 12.8s10 13.8 10 22.8c0 7.8-2.6 14.5-7.7 20.2s-12.2 10.3-21.1 13.8c-5.7 2.3-11.5 3.8-21.4 5.2 16.4 16.5 35.2 37.4 55.7 62.4h-63.5c-11.9-15.3-31.1-37.5-45.9-57.2h-24.2v57.2h-66.9zm67.1-79.8h37.4c7.9 0 14.2-0.7 18.6-2.2 4.5-1.5 7.9-3.9 10.2-7.1s3.5-6.8 3.5-10.6c0-5.6-2.2-10.2-6.8-13.9-4.5-3.6-11.6-5.4-21.4-5.4h-41.5v39.2zm155.3 33.3l63.6-2.6c1.4 6.7 4.2 11.8 8.4 15.4 6.8 5.7 16.7 8.5 29.5 8.5 9.5 0 16.9-1.4 22-4.4 5.1-2.9 7.7-6.3 7.7-10.1 0-3.6-2.4-6.9-7.3-9.8s-16.3-5.6-34.2-8.2c-29.3-4.3-50.2-10-62.7-17.1-12.6-7.1-18.9-16.2-18.9-27.2 0-7.2 3.2-14.1 9.7-20.5 6.4-6.4 16.1-11.5 29-15.2s30.7-5.5 53.2-5.5c27.6 0 48.7 3.3 63.2 10s23.1 17.3 25.9 31.9l-63 2.4c-1.7-6.3-5.2-10.9-10.6-13.8-5.3-2.9-12.7-4.3-22.1-4.3-7.8 0-13.6 1-17.6 3.2-3.9 2.1-5.9 4.8-5.9 7.8 0 2.2 1.6 4.2 4.8 6 3.2 1.9 10.6 3.6 22.4 5.2 29.2 4.1 50.1 8.3 62.7 12.4 12.6 4.2 21.8 9.4 27.6 15.6 5.7 6.2 8.7 13.1 8.7 20.8 0 9-3.9 17.3-11.5 24.9-7.7 7.6-18.4 13.4-32.2 17.3-13.7 3.9-31.1 5.9-52 5.9-36.7 0-62.2-4.6-76.4-13.8-14.2-8.9-22.2-20.6-24-34.8zm214.6-94.2h203v34.8h-68.2v106h-66.8v-106h-68v-34.8z" fill="#f00"/>
<text id="ua" x="580" y="22" font-family="Arial,sans-serif" font-size="2.5em">.ua</text></g>
</svg>