<?xml version="1.0" encoding="UTF-8" ?>
<!DOCTYPE svg PUBLIC "-//W3C//DTD SVG 1.1//EN" "http://www.w3.org/Graphics/SVG/1.1/DTD/svg11.dtd">
<svg width="121pt" height="116pt" viewBox="0 0 121 116" version="1.1" xmlns="http://www.w3.org/2000/svg">
<g id="#ffd800ff">
<path fill="#ffd800" opacity="1.00" d=" M 0.00 43.98 C 20.24 29.38 40.40 14.65 60.80 0.28 C 80.82 15.11 101.16 29.53 120.99 44.62 C 113.42 68.30 105.44 91.86 97.77 115.51 C 72.80 115.74 47.82 115.33 22.85 115.33 C 15.06 91.70 7.64 67.95 0.00 44.26 L 0.00 43.98 M 11.51 48.02 C 15.81 61.28 20.00 74.58 24.47 87.78 C 24.42 87.36 24.34 86.53 24.29 86.12 C 26.74 81.39 31.55 78.47 34.90 74.41 C 34.35 72.88 32.45 70.78 34.36 69.45 C 35.77 67.96 37.80 69.32 39.08 70.26 C 40.82 68.83 42.16 66.17 44.71 66.31 C 47.85 68.02 50.23 70.86 53.44 72.48 C 58.41 75.43 64.78 76.56 70.08 73.79 C 62.76 66.35 55.66 58.72 48.48 51.15 C 46.03 53.48 43.62 55.84 41.05 58.03 C 37.85 54.69 34.73 51.27 31.56 47.89 C 35.95 42.78 41.29 38.54 46.27 34.02 C 52.59 33.38 59.05 33.79 65.41 33.91 C 62.56 38.19 58.10 41.05 54.80 44.97 C 62.65 52.30 70.33 59.81 78.11 67.22 C 81.72 61.55 82.42 54.42 80.99 47.95 C 79.24 38.97 72.72 31.37 64.69 27.25 C 63.55 26.54 62.03 26.07 61.63 24.60 C 66.22 24.53 70.89 24.97 75.16 26.77 C 82.96 29.87 88.77 37.10 90.73 45.19 C 93.40 55.28 92.63 66.81 86.45 75.52 C 89.68 78.77 93.28 81.65 96.09 85.29 C 97.29 90.19 91.61 94.09 87.37 91.59 C 83.82 88.95 81.19 85.31 78.01 82.26 C 67.83 87.35 53.68 86.96 45.90 77.81 C 46.17 79.17 46.99 81.78 44.96 82.20 C 43.24 83.19 41.91 81.03 40.70 80.12 C 37.07 83.84 33.34 87.46 29.70 91.16 C 27.95 91.16 26.66 89.99 25.19 89.24 C 26.16 94.85 28.56 100.17 30.21 105.62 C 50.35 105.58 70.50 105.65 90.64 105.67 C 96.96 86.49 103.15 67.27 109.40 48.07 C 93.10 36.16 76.78 24.27 60.45 12.41 C 44.15 24.30 27.78 36.09 11.51 48.02 M 45.90 77.81 C 45.30 77.28 45.30 77.28 45.90 77.81 Z" />
</g>
<g id="#a60000ff">
<path fill="#a60000" opacity="1.00" d=" M 11.51 48.02 C 27.78 36.09 44.15 24.30 60.45 12.41 C 76.78 24.27 93.10 36.16 109.40 48.07 C 103.15 67.27 96.96 86.49 90.64 105.67 C 70.50 105.65 50.35 105.58 30.21 105.62 C 28.56 100.17 26.16 94.85 25.19 89.24 C 26.66 89.99 27.95 91.16 29.70 91.16 C 33.34 87.46 37.07 83.84 40.70 80.12 C 41.91 81.03 43.24 83.19 44.96 82.20 C 46.99 81.78 46.17 79.17 45.90 77.81 C 53.68 86.96 67.83 87.35 78.01 82.26 C 81.19 85.31 83.82 88.95 87.37 91.59 C 91.61 94.09 97.29 90.19 96.09 85.29 C 93.28 81.65 89.68 78.77 86.45 75.52 C 92.63 66.81 93.40 55.28 90.73 45.19 C 88.77 37.10 82.96 29.87 75.16 26.77 C 70.89 24.97 66.22 24.53 61.63 24.60 C 62.03 26.07 63.55 26.54 64.69 27.25 C 72.72 31.37 79.24 38.97 80.99 47.95 C 82.42 54.42 81.72 61.55 78.11 67.22 C 70.33 59.81 62.65 52.30 54.80 44.97 C 58.10 41.05 62.56 38.19 65.41 33.91 C 59.05 33.79 52.59 33.38 46.27 34.02 C 41.29 38.54 35.95 42.78 31.56 47.89 C 34.73 51.27 37.85 54.69 41.05 58.03 C 43.62 55.84 46.03 53.48 48.48 51.15 C 55.66 58.72 62.76 66.35 70.08 73.79 C 64.78 76.56 58.41 75.43 53.44 72.48 C 50.23 70.86 47.85 68.02 44.71 66.31 C 42.16 66.17 40.82 68.83 39.08 70.26 C 37.80 69.32 35.77 67.96 34.36 69.45 C 32.45 70.78 34.35 72.88 34.90 74.41 C 31.55 78.47 26.74 81.39 24.29 86.12 C 24.34 86.53 24.42 87.36 24.47 87.78 C 20.00 74.58 15.81 61.28 11.51 48.02 Z" />
<path fill="#a60000" opacity="1.00" d=" M 45.90 77.81 C 45.30 77.28 45.30 77.28 45.90 77.81 Z" />
</g>
</svg>
