<?xml version="1.0" encoding="UTF-8" ?>
<!DOCTYPE svg PUBLIC "-//W3C//DTD SVG 1.1//EN" "http://www.w3.org/Graphics/SVG/1.1/DTD/svg11.dtd">
<svg width="128pt" height="128pt" viewBox="0 0 128 128" version="1.1" xmlns="http://www.w3.org/2000/svg">
<g id="#e84b0aff">
<path fill="#e84b0a" opacity="1.00" d=" M 84.63 7.55 C 87.03 4.77 89.96 2.24 93.49 1.06 C 93.46 2.03 93.41 3.98 93.38 4.95 C 94.33 4.17 95.39 3.63 96.55 3.33 C 97.24 6.37 95.99 9.43 95.73 12.47 C 99.12 14.55 104.48 14.80 105.80 19.15 C 106.58 22.13 110.15 23.24 111.04 26.08 C 110.55 31.11 106.93 37.07 101.05 35.87 C 99.30 37.94 95.36 40.36 97.61 43.42 C 100.31 48.07 101.06 53.57 101.05 58.86 C 100.03 63.34 96.90 66.94 95.16 71.14 C 92.95 76.11 93.14 81.68 93.14 87.00 C 93.21 97.99 94.90 109.10 99.82 119.03 C 101.41 118.84 103.19 118.23 104.56 119.45 C 105.25 121.30 105.74 123.74 104.63 125.49 C 100.55 126.36 95.32 125.92 92.90 122.04 C 91.83 119.52 91.47 116.76 90.62 114.16 C 88.61 107.14 84.98 100.72 82.95 93.72 L 81.69 93.85 C 81.66 100.81 83.17 108.31 79.82 114.77 C 78.28 117.92 75.10 119.64 72.07 121.06 C 74.75 120.92 77.59 121.32 80.10 120.13 C 81.90 119.45 84.49 118.07 85.99 120.02 C 87.66 121.99 86.47 124.65 86.09 126.87 C 71.68 126.60 57.25 127.21 42.85 126.59 C 34.30 125.50 24.42 125.59 17.84 119.14 C 13.67 115.27 13.36 109.12 14.57 103.90 C 16.85 95.27 20.89 87.25 24.11 78.96 C 25.72 73.05 28.51 67.19 27.69 60.90 C 27.44 58.15 26.35 54.59 23.17 54.11 C 21.38 54.64 19.24 55.72 19.23 57.88 C 18.75 59.96 19.21 62.78 16.92 63.91 C 13.52 65.07 10.89 61.00 11.71 58.01 C 13.28 53.14 18.86 49.84 23.87 50.90 C 29.23 52.16 31.51 58.07 31.85 63.02 C 30.69 79.38 19.33 93.89 21.47 110.67 C 22.80 117.81 31.06 119.82 37.28 119.42 C 32.35 104.53 29.44 87.63 35.80 72.70 C 41.64 60.00 53.77 51.75 66.13 46.14 C 70.12 44.68 67.35 39.77 68.92 36.77 C 69.61 33.90 72.38 32.62 74.69 31.25 C 74.02 27.89 73.99 24.19 75.89 21.20 C 78.28 17.40 81.75 14.43 85.15 11.56 C 84.69 10.28 83.53 8.84 84.63 7.55 Z" />
</g>
</svg>
