<?xml version="1.0" encoding="UTF-8" ?>
<!DOCTYPE svg PUBLIC "-//W3C//DTD SVG 1.1//EN" "http://www.w3.org/Graphics/SVG/1.1/DTD/svg11.dtd">
<svg width="278pt" height="278pt" viewBox="0 0 278 278" version="1.1" xmlns="http://www.w3.org/2000/svg">
<g id="#102653ff">
<path fill="#102653" opacity="1.00" d=" M 121.02 2.27 C 146.03 -0.99 171.97 2.58 195.01 12.94 C 225.69 26.49 251.01 51.65 264.77 82.24 C 276.25 107.45 279.76 136.24 274.76 163.47 C 273.01 164.55 271.11 165.62 268.99 165.55 C 236.64 165.57 204.28 165.53 171.94 165.57 C 170.20 165.59 168.57 164.92 166.95 164.39 C 171.71 161.08 176.41 157.68 181.14 154.33 C 194.18 154.44 207.28 149.83 216.94 140.99 C 227.30 131.67 233.63 117.94 233.68 103.98 C 234.01 89.41 227.61 74.87 216.71 65.21 C 204.60 54.13 186.92 49.29 170.93 53.25 C 148.98 57.91 131.52 78.53 131.16 101.06 C 131.46 104.35 128.93 106.72 127.27 109.25 C 117.72 122.91 108.14 136.55 98.63 150.24 C 90.30 149.89 82.33 152.67 75.13 156.57 C 50.50 146.88 26.09 136.55 1.48 126.78 C 4.03 98.86 15.18 71.79 33.31 50.38 C 55.19 24.17 87.10 6.48 121.02 2.27 Z" />
<path fill="#102653" opacity="1.00" d=" M 175.48 69.79 C 183.10 68.39 191.30 69.24 198.15 73.00 C 207.42 77.77 214.28 87.04 215.95 97.36 C 217.78 107.44 214.69 118.18 207.91 125.83 C 198.60 136.62 182.28 140.29 169.20 134.70 C 158.73 130.41 150.76 120.56 148.77 109.41 C 147.69 102.44 148.28 95.03 151.49 88.67 C 155.92 79.07 165.11 71.83 175.48 69.79 M 176.11 78.25 C 163.29 81.23 154.25 95.17 157.15 108.09 C 159.35 120.39 171.50 129.94 184.01 128.80 C 198.65 128.39 210.59 113.47 207.78 99.09 C 205.86 84.69 190.13 74.22 176.11 78.25 Z" />
<path fill="#102653" opacity="1.00" d=" M 86.39 162.25 C 98.57 157.56 113.53 162.34 120.51 173.42 C 124.31 179.31 126.03 186.54 125.01 193.50 C 124.92 191.03 124.40 188.61 123.69 186.25 C 121.96 186.24 120.24 186.22 118.51 186.21 C 117.83 188.59 117.16 190.97 116.36 193.32 C 118.19 184.13 113.46 174.12 105.00 170.01 C 98.88 167.23 92.60 164.81 86.39 162.25 Z" />
</g>
<g id="#ffffffff">
<path fill="#ffffff" opacity="1.00" d=" M 170.93 53.25 C 186.92 49.29 204.60 54.13 216.71 65.21 C 227.61 74.87 234.01 89.41 233.68 103.98 C 233.63 117.94 227.30 131.67 216.94 140.99 C 207.28 149.83 194.18 154.44 181.14 154.33 C 176.41 157.68 171.71 161.08 166.95 164.39 C 157.20 171.11 147.65 178.14 137.91 184.89 C 137.03 185.57 136.04 186.15 135.38 187.06 C 134.80 191.33 134.99 195.73 133.69 199.88 C 129.67 213.65 117.19 224.34 103.13 226.79 C 87.64 229.57 70.77 221.59 63.30 207.69 C 61.37 204.27 60.23 200.49 59.17 196.73 C 41.36 189.23 23.51 181.80 5.63 174.47 C 1.95 162.70 1.01 150.25 0.93 137.98 C 0.95 134.24 1.10 130.50 1.48 126.78 C 26.09 136.55 50.50 146.88 75.13 156.57 C 82.33 152.67 90.30 149.89 98.63 150.24 C 108.14 136.55 117.72 122.91 127.27 109.25 C 128.93 106.72 131.46 104.35 131.16 101.06 C 131.52 78.53 148.98 57.91 170.93 53.25 M 175.48 69.79 C 165.11 71.83 155.92 79.07 151.49 88.67 C 148.28 95.03 147.69 102.44 148.77 109.41 C 150.76 120.56 158.73 130.41 169.20 134.70 C 182.28 140.29 198.60 136.62 207.91 125.83 C 214.69 118.18 217.78 107.44 215.95 97.36 C 214.28 87.04 207.42 77.77 198.15 73.00 C 191.30 69.24 183.10 68.39 175.48 69.79 M 86.39 162.25 C 92.60 164.81 98.88 167.23 105.00 170.01 C 113.46 174.12 118.19 184.13 116.36 193.32 C 114.83 198.98 111.41 204.24 106.29 207.24 C 100.70 210.76 93.40 211.23 87.32 208.74 C 81.66 206.46 76.06 204.01 70.38 201.78 C 75.35 212.04 86.60 218.90 98.04 218.03 C 111.34 217.58 123.25 206.65 125.01 193.50 C 126.03 186.54 124.31 179.31 120.51 173.42 C 113.53 162.34 98.57 157.56 86.39 162.25 Z" />
<path fill="#ffffff" opacity="1.00" d=" M 176.11 78.25 C 190.13 74.22 205.86 84.69 207.78 99.09 C 210.59 113.47 198.65 128.39 184.01 128.80 C 171.50 129.94 159.35 120.39 157.15 108.09 C 154.25 95.17 163.29 81.23 176.11 78.25 Z" />
</g>
<g id="#146093ff">
<path fill="#146093" opacity="1.00" d=" M 268.99 165.55 C 271.11 165.62 273.01 164.55 274.76 163.47 C 269.24 194.94 252.21 224.17 227.72 244.66 C 206.99 262.18 180.96 273.42 153.93 276.19 C 123.24 279.65 91.42 272.37 65.39 255.71 C 36.18 237.43 14.46 207.76 5.63 174.47 C 23.51 181.80 41.36 189.23 59.17 196.73 C 60.23 200.49 61.37 204.27 63.30 207.69 C 70.77 221.59 87.64 229.57 103.13 226.79 C 117.19 224.34 129.67 213.65 133.69 199.88 C 134.99 195.73 134.80 191.33 135.38 187.06 C 136.04 186.15 137.03 185.57 137.91 184.89 C 147.65 178.14 157.20 171.11 166.95 164.39 C 168.57 164.92 170.20 165.59 171.94 165.57 C 204.28 165.53 236.64 165.57 268.99 165.55 Z" />
<path fill="#146093" opacity="1.00" d=" M 116.36 193.32 C 117.16 190.97 117.83 188.59 118.51 186.21 C 120.24 186.22 121.96 186.24 123.69 186.25 C 124.40 188.61 124.92 191.03 125.01 193.50 C 123.25 206.65 111.34 217.58 98.04 218.03 C 86.60 218.90 75.35 212.04 70.38 201.78 C 76.06 204.01 81.66 206.46 87.32 208.74 C 93.40 211.23 100.70 210.76 106.29 207.24 C 111.41 204.24 114.83 198.98 116.36 193.32 Z" />
</g>
</svg>
