<?xml version="1.0" encoding="UTF-8" ?>
<!DOCTYPE svg PUBLIC "-//W3C//DTD SVG 1.1//EN" "http://www.w3.org/Graphics/SVG/1.1/DTD/svg11.dtd">
<svg width="1024pt" height="1024pt" viewBox="0 0 1024 1024" version="1.1" xmlns="http://www.w3.org/2000/svg">
<g id="#4680c2ff">
<path fill="#4680c2" opacity="1.00" d=" M 322.54 0.00 L 673.69 0.00 C 724.23 0.33 775.01 2.05 824.87 10.93 C 860.36 17.41 895.87 27.85 926.37 47.66 C 948.79 62.11 967.52 82.05 980.95 105.07 C 997.51 133.43 1006.78 165.39 1012.76 197.49 C 1021.43 244.93 1023.30 293.28 1024.00 341.40 L 1024.00 683.59 C 1023.24 731.87 1021.35 780.40 1012.47 827.98 C 1005.92 862.65 995.40 897.27 975.90 927.00 C 959.93 951.62 937.27 971.63 911.29 985.18 C 876.56 1003.45 837.66 1011.89 799.04 1017.05 C 760.76 1022.05 722.14 1023.41 683.59 1024.00 L 340.45 1024.00 C 303.58 1023.43 266.64 1022.19 230.01 1017.68 C 195.57 1013.42 161.07 1006.60 129.00 992.96 C 102.44 981.71 77.90 964.92 59.53 942.50 C 36.76 915.15 23.61 881.17 15.50 846.87 C 2.82 792.13 0.68 735.65 0.00 679.68 L 0.00 344.34 C 0.43 301.53 1.99 258.61 8.14 216.19 C 12.68 185.45 19.62 154.79 32.20 126.27 C 44.22 98.77 62.48 73.72 86.50 55.52 C 109.35 37.95 136.35 26.54 163.98 18.88 C 214.72 5.02 267.59 1.88 319.93 0.31 C 320.58 0.23 321.89 0.08 322.54 0.00 M 192.18 325.31 C 185.19 325.78 177.25 327.93 173.50 334.42 C 169.32 341.98 170.98 351.01 172.47 359.08 C 177.47 383.12 185.92 406.29 195.25 428.95 C 217.91 483.00 247.56 533.91 280.94 582.00 C 291.95 597.84 303.25 613.55 316.16 627.92 C 342.03 657.19 372.68 682.47 407.24 700.83 C 440.66 718.59 478.04 729.79 516.05 730.12 C 527.48 730.14 539.02 729.89 550.21 727.38 C 556.49 725.88 563.10 723.44 567.13 718.10 C 571.00 712.94 571.30 706.20 571.30 700.01 C 571.28 679.66 571.30 659.30 571.29 638.95 C 571.37 631.99 570.99 624.82 573.06 618.08 C 574.15 614.20 577.12 610.83 581.10 609.79 C 590.57 607.21 600.72 609.17 609.38 613.47 C 624.32 620.77 637.23 631.47 649.72 642.30 C 672.52 662.14 692.26 685.11 712.73 707.26 C 720.63 715.47 728.88 724.20 739.91 728.06 C 747.30 730.76 755.25 730.05 762.95 730.13 C 785.28 730.12 807.60 730.16 829.93 730.11 C 838.01 729.90 847.18 728.06 852.33 721.23 C 857.30 714.53 856.39 705.45 854.02 697.93 C 850.42 687.42 844.37 677.96 838.16 668.82 C 827.63 653.62 815.73 639.44 803.67 625.44 C 793.52 613.90 783.56 602.16 772.57 591.40 C 762.19 580.81 751.01 570.98 741.32 559.74 C 736.46 553.64 730.78 546.41 732.53 538.08 C 734.48 530.50 739.42 524.17 743.79 517.83 C 771.01 478.53 797.75 438.76 820.89 396.88 C 829.18 381.25 837.76 365.37 841.36 347.89 C 842.49 342.24 842.07 335.61 837.81 331.29 C 832.64 326.15 824.89 325.28 817.95 325.15 C 792.96 325.12 767.97 325.13 742.98 325.14 C 733.99 325.04 724.51 327.52 718.04 334.07 C 711.28 340.51 708.84 349.79 704.88 357.95 C 686.18 398.78 664.43 438.40 637.68 474.54 C 628.40 486.81 618.77 498.96 607.09 509.07 C 600.50 514.81 593.25 521.22 584.08 521.69 C 580.16 522.17 576.71 519.40 574.84 516.20 C 571.43 510.44 571.20 503.52 571.28 497.01 C 571.30 449.00 571.29 401.00 571.29 353.00 C 571.21 345.89 570.90 338.22 566.81 332.12 C 563.12 326.70 556.17 325.09 549.99 325.15 C 511.01 325.11 472.02 325.15 433.04 325.13 C 428.90 325.07 424.65 325.89 421.16 328.18 C 415.54 331.63 412.02 338.51 413.26 345.10 C 414.28 351.22 418.64 355.94 422.34 360.65 C 428.58 368.16 434.06 376.44 437.29 385.71 C 442.06 398.90 443.24 413.08 442.82 427.01 C 442.82 458.66 442.82 490.31 442.83 521.97 C 442.73 529.60 442.93 537.40 440.82 544.80 C 439.78 548.59 437.07 552.27 432.99 552.95 C 426.09 554.67 419.61 550.69 414.37 546.67 C 404.51 538.83 396.44 529.05 388.81 519.11 C 377.33 503.92 367.20 487.76 357.77 471.24 C 336.44 433.63 318.82 393.96 304.66 353.12 C 301.75 345.17 298.48 336.80 291.88 331.16 C 285.90 326.02 277.64 325.05 270.05 325.13 C 244.10 325.25 218.13 324.90 192.18 325.31 Z" />
</g>
<g id="#ffffffff">
<path fill="#ffffff" opacity="1.00" d=" M 192.18 325.31 C 218.13 324.90 244.10 325.25 270.05 325.13 C 277.64 325.05 285.90 326.02 291.88 331.16 C 298.48 336.80 301.75 345.17 304.66 353.12 C 318.82 393.96 336.44 433.63 357.77 471.24 C 367.20 487.76 377.33 503.92 388.81 519.11 C 396.44 529.05 404.51 538.83 414.37 546.67 C 419.61 550.69 426.09 554.67 432.99 552.95 C 437.07 552.27 439.78 548.59 440.82 544.80 C 442.93 537.40 442.73 529.60 442.83 521.97 C 442.82 490.31 442.82 458.66 442.82 427.01 C 443.24 413.08 442.06 398.90 437.29 385.71 C 434.06 376.44 428.58 368.16 422.34 360.65 C 418.64 355.94 414.28 351.22 413.26 345.10 C 412.02 338.51 415.54 331.63 421.16 328.18 C 424.65 325.89 428.90 325.07 433.04 325.13 C 472.02 325.15 511.01 325.11 549.99 325.15 C 556.17 325.09 563.12 326.70 566.81 332.12 C 570.90 338.22 571.21 345.89 571.29 353.00 C 571.29 401.00 571.30 449.00 571.28 497.01 C 571.20 503.52 571.43 510.44 574.84 516.20 C 576.71 519.40 580.16 522.17 584.08 521.69 C 593.25 521.22 600.50 514.81 607.09 509.07 C 618.77 498.96 628.40 486.81 637.68 474.54 C 664.43 438.40 686.18 398.78 704.88 357.95 C 708.84 349.79 711.28 340.51 718.04 334.07 C 724.51 327.52 733.99 325.04 742.98 325.14 C 767.97 325.13 792.96 325.12 817.95 325.15 C 824.89 325.28 832.64 326.15 837.81 331.29 C 842.07 335.61 842.49 342.24 841.36 347.89 C 837.76 365.37 829.18 381.25 820.89 396.88 C 797.75 438.76 771.01 478.53 743.79 517.83 C 739.42 524.17 734.48 530.50 732.53 538.08 C 730.78 546.41 736.46 553.64 741.32 559.74 C 751.01 570.98 762.19 580.81 772.57 591.40 C 783.56 602.16 793.52 613.90 803.67 625.44 C 815.73 639.44 827.63 653.62 838.16 668.82 C 844.37 677.96 850.42 687.42 854.02 697.93 C 856.39 705.45 857.30 714.53 852.33 721.23 C 847.18 728.06 838.01 729.90 829.93 730.11 C 807.60 730.16 785.28 730.12 762.95 730.13 C 755.25 730.05 747.30 730.76 739.91 728.06 C 728.88 724.20 720.63 715.47 712.73 707.26 C 692.26 685.11 672.52 662.14 649.72 642.30 C 637.23 631.47 624.32 620.77 609.38 613.47 C 600.72 609.17 590.57 607.21 581.10 609.79 C 577.12 610.83 574.15 614.20 573.06 618.08 C 570.99 624.82 571.37 631.99 571.29 638.95 C 571.30 659.30 571.28 679.66 571.30 700.01 C 571.30 706.20 571.00 712.94 567.13 718.10 C 563.10 723.44 556.49 725.88 550.21 727.38 C 539.02 729.89 527.48 730.14 516.05 730.12 C 478.04 729.79 440.66 718.59 407.24 700.83 C 372.68 682.47 342.03 657.19 316.16 627.92 C 303.25 613.55 291.95 597.84 280.94 582.00 C 247.56 533.91 217.91 483.00 195.25 428.95 C 185.92 406.29 177.47 383.12 172.47 359.08 C 170.98 351.01 169.32 341.98 173.50 334.42 C 177.25 327.93 185.19 325.78 192.18 325.31 Z" />
</g>
</svg>
