<?xml version="1.0" encoding="UTF-8" ?>
<!DOCTYPE svg PUBLIC "-//W3C//DTD SVG 1.1//EN" "http://www.w3.org/Graphics/SVG/1.1/DTD/svg11.dtd">
<svg width="240pt" height="239pt" viewBox="0 0 240 239" version="1.1" xmlns="http://www.w3.org/2000/svg">
<g id="#0059a2ff">
<path fill="#0059a2" opacity="1.00" d=" M 113.23 0.00 L 125.15 0.00 C 130.06 1.19 135.14 1.21 140.09 2.16 C 153.92 4.58 167.37 9.40 179.44 16.59 C 175.64 19.71 172.06 23.08 168.38 26.33 C 162.83 20.70 157.41 14.95 151.96 9.23 C 142.64 17.51 133.40 25.87 124.02 34.07 C 118.52 28.04 113.04 22.00 107.46 16.05 C 90.34 31.74 72.90 47.05 55.84 62.80 C 66.84 75.05 78.01 87.13 88.97 99.41 C 84.68 103.28 80.21 106.94 75.99 110.88 C 86.83 123.15 97.81 135.30 108.66 147.56 C 104.42 151.39 100.06 155.07 95.82 158.90 C 111.05 176.52 126.97 193.55 142.36 211.04 C 150.66 203.44 158.98 195.84 167.19 188.13 C 168.34 187.09 169.50 185.98 170.96 185.39 C 172.42 188.78 175.33 191.13 177.63 193.92 C 183.09 200.33 188.85 206.49 194.19 213.00 C 176.00 226.92 154.14 236.44 131.18 238.29 L 132.75 239.00 L 108.40 239.00 C 105.71 238.19 102.94 237.69 100.16 237.32 C 70.70 232.66 43.53 216.06 25.33 192.51 C 12.82 176.40 4.57 157.03 1.65 136.85 C 1.19 133.15 1.05 129.39 0.00 125.79 L 0.00 114.09 C 0.91 110.42 1.17 106.65 1.60 102.91 C 4.59 81.53 13.62 61.06 27.31 44.38 C 45.15 22.40 71.01 7.06 98.93 2.22 C 103.66 1.23 108.57 1.37 113.23 0.00 Z" />
<path fill="#0059a2" opacity="1.00" d=" M 176.69 40.05 C 181.25 35.61 186.21 31.61 190.80 27.21 C 195.07 31.98 199.43 36.66 203.66 41.47 C 198.91 45.78 194.14 50.08 189.33 54.31 C 185.29 49.40 180.71 44.98 176.69 40.05 Z" />
<path fill="#0059a2" opacity="1.00" d=" M 129.78 49.98 C 136.87 43.56 143.72 36.81 151.27 30.94 C 157.43 38.09 163.89 44.97 170.12 52.07 C 163.15 58.55 156.03 64.87 148.92 71.20 C 142.37 64.28 136.01 57.17 129.78 49.98 Z" />
<path fill="#0059a2" opacity="1.00" d=" M 105.62 38.52 C 106.62 38.01 107.10 39.49 107.79 39.94 C 115.62 48.89 123.65 57.67 131.62 66.49 C 122.13 75.06 112.76 83.78 103.03 92.08 C 94.73 82.42 85.83 73.27 77.64 63.50 C 87.14 55.38 96.24 46.78 105.62 38.52 Z" />
<path fill="#0059a2" opacity="1.00" d=" M 194.83 81.99 C 199.59 77.91 204.13 73.57 208.87 69.48 C 213.36 73.97 217.41 78.89 221.74 83.53 C 217.25 88.02 212.20 91.91 207.72 96.41 C 203.31 91.71 198.77 87.09 194.83 81.99 Z" />
<path fill="#0059a2" opacity="1.00" d=" M 168.45 75.43 C 169.22 74.82 170.52 73.15 171.45 74.50 C 177.60 81.27 183.68 88.11 189.83 94.90 C 182.60 101.17 175.66 107.77 168.43 114.04 C 162.02 106.94 155.63 99.82 149.20 92.73 C 155.66 87.02 162.04 81.20 168.45 75.43 Z" />
<path fill="#0059a2" opacity="1.00" d=" M 97.95 112.13 C 107.35 103.55 116.86 95.11 126.28 86.55 C 134.91 95.84 143.11 105.53 151.88 114.68 C 142.83 123.68 132.86 131.79 123.58 140.58 C 114.97 131.16 106.43 121.67 97.95 112.13 Z" />
<path fill="#0059a2" opacity="1.00" d=" M 212.84 124.18 C 217.73 120.13 222.24 115.64 227.07 111.51 C 231.44 116.06 235.29 121.13 240.00 125.33 L 240.00 125.73 C 235.05 129.84 230.53 134.44 225.58 138.55 C 221.46 133.65 216.91 129.12 212.84 124.18 Z" />
<path fill="#0059a2" opacity="1.00" d=" M 167.43 137.61 C 174.57 131.27 181.69 124.92 188.70 118.45 C 195.19 125.51 201.57 132.68 207.97 139.83 C 200.83 146.19 193.81 152.68 186.62 158.98 C 180.21 151.88 173.76 144.80 167.43 137.61 Z" />
<path fill="#0059a2" opacity="1.00" d=" M 118.11 161.35 C 127.33 152.50 137.06 144.05 146.64 135.54 C 154.93 145.19 163.69 154.43 172.07 164.01 C 162.55 172.51 153.15 181.12 143.61 189.59 C 135.15 180.14 126.74 170.64 118.11 161.35 Z" />
<path fill="#0059a2" opacity="1.00" d=" M 186.17 180.53 C 193.24 174.48 199.86 167.89 207.08 162.02 C 208.85 161.99 209.65 164.08 210.86 165.11 C 216.08 171.01 221.33 176.90 226.69 182.68 C 219.62 189.16 212.54 195.63 205.29 201.91 C 198.96 194.75 192.38 187.80 186.17 180.53 Z" />
</g>
</svg>
