<?xml version="1.0" encoding="UTF-8" ?>
<!DOCTYPE svg PUBLIC "-//W3C//DTD SVG 1.1//EN" "http://www.w3.org/Graphics/SVG/1.1/DTD/svg11.dtd">
<svg width="430pt" height="430pt" viewBox="0 0 430 430" version="1.1" xmlns="http://www.w3.org/2000/svg">
<g id="#ffcc00ff">
<path fill="#ffcc00" opacity="1.00" d=" M 276.37 0.00 L 277.16 0.00 C 277.53 28.33 277.22 56.67 277.32 85.00 C 277.22 115.33 277.52 145.67 277.17 175.99 C 276.75 209.32 277.16 242.68 276.96 276.01 C 277.22 277.69 275.97 278.86 274.73 279.74 C 221.70 315.69 168.83 351.88 115.85 387.89 C 108.46 393.47 100.15 397.82 93.20 403.95 C 109.06 399.78 124.34 393.57 140.12 389.08 C 165.15 380.66 190.37 372.86 215.38 364.41 C 232.16 359.45 248.57 353.31 265.35 348.36 C 285.41 341.55 305.62 335.20 325.76 328.65 C 326.24 326.13 326.11 323.55 326.12 321.00 C 326.04 272.72 326.20 224.43 326.04 176.15 C 343.28 176.51 360.54 176.27 377.79 176.27 C 378.28 197.16 377.86 218.09 378.00 239.00 C 378.01 302.66 378.00 366.33 378.00 430.00 L 78.47 430.00 C 74.40 428.68 70.10 427.86 66.41 425.57 C 57.32 420.04 50.88 409.82 51.00 399.04 C 51.00 335.69 51.00 272.35 51.00 209.01 C 51.05 203.04 51.26 196.98 53.20 191.28 C 55.33 182.84 60.50 175.58 65.94 168.95 C 83.24 149.27 105.53 135.06 125.88 118.85 C 175.26 80.69 224.10 41.83 273.03 3.08 C 274.21 2.14 275.28 1.06 276.37 0.00 M 213.40 157.49 C 201.56 159.99 191.96 168.92 186.51 179.45 C 183.19 186.32 181.32 194.51 184.14 201.88 C 186.57 208.54 194.24 212.16 201.05 211.06 C 209.10 210.14 216.33 205.61 221.85 199.85 C 228.31 193.19 232.88 184.35 233.37 174.99 C 233.68 168.71 231.08 161.70 225.08 158.92 C 221.57 156.75 217.31 157.17 213.40 157.49 Z" />
</g>
<g id="#000000ff">
<path fill="#000000" opacity="1.00" d=" M 213.40 157.49 C 217.31 157.17 221.57 156.75 225.08 158.92 C 231.08 161.70 233.68 168.71 233.37 174.99 C 232.88 184.35 228.31 193.19 221.85 199.85 C 216.33 205.61 209.10 210.14 201.05 211.06 C 194.24 212.16 186.57 208.54 184.14 201.88 C 181.32 194.51 183.19 186.32 186.51 179.45 C 191.96 168.92 201.56 159.99 213.40 157.49 Z" />
</g>
<g id="#d6ab05ff">
<path fill="#d6ab05" opacity="1.00" d=" M 277.17 175.99 C 293.46 176.16 309.75 175.83 326.04 176.15 C 326.20 224.43 326.04 272.72 326.12 321.00 C 326.11 323.55 326.24 326.13 325.76 328.65 C 305.62 335.20 285.41 341.55 265.35 348.36 C 248.57 353.31 232.16 359.45 215.38 364.41 C 190.37 372.86 165.15 380.66 140.12 389.08 C 124.34 393.57 109.06 399.78 93.20 403.95 C 100.15 397.82 108.46 393.47 115.85 387.89 C 168.83 351.88 221.70 315.69 274.73 279.74 C 275.97 278.86 277.22 277.69 276.96 276.01 C 277.16 242.68 276.75 209.32 277.17 175.99 Z" />
</g>
</svg>
