<?xml version="1.0" encoding="UTF-8" ?>
<!DOCTYPE svg PUBLIC "-//W3C//DTD SVG 1.1//EN" "http://www.w3.org/Graphics/SVG/1.1/DTD/svg11.dtd">
<svg width="135pt" height="99pt" viewBox="0 0 135 99" version="1.1" xmlns="http://www.w3.org/2000/svg">
<g id="#3391c9ff">
<path fill="#3391c9" opacity="1.00" d=" M 43.27 0.00 L 133.17 0.00 C 130.78 2.72 128.76 5.73 126.67 8.68 C 113.24 27.60 99.73 46.45 86.32 65.38 C 84.58 67.96 82.77 70.51 80.73 72.87 C 72.20 73.20 63.66 72.96 55.12 72.97 C 66.70 55.29 78.64 37.83 90.01 20.01 C 69.71 19.93 49.42 20.09 29.12 19.95 C 33.89 13.34 38.40 6.54 43.27 0.00 Z" />
<path fill="#3391c9" opacity="1.00" d=" M 54.27 27.14 C 62.47 26.78 70.68 27.04 78.88 27.05 C 66.88 44.00 54.82 60.92 42.97 77.99 C 63.95 78.05 84.94 77.95 105.93 78.01 C 101.42 84.96 96.96 91.95 92.60 99.00 L 1.76 99.00 C 16.51 78.98 31.00 58.77 45.67 38.69 C 48.54 34.84 51.09 30.75 54.27 27.14 Z" />
</g>
</svg>
