<?xml version="1.0" encoding="UTF-8" ?>
<!DOCTYPE svg PUBLIC "-//W3C//DTD SVG 1.1//EN" "http://www.w3.org/Graphics/SVG/1.1/DTD/svg11.dtd">
<svg width="1043pt" height="231pt" viewBox="0 0 1043 231" version="1.1" xmlns="http://www.w3.org/2000/svg">
<g id="#e61948ff">
<path fill="#e61948" opacity="1.00" d=" M 106.00 0.00 L 120.37 0.00 C 122.71 0.68 125.11 1.09 127.49 1.62 C 130.57 2.52 133.64 3.49 136.59 4.75 C 137.05 4.86 137.95 5.08 138.40 5.19 C 140.47 6.25 142.55 7.28 144.67 8.25 C 149.44 11.44 154.71 14.08 158.66 18.33 C 156.88 17.74 155.14 17.03 153.43 16.27 C 152.96 16.12 152.03 15.81 151.57 15.66 C 146.98 14.47 142.15 13.24 137.44 14.54 C 136.10 14.94 134.75 15.32 133.43 15.74 C 132.95 15.83 131.99 16.01 131.52 16.10 C 126.03 19.19 120.74 22.87 116.87 27.92 C 113.42 32.54 110.13 37.33 107.69 42.58 C 105.66 46.48 103.84 50.47 102.21 54.55 C 102.10 55.02 101.88 55.98 101.77 56.46 C 100.20 60.38 98.77 64.37 97.66 68.46 C 96.15 73.73 94.64 79.01 93.67 84.42 C 93.16 86.48 92.81 88.58 92.27 90.64 C 92.07 91.99 91.87 93.34 91.68 94.69 C 86.36 90.63 82.53 84.83 76.50 81.68 C 75.14 81.01 73.79 80.33 72.43 79.65 C 70.48 78.88 68.51 78.18 66.53 77.49 C 60.25 76.77 53.64 76.30 47.51 78.23 C 46.50 78.59 45.49 78.94 44.47 79.27 C 43.11 79.95 41.75 80.64 40.39 81.32 C 38.90 82.05 37.39 82.76 35.88 83.44 C 36.82 80.77 37.70 78.07 38.76 75.44 C 38.85 74.94 39.04 73.96 39.13 73.47 C 39.71 72.47 40.30 71.48 40.88 70.48 C 40.96 70.02 41.10 69.08 41.18 68.61 C 43.16 64.66 44.60 60.45 46.71 56.56 C 47.58 54.83 48.44 53.11 49.28 51.37 C 58.75 33.28 71.21 15.56 89.56 5.68 C 90.56 5.19 91.56 4.69 92.56 4.19 C 93.02 4.08 93.93 3.86 94.38 3.75 C 98.08 1.98 102.15 1.31 106.00 0.00 Z" />
</g>
<g id="#878888ff">
<path fill="#878888" opacity="1.00" d=" M 135.35 22.19 C 140.14 19.82 145.59 20.30 150.60 21.59 C 151.54 21.94 152.49 22.29 153.44 22.65 C 162.02 27.02 168.37 34.57 173.73 42.38 C 175.40 45.05 177.14 47.67 178.74 50.37 C 180.83 54.01 182.82 57.71 184.75 61.44 C 185.98 64.13 187.05 66.89 188.29 69.58 C 189.03 71.19 189.69 72.85 190.31 74.51 C 190.99 76.19 191.66 77.87 192.37 79.54 C 192.72 80.82 193.02 82.11 193.28 83.41 C 190.38 82.03 187.56 80.47 184.62 79.17 C 174.16 75.06 161.94 76.53 152.56 82.67 C 147.27 85.73 143.34 90.41 138.98 94.56 C 139.07 88.41 140.40 82.24 139.23 76.11 C 139.14 69.84 138.40 63.57 136.36 57.61 C 134.66 53.59 132.59 49.48 128.64 47.23 C 128.11 46.94 127.05 46.34 126.52 46.05 C 121.03 45.35 115.39 45.97 110.75 49.19 C 111.59 47.59 112.44 46.00 113.25 44.39 C 118.54 36.21 124.53 27.85 133.37 23.24 C 133.87 22.98 134.86 22.46 135.35 22.19 Z" />
<path fill="#878888" opacity="1.00" d=" M 761.74 185.34 C 762.43 185.33 763.82 185.31 764.51 185.30 C 765.88 189.31 771.51 189.43 772.82 185.29 C 773.77 185.33 774.73 185.37 775.70 185.41 C 774.86 188.20 773.27 191.17 769.96 191.32 C 765.88 192.32 762.35 189.26 761.74 185.34 Z" />
<path fill="#878888" opacity="1.00" d=" M 450.52 193.33 C 459.15 193.27 467.79 193.37 476.43 193.27 C 476.51 204.16 476.41 215.04 476.48 225.92 C 474.90 225.91 473.33 225.91 471.76 225.91 C 471.79 216.35 471.76 206.79 471.78 197.23 C 466.15 197.23 460.53 197.23 454.90 197.22 C 454.94 206.80 454.87 216.37 454.94 225.95 C 453.46 225.93 451.99 225.91 450.52 225.91 C 450.55 215.05 450.56 204.19 450.52 193.33 Z" />
<path fill="#878888" opacity="1.00" d=" M 492.19 193.31 C 493.87 193.32 495.54 193.34 497.23 193.37 C 501.58 204.26 506.06 215.10 510.53 225.95 C 508.75 225.92 507.00 225.89 505.23 225.86 C 504.09 222.64 502.83 219.46 501.63 216.27 C 497.09 216.20 492.55 216.23 488.02 216.22 C 486.89 219.44 485.70 222.64 484.58 225.86 C 482.93 225.89 481.29 225.91 479.66 225.94 C 483.86 215.07 488.08 204.21 492.19 193.31 M 494.57 197.68 C 493.11 202.73 491.19 207.63 489.35 212.55 C 492.96 212.54 496.58 212.55 500.19 212.53 C 498.30 207.58 496.53 202.59 494.57 197.68 Z" />
<path fill="#878888" opacity="1.00" d=" M 513.80 193.29 C 518.88 193.36 523.97 193.26 529.06 193.32 C 531.82 193.35 534.83 194.10 536.70 196.28 C 540.54 200.83 539.43 209.20 533.69 211.64 C 528.75 213.49 523.36 212.41 518.22 212.68 C 518.23 217.09 518.22 221.50 518.24 225.91 C 516.74 225.91 515.25 225.91 513.76 225.91 C 513.80 215.04 513.73 204.16 513.80 193.29 M 518.23 197.23 C 518.22 201.07 518.23 204.92 518.22 208.77 C 522.45 208.58 526.85 209.34 530.96 208.09 C 535.72 206.55 535.29 198.47 530.38 197.49 C 526.36 196.92 522.27 197.33 518.23 197.23 Z" />
<path fill="#878888" opacity="1.00" d=" M 539.99 193.39 C 548.63 193.17 557.28 193.42 565.93 193.28 C 565.91 194.60 565.91 195.92 565.91 197.24 C 562.23 197.22 558.57 197.23 554.90 197.23 C 554.94 206.81 554.87 216.39 554.94 225.97 C 553.45 225.93 551.97 225.90 550.50 225.87 C 550.62 216.34 550.46 206.82 550.59 197.29 C 546.93 197.20 543.28 197.22 539.63 197.22 C 539.71 195.94 539.83 194.66 539.99 193.39 Z" />
<path fill="#878888" opacity="1.00" d=" M 570.29 193.30 C 571.76 193.30 573.23 193.30 574.71 193.30 C 574.67 197.72 574.69 202.13 574.67 206.55 C 580.30 206.54 585.92 206.54 591.55 206.55 C 591.53 202.14 591.55 197.73 591.52 193.32 C 593.08 193.31 594.65 193.31 596.22 193.30 C 596.24 204.17 596.21 215.04 596.24 225.91 C 594.66 225.91 593.09 225.91 591.52 225.92 C 591.56 220.84 591.54 215.75 591.54 210.67 C 585.92 210.69 580.30 210.69 574.68 210.67 C 574.70 215.76 574.65 220.84 574.72 225.92 C 573.23 225.92 571.75 225.92 570.28 225.92 C 570.35 215.05 570.32 204.18 570.29 193.30 Z" />
<path fill="#878888" opacity="1.00" d=" M 603.30 193.30 C 611.17 193.32 619.05 193.34 626.93 193.28 C 626.91 194.60 626.90 195.92 626.91 197.24 C 620.49 197.21 614.09 197.24 607.68 197.22 C 607.68 200.52 607.68 203.81 607.68 207.10 C 613.77 207.06 619.86 207.12 625.96 207.06 C 625.93 208.45 625.91 209.84 625.89 211.24 C 619.82 211.21 613.76 211.25 607.69 211.21 C 607.68 214.84 607.68 218.47 607.68 222.10 C 614.36 222.06 621.04 222.11 627.71 222.07 C 627.70 223.35 627.71 224.64 627.72 225.92 C 619.57 225.91 611.42 225.90 603.28 225.93 C 603.35 215.05 603.32 204.17 603.30 193.30 Z" />
<path fill="#878888" opacity="1.00" d=" M 633.50 193.35 C 639.02 193.35 644.54 193.19 650.06 193.39 C 653.49 193.48 656.96 195.47 658.10 198.84 C 659.61 203.12 658.62 208.93 654.36 211.26 C 649.31 213.67 643.57 212.36 638.20 212.70 C 638.24 217.10 638.22 221.50 638.24 225.91 C 636.66 225.91 635.09 225.91 633.52 225.92 C 633.54 215.07 633.59 204.21 633.50 193.35 M 638.22 197.23 C 638.22 201.08 638.22 204.92 638.22 208.77 C 642.45 208.59 646.86 209.35 650.96 208.04 C 655.68 206.40 655.01 198.24 650.07 197.48 C 646.15 196.93 642.17 197.33 638.22 197.23 Z" />
<path fill="#878888" opacity="1.00" d=" M 664.35 200.34 C 668.09 192.65 679.05 190.33 686.00 194.93 C 688.62 196.63 689.95 199.53 691.05 202.34 C 689.59 202.67 688.15 203.00 686.71 203.35 C 685.54 201.29 684.58 198.88 682.43 197.65 C 677.79 195.04 671.11 196.83 668.68 201.66 C 666.33 206.56 666.42 212.50 668.59 217.44 C 671.06 222.93 679.11 224.58 683.59 220.61 C 685.52 219.09 686.22 216.64 687.10 214.45 C 688.61 214.84 690.15 215.24 691.69 215.65 C 690.46 218.84 689.04 222.20 686.11 224.20 C 678.96 229.16 666.89 226.75 663.96 217.97 C 661.82 212.36 661.61 205.78 664.35 200.34 Z" />
<path fill="#878888" opacity="1.00" d=" M 696.80 193.30 C 698.25 193.30 699.72 193.30 701.20 193.29 C 701.28 198.20 701.08 203.11 701.41 208.00 C 708.20 206.93 707.58 198.68 711.87 194.84 C 713.89 192.85 716.91 193.42 719.49 193.26 C 719.47 194.21 719.45 196.11 719.44 197.06 C 717.93 197.28 716.31 197.09 714.92 197.77 C 711.81 201.21 711.71 206.75 707.43 209.25 C 713.40 213.18 715.71 220.35 719.77 225.93 C 717.85 225.91 715.95 225.91 714.05 225.91 C 711.32 221.65 709.03 217.07 705.85 213.12 C 704.74 211.60 702.88 211.11 701.24 210.44 C 701.21 215.60 701.22 220.75 701.24 225.91 C 699.74 225.91 698.25 225.91 696.76 225.91 C 696.80 215.04 696.74 204.17 696.80 193.30 Z" />
<path fill="#878888" opacity="1.00" d=" M 723.30 193.28 C 724.68 193.30 726.08 193.32 727.48 193.34 C 727.44 201.78 727.44 210.22 727.48 218.66 C 733.25 210.27 738.83 201.76 744.55 193.34 C 746.09 193.32 747.63 193.30 749.19 193.27 C 749.28 204.15 749.19 215.02 749.24 225.90 C 747.84 225.91 746.44 225.93 745.06 225.96 C 745.08 217.58 745.16 209.20 745.01 200.83 C 739.10 209.04 733.69 217.60 727.92 225.91 C 726.36 225.91 724.82 225.92 723.28 225.93 C 723.35 215.04 723.31 204.16 723.30 193.28 Z" />
<path fill="#878888" opacity="1.00" d=" M 756.29 193.30 C 757.59 193.30 758.90 193.30 760.21 193.30 C 760.26 201.81 760.19 210.32 760.26 218.84 C 766.00 210.37 771.68 201.87 777.35 193.36 C 778.86 193.32 780.38 193.29 781.92 193.26 C 781.92 204.15 781.87 215.05 781.95 225.94 C 780.64 225.93 779.34 225.93 778.05 225.94 C 778.10 217.45 778.12 208.97 778.04 200.48 C 772.17 208.86 766.52 217.40 760.84 225.92 C 759.31 225.91 757.79 225.92 756.28 225.92 C 756.35 215.05 756.32 204.18 756.29 193.30 Z" />
<path fill="#878888" opacity="1.00" d=" M 801.51 193.33 C 803.76 193.32 806.01 193.31 808.27 193.31 C 811.26 202.50 814.42 211.64 817.38 220.83 C 820.65 211.69 823.66 202.45 826.93 193.30 C 828.92 193.31 830.92 193.30 832.93 193.29 C 832.91 204.18 832.88 215.06 832.94 225.95 C 831.46 225.93 829.98 225.91 828.52 225.90 C 828.53 217.20 828.61 208.49 828.48 199.79 C 825.15 208.43 822.45 217.29 819.23 225.96 C 817.82 225.93 816.43 225.91 815.04 225.89 C 812.31 217.07 808.82 208.48 806.44 199.55 C 805.36 208.30 806.12 217.15 805.94 225.95 C 804.46 225.93 802.99 225.91 801.52 225.91 C 801.55 215.05 801.56 204.19 801.51 193.33 Z" />
<path fill="#878888" opacity="1.00" d=" M 848.57 193.37 C 850.24 193.33 851.92 193.30 853.62 193.27 C 858.00 204.19 862.49 215.06 866.96 225.94 C 865.22 225.92 863.48 225.91 861.75 225.91 C 860.51 222.68 859.27 219.46 858.06 216.23 C 853.51 216.23 848.97 216.20 844.44 216.26 C 843.30 219.48 842.15 222.69 841.01 225.91 C 839.36 225.91 837.72 225.91 836.09 225.92 C 840.31 215.10 844.52 204.26 848.57 193.37 M 845.81 212.54 C 849.42 212.54 853.03 212.54 856.65 212.55 C 854.76 207.49 852.73 202.49 851.06 197.35 C 849.75 202.56 847.63 207.50 845.81 212.54 Z" />
<path fill="#878888" opacity="1.00" d=" M 870.30 193.30 C 877.43 193.33 884.56 193.33 891.70 193.30 C 891.69 194.60 891.69 195.90 891.70 197.21 C 886.04 197.23 880.37 197.25 874.71 197.20 C 874.68 206.77 874.65 216.35 874.72 225.92 C 873.23 225.92 871.75 225.92 870.28 225.92 C 870.35 215.05 870.32 204.17 870.30 193.30 Z" />
<path fill="#878888" opacity="1.00" d=" M 900.82 193.35 C 902.46 193.33 904.11 193.31 905.78 193.30 C 910.24 204.17 914.61 215.08 919.17 225.91 C 917.42 225.91 915.68 225.91 913.95 225.91 C 912.72 222.70 911.44 219.51 910.28 216.28 C 905.73 216.19 901.18 216.21 896.64 216.25 C 895.50 219.50 894.31 222.72 893.13 225.95 C 891.50 225.92 889.88 225.91 888.27 225.90 C 892.55 215.09 896.63 204.20 900.82 193.35 M 903.24 197.43 C 901.87 202.59 899.81 207.53 897.97 212.53 C 901.58 212.55 905.19 212.55 908.81 212.53 C 906.93 207.50 904.99 202.50 903.24 197.43 Z" />
<path fill="#878888" opacity="1.00" d=" M 925.47 194.33 C 930.74 191.17 939.09 192.09 941.99 198.06 C 943.87 201.83 942.25 206.23 939.09 208.71 C 943.88 210.65 945.69 216.75 943.23 221.18 C 939.94 226.79 932.04 227.98 926.45 225.44 C 922.89 223.85 921.22 220.11 919.94 216.69 C 921.34 216.33 922.74 215.97 924.16 215.61 C 925.55 218.92 927.82 222.77 931.89 222.79 C 936.15 223.39 940.82 219.48 939.35 215.00 C 937.80 211.17 933.22 211.05 929.75 210.75 C 929.74 209.58 929.74 208.42 929.76 207.26 C 932.44 206.88 935.84 207.17 937.41 204.45 C 940.22 200.92 936.06 195.91 932.02 196.64 C 927.78 196.29 925.36 200.40 924.75 204.04 C 923.30 203.78 921.87 203.52 920.44 203.25 C 921.26 199.93 922.33 196.22 925.47 194.33 Z" />
<path fill="#878888" opacity="1.00" d=" M 949.52 193.34 C 950.90 193.32 952.29 193.30 953.70 193.28 C 953.71 201.66 953.58 210.04 953.78 218.42 C 959.74 210.22 965.06 201.58 970.87 193.28 C 972.40 193.30 973.94 193.33 975.49 193.36 C 975.42 204.21 975.45 215.06 975.48 225.92 C 974.07 225.91 972.67 225.92 971.28 225.92 C 971.33 217.54 971.35 209.15 971.27 200.77 C 965.40 209.04 959.91 217.58 954.15 225.93 C 952.60 225.92 951.05 225.91 949.52 225.91 C 949.55 215.06 949.56 204.20 949.52 193.34 Z" />
<path fill="#878888" opacity="1.00" d=" M 982.51 193.36 C 983.97 193.32 985.43 193.29 986.92 193.26 C 986.90 197.68 986.92 202.11 986.89 206.54 C 992.53 206.54 998.16 206.56 1003.80 206.52 C 1003.75 202.14 1003.79 197.77 1003.74 193.40 C 1005.22 193.35 1006.71 193.30 1008.22 193.26 C 1008.24 204.14 1008.21 215.03 1008.24 225.91 C 1006.73 225.91 1005.24 225.91 1003.76 225.91 C 1003.78 220.84 1003.75 215.76 1003.79 210.69 C 998.15 210.68 992.52 210.69 986.90 210.68 C 986.93 215.77 986.88 220.86 986.94 225.95 C 985.46 225.93 983.98 225.91 982.52 225.90 C 982.55 215.06 982.57 204.21 982.51 193.36 Z" />
</g>
<g id="#39bee7ff">
<path fill="#39bee7" opacity="1.00" d=" M 307.57 45.19 C 315.01 44.31 322.51 43.36 330.02 44.26 C 333.72 45.29 337.58 44.92 341.37 45.11 C 344.86 47.12 350.06 44.68 352.78 48.41 C 353.30 53.07 352.89 57.79 352.96 62.48 C 352.34 62.88 351.11 63.67 350.50 64.07 C 348.31 64.08 346.19 63.62 344.09 63.13 C 338.73 62.57 333.24 63.73 327.98 62.26 C 322.43 61.23 316.92 62.87 311.43 63.51 C 306.29 64.99 304.03 70.50 305.01 75.46 C 307.50 80.53 312.74 83.04 317.41 85.71 C 320.19 87.15 322.77 88.93 325.61 90.28 C 328.93 91.98 332.03 94.10 335.42 95.70 C 336.83 96.52 338.18 97.44 339.58 98.29 C 340.58 98.98 341.60 99.65 342.65 100.28 C 346.46 103.54 350.46 106.76 352.78 111.34 C 353.27 112.45 353.81 113.53 354.36 114.63 C 356.07 118.43 356.00 122.59 356.37 126.65 C 355.94 129.27 356.28 132.02 355.36 134.55 C 354.83 136.23 354.27 137.90 353.78 139.60 C 351.68 144.58 347.55 148.17 343.67 151.76 C 342.23 152.58 340.84 153.49 339.41 154.34 C 337.73 154.99 336.03 155.62 334.37 156.31 C 332.72 156.85 331.02 157.21 329.41 157.85 C 327.47 157.97 325.54 158.02 323.60 158.15 C 320.95 159.55 317.86 158.85 315.00 159.02 C 308.80 159.49 302.83 157.46 296.62 157.89 C 294.47 156.64 291.88 157.10 289.55 156.53 C 288.32 155.64 287.15 154.68 285.99 153.72 C 286.01 149.62 286.00 145.53 286.00 141.44 C 286.78 140.63 287.56 139.81 288.34 139.00 C 293.53 139.06 298.80 138.57 303.88 139.92 C 310.04 140.07 316.22 140.08 322.38 139.87 C 323.98 139.09 325.77 138.89 327.49 138.45 C 332.18 136.01 334.46 130.73 333.96 125.60 C 333.50 124.53 333.10 123.45 332.76 122.36 C 331.07 118.40 326.92 116.61 323.60 114.28 C 321.49 113.17 319.50 111.86 317.42 110.69 C 315.78 109.65 314.12 108.63 312.41 107.70 C 310.74 106.70 309.10 105.66 307.42 104.69 C 305.78 103.65 304.12 102.63 302.43 101.70 C 301.14 100.89 299.83 100.11 298.54 99.32 C 293.01 96.02 288.24 91.45 285.65 85.47 C 285.17 84.15 284.74 82.82 284.24 81.52 C 283.98 78.65 282.90 75.91 282.95 73.02 C 282.82 69.02 284.00 65.13 285.12 61.34 C 287.28 56.96 289.90 52.55 294.40 50.24 C 296.42 49.22 298.45 48.21 300.46 47.15 C 300.96 47.06 301.95 46.86 302.44 46.77 C 304.13 46.18 305.88 45.79 307.57 45.19 Z" />
<path fill="#39bee7" opacity="1.00" d=" M 579.62 44.12 C 584.73 43.48 589.83 44.42 594.64 46.14 C 597.88 48.25 601.03 50.79 602.80 54.32 C 603.28 55.42 603.80 56.52 604.33 57.61 C 604.69 58.57 605.03 59.55 605.36 60.53 C 605.74 61.83 606.01 63.15 606.31 64.48 C 606.84 66.14 607.15 67.87 607.68 69.53 C 607.98 70.86 608.26 72.20 608.66 73.50 C 608.98 74.82 609.30 76.15 609.71 77.45 C 610.19 79.49 610.79 81.49 611.29 83.53 C 611.69 84.83 611.99 86.16 612.32 87.49 C 612.84 89.15 613.15 90.87 613.68 92.53 C 613.98 93.86 614.27 95.19 614.67 96.49 C 615.79 101.18 617.20 105.80 618.33 110.49 C 618.73 111.79 619.01 113.13 619.32 114.46 C 619.83 116.12 620.17 117.82 620.70 119.48 C 621.74 124.19 623.19 128.80 624.34 133.49 C 624.73 134.79 625.01 136.13 625.32 137.46 C 625.83 139.12 626.17 140.83 626.69 142.49 C 626.98 143.83 627.28 145.17 627.68 146.49 C 628.36 149.55 629.47 152.51 630.04 155.60 C 629.69 155.93 628.97 156.57 628.61 156.90 C 622.19 157.11 615.74 157.04 609.31 156.93 C 608.28 156.05 607.94 154.75 607.60 153.51 C 607.25 152.19 606.97 150.85 606.68 149.52 C 604.59 141.72 603.03 133.77 600.82 126.00 C 589.61 126.00 578.41 126.00 567.21 126.00 C 566.53 128.49 565.97 131.01 565.29 133.50 C 564.99 134.84 564.72 136.20 564.33 137.52 C 564.01 138.87 563.73 140.22 563.33 141.54 C 563.01 142.89 562.71 144.23 562.33 145.56 C 562.02 146.90 561.74 148.25 561.32 149.56 C 561.01 150.88 560.74 152.21 560.40 153.53 C 560.05 154.77 559.71 156.06 558.68 156.93 C 552.25 157.05 545.79 157.09 539.36 156.91 C 536.35 154.97 539.02 151.17 539.33 148.49 C 539.73 147.18 540.01 145.85 540.31 144.52 C 540.83 142.86 541.15 141.14 541.68 139.47 C 541.98 138.15 542.27 136.82 542.67 135.53 C 543.16 133.49 543.76 131.48 544.28 129.45 C 544.68 128.15 545.00 126.82 545.34 125.50 C 545.73 124.19 546.01 122.85 546.31 121.52 C 546.83 119.86 547.15 118.14 547.68 116.47 C 547.98 115.15 548.27 113.82 548.68 112.53 C 549.56 109.18 550.52 105.86 551.33 102.49 C 551.73 101.19 552.01 99.85 552.31 98.52 C 552.83 96.86 553.15 95.14 553.68 93.47 C 553.98 92.15 554.27 90.82 554.67 89.52 C 555.49 86.16 556.53 82.86 557.33 79.49 C 557.73 78.19 558.00 76.85 558.31 75.53 C 558.83 73.86 559.14 72.14 559.68 70.48 C 559.98 69.15 560.27 67.81 560.68 66.51 C 561.75 62.44 562.73 58.35 564.16 54.39 C 566.19 50.97 569.05 48.23 572.49 46.24 C 573.49 45.95 574.50 45.63 575.50 45.29 C 576.89 45.00 578.34 44.81 579.62 44.12 M 581.97 63.70 C 581.94 64.37 581.89 65.72 581.86 66.39 C 581.23 67.67 580.97 69.09 580.67 70.47 C 580.28 71.79 579.97 73.13 579.67 74.47 C 579.27 75.79 578.98 77.14 578.69 78.48 C 578.28 79.80 577.99 81.16 577.69 82.51 C 575.38 91.32 573.40 100.23 570.98 109.01 C 579.75 108.97 588.52 109.03 597.29 108.98 C 597.02 108.37 596.49 107.15 596.22 106.54 C 595.99 105.14 595.85 103.70 595.23 102.41 C 595.06 101.46 594.91 100.52 594.76 99.58 C 593.53 95.30 592.70 90.92 591.68 86.59 C 591.25 85.26 590.97 83.89 590.67 82.53 C 589.70 79.22 589.14 75.81 588.33 72.47 C 588.01 71.13 587.72 69.78 587.29 68.47 C 587.03 67.14 586.79 65.81 586.49 64.49 C 585.90 63.63 585.27 62.79 584.61 61.99 C 583.33 61.66 582.76 63.00 581.97 63.70 Z" />
<path fill="#39bee7" opacity="1.00" d=" M 771.60 45.10 C 775.38 45.00 779.21 45.19 782.89 44.12 C 790.56 44.12 798.38 43.29 805.93 44.93 C 809.86 44.81 813.70 45.61 817.49 46.63 C 818.50 46.95 819.51 47.29 820.53 47.64 C 822.22 48.17 823.84 48.90 825.43 49.69 C 825.95 49.94 826.97 50.42 827.48 50.67 C 832.49 53.20 836.24 57.45 838.81 62.37 C 841.53 69.72 841.67 77.86 840.37 85.49 C 840.04 86.47 839.70 87.45 839.37 88.42 C 838.27 90.59 836.96 92.63 835.78 94.75 C 833.51 97.29 830.47 98.85 827.61 100.60 C 828.60 101.15 829.61 101.69 830.63 102.23 C 834.81 104.45 837.59 108.29 839.76 112.38 C 840.04 113.44 840.36 114.50 840.74 115.54 C 842.54 122.46 842.29 129.63 840.40 136.50 C 840.05 137.48 839.70 138.45 839.34 139.42 C 838.69 140.78 838.03 142.12 837.39 143.47 C 834.47 147.93 830.20 151.30 825.51 153.74 C 822.54 154.82 819.57 155.93 816.51 156.72 C 809.07 158.13 801.55 159.27 793.95 159.00 C 789.34 158.91 784.64 159.47 780.16 158.13 C 775.54 158.04 770.91 158.08 766.51 156.45 C 765.32 155.61 764.19 154.70 763.08 153.78 C 762.92 151.20 762.41 148.66 762.38 146.08 C 762.40 119.72 762.39 93.36 762.37 67.00 C 762.60 61.10 761.89 55.15 763.11 49.32 C 764.20 48.25 765.30 47.19 766.42 46.14 C 768.17 45.99 770.01 46.01 771.60 45.10 M 784.00 62.00 C 784.00 72.00 784.00 82.00 784.00 92.00 C 790.99 92.00 797.98 92.00 804.98 92.02 C 807.57 92.18 809.99 91.14 812.42 90.38 C 815.18 89.28 817.63 87.49 818.77 84.64 C 819.09 83.55 819.47 82.48 819.90 81.43 C 819.77 78.11 820.76 74.48 819.19 71.40 C 819.13 70.91 819.00 69.94 818.94 69.45 C 817.04 67.45 815.10 65.43 812.64 64.14 C 803.37 61.07 793.58 62.17 784.00 62.00 M 784.00 108.00 C 784.00 118.66 784.00 129.32 784.00 139.98 C 789.63 139.30 795.10 142.13 800.69 140.62 C 803.55 139.69 806.66 140.40 809.49 139.37 C 810.48 139.04 811.47 138.71 812.47 138.37 C 815.69 137.55 817.91 134.96 819.93 132.50 C 820.00 132.03 820.13 131.08 820.19 130.60 C 822.71 123.19 820.52 112.69 812.43 109.63 C 811.47 109.28 810.52 108.95 809.58 108.63 C 807.82 107.85 805.86 108.00 804.01 107.97 C 797.33 108.02 790.67 107.99 784.00 108.00 Z" />
<path fill="#39bee7" opacity="1.00" d=" M 365.00 48.37 C 366.06 47.02 366.81 44.64 368.96 45.03 C 392.64 44.95 416.31 45.05 439.98 44.98 C 441.69 44.84 443.34 45.28 444.89 45.99 C 446.54 50.16 445.84 54.69 445.97 59.05 C 446.07 60.46 445.43 61.74 444.97 63.03 C 435.63 62.97 426.29 63.01 416.94 63.00 C 416.96 93.20 416.91 123.39 416.97 153.59 C 416.24 154.72 415.56 155.90 414.68 156.93 C 409.11 157.12 403.53 156.96 397.97 157.01 C 396.20 157.41 394.57 155.76 394.99 154.01 C 395.01 123.67 395.00 93.34 395.00 63.00 C 385.51 62.98 376.03 63.03 366.54 62.97 C 366.17 62.36 365.41 61.12 365.03 60.51 C 364.98 56.46 365.00 52.42 365.00 48.37 Z" />
<path fill="#39bee7" opacity="1.00" d=" M 484.65 45.12 C 494.55 44.92 504.47 44.93 514.37 45.11 C 516.46 46.48 519.05 45.86 521.39 46.15 C 523.16 47.11 525.55 46.63 526.93 48.32 C 527.14 52.39 526.93 56.48 527.00 60.57 C 526.18 61.37 525.37 62.18 524.57 63.00 C 513.70 62.99 502.84 63.01 491.98 62.98 C 489.99 62.84 488.12 63.51 486.26 64.06 C 484.06 65.13 483.15 67.42 482.00 69.40 C 482.00 76.60 481.98 83.80 481.99 91.00 C 495.51 91.00 509.04 91.00 522.57 91.00 C 523.37 91.81 524.18 92.63 525.00 93.43 C 525.00 97.81 525.00 102.19 525.00 106.57 C 524.18 107.37 523.37 108.18 522.57 109.00 C 509.04 109.00 495.51 109.00 481.99 109.00 C 482.26 117.82 481.43 126.73 482.44 135.49 C 483.62 137.06 484.97 138.50 486.35 139.91 C 489.63 139.72 492.72 141.07 495.99 141.02 C 505.98 140.97 515.98 141.04 525.97 140.97 C 527.96 145.52 526.64 150.64 526.97 155.44 C 526.34 155.81 525.09 156.54 524.47 156.90 C 522.42 157.07 520.18 156.64 518.39 157.89 C 515.79 158.01 513.19 157.99 510.59 158.11 C 506.99 159.86 502.80 158.67 498.95 159.00 C 492.72 159.33 486.54 158.70 480.47 157.38 C 478.76 156.91 477.06 156.38 475.39 155.80 C 474.88 155.54 473.87 155.04 473.37 154.78 C 468.50 152.06 464.57 147.65 462.63 142.41 C 460.91 138.15 460.89 133.51 460.06 129.05 C 459.91 112.37 460.05 95.69 459.99 79.01 C 459.78 72.79 460.63 66.51 462.64 60.62 C 463.17 59.54 463.72 58.46 464.24 57.36 C 466.17 54.00 468.88 51.03 472.35 49.23 C 473.44 48.73 474.52 48.20 475.61 47.68 C 476.56 47.30 477.52 46.94 478.49 46.59 C 480.51 45.97 482.75 46.17 484.65 45.12 Z" />
<path fill="#39bee7" opacity="1.00" d=" M 647.49 45.42 C 653.43 44.72 659.56 44.72 665.51 45.43 C 666.94 46.42 668.08 47.72 668.82 49.30 C 669.58 51.08 670.44 52.81 671.28 54.56 C 671.53 55.07 672.03 56.08 672.29 56.59 C 673.44 58.85 674.55 61.14 675.72 63.40 C 677.51 67.00 679.02 70.73 680.71 74.38 C 681.91 76.78 683.11 79.18 684.28 81.60 C 684.96 82.92 685.63 84.25 686.30 85.59 C 688.24 89.33 689.80 93.25 691.62 97.05 C 692.05 96.40 692.91 95.10 693.34 94.45 C 694.28 92.41 695.27 90.39 696.26 88.37 C 700.07 80.78 703.51 73.02 707.29 65.41 C 707.54 64.91 708.03 63.91 708.28 63.41 C 709.09 61.81 709.89 60.20 710.72 58.60 C 711.22 57.53 711.76 56.47 712.28 55.40 C 712.96 54.07 713.63 52.74 714.31 51.41 C 714.75 50.45 715.19 49.49 715.62 48.52 C 716.45 46.91 718.10 46.05 719.52 45.01 C 725.16 45.22 730.89 44.48 736.49 45.44 C 738.38 46.65 740.28 48.45 740.00 50.92 C 740.00 86.28 740.00 121.64 740.00 157.00 C 734.02 156.95 728.05 157.08 722.08 156.97 C 720.64 157.02 719.69 155.37 719.99 154.05 C 719.98 130.55 720.04 107.04 719.97 83.53 C 717.77 87.50 715.83 91.60 713.73 95.62 C 713.04 96.95 712.36 98.28 711.71 99.62 C 711.46 100.12 710.96 101.10 710.71 101.59 C 710.46 102.09 709.96 103.09 709.72 103.59 C 708.54 105.86 707.40 108.14 706.36 110.47 C 705.37 112.17 704.01 113.60 702.67 115.01 C 695.91 114.98 689.15 115.01 682.39 115.00 C 680.01 113.90 678.69 111.70 677.68 109.40 C 677.44 108.90 676.96 107.90 676.72 107.40 C 676.46 106.90 675.96 105.91 675.71 105.41 C 675.46 104.91 674.97 103.91 674.72 103.41 C 673.89 101.81 673.10 100.19 672.28 98.59 C 672.03 98.09 671.54 97.09 671.30 96.58 C 671.05 96.09 670.54 95.11 670.29 94.62 C 669.76 93.54 669.23 92.47 668.73 91.40 C 668.02 90.07 667.34 88.74 666.67 87.40 C 666.42 86.80 665.94 85.60 665.69 85.01 L 665.00 84.98 C 664.96 108.13 665.07 131.28 664.95 154.43 C 664.57 155.07 663.80 156.34 663.42 156.98 C 657.58 156.98 651.74 157.06 645.91 156.98 C 644.16 157.33 643.80 155.29 643.99 154.05 C 644.01 119.15 644.00 84.26 644.00 49.37 C 644.91 47.85 646.01 46.44 647.49 45.42 Z" />
<path fill="#39bee7" opacity="1.00" d=" M 861.43 45.00 C 867.17 45.00 872.91 45.00 878.66 45.00 C 879.43 45.94 880.23 46.87 881.03 47.81 C 881.05 73.66 880.85 99.52 881.13 125.37 C 881.78 127.08 882.16 128.89 882.77 130.62 C 882.85 131.09 883.01 132.02 883.09 132.49 C 884.71 135.10 887.05 137.05 889.47 138.90 C 889.94 138.98 890.87 139.14 891.34 139.23 C 892.90 140.08 894.70 140.00 896.43 140.21 C 900.93 142.33 905.86 139.81 910.50 139.48 C 913.95 138.30 916.38 135.37 918.43 132.49 C 919.38 130.28 920.05 127.97 920.27 125.56 C 920.80 124.42 921.05 123.23 921.01 121.97 C 920.99 97.13 921.01 72.28 921.00 47.43 C 921.80 46.63 922.62 45.82 923.43 45.00 C 929.15 45.00 934.86 45.00 940.59 45.00 C 941.37 45.84 942.18 46.67 943.00 47.49 C 943.01 71.00 942.97 94.51 943.02 118.02 C 943.06 119.60 942.87 121.19 942.18 122.62 C 942.15 126.32 941.35 129.93 940.37 133.48 C 940.03 134.48 939.69 135.47 939.34 136.46 C 936.23 144.40 930.50 151.26 922.62 154.78 C 921.22 155.31 919.84 155.86 918.46 156.37 C 917.16 156.74 915.85 157.02 914.56 157.33 C 904.67 159.81 894.29 159.38 884.47 156.73 C 883.45 156.36 882.44 156.03 881.43 155.73 C 879.07 154.73 876.73 153.67 874.52 152.38 C 870.81 149.81 867.62 146.46 865.23 142.63 C 864.38 140.90 863.50 139.19 862.67 137.46 C 862.17 136.16 861.76 134.84 861.29 133.54 C 860.96 132.16 860.65 130.79 860.22 129.45 C 860.18 126.23 858.92 123.18 858.98 119.96 C 859.02 95.79 858.99 71.61 859.00 47.43 C 859.81 46.63 860.62 45.82 861.43 45.00 Z" />
<path fill="#39bee7" opacity="1.00" d=" M 955.97 46.11 C 962.87 45.94 969.79 45.93 976.69 46.07 C 977.52 47.07 978.14 48.22 978.81 49.34 C 979.58 51.45 980.36 53.57 981.27 55.63 C 981.93 57.30 982.55 58.97 983.27 60.62 C 983.95 62.28 984.57 63.96 985.28 65.62 C 985.95 67.27 986.57 68.95 987.28 70.60 C 987.96 72.26 988.60 73.94 989.29 75.61 C 989.97 77.26 990.59 78.93 991.28 80.59 C 992.13 82.51 992.85 84.49 993.73 86.41 C 994.40 88.06 995.01 89.74 995.66 91.41 C 996.47 93.05 997.28 94.69 998.33 96.20 C 999.40 95.21 1000.07 93.90 1000.81 92.65 C 1001.44 90.98 1002.05 89.29 1002.72 87.63 C 1003.61 85.56 1004.39 83.45 1005.27 81.38 C 1005.95 79.73 1006.58 78.06 1007.28 76.41 C 1008.17 74.51 1008.89 72.53 1009.72 70.60 C 1010.39 68.93 1011.01 67.25 1011.71 65.60 C 1012.39 63.94 1013.01 62.26 1013.72 60.61 C 1014.40 58.96 1015.03 57.28 1015.72 55.62 C 1016.42 53.96 1017.03 52.27 1017.67 50.58 C 1018.44 49.02 1019.07 47.33 1020.33 46.07 C 1026.86 45.95 1033.42 45.90 1039.95 46.11 C 1041.87 47.08 1041.00 49.84 1040.34 51.43 C 1038.83 54.36 1037.86 57.53 1036.27 60.42 C 1035.36 62.45 1034.52 64.52 1033.75 66.60 C 1033.48 67.09 1032.94 68.08 1032.67 68.57 C 1031.45 71.15 1030.51 73.83 1029.34 76.43 C 1029.07 76.92 1028.51 77.91 1028.24 78.40 C 1027.41 80.47 1026.58 82.54 1025.77 84.61 C 1025.24 85.55 1024.73 86.49 1024.23 87.44 C 1023.32 89.80 1022.42 92.15 1021.33 94.43 C 1021.06 94.93 1020.51 95.92 1020.24 96.42 C 1019.43 98.49 1018.64 100.56 1017.79 102.60 C 1016.95 103.87 1016.14 105.16 1015.34 106.45 C 1014.07 109.18 1011.45 110.72 1009.08 112.35 C 1008.81 126.78 1009.20 141.22 1008.91 155.65 C 1008.59 155.96 1007.96 156.59 1007.64 156.91 C 1001.55 157.08 995.44 157.08 989.35 156.91 C 989.04 156.59 988.41 155.96 988.09 155.65 C 987.86 141.26 988.07 126.86 988.00 112.47 C 984.66 110.78 981.93 107.96 980.22 104.66 C 979.72 103.56 979.19 102.48 978.70 101.40 C 977.69 99.06 976.81 96.68 975.71 94.40 C 974.51 91.82 973.60 89.11 972.27 86.59 C 971.27 84.25 970.42 81.85 969.27 79.58 C 968.07 76.85 967.06 74.04 965.70 71.39 C 964.64 68.75 963.63 66.08 962.27 63.58 C 961.37 61.20 960.47 58.82 959.27 56.58 C 958.41 54.52 957.61 52.44 956.66 50.43 C 955.94 49.10 956.04 47.57 955.97 46.11 Z" />
<path fill="#39bee7" opacity="1.00" d=" M 58.07 85.83 C 58.43 85.68 59.16 85.37 59.53 85.22 C 61.79 85.79 64.11 86.02 66.42 86.23 C 67.46 86.61 68.50 86.96 69.55 87.31 C 70.86 88.07 72.17 88.83 73.49 89.59 C 82.66 95.97 87.60 106.87 97.50 112.34 C 100.97 114.49 104.93 115.60 109.00 115.71 C 115.92 115.83 123.20 116.28 129.64 113.25 C 130.11 113.17 131.04 112.99 131.50 112.90 C 133.77 111.40 135.95 109.78 138.12 108.15 C 142.34 104.98 144.49 99.95 148.19 96.28 C 152.17 91.87 157.23 88.60 162.60 86.13 C 165.06 86.02 167.52 85.87 169.96 85.48 C 172.48 85.87 175.04 86.07 177.56 86.52 C 189.44 90.25 198.81 99.64 204.31 110.60 C 205.25 112.28 206.29 113.90 207.29 115.54 C 208.30 117.54 209.31 119.55 210.29 121.56 C 211.93 124.79 213.34 128.12 214.77 131.44 C 216.91 136.71 218.95 142.03 220.69 147.45 C 224.79 160.07 228.06 173.04 229.28 186.27 C 230.50 190.05 229.87 194.06 230.01 197.95 C 230.12 206.19 231.14 214.83 227.39 222.49 C 226.11 225.36 224.03 227.70 221.72 229.78 C 219.97 230.10 218.23 230.50 216.53 231.00 L 216.04 231.00 C 214.20 230.45 212.33 230.05 210.45 229.74 C 208.81 228.92 207.16 228.11 205.51 227.33 C 196.47 221.70 188.89 214.08 181.75 206.26 C 170.08 192.09 155.81 179.87 139.54 171.27 C 137.10 170.41 134.75 169.35 132.44 168.20 C 131.98 168.08 131.05 167.85 130.59 167.73 C 126.25 166.05 121.73 164.54 117.00 164.96 C 111.37 164.64 105.74 165.11 100.49 167.30 C 99.50 167.63 98.50 167.96 97.50 168.28 C 95.22 169.42 92.89 170.49 90.46 171.28 C 75.74 178.88 62.96 189.80 51.74 201.89 C 46.99 207.06 43.33 213.31 37.46 217.36 C 33.21 221.29 28.80 225.12 23.61 227.77 C 22.24 228.41 20.89 229.07 19.54 229.74 C 17.68 230.07 15.83 230.49 14.01 231.00 L 11.61 231.00 C 6.04 229.51 3.27 224.23 1.06 219.41 C 1.02 218.08 0.99 216.75 0.96 215.43 L 0.00 215.56 L 0.00 188.99 C 1.04 186.42 0.96 183.63 1.10 180.92 C 3.50 166.10 7.27 151.47 12.70 137.46 C 13.94 134.06 15.19 130.66 16.81 127.42 C 16.90 126.96 17.08 126.02 17.17 125.56 C 17.89 124.19 18.59 122.82 19.28 121.45 C 20.27 119.44 21.26 117.44 22.23 115.42 C 23.53 113.07 24.93 110.77 26.23 108.42 C 30.66 100.80 36.82 94.09 44.51 89.69 C 46.20 88.88 47.87 88.04 49.53 87.18 C 52.35 86.54 55.17 85.95 58.07 85.83 M 169.51 109.56 C 165.72 110.41 163.53 114.09 163.33 117.76 C 163.79 121.26 165.87 124.63 169.51 125.44 C 170.90 125.93 172.39 126.34 173.61 125.16 C 174.12 125.11 175.14 125.01 175.65 124.96 C 178.20 122.88 179.78 120.03 180.05 116.73 C 179.55 115.61 179.11 114.47 178.74 113.31 C 177.70 112.22 176.66 111.14 175.62 110.05 C 175.12 110.00 174.11 109.89 173.61 109.84 C 172.39 108.67 170.90 109.06 169.51 109.56 M 51.00 113.00 C 51.00 118.00 51.00 123.00 51.00 128.00 C 46.00 128.00 41.00 128.00 36.00 128.00 C 36.00 132.33 36.00 136.67 36.00 141.00 C 41.00 141.00 46.00 141.00 51.00 141.00 C 51.00 146.00 51.00 151.00 51.00 156.00 C 55.33 156.00 59.67 156.00 64.00 156.00 C 64.00 151.00 64.00 146.00 64.00 141.00 C 69.00 141.00 74.00 141.00 79.00 141.00 C 79.00 136.67 79.00 132.33 79.00 128.00 C 74.00 128.00 69.00 128.00 64.00 128.00 C 64.00 123.00 64.00 118.00 64.00 113.00 C 59.67 113.00 55.33 113.00 51.00 113.00 M 151.50 126.45 C 149.90 127.53 148.53 128.90 147.45 130.50 C 146.81 132.79 146.81 135.21 147.45 137.50 C 148.53 139.09 149.90 140.47 151.50 141.55 C 153.79 142.18 156.21 142.19 158.50 141.55 C 160.07 140.47 161.43 139.12 162.55 137.57 C 163.18 135.23 163.18 132.77 162.55 130.43 C 161.43 128.88 160.07 127.53 158.50 126.45 C 156.21 125.81 153.79 125.81 151.50 126.45 M 184.50 126.45 C 182.90 127.53 181.53 128.90 180.45 130.50 C 179.81 132.79 179.81 135.21 180.45 137.50 C 181.53 139.09 182.90 140.46 184.50 141.55 C 186.79 142.19 189.21 142.18 191.50 141.55 C 193.07 140.47 194.43 139.11 195.55 137.56 C 196.18 135.23 196.18 132.76 195.55 130.43 C 194.43 128.88 193.07 127.53 191.50 126.45 C 189.21 125.81 186.79 125.82 184.50 126.45 M 169.51 142.56 C 165.86 143.38 163.78 146.75 163.32 150.26 C 163.55 153.93 165.72 157.59 169.51 158.44 C 170.89 158.92 172.39 159.35 173.60 158.16 C 174.10 158.11 175.11 158.00 175.61 157.95 C 176.67 156.84 177.74 155.75 178.83 154.67 C 181.10 150.50 179.20 145.79 175.65 143.04 C 175.14 142.99 174.12 142.89 173.60 142.85 C 172.40 141.63 170.89 142.09 169.51 142.56 Z" />
</g>
</svg>
