<?xml version="1.0" encoding="UTF-8" ?>
<!DOCTYPE svg PUBLIC "-//W3C//DTD SVG 1.1//EN" "http://www.w3.org/Graphics/SVG/1.1/DTD/svg11.dtd">
<svg width="1152pt" height="353pt" viewBox="0 0 1152 353" version="1.1" xmlns="http://www.w3.org/2000/svg">
<g id="#0c0407f8">
<path fill="#0c0407" opacity="0.97" d=" M 89.09 11.22 C 91.40 6.58 94.92 2.07 100.09 0.54 C 103.90 -0.25 107.59 1.57 111.04 2.95 C 114.89 4.68 119.47 5.21 122.44 8.49 C 123.96 13.78 125.04 19.59 123.13 24.93 C 120.97 30.99 116.55 35.82 113.23 41.24 C 108.88 48.48 104.56 55.77 99.69 62.68 C 94.80 68.43 85.85 69.54 79.32 66.03 C 74.69 62.29 72.31 55.73 74.21 50.00 C 78.36 36.79 82.72 23.55 89.09 11.22 M 93.27 10.18 C 86.60 22.20 82.26 35.32 78.08 48.36 C 75.90 52.86 76.52 58.35 79.70 62.22 C 84.76 66.22 92.50 65.46 97.04 61.08 C 101.58 54.52 105.72 47.69 109.78 40.84 C 113.15 35.19 117.77 30.24 120.04 23.98 C 121.78 19.39 121.00 14.23 119.24 9.77 C 114.45 7.21 109.01 5.81 103.97 3.68 C 99.39 2.73 95.21 6.32 93.27 10.18 Z" />
<path fill="#0c0407" opacity="0.97" d=" M 134.69 19.68 C 137.34 18.61 140.20 18.09 143.05 17.91 C 148.53 18.72 153.42 22.01 157.04 26.10 C 157.89 29.70 158.84 33.32 159.00 37.02 C 158.68 42.51 155.86 47.43 153.04 52.00 C 146.46 62.21 139.65 72.42 130.89 80.92 C 128.02 83.59 124.91 86.37 120.98 87.25 C 117.48 88.04 113.99 86.70 110.87 85.22 C 104.09 81.47 98.83 72.68 102.84 65.17 C 110.60 52.56 117.64 39.51 125.89 27.20 C 128.49 24.37 131.10 21.29 134.69 19.68 M 128.72 28.65 C 122.95 36.83 118.24 45.70 113.04 54.24 C 110.56 58.35 108.13 62.48 105.69 66.61 C 103.55 70.00 104.86 74.32 106.84 77.46 C 108.72 80.74 112.42 82.47 115.81 83.77 C 120.52 85.60 124.99 82.22 128.33 79.25 C 136.29 71.71 142.41 62.52 148.41 53.42 C 151.34 48.91 154.29 44.24 155.55 38.95 C 156.36 35.93 155.10 32.91 154.68 29.94 C 154.07 25.18 148.93 23.32 145.11 21.65 C 138.93 20.11 132.21 23.47 128.72 28.65 Z" />
<path fill="#0c0407" opacity="0.97" d=" M 50.86 43.86 C 59.11 42.45 67.51 42.06 75.87 41.93 C 75.30 43.16 74.35 43.80 73.02 43.86 C 65.57 44.95 58.02 46.09 51.04 49.06 C 48.66 50.12 46.03 51.21 44.62 53.55 C 40.79 59.74 39.01 66.89 36.66 73.71 C 34.03 79.27 30.49 84.39 28.33 90.18 C 30.27 89.07 31.03 86.90 32.09 85.08 C 35.42 79.10 38.41 72.92 41.94 67.05 C 43.82 64.23 45.37 61.16 47.63 58.62 C 49.87 56.97 52.83 58.05 55.33 58.23 C 55.47 58.44 55.76 58.85 55.90 59.06 C 59.49 58.92 62.66 60.84 65.88 62.14 C 70.91 64.59 76.29 66.71 80.42 70.62 C 88.44 77.81 96.60 84.84 104.62 92.03 C 100.64 97.20 95.32 101.91 88.60 102.74 C 81.68 102.58 74.88 100.69 68.76 97.48 C 67.76 96.99 66.77 96.49 65.78 95.99 C 66.24 100.93 64.83 106.11 60.97 109.41 C 67.37 115.03 71.66 122.61 76.62 129.45 C 78.59 133.07 83.00 133.76 86.36 135.59 C 97.74 141.29 109.57 146.11 120.70 152.33 C 123.64 153.97 125.83 156.70 127.05 159.82 C 130.91 169.40 135.12 179.12 142.07 186.92 C 145.46 190.58 149.80 194.01 155.03 194.13 C 158.22 194.74 161.39 193.95 164.42 192.99 L 163.36 194.88 C 160.09 198.87 156.84 203.44 157.45 208.91 C 159.25 246.60 164.38 284.02 168.87 321.45 C 170.11 330.15 171.39 338.84 172.66 347.53 C 132.53 347.52 92.41 347.55 52.28 347.52 C 49.86 347.51 47.43 347.52 45.00 347.55 C 49.91 313.45 54.78 279.34 58.59 245.10 C 60.03 231.00 63.53 217.15 64.14 202.96 C 64.51 196.89 61.44 191.46 58.74 186.26 C 53.22 176.11 46.92 166.40 40.57 156.76 C 35.04 148.12 29.14 139.72 23.63 131.07 C 21.16 126.78 17.63 122.88 16.44 118.02 C 19.04 108.56 24.09 99.90 28.74 91.30 C 28.19 91.36 27.08 91.49 26.53 91.55 C 30.27 79.24 33.79 66.81 38.86 54.96 C 40.20 52.04 41.45 48.98 43.63 46.57 C 45.57 44.75 48.37 44.41 50.86 43.86 M 48.87 61.94 C 44.08 69.28 39.78 76.93 36.00 84.83 C 29.66 95.44 23.83 106.46 19.48 118.06 C 20.97 121.09 22.74 123.96 24.55 126.81 C 30.54 136.25 36.93 145.45 43.02 154.82 C 50.80 166.94 59.02 178.88 65.08 191.99 C 67.75 197.28 67.33 203.39 66.86 209.11 C 65.66 221.50 62.94 233.67 61.63 246.04 C 57.90 278.92 53.44 311.70 48.56 344.43 C 51.06 345.43 52.14 343.92 52.69 341.74 C 52.84 342.54 53.14 344.13 53.29 344.93 C 53.98 344.82 55.36 344.58 56.05 344.46 C 93.71 344.45 131.36 344.52 169.02 344.42 C 166.04 326.01 164.08 307.46 161.69 288.96 C 158.55 262.03 155.43 235.06 154.34 207.95 C 154.01 204.19 155.68 200.83 156.97 197.45 C 151.51 197.88 146.29 195.33 142.53 191.49 C 133.85 183.63 128.77 172.78 124.51 162.08 C 123.41 159.54 122.40 156.57 119.66 155.37 C 105.88 147.87 91.37 141.88 77.38 134.84 C 71.21 128.50 67.30 120.23 61.24 113.74 C 59.56 112.45 56.17 110.85 57.94 108.24 C 61.12 105.45 63.00 101.29 62.62 97.03 C 62.29 94.48 65.31 92.17 67.65 93.40 C 73.68 96.48 80.12 99.17 86.97 99.50 C 91.32 99.49 95.29 97.28 98.49 94.49 C 99.32 93.78 100.90 92.47 99.48 91.46 C 91.86 84.74 84.30 77.93 76.57 71.34 C 69.32 66.91 61.49 63.28 53.28 61.02 C 51.84 60.96 49.72 60.29 48.87 61.94 Z" />
<path fill="#0c0407" opacity="0.97" d=" M 166.49 44.27 C 168.74 43.48 171.33 41.93 173.66 43.31 C 178.06 45.56 182.16 48.59 185.06 52.64 C 185.75 55.90 185.99 59.40 184.35 62.44 C 180.35 70.63 174.08 77.38 168.63 84.59 C 164.74 89.38 161.18 94.53 156.63 98.73 C 151.74 101.56 145.74 101.60 140.40 100.14 C 134.70 97.04 131.49 89.43 134.71 83.49 C 143.29 72.99 150.98 61.77 158.51 50.50 C 161.07 48.30 163.17 45.37 166.49 44.27 M 162.28 51.24 C 158.30 56.13 155.03 61.54 151.16 66.51 L 151.87 66.91 L 151.15 66.61 C 146.87 72.83 142.30 78.84 137.76 84.87 C 135.37 87.89 137.08 91.90 138.59 94.91 C 144.25 99.78 154.32 98.83 158.48 92.47 C 163.85 85.85 169.08 79.11 174.31 72.39 C 177.51 67.90 181.14 63.41 182.44 57.94 C 182.88 52.53 177.97 49.07 173.66 47.00 C 173.23 46.76 172.37 46.27 171.94 46.03 C 168.35 46.52 164.44 48.12 162.28 51.24 Z" />
<path fill="#0c0407" opacity="0.97" d=" M 185.85 66.05 C 187.82 64.45 190.27 63.25 192.89 63.65 C 196.26 64.84 199.35 66.75 202.09 69.02 C 203.21 71.15 203.76 73.59 202.71 75.88 C 199.20 86.17 191.63 94.64 183.05 101.09 C 179.33 103.97 174.56 105.25 169.91 104.36 C 166.06 102.98 164.20 98.87 164.69 94.96 C 170.79 84.69 177.42 74.58 185.85 66.05 M 188.86 67.71 C 184.35 71.02 181.24 75.82 177.94 80.25 C 174.55 85.04 171.23 89.91 168.27 94.97 C 167.10 96.94 168.39 99.02 169.35 100.74 C 172.33 101.57 175.51 101.86 178.29 100.21 C 187.25 95.51 194.03 87.30 198.38 78.28 C 199.25 76.12 200.52 73.65 199.63 71.30 C 198.14 69.25 195.55 68.51 193.44 67.29 C 191.93 66.69 190.15 66.54 188.86 67.71 Z" />
<path fill="#0c0407" opacity="0.97" d=" M 198.26 91.92 C 199.12 90.53 200.00 89.15 200.95 87.82 C 200.82 89.31 200.68 90.81 200.50 92.30 C 204.50 92.29 205.44 97.03 207.33 99.70 C 208.55 104.52 209.17 109.56 208.26 114.49 C 205.71 129.40 201.17 143.97 194.84 157.71 C 189.83 168.33 183.66 178.84 174.45 186.37 C 167.70 191.98 157.77 194.60 149.66 190.33 C 140.20 181.69 135.37 169.30 131.12 157.51 C 136.19 165.50 139.59 174.73 146.49 181.45 C 151.85 186.79 160.20 188.59 167.38 186.46 C 174.15 183.74 178.90 177.79 183.10 172.08 C 192.88 157.92 199.65 141.84 204.33 125.34 C 206.73 116.49 209.20 106.69 205.01 97.96 C 203.99 94.84 200.95 93.35 198.26 91.92 Z" />
<path fill="#0c0407" opacity="0.97" d=" M 70.44 114.87 C 74.88 118.37 77.52 123.52 81.51 127.43 C 85.57 129.97 90.63 127.66 95.04 128.94 C 110.47 132.53 123.91 143.31 131.07 157.42 C 128.83 154.97 126.22 152.91 123.32 151.32 C 119.44 145.97 114.37 141.07 107.91 139.11 C 104.40 137.90 100.65 138.29 97.01 138.36 C 92.25 135.97 87.35 133.88 82.67 131.36 C 80.65 130.38 79.56 128.35 78.35 126.59 C 75.81 122.61 72.88 118.91 70.44 114.87 Z" />
<path fill="#0c0407" opacity="0.97" d=" M 145.25 115.08 C 147.48 117.47 147.51 121.66 144.60 123.52 C 139.87 126.82 132.91 121.37 134.40 115.91 C 135.07 117.80 135.19 120.13 137.01 121.35 C 139.46 123.10 143.31 122.67 145.39 120.51 C 146.65 118.83 145.90 116.81 145.25 115.08 Z" />
<path fill="#0c0407" opacity="0.97" d=" M 156.57 138.53 C 154.11 130.89 158.22 122.65 165.05 118.92 C 162.53 122.34 159.31 125.60 158.70 130.01 C 157.53 137.37 163.74 144.56 171.03 145.15 C 177.80 146.43 184.96 141.63 186.31 134.89 C 187.53 130.25 185.82 125.60 184.32 121.25 C 186.71 124.74 188.37 128.78 188.66 133.03 C 189.06 140.05 183.97 146.98 177.00 148.33 C 169.20 150.09 158.76 147.14 156.57 138.53 Z" />
<path fill="#0c0407" opacity="0.97" d=" M 172.08 124.23 C 172.93 122.13 174.55 120.53 176.04 118.88 C 178.04 119.86 180.43 120.41 181.99 122.07 C 181.64 124.38 179.18 125.68 178.27 127.80 C 177.86 125.50 180.51 124.24 181.13 122.19 C 179.48 121.46 177.84 120.73 176.21 120.00 C 174.95 121.52 173.71 123.09 172.08 124.23 Z" />
<path fill="#0c0407" opacity="0.97" d=" M 167.41 123.06 C 168.41 123.52 169.48 123.92 170.22 124.79 C 168.22 123.61 166.57 124.80 165.55 126.55 C 163.85 128.10 166.65 128.88 167.58 129.76 C 167.30 130.27 166.76 131.29 166.48 131.80 C 167.08 132.39 167.67 132.98 168.28 133.58 L 166.29 133.25 L 167.16 135.47 L 168.67 136.04 C 168.00 136.51 167.34 136.97 166.67 137.44 C 166.34 135.97 166.01 134.51 165.68 133.04 C 165.31 133.77 164.58 135.22 164.22 135.95 C 166.24 137.38 168.34 139.22 170.98 139.07 L 170.32 137.93 C 173.16 137.69 171.73 133.23 174.66 132.99 C 173.20 131.85 171.36 131.26 170.01 129.99 C 170.17 129.00 170.54 128.08 171.12 127.22 C 172.84 126.82 174.80 126.34 176.12 127.93 C 177.65 129.13 174.81 130.40 174.39 131.46 C 174.68 131.93 175.25 132.87 175.54 133.34 C 178.76 133.68 181.09 138.53 184.20 134.95 C 183.59 135.77 182.37 137.41 181.77 138.24 C 179.34 136.93 177.04 135.42 174.74 133.91 C 173.43 136.20 172.47 138.70 170.93 140.87 C 168.35 139.67 165.27 138.82 163.44 136.56 C 163.31 134.15 166.06 132.48 166.99 130.39 C 166.01 129.81 165.04 129.23 164.07 128.65 C 164.37 126.38 166.07 124.78 167.41 123.06 M 171.30 127.92 C 171.23 128.44 171.09 129.46 171.02 129.97 C 171.97 130.31 172.91 130.65 173.85 130.99 C 174.73 130.09 175.14 129.05 175.08 127.88 C 173.81 127.88 172.56 127.90 171.30 127.92 Z" />
<path fill="#0c0407" opacity="0.97" d=" M 180.00 128.12 C 180.90 128.89 182.93 129.16 182.26 130.86 C 183.18 130.66 184.07 130.79 184.90 131.27 L 182.98 131.00 C 183.86 132.05 184.53 133.21 185.01 134.49 C 183.62 134.47 182.23 134.49 180.85 134.56 C 181.83 133.63 182.97 133.42 184.25 133.94 C 182.40 132.33 181.49 130.02 180.00 128.12 Z" />
<path fill="#0c0407" opacity="0.97" d=" M 136.00 132.95 C 136.16 131.72 137.12 130.87 137.79 129.91 C 137.20 131.49 136.45 133.46 137.63 134.98 C 139.51 137.94 143.80 137.97 146.59 136.42 C 148.48 135.29 147.69 132.90 147.68 131.11 C 148.19 133.01 149.28 135.18 147.76 136.92 C 144.51 141.74 135.97 138.50 136.00 132.95 Z" />
<path fill="#0c0407" opacity="0.97" d=" M 20.75 148.33 C 18.75 143.70 19.44 138.50 20.58 133.76 C 20.82 138.64 20.87 143.80 23.62 148.06 C 24.70 149.70 25.97 151.33 27.74 152.27 C 30.46 153.50 33.52 152.82 36.34 152.39 C 36.96 153.30 37.58 154.22 38.21 155.14 C 35.37 156.29 32.32 157.11 29.24 156.43 C 25.34 155.23 22.38 151.97 20.75 148.33 Z" />
<path fill="#0c0407" opacity="0.97" d=" M 169.26 138.24 C 168.24 137.36 170.19 135.71 171.13 136.26 C 170.93 136.67 170.52 137.51 170.32 137.93 L 169.26 138.24 Z" />
</g>
<g id="#e61948ff">
<path fill="#e61948" opacity="1.00" d=" M 92.51 17.58 C 95.00 12.03 98.17 6.32 103.97 3.68 C 109.01 5.81 114.45 7.21 119.24 9.77 C 121.00 14.23 121.78 19.39 120.04 23.98 C 117.77 30.24 113.15 35.19 109.78 40.84 C 105.72 47.69 101.58 54.52 97.04 61.08 C 92.50 65.46 84.76 66.22 79.70 62.22 C 78.49 57.77 79.24 53.21 80.89 48.99 C 84.22 38.34 87.79 27.71 92.51 17.58 Z" />
<path fill="#e61948" opacity="1.00" d=" M 122.44 8.49 C 123.58 9.64 124.96 10.73 125.40 12.37 C 126.83 17.15 127.28 22.35 125.89 27.20 C 117.64 39.51 110.60 52.56 102.84 65.17 C 98.46 70.71 90.44 71.67 84.15 69.13 C 92.42 76.05 100.15 83.59 108.27 90.68 C 108.89 91.42 110.70 92.36 109.50 93.44 C 106.72 97.03 103.25 100.28 99.01 102.04 C 95.71 103.42 92.07 103.06 88.60 102.74 C 95.32 101.91 100.64 97.20 104.62 92.03 C 96.60 84.84 88.44 77.81 80.42 70.62 C 76.29 66.71 70.91 64.59 65.88 62.14 C 62.66 60.84 59.49 58.92 55.90 59.06 C 55.76 58.85 55.47 58.44 55.33 58.23 C 64.03 57.76 71.77 62.37 79.32 66.03 C 85.85 69.54 94.80 68.43 99.69 62.68 C 104.56 55.77 108.88 48.48 113.23 41.24 C 116.55 35.82 120.97 30.99 123.13 24.93 C 125.04 19.59 123.96 13.78 122.44 8.49 Z" />
<path fill="#e61948" opacity="1.00" d=" M 130.22 31.26 C 133.70 26.26 138.76 21.97 145.11 21.65 C 148.93 23.32 154.07 25.18 154.68 29.94 C 155.10 32.91 156.36 35.93 155.55 38.95 C 154.29 44.24 151.34 48.91 148.41 53.42 C 142.41 62.52 136.29 71.71 128.33 79.25 C 124.99 82.22 120.52 85.60 115.81 83.77 C 112.42 82.47 108.72 80.74 106.84 77.46 C 106.80 74.84 106.28 71.98 107.63 69.58 C 110.34 64.66 113.25 59.85 116.02 54.96 C 120.75 47.06 124.95 38.82 130.22 31.26 Z" />
<path fill="#e61948" opacity="1.00" d=" M 157.04 26.10 C 160.57 29.09 160.87 33.87 161.54 38.11 C 162.13 42.47 160.21 46.61 158.51 50.50 C 150.98 61.77 143.29 72.99 134.71 83.49 C 131.45 86.65 127.79 90.18 122.99 90.45 C 118.36 90.64 114.38 87.90 110.87 85.22 C 113.99 86.70 117.48 88.04 120.98 87.25 C 124.91 86.37 128.02 83.59 130.89 80.92 C 139.65 72.42 146.46 62.21 153.04 52.00 C 155.86 47.43 158.68 42.51 159.00 37.02 C 158.84 33.32 157.89 29.70 157.04 26.10 Z" />
<path fill="#e61948" opacity="1.00" d=" M 165.67 51.62 C 167.68 49.15 170.81 48.16 173.66 47.00 C 177.97 49.07 182.88 52.53 182.44 57.94 C 181.14 63.41 177.51 67.90 174.31 72.39 C 169.08 79.11 163.85 85.85 158.48 92.47 C 154.32 98.83 144.25 99.78 138.59 94.91 C 138.23 92.47 138.02 89.71 139.72 87.68 C 144.54 81.12 149.32 74.52 153.92 67.80 C 157.72 62.33 161.23 56.62 165.67 51.62 Z" />
<path fill="#e61948" opacity="1.00" d=" M 185.06 52.64 C 188.26 56.40 188.18 61.87 185.85 66.05 C 177.42 74.58 170.79 84.69 164.69 94.96 C 163.16 97.27 161.44 99.51 159.29 101.28 C 153.49 104.45 145.56 104.71 140.40 100.14 C 145.74 101.60 151.74 101.56 156.63 98.73 C 161.18 94.53 164.74 89.38 168.63 84.59 C 174.08 77.38 180.35 70.63 184.35 62.44 C 185.99 59.40 185.75 55.90 185.06 52.64 Z" />
<path fill="#e61948" opacity="1.00" d=" M 53.28 61.02 C 61.49 63.28 69.32 66.91 76.57 71.34 C 84.30 77.93 91.86 84.74 99.48 91.46 C 100.90 92.47 99.32 93.78 98.49 94.49 C 95.29 97.28 91.32 99.49 86.97 99.50 C 80.12 99.17 73.68 96.48 67.65 93.40 C 65.31 92.17 62.29 94.48 62.62 97.03 C 63.00 101.29 61.12 105.45 57.94 108.24 C 56.17 110.85 59.56 112.45 61.24 113.74 C 67.30 120.23 71.21 128.50 77.38 134.84 C 91.37 141.88 105.88 147.87 119.66 155.37 C 122.40 156.57 123.41 159.54 124.51 162.08 C 128.77 172.78 133.85 183.63 142.53 191.49 C 146.29 195.33 151.51 197.88 156.97 197.45 C 155.68 200.83 154.01 204.19 154.34 207.95 C 155.43 235.06 158.55 262.03 161.69 288.96 C 164.08 307.46 166.04 326.01 169.02 344.42 C 131.36 344.52 93.71 344.45 56.05 344.46 C 55.36 344.58 53.98 344.82 53.29 344.93 C 53.14 344.13 52.84 342.54 52.69 341.74 C 55.20 329.92 56.20 317.81 57.93 305.86 C 61.16 284.67 63.40 263.35 65.88 242.06 C 67.16 231.62 69.18 221.29 70.37 210.84 C 70.94 204.98 71.51 198.71 68.74 193.28 C 62.33 179.21 53.61 166.37 45.44 153.28 C 38.52 142.64 31.52 132.03 25.01 121.12 C 24.81 119.80 24.21 118.43 24.68 117.10 C 26.22 111.97 28.79 107.24 30.82 102.31 C 38.28 88.53 44.98 74.33 53.28 61.02 Z" />
<path fill="#e61948" opacity="1.00" d=" M 180.36 81.75 C 184.17 76.48 188.07 71.09 193.44 67.29 C 195.55 68.51 198.14 69.25 199.63 71.30 C 200.52 73.65 199.25 76.12 198.38 78.28 C 194.03 87.30 187.25 95.51 178.29 100.21 C 175.51 101.86 172.33 101.57 169.35 100.74 C 171.35 93.61 176.51 87.94 180.36 81.75 Z" />
<path fill="#e61948" opacity="1.00" d=" M 202.09 69.02 C 203.98 70.61 206.03 72.39 206.36 75.01 C 205.78 79.65 203.79 84.11 200.95 87.82 C 200.00 89.15 199.12 90.53 198.26 91.92 C 194.56 96.93 189.94 101.33 184.76 104.78 C 180.34 107.78 174.03 107.99 169.91 104.36 C 174.56 105.25 179.33 103.97 183.05 101.09 C 191.63 94.64 199.20 86.17 202.71 75.88 C 203.76 73.59 203.21 71.15 202.09 69.02 Z" />
<path fill="#e61948" opacity="1.00" d=" M 749.37 72.21 C 752.16 70.25 755.70 70.17 758.98 70.23 C 772.67 70.36 786.36 70.09 800.05 70.12 C 803.20 70.14 806.86 70.37 809.08 72.94 C 811.13 75.31 811.17 78.65 810.81 81.60 C 809.64 91.53 808.51 101.45 807.33 111.38 C 800.45 111.36 793.58 111.40 786.70 111.35 C 787.44 103.55 788.50 95.79 789.34 88.00 C 781.01 88.06 772.68 87.87 764.36 88.10 C 761.35 115.45 758.02 142.76 754.90 170.10 C 754.45 175.27 753.34 180.43 753.35 185.60 C 761.57 185.42 769.79 185.51 778.01 185.37 C 779.43 173.29 780.83 161.21 782.23 149.13 C 777.37 149.11 772.52 149.15 767.67 149.10 C 768.23 143.26 768.99 137.45 769.67 131.62 C 781.43 131.51 793.21 131.39 804.98 131.58 C 802.67 151.72 800.29 171.86 797.96 192.00 C 797.65 195.51 796.34 199.24 793.28 201.27 C 790.86 202.97 787.82 203.27 784.96 203.26 C 770.32 203.24 755.69 203.26 741.06 203.25 C 738.36 203.28 735.43 202.65 733.54 200.59 C 731.48 198.28 731.42 194.98 731.75 192.08 C 736.05 155.08 740.36 118.09 744.66 81.09 C 745.01 77.69 746.38 74.12 749.37 72.21 Z" />
<path fill="#e61948" opacity="1.00" d=" M 849.12 70.01 C 856.31 70.08 863.51 69.81 870.70 70.16 C 873.80 114.48 877.43 158.78 880.55 203.10 C 873.75 203.15 866.96 203.12 860.16 203.12 C 859.78 194.75 859.49 186.38 859.10 178.01 C 851.12 178.00 843.13 177.98 835.14 178.02 C 832.86 186.44 830.56 194.85 828.21 203.26 C 821.43 203.20 814.65 203.36 807.87 203.16 C 821.49 158.74 835.39 114.40 849.12 70.01 M 855.54 103.94 C 850.64 122.78 845.11 141.46 839.97 160.25 C 846.07 160.25 852.17 160.25 858.27 160.25 C 857.33 141.48 856.91 122.67 855.54 103.94 Z" />
<path fill="#e61948" opacity="1.00" d=" M 907.49 70.13 C 913.95 69.84 920.42 70.07 926.89 70.00 C 931.05 94.42 935.11 118.86 939.30 143.28 C 949.54 119.02 958.98 94.40 968.92 70.01 C 975.36 69.99 981.80 70.00 988.25 70.01 C 983.20 114.34 977.92 158.65 972.84 202.98 C 966.22 203.01 959.61 203.02 953.01 202.97 C 955.89 178.64 958.43 154.26 961.67 129.97 C 954.46 150.31 946.67 170.44 939.43 190.76 C 935.87 190.60 931.77 191.56 928.54 190.57 C 925.96 172.40 923.55 154.19 920.99 136.01 C 920.68 134.00 920.60 131.97 920.50 129.94 C 917.51 154.31 914.84 178.74 911.93 203.13 C 905.33 203.08 898.74 203.21 892.15 203.05 C 897.15 158.73 902.55 114.46 907.49 70.13 Z" />
<path fill="#e61948" opacity="1.00" d=" M 1004.01 73.97 C 1004.37 72.69 1003.87 70.91 1004.88 69.92 C 1023.09 69.82 1041.31 69.88 1059.53 69.90 C 1058.95 75.98 1058.15 82.05 1057.47 88.12 C 1045.97 88.17 1034.49 88.33 1023.00 88.24 C 1021.45 100.82 1020.05 113.41 1018.57 126.00 C 1028.47 126.00 1038.36 125.99 1048.26 126.01 C 1047.62 131.98 1046.99 137.95 1046.16 143.90 C 1036.24 144.06 1026.33 143.92 1016.41 144.07 C 1014.93 157.56 1013.36 171.05 1011.70 184.52 C 1023.36 184.80 1035.02 184.50 1046.68 184.67 C 1046.11 190.73 1045.26 196.76 1044.66 202.81 C 1026.13 203.07 1007.59 203.05 989.06 202.93 C 993.98 159.94 999.07 116.96 1004.01 73.97 Z" />
<path fill="#e61948" opacity="1.00" d=" M 1074.06 69.87 C 1092.33 69.85 1110.60 69.64 1128.88 69.78 C 1131.57 69.84 1134.56 70.55 1136.31 72.79 C 1138.13 75.08 1138.15 78.21 1137.84 80.98 C 1135.85 98.01 1133.89 115.03 1131.89 132.06 C 1131.56 136.08 1129.26 140.14 1125.32 141.57 C 1121.16 142.95 1116.69 142.65 1112.38 142.91 C 1117.18 162.90 1122.30 182.81 1126.97 202.83 C 1119.85 202.94 1112.72 202.83 1105.60 202.89 C 1100.78 182.57 1096.00 162.24 1091.23 141.92 C 1091.03 137.47 1092.11 133.06 1092.47 128.63 C 1098.90 128.64 1105.34 128.59 1111.78 128.66 C 1113.47 114.99 1115.00 101.29 1116.59 87.61 C 1108.60 87.63 1100.60 87.64 1092.61 87.61 C 1088.05 126.02 1083.66 164.45 1079.16 202.87 C 1072.29 202.80 1065.42 203.04 1058.56 202.74 C 1063.80 158.46 1068.85 114.16 1074.06 69.87 Z" />
<path fill="#e61948" opacity="1.00" d=" M 65.78 95.99 C 66.77 96.49 67.76 96.99 68.76 97.48 C 69.35 101.70 68.02 105.85 65.72 109.35 C 67.28 111.21 68.84 113.05 70.44 114.87 C 72.88 118.91 75.81 122.61 78.35 126.59 C 79.56 128.35 80.65 130.38 82.67 131.36 C 87.35 133.88 92.25 135.97 97.01 138.36 C 105.79 142.66 114.67 146.76 123.32 151.32 C 126.22 152.91 128.83 154.97 131.07 157.42 L 131.12 157.51 C 135.37 169.30 140.20 181.69 149.66 190.33 C 151.37 191.70 153.18 192.94 155.03 194.13 C 149.80 194.01 145.46 190.58 142.07 186.92 C 135.12 179.12 130.91 169.40 127.05 159.82 C 125.83 156.70 123.64 153.97 120.70 152.33 C 109.57 146.11 97.74 141.29 86.36 135.59 C 83.00 133.76 78.59 133.07 76.62 129.45 C 71.66 122.61 67.37 115.03 60.97 109.41 C 64.83 106.11 66.24 100.93 65.78 95.99 Z" />
<path fill="#e61948" opacity="1.00" d=" M 163.36 194.88 C 165.12 194.45 166.86 193.96 168.61 193.49 C 165.50 198.23 160.99 202.82 161.66 209.00 C 163.20 243.78 167.55 278.36 171.74 312.90 C 172.94 326.34 175.76 339.57 176.96 353.00 L 51.59 353.00 C 51.81 351.17 52.06 349.34 52.28 347.52 C 92.41 347.55 132.53 347.52 172.66 347.53 C 171.39 338.84 170.11 330.15 168.87 321.45 C 164.38 284.02 159.25 246.60 157.45 208.91 C 156.84 203.44 160.09 198.87 163.36 194.88 Z" />
</g>
<g id="#39bee7ff">
<path fill="#39bee7" opacity="1.00" d=" M 161.07 22.58 C 185.39 20.18 209.70 17.68 234.00 15.05 C 234.01 17.01 234.03 18.97 233.84 20.92 C 223.36 121.50 213.15 222.11 202.55 322.68 C 194.55 323.33 186.54 323.74 178.53 324.21 C 178.24 322.63 177.95 321.03 177.65 319.46 C 184.46 318.79 191.30 318.70 198.12 318.18 C 208.39 218.96 218.64 119.75 228.87 20.53 C 207.56 22.72 186.26 25.00 164.95 27.14 C 163.69 25.59 162.42 24.05 161.07 22.58 Z" />
<path fill="#39bee7" opacity="1.00" d=" M 0.52 39.52 C 25.06 36.91 49.59 34.12 74.15 31.72 C 73.56 33.43 72.94 35.13 72.31 36.83 C 52.17 38.89 32.03 41.02 11.89 43.10 C 9.69 43.32 7.45 43.42 5.32 44.06 C 6.19 138.87 6.85 233.68 7.60 328.49 C 19.32 328.42 31.00 327.30 42.71 326.81 C 42.44 328.43 42.15 330.05 41.85 331.67 C 28.72 332.33 15.61 333.17 2.49 334.01 C 2.52 284.68 1.78 235.36 1.51 186.03 C 1.23 137.19 0.52 88.36 0.52 39.52 Z" />
<path fill="#39bee7" opacity="1.00" d=" M 52.38 51.55 C 59.59 49.58 67.11 49.06 74.55 48.70 L 74.21 50.00 C 72.31 55.73 74.69 62.29 79.32 66.03 C 71.77 62.37 64.03 57.76 55.33 58.23 C 52.83 58.05 49.87 56.97 47.63 58.62 C 45.37 61.16 43.82 64.23 41.94 67.05 C 43.80 62.62 45.38 58.02 47.99 53.97 C 48.93 52.46 50.82 52.10 52.38 51.55 Z" />
<path fill="#39bee7" opacity="1.00" d=" M 79.70 62.22 C 76.52 58.35 75.90 52.86 78.08 48.36 C 78.78 48.52 80.19 48.83 80.89 48.99 C 79.24 53.21 78.49 57.77 79.70 62.22 Z" />
<path fill="#39bee7" opacity="1.00" d=" M 105.69 66.61 C 108.13 62.48 110.56 58.35 113.04 54.24 C 113.79 54.42 115.28 54.78 116.02 54.96 C 113.25 59.85 110.34 64.66 107.63 69.58 C 106.28 71.98 106.80 74.84 106.84 77.46 C 104.86 74.32 103.55 70.00 105.69 66.61 Z" />
<path fill="#39bee7" opacity="1.00" d=" M 48.87 61.94 C 49.72 60.29 51.84 60.96 53.28 61.02 C 44.98 74.33 38.28 88.53 30.82 102.31 C 32.23 96.40 34.22 90.64 36.00 84.83 C 39.78 76.93 44.08 69.28 48.87 61.94 Z" />
<path fill="#39bee7" opacity="1.00" d=" M 84.15 69.13 C 90.44 71.67 98.46 70.71 102.84 65.17 C 98.83 72.68 104.09 81.47 110.87 85.22 C 114.38 87.90 118.36 90.64 122.99 90.45 C 127.79 90.18 131.45 86.65 134.71 83.49 C 131.49 89.43 134.70 97.04 140.40 100.14 C 145.56 104.71 153.49 104.45 159.29 101.28 C 161.44 99.51 163.16 97.27 164.69 94.96 C 164.20 98.87 166.06 102.98 169.91 104.36 C 174.03 107.99 180.34 107.78 184.76 104.78 C 189.94 101.33 194.56 96.93 198.26 91.92 C 200.95 93.35 203.99 94.84 205.01 97.96 C 209.20 106.69 206.73 116.49 204.33 125.34 C 199.65 141.84 192.88 157.92 183.10 172.08 C 178.90 177.79 174.15 183.74 167.38 186.46 C 160.20 188.59 151.85 186.79 146.49 181.45 C 139.59 174.73 136.19 165.50 131.12 157.51 L 131.07 157.42 C 123.91 143.31 110.47 132.53 95.04 128.94 C 90.63 127.66 85.57 129.97 81.51 127.43 C 77.52 123.52 74.88 118.37 70.44 114.87 C 68.84 113.05 67.28 111.21 65.72 109.35 C 68.02 105.85 69.35 101.70 68.76 97.48 C 74.88 100.69 81.68 102.58 88.60 102.74 C 92.07 103.06 95.71 103.42 99.01 102.04 C 103.25 100.28 106.72 97.03 109.50 93.44 C 110.70 92.36 108.89 91.42 108.27 90.68 C 100.15 83.59 92.42 76.05 84.15 69.13 M 145.25 115.08 C 145.90 116.81 146.65 118.83 145.39 120.51 C 143.31 122.67 139.46 123.10 137.01 121.35 C 135.19 120.13 135.07 117.80 134.40 115.91 C 132.91 121.37 139.87 126.82 144.60 123.52 C 147.51 121.66 147.48 117.47 145.25 115.08 M 156.57 138.53 C 158.76 147.14 169.20 150.09 177.00 148.33 C 183.97 146.98 189.06 140.05 188.66 133.03 C 188.37 128.78 186.71 124.74 184.32 121.25 C 185.82 125.60 187.53 130.25 186.31 134.89 C 184.96 141.63 177.80 146.43 171.03 145.15 C 163.74 144.56 157.53 137.37 158.70 130.01 C 159.31 125.60 162.53 122.34 165.05 118.92 C 158.22 122.65 154.11 130.89 156.57 138.53 M 172.08 124.23 C 173.71 123.09 174.95 121.52 176.21 120.00 C 177.84 120.73 179.48 121.46 181.13 122.19 C 180.51 124.24 177.86 125.50 178.27 127.80 C 179.18 125.68 181.64 124.38 181.99 122.07 C 180.43 120.41 178.04 119.86 176.04 118.88 C 174.55 120.53 172.93 122.13 172.08 124.23 M 167.41 123.06 C 166.07 124.78 164.37 126.38 164.07 128.65 C 165.04 129.23 166.01 129.81 166.99 130.39 C 166.06 132.48 163.31 134.15 163.44 136.56 C 165.27 138.82 168.35 139.67 170.93 140.87 C 172.47 138.70 173.43 136.20 174.74 133.91 C 177.04 135.42 179.34 136.93 181.77 138.24 C 182.37 137.41 183.59 135.77 184.20 134.95 C 181.09 138.53 178.76 133.68 175.54 133.34 C 175.25 132.87 174.68 131.93 174.39 131.46 C 174.81 130.40 177.65 129.13 176.12 127.93 C 174.80 126.34 172.84 126.82 171.12 127.22 C 170.54 128.08 170.17 129.00 170.01 129.99 C 171.36 131.26 173.20 131.85 174.66 132.99 C 171.73 133.23 173.16 137.69 170.32 137.93 L 170.98 139.07 C 168.34 139.22 166.24 137.38 164.22 135.95 C 164.58 135.22 165.31 133.77 165.68 133.04 C 166.01 134.51 166.34 135.97 166.67 137.44 C 167.34 136.97 168.00 136.51 168.67 136.04 L 167.16 135.47 L 166.29 133.25 L 168.28 133.58 C 167.67 132.98 167.08 132.39 166.48 131.80 C 166.76 131.29 167.30 130.27 167.58 129.76 C 166.65 128.88 163.85 128.10 165.55 126.55 C 166.57 124.80 168.22 123.61 170.22 124.79 C 169.48 123.92 168.41 123.52 167.41 123.06 M 180.00 128.12 C 181.49 130.02 182.40 132.33 184.25 133.94 C 182.97 133.42 181.83 133.63 180.85 134.56 C 182.23 134.49 183.62 134.47 185.01 134.49 C 184.53 133.21 183.86 132.05 182.98 131.00 L 184.90 131.27 C 184.07 130.79 183.18 130.66 182.26 130.86 C 182.93 129.16 180.90 128.89 180.00 128.12 M 136.00 132.95 C 135.97 138.50 144.51 141.74 147.76 136.92 C 149.28 135.18 148.19 133.01 147.68 131.11 C 147.69 132.90 148.48 135.29 146.59 136.42 C 143.80 137.97 139.51 137.94 137.63 134.98 C 136.45 133.46 137.20 131.49 137.79 129.91 C 137.12 130.87 136.16 131.72 136.00 132.95 M 169.26 138.24 L 170.32 137.93 C 170.52 137.51 170.93 136.67 171.13 136.26 C 170.19 135.71 168.24 137.36 169.26 138.24 Z" />
<path fill="#39bee7" opacity="1.00" d=" M 151.15 66.61 L 151.87 66.91 C 152.39 67.13 153.41 67.58 153.92 67.80 C 149.32 74.52 144.54 81.12 139.72 87.68 C 138.02 89.71 138.23 92.47 138.59 94.91 C 137.08 91.90 135.37 87.89 137.76 84.87 C 142.30 78.84 146.87 72.83 151.15 66.61 Z" />
<path fill="#39bee7" opacity="1.00" d=" M 482.65 70.52 C 489.51 70.52 496.37 70.41 503.23 70.58 C 498.11 114.93 492.94 159.29 487.75 203.63 C 480.91 203.60 474.07 203.66 467.24 203.60 C 472.27 159.22 477.57 114.88 482.65 70.52 Z" />
<path fill="#39bee7" opacity="1.00" d=" M 622.55 70.26 C 629.71 70.24 636.87 70.26 644.04 70.25 C 647.38 114.61 650.72 158.97 654.05 203.33 C 647.24 203.44 640.43 203.34 633.62 203.38 C 633.21 195.01 632.89 186.63 632.59 178.25 C 624.58 178.36 616.57 178.40 608.56 178.39 C 606.36 186.73 603.88 195.01 601.81 203.38 C 595.00 203.62 588.19 203.48 581.39 203.46 C 594.81 158.98 608.91 114.68 622.55 70.26 M 613.42 160.50 C 619.52 160.50 625.62 160.48 631.72 160.51 C 630.98 141.70 629.89 122.89 629.34 104.06 C 623.74 122.79 618.76 141.70 613.42 160.50 Z" />
<path fill="#39bee7" opacity="1.00" d=" M 681.10 70.22 C 687.92 70.32 694.74 70.15 701.56 70.32 C 697.25 108.53 692.61 146.70 688.33 184.90 C 699.00 184.85 709.66 184.87 720.33 184.89 C 719.75 191.06 718.93 197.20 718.25 203.36 C 700.69 203.37 683.13 203.41 665.58 203.34 C 670.70 158.96 675.80 114.58 681.10 70.22 Z" />
<path fill="#39bee7" opacity="1.00" d=" M 250.90 70.88 C 272.21 70.90 293.52 70.54 314.83 70.85 C 314.20 76.94 313.42 83.01 312.75 89.10 C 305.50 89.16 298.25 89.11 291.00 89.13 C 286.55 127.36 282.06 165.60 277.67 203.84 C 270.90 203.94 264.13 203.80 257.36 203.92 C 261.39 165.65 266.14 127.42 270.56 89.18 C 263.32 89.04 256.07 89.19 248.83 89.10 C 249.43 83.02 250.21 76.95 250.90 70.88 Z" />
<path fill="#39bee7" opacity="1.00" d=" M 319.59 70.76 C 326.68 70.74 333.77 70.74 340.86 70.76 C 343.73 89.48 346.97 108.14 349.63 126.89 C 357.35 108.31 364.32 89.42 371.82 70.75 C 378.87 70.64 385.96 70.38 393.00 70.87 C 387.17 85.18 380.75 99.26 374.70 113.48 C 368.90 127.35 362.03 140.77 356.89 154.90 C 354.71 171.15 353.14 187.50 351.04 203.76 C 344.17 203.69 337.30 203.85 330.43 203.67 C 332.18 187.43 334.28 171.22 335.99 154.98 C 335.39 144.02 331.60 133.59 329.70 122.84 C 326.42 105.46 322.52 88.19 319.59 70.76 Z" />
<path fill="#39bee7" opacity="1.00" d=" M 403.26 70.71 C 420.82 70.50 438.38 70.71 455.94 70.61 C 459.03 70.53 462.59 70.82 464.79 73.28 C 466.90 75.66 466.95 79.08 466.58 82.07 C 464.28 101.72 462.00 121.37 459.72 141.02 C 459.26 144.69 459.16 148.71 456.79 151.76 C 454.54 154.75 450.62 155.88 447.02 155.76 C 436.01 155.66 425.00 155.85 414.00 155.88 C 412.14 171.82 410.25 187.77 408.45 203.72 C 401.63 203.78 394.82 203.74 388.00 203.74 C 392.74 159.37 398.33 115.07 403.26 70.71 M 421.78 88.58 C 419.95 105.06 417.97 121.52 416.07 137.99 C 423.80 138.02 431.54 137.97 439.28 138.02 C 441.23 121.46 443.42 104.89 444.94 88.29 C 437.22 88.44 429.50 88.43 421.78 88.58 Z" />
<path fill="#39bee7" opacity="1.00" d=" M 521.27 74.37 C 523.55 71.46 527.43 70.41 530.99 70.49 C 545.68 70.50 560.37 70.51 575.07 70.49 C 577.84 70.42 580.86 71.08 582.78 73.24 C 584.80 75.63 584.82 78.98 584.46 81.93 C 583.16 92.63 582.04 103.36 580.67 114.04 C 574.11 114.81 567.03 114.18 560.27 114.34 C 561.20 105.69 562.16 97.03 563.30 88.40 C 555.03 88.06 546.74 88.33 538.46 88.26 C 534.68 120.73 530.97 153.21 527.09 185.67 C 535.35 185.86 543.62 185.68 551.89 185.77 C 553.01 176.52 554.05 167.26 555.13 158.01 C 561.93 158.09 568.73 157.85 575.53 157.90 C 574.29 169.93 572.83 181.94 571.38 193.95 C 570.82 199.20 566.21 203.52 560.87 203.45 C 546.25 203.64 531.63 203.32 517.01 203.63 C 514.09 203.59 510.83 203.56 508.43 201.66 C 505.83 199.69 505.37 196.11 505.70 193.08 C 509.90 156.69 514.17 120.31 518.38 83.92 C 518.71 80.60 519.11 77.06 521.27 74.37 Z" />
<path fill="#39bee7" opacity="1.00" d=" M 168.27 94.97 C 171.23 89.91 174.55 85.04 177.94 80.25 C 178.54 80.63 179.75 81.37 180.36 81.75 C 176.51 87.94 171.35 93.61 169.35 100.74 C 168.39 99.02 167.10 96.94 168.27 94.97 Z" />
<path fill="#39bee7" opacity="1.00" d=" M 207.33 99.70 C 211.10 105.07 212.92 111.96 211.20 118.41 C 206.61 140.70 199.25 163.06 185.45 181.45 C 181.39 187.16 175.31 191.44 168.61 193.49 C 166.86 193.96 165.12 194.45 163.36 194.88 L 164.42 192.99 C 161.39 193.95 158.22 194.74 155.03 194.13 C 153.18 192.94 151.37 191.70 149.66 190.33 C 157.77 194.60 167.70 191.98 174.45 186.37 C 183.66 178.84 189.83 168.33 194.84 157.71 C 201.17 143.97 205.71 129.40 208.26 114.49 C 209.17 109.56 208.55 104.52 207.33 99.70 Z" />
<path fill="#39bee7" opacity="1.00" d=" M 25.01 121.12 C 31.52 132.03 38.52 142.64 45.44 153.28 C 44.84 153.67 43.62 154.44 43.02 154.82 C 36.93 145.45 30.54 136.25 24.55 126.81 C 24.66 124.91 24.89 123.02 25.01 121.12 Z" />
<path fill="#39bee7" opacity="1.00" d=" M 171.30 127.92 C 172.56 127.90 173.81 127.88 175.08 127.88 C 175.14 129.05 174.73 130.09 173.85 130.99 C 172.91 130.65 171.97 130.31 171.02 129.97 C 171.09 129.46 171.23 128.44 171.30 127.92 Z" />
<path fill="#39bee7" opacity="1.00" d=" M 23.63 131.07 C 29.14 139.72 35.04 148.12 40.57 156.76 L 40.17 156.41 C 36.70 158.05 32.69 158.33 29.24 156.43 C 32.32 157.11 35.37 156.29 38.21 155.14 C 37.58 154.22 36.96 153.30 36.34 152.39 C 33.52 152.82 30.46 153.50 27.74 152.27 C 25.97 151.33 24.70 149.70 23.62 148.06 C 22.03 142.49 23.73 136.72 23.63 131.07 Z" />
</g>
<g id="#868787fc">
<path fill="#868787" opacity="1.00" d=" M 953.99 204.37 C 955.40 204.37 956.82 204.37 958.24 204.38 C 958.24 205.79 958.25 207.20 958.27 208.62 C 960.45 208.60 962.65 208.62 964.85 208.71 C 964.90 207.26 964.97 205.81 965.06 204.37 C 966.45 204.37 967.85 204.38 969.27 204.39 C 968.93 206.86 970.38 211.11 967.05 211.98 C 963.38 212.22 959.67 212.27 956.01 211.94 C 952.83 210.89 954.33 206.82 953.99 204.37 Z" />
<path fill="#868787" opacity="1.00" d=" M 462.68 214.52 C 464.25 214.51 465.82 214.51 467.39 214.52 C 467.36 237.10 467.40 259.67 467.37 282.25 C 465.45 282.25 463.54 282.25 461.63 282.25 C 461.60 266.08 461.63 249.91 461.62 233.74 C 460.62 235.23 460.06 236.95 459.48 238.63 C 454.26 253.15 448.88 267.62 443.71 282.16 C 442.31 282.22 440.91 282.28 439.53 282.36 C 439.20 259.74 439.40 237.09 439.43 214.46 C 441.32 214.48 443.22 214.49 445.12 214.51 C 445.21 230.40 444.96 246.30 445.25 262.18 C 451.31 246.39 456.86 230.40 462.68 214.52 Z" />
<path fill="#868787" opacity="1.00" d=" M 478.14 214.42 C 480.07 214.48 482.01 214.48 483.95 214.45 C 484.35 224.36 484.02 234.30 484.12 244.22 C 489.53 244.26 494.95 244.24 500.36 244.24 C 500.45 234.30 500.21 224.36 500.49 214.43 C 502.49 214.48 504.49 214.50 506.50 214.51 C 506.51 237.09 506.51 259.66 506.50 282.24 C 504.50 282.24 502.50 282.26 500.51 282.32 C 500.17 271.47 500.48 260.61 500.36 249.76 C 494.95 249.75 489.54 249.75 484.13 249.77 C 484.12 260.59 484.13 271.42 484.12 282.25 C 482.08 282.25 480.04 282.25 478.00 282.25 C 478.09 259.64 477.81 237.02 478.14 214.42 Z" />
<path fill="#868787" opacity="1.00" d=" M 1013.75 214.54 C 1015.62 214.49 1017.50 214.49 1019.40 214.54 C 1019.35 237.11 1019.40 259.68 1019.37 282.25 C 1017.44 282.25 1015.53 282.25 1013.63 282.25 C 1013.61 266.85 1013.61 251.45 1013.63 236.06 C 1010.61 249.49 1006.62 262.70 1003.22 276.05 L 1002.00 275.75 C 998.22 262.59 994.81 249.30 991.36 236.04 C 991.69 251.44 991.43 266.85 991.50 282.25 C 989.57 282.25 987.66 282.25 985.75 282.25 C 985.74 259.66 985.74 237.08 985.75 214.50 C 987.62 214.49 989.50 214.49 991.39 214.48 C 995.07 229.06 998.76 243.62 1002.39 258.21 C 1006.86 243.90 1009.86 229.06 1013.75 214.54 Z" />
<path fill="#868787" opacity="1.00" d=" M 1030.14 214.42 C 1037.37 214.54 1044.61 214.54 1051.85 214.42 C 1052.27 216.21 1052.07 218.15 1052.13 220.00 C 1046.79 220.01 1041.45 219.98 1036.11 220.03 C 1036.14 228.35 1036.12 236.67 1036.12 244.99 C 1040.97 245.04 1045.82 244.91 1050.68 245.07 C 1050.64 246.88 1050.61 248.69 1050.61 250.51 C 1045.77 250.52 1040.93 250.46 1036.10 250.55 C 1036.16 259.28 1036.10 268.01 1036.13 276.75 C 1041.54 276.75 1046.96 276.74 1052.38 276.75 C 1052.37 278.58 1052.37 280.41 1052.38 282.25 C 1044.91 282.26 1037.46 282.25 1030.00 282.25 C 1030.09 259.64 1029.82 237.02 1030.14 214.42 Z" />
<path fill="#868787" opacity="1.00" d=" M 1061.59 214.56 C 1069.04 214.43 1076.49 214.49 1083.94 214.52 C 1086.42 214.42 1088.64 216.57 1088.59 219.08 C 1088.68 229.42 1088.61 239.76 1088.62 250.10 C 1088.79 252.40 1087.31 254.80 1084.97 255.26 C 1079.22 255.66 1073.44 255.08 1067.69 255.54 C 1067.86 264.41 1067.67 273.28 1067.79 282.14 C 1065.73 282.22 1063.67 282.32 1061.63 282.25 C 1061.59 259.69 1061.66 237.12 1061.59 214.56 M 1067.76 220.00 C 1067.75 229.96 1067.75 239.92 1067.76 249.87 C 1072.66 249.88 1077.56 249.86 1082.47 249.89 C 1082.51 239.92 1082.49 229.96 1082.49 220.00 C 1077.57 220.00 1072.66 220.00 1067.76 220.00 Z" />
<path fill="#868787" opacity="1.00" d=" M 257.00 214.49 C 258.88 214.49 260.77 214.50 262.66 214.56 C 266.14 229.39 270.30 244.07 273.60 258.94 C 277.67 244.22 281.13 229.32 284.93 214.53 C 286.80 214.50 288.66 214.47 290.53 214.44 C 290.76 233.97 290.57 253.50 290.63 273.04 C 290.55 276.12 290.87 279.27 290.40 282.33 C 288.56 282.27 286.72 282.24 284.88 282.23 C 284.67 267.10 285.27 251.95 284.56 236.84 C 281.71 249.87 277.86 262.68 274.48 275.59 C 274.15 275.72 273.51 275.98 273.18 276.11 C 269.52 262.76 266.09 249.35 262.41 236.01 C 263.17 251.40 262.58 266.85 262.73 282.26 C 260.82 282.25 258.91 282.25 257.00 282.25 C 257.00 259.66 257.00 237.07 257.00 214.49 Z" />
<path fill="#868787" opacity="1.00" d=" M 310.59 214.49 C 312.62 214.48 314.66 214.50 316.70 214.57 C 320.58 237.14 324.71 259.68 328.61 282.25 C 326.60 282.25 324.59 282.26 322.58 282.28 C 321.62 277.28 321.05 272.22 320.07 267.23 C 315.69 267.32 311.32 267.15 306.95 267.30 C 305.85 272.23 305.34 277.28 304.46 282.25 C 302.47 282.25 300.49 282.25 298.51 282.26 C 302.50 259.66 306.57 237.08 310.59 214.49 M 307.61 261.68 C 311.53 261.79 315.45 261.78 319.37 261.68 C 317.34 249.76 315.54 237.81 313.52 225.89 C 311.44 237.80 309.66 249.76 307.61 261.68 Z" />
<path fill="#868787" opacity="1.00" d=" M 336.63 214.50 C 343.92 214.49 351.21 214.49 358.50 214.50 C 358.50 216.33 358.50 218.16 358.50 220.00 C 353.25 220.00 348.01 219.99 342.76 220.01 C 342.77 240.73 342.73 261.45 342.78 282.18 C 340.72 282.24 338.67 282.27 336.63 282.26 C 336.61 259.67 336.62 237.09 336.63 214.50 Z" />
<path fill="#868787" opacity="1.00" d=" M 376.03 214.50 C 378.06 214.47 380.10 214.50 382.14 214.57 C 386.04 237.14 390.13 259.68 394.07 282.24 C 392.03 282.25 390.00 282.25 387.97 282.25 C 387.16 277.26 386.38 272.26 385.60 267.27 C 381.16 267.24 376.72 267.24 372.28 267.26 C 371.49 272.25 370.69 277.24 369.92 282.23 C 367.92 282.25 365.93 282.25 363.95 282.25 C 367.96 259.66 372.01 237.08 376.03 214.50 M 378.71 226.16 C 377.14 238.07 374.89 249.88 373.10 261.76 C 376.99 261.74 380.88 261.74 384.77 261.75 C 382.69 249.90 381.35 237.88 378.71 226.16 Z" />
<path fill="#868787" opacity="1.00" d=" M 402.28 217.96 C 402.71 215.81 404.85 214.37 407.00 214.50 C 412.96 214.51 418.93 214.42 424.89 214.55 C 427.63 214.53 429.52 217.40 429.13 219.96 C 428.93 225.99 429.53 232.09 428.81 238.07 C 426.75 242.14 421.83 243.51 418.73 246.65 C 422.18 249.70 427.90 251.16 429.16 256.01 C 429.35 263.33 429.26 270.66 429.21 277.99 C 429.24 280.66 426.50 282.55 423.98 282.25 C 417.68 282.09 411.32 282.62 405.06 281.97 C 399.86 279.66 402.75 272.75 402.00 268.37 C 404.04 268.37 406.08 268.37 408.12 268.38 C 408.12 271.17 408.12 273.96 408.14 276.76 C 413.08 276.75 418.02 276.72 422.96 276.78 C 423.04 269.92 422.99 263.06 422.99 256.20 C 419.17 253.30 415.26 250.51 411.48 247.58 C 411.31 247.18 410.96 246.39 410.79 246.00 C 414.83 243.03 418.85 240.04 422.86 237.04 C 422.88 231.36 422.86 225.68 422.88 220.01 C 418.00 219.99 413.13 220.00 408.26 220.00 C 408.24 222.93 408.24 225.85 408.30 228.78 C 406.24 228.87 404.18 228.91 402.13 228.89 C 402.19 225.25 401.91 221.59 402.28 217.96 Z" />
<path fill="#868787" opacity="1.00" d=" M 530.75 214.50 C 539.80 214.51 548.85 214.44 557.90 214.54 C 557.88 216.35 557.88 218.17 557.88 219.99 C 554.36 220.01 550.84 219.96 547.33 220.08 C 547.44 240.81 547.36 261.53 547.37 282.26 C 545.32 282.27 543.27 282.24 541.22 282.18 C 541.27 261.46 541.23 240.73 541.24 220.01 C 537.74 220.00 534.24 220.00 530.75 220.00 C 530.74 218.17 530.74 216.33 530.75 214.50 Z" />
<path fill="#868787" opacity="1.00" d=" M 564.75 214.50 C 566.66 214.49 568.58 214.49 570.50 214.50 C 570.57 230.44 570.39 246.38 570.59 262.31 C 576.70 246.50 582.23 230.45 588.09 214.54 C 589.60 214.50 591.11 214.45 592.63 214.41 C 592.95 236.96 592.61 259.53 592.80 282.08 C 590.88 282.30 588.93 282.27 587.00 282.25 C 586.81 265.83 587.39 249.39 586.69 232.99 C 581.30 249.53 574.83 265.72 569.12 282.15 C 567.65 282.19 566.20 282.24 564.75 282.29 C 564.74 259.69 564.75 237.10 564.75 214.50 Z" />
<path fill="#868787" opacity="1.00" d=" M 603.47 282.28 C 603.28 259.68 603.35 237.07 603.43 214.46 C 612.93 214.59 622.43 214.37 631.92 214.57 C 631.83 237.13 631.91 259.69 631.88 282.24 C 629.83 282.25 627.79 282.25 625.75 282.25 C 625.76 261.52 625.70 240.78 625.78 220.05 C 620.36 219.95 614.93 220.02 609.51 220.00 C 609.44 240.76 609.64 261.52 609.41 282.28 C 607.42 282.26 605.44 282.26 603.47 282.28 Z" />
<path fill="#868787" opacity="1.00" d=" M 642.50 214.50 C 644.41 214.49 646.32 214.49 648.25 214.50 C 648.29 230.38 648.20 246.27 648.29 262.16 C 654.63 246.50 659.93 230.35 665.87 214.51 C 667.41 214.50 668.95 214.50 670.50 214.49 C 670.51 237.08 670.51 259.67 670.50 282.25 C 668.57 282.25 666.66 282.25 664.75 282.25 C 664.70 266.10 664.82 249.95 664.70 233.80 C 658.27 249.74 652.83 266.11 646.83 282.24 C 645.38 282.24 643.93 282.25 642.50 282.26 C 642.49 259.67 642.49 237.08 642.50 214.50 Z" />
<path fill="#868787" opacity="1.00" d=" M 681.09 214.54 C 683.14 214.49 685.19 214.49 687.26 214.50 C 687.24 224.39 687.28 234.28 687.23 244.17 C 692.61 244.34 698.00 244.17 703.39 244.28 C 703.63 234.36 703.41 224.43 703.50 214.51 C 705.51 214.49 707.53 214.48 709.56 214.46 C 709.63 237.07 709.77 259.70 709.49 282.30 C 707.52 282.26 705.56 282.26 703.60 282.28 C 703.33 271.44 703.59 260.60 703.48 249.76 C 696.03 249.76 688.58 249.75 681.14 249.77 C 681.07 238.02 681.16 226.28 681.09 214.54 Z" />
<path fill="#868787" opacity="1.00" d=" M 720.20 214.59 C 722.25 214.51 724.31 214.45 726.37 214.49 C 726.49 224.43 726.17 234.38 726.54 244.31 C 731.86 244.19 737.19 244.23 742.51 244.29 C 742.76 234.36 742.54 224.42 742.63 214.49 C 744.68 214.44 746.74 214.52 748.81 214.60 C 748.71 237.12 748.74 259.63 748.79 282.15 C 746.73 282.21 744.67 282.32 742.63 282.25 C 742.52 271.40 742.81 260.54 742.48 249.70 C 737.16 249.79 731.84 249.80 726.52 249.69 C 726.18 260.54 726.48 271.40 726.37 282.26 C 724.32 282.25 722.27 282.25 720.24 282.22 C 720.22 259.68 720.30 237.13 720.20 214.59 Z" />
<path fill="#868787" opacity="1.00" d=" M 761.31 215.31 C 761.73 215.13 762.58 214.77 763.00 214.59 C 769.97 214.40 776.96 214.46 783.94 214.56 C 786.68 214.60 788.47 217.45 788.13 220.00 C 788.12 239.01 788.14 258.03 788.12 277.04 C 788.52 279.96 785.87 282.57 782.97 282.25 C 776.63 282.24 770.30 282.30 763.97 282.22 C 761.20 282.40 759.05 279.70 759.37 277.06 C 759.37 258.04 759.38 239.03 759.36 220.02 C 759.24 218.25 759.73 216.32 761.31 215.31 M 765.51 220.00 C 765.44 238.85 765.63 257.70 765.42 276.55 C 770.90 277.01 776.42 276.58 781.92 276.80 C 782.10 257.87 781.95 238.93 782.00 220.00 C 776.50 220.00 771.00 220.00 765.51 220.00 Z" />
<path fill="#868787" opacity="1.00" d=" M 798.75 214.50 C 806.02 214.46 813.29 214.54 820.56 214.46 C 820.60 216.28 820.64 218.10 820.69 219.92 C 815.42 220.09 810.15 219.96 804.89 220.01 C 804.88 240.75 804.88 261.50 804.88 282.24 C 802.83 282.25 800.79 282.25 798.75 282.25 C 798.74 259.67 798.75 237.09 798.75 214.50 Z" />
<path fill="#868787" opacity="1.00" d=" M 830.37 215.59 C 831.86 214.17 834.05 214.56 835.93 214.47 C 841.60 214.55 847.27 214.42 852.95 214.52 C 855.39 214.40 857.63 216.64 857.49 219.09 C 857.54 238.37 857.49 257.66 857.51 276.94 C 857.89 279.60 855.75 282.36 852.98 282.21 C 846.31 282.27 839.64 282.32 832.99 282.19 C 830.32 282.19 828.52 279.48 828.76 277.00 C 828.72 258.34 828.78 239.68 828.73 221.03 C 828.72 219.12 828.71 216.87 830.37 215.59 M 834.89 220.01 C 834.91 238.92 834.82 257.84 834.93 276.75 C 840.38 276.75 845.83 276.71 851.28 276.78 C 851.49 257.86 851.31 238.93 851.37 220.00 C 845.87 220.00 840.38 220.00 834.89 220.01 Z" />
<path fill="#868787" opacity="1.00" d=" M 885.55 282.26 C 885.43 259.67 885.49 237.07 885.53 214.48 C 892.81 214.51 900.09 214.48 907.38 214.50 C 907.36 216.33 907.37 218.16 907.38 220.00 C 902.12 220.00 896.88 219.99 891.63 220.01 C 891.55 240.77 891.78 261.54 891.52 282.30 C 889.52 282.26 887.53 282.25 885.55 282.26 Z" />
<path fill="#868787" opacity="1.00" d=" M 915.57 282.28 C 915.41 259.68 915.50 237.08 915.53 214.48 C 922.87 214.49 930.21 214.53 937.55 214.46 C 937.60 216.28 937.64 218.10 937.69 219.93 C 932.34 220.08 926.98 219.96 921.63 220.00 C 921.63 228.33 921.62 236.67 921.63 245.00 C 926.46 245.00 931.29 245.00 936.12 245.00 C 936.12 246.83 936.11 248.66 936.13 250.50 C 931.28 250.54 926.45 250.45 921.61 250.55 C 921.65 259.28 921.62 268.00 921.63 276.73 C 927.00 276.74 932.38 276.79 937.76 276.70 C 937.84 278.54 937.90 280.39 937.91 282.24 C 930.46 282.28 923.01 282.22 915.57 282.28 Z" />
<path fill="#868787" opacity="1.00" d=" M 947.11 214.51 C 949.02 214.50 950.95 214.49 952.89 214.51 C 952.87 228.01 952.89 241.51 952.88 255.02 C 952.88 257.36 952.69 259.73 953.20 262.04 C 959.05 246.19 964.61 230.22 970.61 214.42 C 972.10 214.46 973.61 214.49 975.12 214.52 C 975.13 237.10 975.13 259.67 975.12 282.25 C 973.20 282.25 971.28 282.25 969.38 282.25 C 969.41 265.84 969.28 249.43 969.44 233.03 C 963.14 249.35 957.52 265.94 951.29 282.30 C 949.89 282.27 948.50 282.25 947.12 282.23 C 947.11 259.66 947.13 237.08 947.11 214.51 Z" />
<path fill="#868787" opacity="1.00" d=" M 1107.20 214.58 C 1109.23 214.50 1111.26 214.47 1113.31 214.47 C 1117.34 237.06 1121.32 259.65 1125.31 282.25 C 1123.26 282.25 1121.22 282.25 1119.19 282.24 C 1118.40 277.23 1117.63 272.23 1116.80 267.23 C 1112.36 267.29 1107.92 267.21 1103.49 267.30 C 1102.75 272.27 1101.91 277.22 1101.17 282.19 C 1099.18 282.24 1097.19 282.26 1095.23 282.27 C 1099.09 259.69 1103.33 237.16 1107.20 214.58 M 1104.32 261.74 C 1108.21 261.75 1112.11 261.73 1116.01 261.77 C 1114.18 249.82 1112.04 237.92 1110.35 225.95 C 1107.94 237.80 1106.39 249.82 1104.32 261.74 Z" />
</g>
</svg>
