<?xml version="1.0" encoding="UTF-8" ?>
<!DOCTYPE svg PUBLIC "-//W3C//DTD SVG 1.1//EN" "http://www.w3.org/Graphics/SVG/1.1/DTD/svg11.dtd">
<svg width="152pt" height="152pt" viewBox="0 0 152 152" version="1.1" xmlns="http://www.w3.org/2000/svg">
<g id="#f2f7ffff">
<path fill="#f2f7ff" opacity="1.00" d=" M 66.17 0.00 L 79.11 0.00 C 78.79 0.24 78.15 0.71 77.83 0.95 C 74.77 1.18 71.69 1.09 68.64 1.49 C 68.02 1.12 66.78 0.37 66.17 0.00 Z" />
<path fill="#f2f7ff" opacity="1.00" d=" M 88.89 1.18 C 92.60 1.39 96.22 2.40 99.70 3.66 C 99.78 3.96 99.93 4.56 100.00 4.86 C 96.54 3.89 93.04 3.04 89.56 2.17 C 89.39 1.93 89.05 1.43 88.89 1.18 Z" />
<path fill="#f2f7ff" opacity="1.00" d=" M 46.26 5.82 C 49.72 4.49 53.19 3.07 56.83 2.32 C 56.92 2.57 57.10 3.08 57.19 3.33 C 53.79 4.45 50.33 5.43 47.05 6.87 C 46.85 6.61 46.46 6.08 46.26 5.82 Z" />
<path fill="#f2f7ff" opacity="1.00" d=" M 64.64 6.91 C 94.96 1.48 128.00 18.77 139.66 47.50 C 151.87 72.61 145.90 104.66 126.51 124.49 C 114.21 137.34 96.86 145.25 79.07 145.92 C 62.08 146.76 44.92 141.02 31.77 130.26 C 17.79 118.97 8.47 102.03 6.53 84.15 C 4.29 66.51 9.32 48.14 20.03 33.98 C 30.63 19.61 47.05 9.81 64.64 6.91 M 84.23 44.37 C 81.91 45.44 83.52 48.91 85.96 48.19 C 95.45 48.39 103.78 56.62 104.16 66.10 C 103.78 68.20 105.71 70.44 107.72 68.72 C 109.89 55.69 97.17 43.03 84.23 44.37 M 54.38 47.43 C 51.28 49.56 48.95 52.66 46.18 55.20 C 43.22 57.50 44.14 61.69 45.42 64.66 C 48.37 71.24 52.91 76.94 57.57 82.38 C 64.71 90.31 72.52 97.74 81.50 103.57 C 85.53 106.05 90.01 108.83 94.98 107.82 C 97.75 106.05 99.72 103.29 102.17 101.12 C 103.71 99.58 106.22 97.66 104.75 95.22 C 102.01 89.81 97.32 85.22 91.92 82.48 C 88.28 80.99 86.66 85.50 84.03 87.01 C 80.20 86.72 77.14 84.05 74.29 81.74 C 70.36 78.07 66.14 73.79 65.27 68.27 C 66.77 66.04 69.59 64.68 70.33 61.99 C 69.16 57.38 65.50 54.01 62.12 50.90 C 59.95 49.15 57.39 46.79 54.38 47.43 M 81.31 52.49 C 79.27 53.50 80.87 56.55 83.01 56.10 C 90.32 56.18 96.31 62.77 96.40 69.96 C 96.28 72.05 98.88 72.41 100.07 71.06 C 101.55 60.92 91.40 50.62 81.31 52.49 M 78.44 60.55 C 76.70 61.74 78.14 64.03 79.93 63.91 C 84.33 64.08 88.17 67.67 88.37 72.13 C 87.92 74.50 91.61 75.53 92.31 73.14 C 93.13 65.93 85.45 58.30 78.44 60.55 Z" />
<path fill="#f2f7ff" opacity="1.00" d=" M 109.34 8.09 C 113.34 8.93 116.81 11.53 119.91 14.10 C 118.17 14.72 116.93 13.02 115.52 12.34 C 113.53 10.83 110.79 10.24 109.34 8.09 Z" />
<path fill="#f2f7ff" opacity="1.00" d=" M 31.96 13.84 C 33.76 12.81 35.41 10.73 37.69 11.27 C 34.50 13.65 31.25 15.95 27.95 18.17 C 28.04 15.87 30.48 15.13 31.96 13.84 Z" />
<path fill="#f2f7ff" opacity="1.00" d=" M 127.32 20.23 C 130.68 22.49 133.74 25.64 135.51 29.29 C 133.13 28.18 131.86 25.74 129.97 24.03 C 128.98 22.85 127.35 21.94 127.32 20.23 Z" />
<path fill="#f2f7ff" opacity="1.00" d=" M 13.16 34.04 C 14.28 30.12 17.58 27.07 20.43 24.28 C 20.74 26.04 19.03 27.11 18.16 28.39 C 16.41 30.20 15.39 32.74 13.16 34.04 Z" />
<path fill="#f2f7ff" opacity="1.00" d=" M 141.03 37.06 C 143.73 40.06 145.22 43.88 146.63 47.61 C 144.96 47.88 144.83 45.90 144.17 44.84 C 143.24 42.20 141.00 39.96 141.03 37.06 Z" />
<path fill="#f2f7ff" opacity="1.00" d=" M 3.33 52.92 C 4.64 49.28 5.86 45.56 7.92 42.26 C 8.07 42.55 8.37 43.12 8.52 43.41 C 6.97 46.41 5.92 49.62 4.66 52.73 C 4.32 52.78 3.66 52.87 3.33 52.92 Z" />
<path fill="#f2f7ff" opacity="1.00" d=" M 48.00 59.00 C 50.66 56.44 53.24 53.78 55.87 51.19 C 59.94 53.96 63.71 57.34 66.11 61.71 C 64.48 63.41 62.32 64.82 61.42 67.07 C 60.70 71.77 63.86 75.93 66.54 79.47 C 70.94 84.44 76.16 89.79 83.00 90.88 C 86.55 91.61 88.56 88.20 90.83 86.19 C 94.95 88.87 98.57 92.33 101.09 96.57 C 98.45 99.20 95.81 101.85 93.13 104.44 C 86.43 102.84 80.89 98.49 75.61 94.30 C 67.49 87.50 60.00 79.86 53.84 71.22 C 51.32 67.48 48.63 63.58 48.00 59.00 Z" />
<path fill="#f2f7ff" opacity="1.00" d=" M 148.70 57.81 C 149.03 57.76 149.70 57.65 150.03 57.60 C 150.72 60.63 150.85 63.81 152.00 66.72 L 152.00 68.84 C 151.66 68.72 150.97 68.47 150.63 68.34 C 150.13 64.81 149.60 61.27 148.70 57.81 Z" />
<path fill="#f2f7ff" opacity="1.00" d=" M 0.00 66.13 C 0.57 65.20 1.09 64.25 1.70 63.36 C 1.86 66.97 1.59 70.91 0.00 74.19 L 0.00 66.13 Z" />
<path fill="#f2f7ff" opacity="1.00" d=" M 150.40 85.81 C 150.95 82.53 149.85 78.58 152.00 75.79 L 152.00 82.11 C 151.78 83.47 151.33 86.20 151.10 87.56 C 150.93 87.13 150.58 86.25 150.40 85.81 Z" />
<path fill="#f2f7ff" opacity="1.00" d=" M 0.46 84.76 L 1.59 85.60 C 2.19 89.02 2.81 92.42 3.66 95.79 C 3.38 95.85 2.82 95.98 2.54 96.04 C 1.50 92.36 0.65 88.59 0.46 84.76 Z" />
<path fill="#f2f7ff" opacity="1.00" d=" M 144.13 107.95 C 145.64 104.31 146.31 100.05 148.68 96.91 C 148.74 100.67 146.79 104.17 145.25 107.51 C 144.97 107.62 144.41 107.84 144.13 107.95 Z" />
<path fill="#f2f7ff" opacity="1.00" d=" M 6.02 105.93 C 6.35 106.02 6.99 106.19 7.32 106.28 C 8.81 109.59 11.05 112.59 12.07 116.09 C 8.78 113.80 7.77 109.39 6.02 105.93 Z" />
<path fill="#f2f7ff" opacity="1.00" d=" M 138.51 117.42 C 138.89 117.29 139.65 117.04 140.03 116.91 C 138.34 120.16 136.04 123.08 133.57 125.76 C 133.22 125.75 132.53 125.74 132.19 125.73 C 134.40 123.04 136.47 120.24 138.51 117.42 Z" />
<path fill="#f2f7ff" opacity="1.00" d=" M 17.45 124.85 C 17.73 124.69 18.29 124.35 18.58 124.18 C 20.72 126.83 23.26 129.11 25.58 131.58 C 25.61 131.93 25.68 132.62 25.71 132.97 C 22.53 130.74 20.11 127.64 17.45 124.85 Z" />
<path fill="#f2f7ff" opacity="1.00" d=" M 115.78 140.26 C 118.41 137.21 122.12 135.35 125.18 132.77 C 125.93 134.44 123.85 135.04 122.96 135.99 C 120.66 137.55 118.63 139.79 115.78 140.26 Z" />
<path fill="#f2f7ff" opacity="1.00" d=" M 34.16 138.31 C 37.24 140.24 40.47 141.90 43.59 143.75 C 43.69 144.03 43.89 144.57 43.99 144.85 C 40.49 143.70 37.28 141.76 34.29 139.65 C 34.26 139.31 34.20 138.64 34.16 138.31 Z" />
<path fill="#f2f7ff" opacity="1.00" d=" M 95.95 148.87 C 99.25 146.71 103.32 146.18 106.79 144.33 C 106.77 144.66 106.73 145.33 106.71 145.67 C 103.30 147.15 99.76 148.99 95.95 148.87 Z" />
<path fill="#f2f7ff" opacity="1.00" d=" M 53.39 148.17 C 54.98 146.69 57.42 148.77 59.31 148.79 C 61.03 149.34 66.15 149.00 63.81 152.00 L 63.36 152.00 C 63.49 151.80 63.77 151.39 63.91 151.19 C 60.57 150.18 56.03 150.50 53.39 148.17 Z" />
<path fill="#f2f7ff" opacity="1.00" d=" M 67.80 152.00 C 73.95 152.10 79.93 150.37 86.11 150.31 C 85.91 150.73 85.51 151.58 85.31 152.00 L 67.80 152.00 Z" />
</g>
<g id="#0635c9ff">
<path fill="#0635c9" opacity="1.00" d=" M 84.23 44.37 C 97.17 43.03 109.89 55.69 107.72 68.72 C 105.71 70.44 103.78 68.20 104.16 66.10 C 103.78 56.62 95.45 48.39 85.96 48.19 C 83.52 48.91 81.91 45.44 84.23 44.37 Z" />
<path fill="#0635c9" opacity="1.00" d=" M 54.38 47.43 C 57.39 46.79 59.95 49.15 62.12 50.90 C 65.50 54.01 69.16 57.38 70.33 61.99 C 69.59 64.68 66.77 66.04 65.27 68.27 C 66.14 73.79 70.36 78.07 74.29 81.74 C 77.14 84.05 80.20 86.72 84.03 87.01 C 86.66 85.50 88.28 80.99 91.92 82.48 C 97.32 85.22 102.01 89.81 104.75 95.22 C 106.22 97.66 103.71 99.58 102.17 101.12 C 99.72 103.29 97.75 106.05 94.98 107.82 C 90.01 108.83 85.53 106.05 81.50 103.57 C 72.52 97.74 64.71 90.31 57.57 82.38 C 52.91 76.94 48.37 71.24 45.42 64.66 C 44.14 61.69 43.22 57.50 46.18 55.20 C 48.95 52.66 51.28 49.56 54.38 47.43 M 48.00 59.00 C 48.63 63.58 51.32 67.48 53.84 71.22 C 60.00 79.86 67.49 87.50 75.61 94.30 C 80.89 98.49 86.43 102.84 93.13 104.44 C 95.81 101.85 98.45 99.20 101.09 96.57 C 98.57 92.33 94.95 88.87 90.83 86.19 C 88.56 88.20 86.55 91.61 83.00 90.88 C 76.16 89.79 70.94 84.44 66.54 79.47 C 63.86 75.93 60.70 71.77 61.42 67.07 C 62.32 64.82 64.48 63.41 66.11 61.71 C 63.71 57.34 59.94 53.96 55.87 51.19 C 53.24 53.78 50.66 56.44 48.00 59.00 Z" />
<path fill="#0635c9" opacity="1.00" d=" M 81.31 52.49 C 91.40 50.62 101.55 60.92 100.07 71.06 C 98.88 72.41 96.28 72.05 96.40 69.96 C 96.31 62.77 90.32 56.18 83.01 56.10 C 80.87 56.55 79.27 53.50 81.31 52.49 Z" />
<path fill="#0635c9" opacity="1.00" d=" M 78.44 60.55 C 85.45 58.30 93.13 65.93 92.31 73.14 C 91.61 75.53 87.92 74.50 88.37 72.13 C 88.17 67.67 84.33 64.08 79.93 63.91 C 78.14 64.03 76.70 61.74 78.44 60.55 Z" />
</g>
</svg>
