<?xml version="1.0" encoding="UTF-8" ?>
<!DOCTYPE svg PUBLIC "-//W3C//DTD SVG 1.1//EN" "http://www.w3.org/Graphics/SVG/1.1/DTD/svg11.dtd">
<svg width="152pt" height="152pt" viewBox="0 0 152 152" version="1.1" xmlns="http://www.w3.org/2000/svg">
<g id="#f2f7ffff">
<path fill="#f2f7ff" opacity="1.00" d=" M 67.24 0.00 L 79.22 0.00 C 78.86 0.22 78.12 0.67 77.76 0.89 C 74.62 1.20 71.46 1.19 68.33 1.45 C 68.05 1.09 67.51 0.36 67.24 0.00 Z" />
<path fill="#f2f7ff" opacity="1.00" d=" M 88.62 1.92 C 90.84 0.41 93.50 2.08 95.86 2.43 C 97.32 3.07 99.85 2.82 100.06 4.87 C 96.26 3.83 92.44 2.88 88.62 1.92 Z" />
<path fill="#f2f7ff" opacity="1.00" d=" M 47.87 5.18 C 50.72 4.13 53.59 2.90 56.62 2.46 C 56.84 2.64 57.28 3.02 57.50 3.20 C 54.00 4.26 50.59 5.58 47.12 6.68 C 45.29 6.74 47.23 5.11 47.87 5.18 Z" />
<path fill="#f2f7ff" opacity="1.00" d=" M 64.65 6.91 C 79.14 4.56 94.34 6.81 107.44 13.46 C 121.88 20.72 133.96 33.05 139.95 48.16 C 146.52 62.00 147.56 78.13 143.93 92.93 C 139.57 110.55 128.11 126.32 112.54 135.71 C 100.46 143.12 86.10 146.75 71.94 145.86 C 51.66 144.82 32.07 134.34 20.01 118.00 C 10.11 104.93 5.15 88.28 6.14 71.92 C 6.98 55.66 13.88 39.85 25.02 28.00 C 35.46 16.89 49.61 9.39 64.65 6.91 M 61.51 49.11 C 61.69 50.72 61.85 52.33 62.00 53.95 C 60.77 52.91 59.56 51.86 58.36 50.80 C 57.43 51.75 56.55 52.76 55.76 53.83 C 56.54 53.90 58.11 54.02 58.90 54.09 C 62.17 57.22 65.35 60.46 68.57 63.66 C 65.62 66.51 62.62 69.31 59.72 72.21 C 57.51 70.30 55.75 67.82 53.23 66.31 C 50.92 68.03 49.06 70.27 47.05 72.30 C 44.75 68.72 46.82 64.27 49.73 61.76 C 51.33 59.84 54.43 58.53 54.01 55.60 C 49.35 58.69 44.41 63.00 44.00 68.98 C 44.21 71.27 45.34 73.34 46.24 75.42 C 48.83 73.46 50.99 71.04 53.29 68.77 C 55.36 70.83 57.44 72.89 59.59 74.87 C 60.07 74.52 61.03 73.82 61.51 73.46 C 62.37 74.46 63.23 75.45 64.10 76.44 C 66.39 74.67 68.41 72.59 70.46 70.55 C 78.74 79.23 87.45 87.50 95.82 96.11 C 97.94 98.03 97.64 101.75 95.37 103.43 C 93.34 105.16 89.87 104.86 88.32 102.63 C 81.53 93.90 75.40 84.65 68.53 75.98 C 68.17 76.05 67.45 76.20 67.09 76.27 C 69.15 81.27 73.40 85.21 76.33 89.79 C 72.49 94.50 69.00 99.54 64.74 103.88 C 61.09 106.37 56.13 101.94 58.20 98.02 C 61.68 93.55 66.25 90.06 69.97 85.80 C 69.83 85.30 69.57 84.30 69.43 83.79 C 65.38 87.61 61.43 91.56 57.56 95.56 C 55.38 97.70 55.25 101.51 57.09 103.89 C 59.05 106.77 63.53 106.66 66.28 105.21 C 70.40 100.93 73.83 96.00 77.59 91.40 C 81.45 96.29 84.41 102.02 89.22 106.07 C 91.13 106.02 93.04 106.10 94.94 105.91 C 97.72 104.96 99.47 101.87 99.08 98.98 C 99.19 96.31 97.01 94.44 95.32 92.68 C 89.88 87.37 84.59 81.90 79.15 76.59 C 81.72 74.17 84.20 71.66 86.67 69.13 C 86.01 66.51 85.35 63.87 84.82 61.22 C 87.45 58.67 90.02 56.06 92.62 53.49 C 93.87 53.92 95.12 54.35 96.36 54.78 C 94.35 56.79 92.33 58.80 90.35 60.84 C 90.92 63.12 91.54 65.38 92.24 67.62 C 94.47 68.18 96.69 68.76 98.90 69.36 C 100.95 67.33 102.98 65.29 105.02 63.25 C 105.44 64.51 105.77 65.80 106.03 67.10 C 103.59 69.95 100.78 72.44 98.11 75.06 C 95.44 74.23 92.75 73.45 90.04 72.78 C 88.31 75.15 85.88 77.12 84.91 79.95 C 87.75 80.85 88.94 76.52 90.89 74.97 C 93.56 75.81 96.25 76.56 98.98 77.20 C 101.85 73.97 105.21 71.20 107.99 67.89 C 107.80 65.11 107.30 62.15 105.56 59.88 C 103.14 62.27 100.72 64.64 98.42 67.14 C 96.79 66.73 95.17 66.27 93.57 65.76 C 93.28 64.24 92.99 62.71 92.70 61.18 C 95.13 58.83 97.54 56.47 99.81 53.96 C 97.40 52.59 94.64 52.12 92.00 51.40 C 88.99 54.34 85.87 57.20 83.06 60.34 C 82.48 63.04 83.94 65.82 84.48 68.46 C 82.34 70.76 80.08 72.94 77.92 75.21 C 75.96 73.37 74.06 71.47 72.16 69.57 C 72.13 69.03 72.06 67.96 72.03 67.42 C 71.51 66.95 70.49 66.00 69.97 65.52 C 70.36 64.83 70.75 64.13 71.14 63.44 C 70.09 62.31 69.06 61.17 68.04 60.01 C 69.64 60.04 71.28 60.50 72.86 60.17 C 74.05 59.18 75.10 58.04 76.17 56.93 C 72.49 53.14 68.71 49.43 64.97 45.70 C 63.81 46.83 62.66 47.97 61.51 49.11 M 54.35 54.50 C 53.97 55.91 54.48 56.37 55.87 55.88 C 56.24 54.46 55.73 54.00 54.35 54.50 Z" />
<path fill="#f2f7ff" opacity="1.00" d=" M 109.20 8.19 C 113.32 8.73 116.82 11.61 119.98 14.17 C 118.22 14.54 116.94 13.12 115.53 12.36 C 113.42 10.96 111.00 10.01 109.20 8.19 Z" />
<path fill="#f2f7ff" opacity="1.00" d=" M 31.94 13.84 C 33.74 12.72 35.44 10.93 37.74 11.13 C 34.60 13.68 31.23 15.93 27.89 18.21 C 28.10 15.94 30.42 15.11 31.94 13.84 Z" />
<path fill="#f2f7ff" opacity="1.00" d=" M 127.17 20.23 C 130.69 22.36 133.74 25.66 135.54 29.36 C 133.39 28.25 132.08 26.14 130.40 24.49 C 129.21 23.16 127.65 22.03 127.17 20.23 Z" />
<path fill="#f2f7ff" opacity="1.00" d=" M 19.76 24.59 C 20.03 24.69 20.58 24.91 20.85 25.02 C 18.18 27.96 16.22 31.57 13.17 34.14 C 13.98 30.24 17.51 27.68 19.76 24.59 Z" />
<path fill="#f2f7ff" opacity="1.00" d=" M 140.89 36.99 C 143.74 39.97 145.23 43.90 146.66 47.69 C 144.78 47.65 144.65 45.41 143.84 44.15 C 142.93 41.74 140.95 39.66 140.89 36.99 Z" />
<path fill="#f2f7ff" opacity="1.00" d=" M 3.34 53.03 C 4.56 49.32 5.90 45.61 7.91 42.24 C 8.06 42.53 8.36 43.12 8.52 43.42 C 6.98 46.39 5.97 49.58 4.66 52.65 C 4.33 52.74 3.67 52.94 3.34 53.03 Z" />
<path fill="#f2f7ff" opacity="1.00" d=" M 62.99 55.19 C 64.81 53.21 63.09 50.42 64.66 48.36 C 67.48 51.57 71.73 53.91 73.26 58.02 C 71.71 58.04 70.15 57.96 68.61 57.78 C 67.93 58.15 67.26 58.52 66.58 58.90 C 65.38 57.66 64.18 56.43 62.99 55.19 Z" />
<path fill="#f2f7ff" opacity="1.00" d=" M 148.70 57.83 C 149.02 57.77 149.66 57.65 149.98 57.59 C 150.70 61.07 151.33 64.56 152.00 68.05 L 152.00 68.34 C 151.64 68.37 150.92 68.42 150.56 68.45 C 150.22 64.86 149.57 61.32 148.70 57.83 Z" />
<path fill="#f2f7ff" opacity="1.00" d=" M 0.00 69.49 C 0.35 67.22 0.25 64.72 1.80 62.86 C 1.77 66.23 1.51 69.60 0.89 72.91 C 0.66 73.82 0.22 75.66 0.00 76.57 L 0.00 69.49 Z" />
<path fill="#f2f7ff" opacity="1.00" d=" M 63.03 71.82 C 64.72 69.96 66.64 68.33 68.44 66.59 C 68.90 67.18 69.36 67.78 69.81 68.38 C 67.95 70.16 66.13 71.98 64.32 73.81 C 64.00 73.31 63.36 72.31 63.03 71.82 Z" />
<path fill="#f2f7ff" opacity="1.00" d=" M 150.21 87.08 C 150.83 83.10 150.14 78.80 152.00 75.10 L 152.00 86.06 C 151.55 86.31 150.66 86.83 150.21 87.08 Z" />
<path fill="#f2f7ff" opacity="1.00" d=" M 0.00 85.25 C 0.44 85.29 1.32 85.35 1.75 85.39 C 2.35 88.81 3.35 92.30 3.48 95.72 C 0.54 95.46 1.89 90.43 0.00 88.60 L 0.00 85.25 Z" />
<path fill="#f2f7ff" opacity="1.00" d=" M 144.12 108.06 C 145.55 104.30 146.40 100.11 148.71 96.80 C 148.71 100.57 146.91 104.09 145.28 107.40 C 144.99 107.57 144.41 107.89 144.12 108.06 Z" />
<path fill="#f2f7ff" opacity="1.00" d=" M 6.08 105.50 C 9.21 108.19 10.33 112.65 12.35 116.20 C 8.81 113.91 7.49 109.30 6.08 105.50 Z" />
<path fill="#f2f7ff" opacity="1.00" d=" M 138.53 117.46 C 138.92 117.31 139.70 117.01 140.09 116.86 C 138.33 120.06 136.16 123.07 133.58 125.66 C 133.23 125.74 132.53 125.88 132.18 125.96 C 134.27 123.11 136.40 120.28 138.53 117.46 Z" />
<path fill="#f2f7ff" opacity="1.00" d=" M 17.30 124.56 C 19.34 123.90 20.17 126.41 21.52 127.44 C 22.92 129.31 25.58 130.47 25.84 133.00 C 22.51 130.73 19.93 127.57 17.30 124.56 Z" />
<path fill="#f2f7ff" opacity="1.00" d=" M 115.73 140.21 C 118.55 137.27 122.12 135.21 125.32 132.73 C 125.68 134.43 123.89 135.10 122.90 136.04 C 120.62 137.59 118.59 139.86 115.73 140.21 Z" />
<path fill="#f2f7ff" opacity="1.00" d=" M 33.97 138.31 C 36.33 139.54 38.57 140.97 40.93 142.21 C 42.09 142.94 43.75 143.35 44.01 144.92 C 40.59 143.61 37.27 141.89 34.37 139.64 C 34.27 139.31 34.07 138.64 33.97 138.31 Z" />
<path fill="#f2f7ff" opacity="1.00" d=" M 95.88 148.74 C 99.57 147.05 103.42 145.47 107.38 144.56 C 104.54 147.45 99.89 148.82 95.88 148.74 Z" />
<path fill="#f2f7ff" opacity="1.00" d=" M 53.39 148.18 C 54.98 146.70 57.41 148.76 59.31 148.79 C 61.04 149.34 66.09 148.98 63.83 152.00 L 63.38 152.00 C 63.52 151.81 63.80 151.42 63.94 151.23 C 60.60 150.17 56.05 150.50 53.39 148.18 Z" />
<path fill="#f2f7ff" opacity="1.00" d=" M 69.71 152.00 C 75.21 151.68 80.63 150.40 86.19 150.33 C 85.95 150.75 85.48 151.58 85.24 152.00 L 69.71 152.00 Z" />
</g>
<g id="#254ed0ff">
<path fill="#254ed0" opacity="1.00" d=" M 61.51 49.11 C 62.66 47.97 63.81 46.83 64.97 45.70 C 68.71 49.43 72.49 53.14 76.17 56.93 C 75.10 58.04 74.05 59.18 72.86 60.17 C 71.28 60.50 69.64 60.04 68.04 60.01 C 69.06 61.17 70.09 62.31 71.14 63.44 C 70.75 64.13 70.36 64.83 69.97 65.52 C 70.49 66.00 71.51 66.95 72.03 67.42 C 72.06 67.96 72.13 69.03 72.16 69.57 C 74.06 71.47 75.96 73.37 77.92 75.21 C 80.08 72.94 82.34 70.76 84.48 68.46 C 83.94 65.82 82.48 63.04 83.06 60.34 C 85.87 57.20 88.99 54.34 92.00 51.40 C 94.64 52.12 97.40 52.59 99.81 53.96 C 97.54 56.47 95.13 58.83 92.70 61.18 C 92.99 62.71 93.28 64.24 93.57 65.76 C 95.17 66.27 96.79 66.73 98.42 67.14 C 100.72 64.64 103.14 62.27 105.56 59.88 C 107.30 62.15 107.80 65.11 107.99 67.89 C 105.21 71.20 101.85 73.97 98.98 77.20 C 96.25 76.56 93.56 75.81 90.89 74.97 C 88.94 76.52 87.75 80.85 84.91 79.95 C 85.88 77.12 88.31 75.15 90.04 72.78 C 92.75 73.45 95.44 74.23 98.11 75.06 C 100.78 72.44 103.59 69.95 106.03 67.10 C 105.77 65.80 105.44 64.51 105.02 63.25 C 102.98 65.29 100.95 67.33 98.90 69.36 C 96.69 68.76 94.47 68.18 92.24 67.62 C 91.54 65.38 90.92 63.12 90.35 60.84 C 92.33 58.80 94.35 56.79 96.36 54.78 C 95.12 54.35 93.87 53.92 92.62 53.49 C 90.02 56.06 87.45 58.67 84.82 61.22 C 85.35 63.87 86.01 66.51 86.67 69.13 C 84.20 71.66 81.72 74.17 79.15 76.59 C 84.59 81.90 89.88 87.37 95.32 92.68 C 97.01 94.44 99.19 96.31 99.08 98.98 C 99.47 101.87 97.72 104.96 94.94 105.91 C 93.04 106.10 91.13 106.02 89.22 106.07 C 84.41 102.02 81.45 96.29 77.59 91.40 C 73.83 96.00 70.40 100.93 66.28 105.21 C 63.53 106.66 59.05 106.77 57.09 103.89 C 55.25 101.51 55.38 97.70 57.56 95.56 C 61.43 91.56 65.38 87.61 69.43 83.79 C 69.57 84.30 69.83 85.30 69.97 85.80 C 66.25 90.06 61.68 93.55 58.20 98.02 C 56.13 101.94 61.09 106.37 64.74 103.88 C 69.00 99.54 72.49 94.50 76.33 89.79 C 73.40 85.21 69.15 81.27 67.09 76.27 C 67.45 76.20 68.17 76.05 68.53 75.98 C 75.40 84.65 81.53 93.90 88.32 102.63 C 89.87 104.86 93.34 105.16 95.37 103.43 C 97.64 101.75 97.94 98.03 95.82 96.11 C 87.45 87.50 78.74 79.23 70.46 70.55 C 68.41 72.59 66.39 74.67 64.10 76.44 C 63.23 75.45 62.37 74.46 61.51 73.46 C 61.03 73.82 60.07 74.52 59.59 74.87 C 57.44 72.89 55.36 70.83 53.29 68.77 C 50.99 71.04 48.83 73.46 46.24 75.42 C 45.34 73.34 44.21 71.27 44.00 68.98 C 44.41 63.00 49.35 58.69 54.01 55.60 C 54.43 58.53 51.33 59.84 49.73 61.76 C 46.82 64.27 44.75 68.72 47.05 72.30 C 49.06 70.27 50.92 68.03 53.23 66.31 C 55.75 67.82 57.51 70.30 59.72 72.21 C 62.62 69.31 65.62 66.51 68.57 63.66 C 65.35 60.46 62.17 57.22 58.90 54.09 C 58.11 54.02 56.54 53.90 55.76 53.83 C 56.55 52.76 57.43 51.75 58.36 50.80 C 59.56 51.86 60.77 52.91 62.00 53.95 C 61.85 52.33 61.69 50.72 61.51 49.11 M 62.99 55.19 C 64.18 56.43 65.38 57.66 66.58 58.90 C 67.26 58.52 67.93 58.15 68.61 57.78 C 70.15 57.96 71.71 58.04 73.26 58.02 C 71.73 53.91 67.48 51.57 64.66 48.36 C 63.09 50.42 64.81 53.21 62.99 55.19 M 63.03 71.82 C 63.36 72.31 64.00 73.31 64.32 73.81 C 66.13 71.98 67.95 70.16 69.81 68.38 C 69.36 67.78 68.90 67.18 68.44 66.59 C 66.64 68.33 64.72 69.96 63.03 71.82 Z" />
<path fill="#254ed0" opacity="1.00" d=" M 54.35 54.50 C 55.73 54.00 56.24 54.46 55.87 55.88 C 54.48 56.37 53.97 55.91 54.35 54.50 Z" />
</g>
</svg>
