<?xml version="1.0" encoding="UTF-8" ?>
<!DOCTYPE svg PUBLIC "-//W3C//DTD SVG 1.1//EN" "http://www.w3.org/Graphics/SVG/1.1/DTD/svg11.dtd">
<svg width="152pt" height="152pt" viewBox="0 0 152 152" version="1.1" xmlns="http://www.w3.org/2000/svg">
<g id="#f2f7ffff">
<path fill="#f2f7ff" opacity="1.00" d=" M 67.04 0.00 L 79.10 0.00 C 78.80 0.23 78.19 0.70 77.89 0.93 C 74.77 1.19 71.64 1.12 68.53 1.46 C 68.16 1.09 67.41 0.36 67.04 0.00 Z" />
<path fill="#f2f7ff" opacity="1.00" d=" M 88.79 1.21 C 92.49 1.35 96.10 2.35 99.55 3.62 C 99.70 3.92 99.99 4.53 100.14 4.84 C 96.63 3.95 93.11 3.08 89.62 2.15 C 89.41 1.92 89.00 1.45 88.79 1.21 Z" />
<path fill="#f2f7ff" opacity="1.00" d=" M 46.63 5.76 C 49.97 4.18 53.54 3.14 57.11 2.21 C 57.01 2.52 56.80 3.14 56.70 3.45 C 53.25 4.40 49.95 6.16 46.42 6.65 C 46.47 6.42 46.58 5.98 46.63 5.76 Z" />
<path fill="#f2f7ff" opacity="1.00" d=" M 64.68 6.90 C 77.47 4.87 90.83 6.31 102.78 11.33 C 119.30 18.17 133.33 31.47 139.96 48.18 C 146.61 62.21 147.60 78.59 143.77 93.54 C 139.14 111.62 126.99 127.66 110.69 136.79 C 96.42 145.02 79.19 147.87 63.01 144.79 C 46.02 141.60 30.28 131.91 20.00 117.99 C 10.11 104.91 5.15 88.27 6.14 71.92 C 7.05 54.25 15.12 37.13 27.99 25.02 C 38.08 15.54 51.02 9.16 64.68 6.90 M 44.27 55.92 C 44.30 69.28 44.27 82.65 44.28 96.01 C 44.06 98.99 47.21 101.09 49.96 100.78 C 61.31 100.75 72.67 100.86 84.02 100.72 C 85.79 100.99 87.48 98.66 85.64 97.45 C 82.57 96.34 79.19 96.99 75.99 96.91 C 69.00 97.47 62.01 96.59 55.01 96.87 C 52.53 96.80 49.92 97.50 47.56 96.47 C 47.80 83.73 47.58 70.98 47.67 58.24 C 53.02 64.25 58.09 70.50 63.33 76.61 C 65.14 78.80 67.34 80.86 70.16 81.61 C 74.37 83.08 79.26 81.48 82.18 78.21 C 88.08 71.84 93.22 64.79 99.25 58.55 C 99.38 64.36 99.09 70.17 99.35 75.98 C 99.26 78.16 102.95 78.23 102.72 75.94 C 102.91 69.30 102.78 62.64 102.79 55.99 C 102.95 53.48 100.75 50.93 98.15 51.14 C 81.74 51.06 65.32 51.08 48.91 51.13 C 46.30 50.85 44.07 53.40 44.27 55.92 M 99.30 85.72 C 99.29 87.39 99.25 89.06 99.23 90.73 C 97.27 90.86 94.96 90.25 93.48 91.94 C 92.79 95.35 97.23 94.35 99.29 94.68 C 99.32 96.87 98.64 99.54 100.96 100.86 C 103.08 99.38 102.64 96.79 102.66 94.58 C 104.32 94.14 107.91 95.59 108.01 92.90 C 108.26 89.86 104.48 90.92 102.62 90.66 C 102.59 89.06 102.74 87.43 102.37 85.86 C 101.40 85.26 100.37 85.21 99.30 85.72 Z" />
<path fill="#f2f7ff" opacity="1.00" d=" M 109.19 8.21 C 111.72 8.13 113.72 9.93 115.83 11.05 C 117.19 12.08 119.33 12.66 119.57 14.62 C 116.02 12.66 112.34 10.77 109.19 8.21 Z" />
<path fill="#f2f7ff" opacity="1.00" d=" M 31.95 13.84 C 33.75 12.73 35.43 10.91 37.72 11.13 C 34.59 13.67 31.26 15.98 27.87 18.14 C 28.15 15.91 30.44 15.11 31.95 13.84 Z" />
<path fill="#f2f7ff" opacity="1.00" d=" M 127.32 20.18 C 130.70 22.44 133.47 25.65 135.61 29.09 C 133.41 28.68 132.45 26.40 130.92 25.03 C 129.69 23.44 127.52 22.35 127.32 20.18 Z" />
<path fill="#f2f7ff" opacity="1.00" d=" M 13.37 33.03 C 15.03 29.72 17.70 26.78 20.45 24.25 C 20.10 27.56 16.61 29.49 15.11 32.33 C 14.95 32.83 12.53 35.14 13.37 33.03 Z" />
<path fill="#f2f7ff" opacity="1.00" d=" M 141.15 38.75 C 141.21 38.33 141.33 37.50 141.39 37.09 C 143.58 40.38 145.37 43.93 146.64 47.67 C 146.35 47.60 145.77 47.46 145.48 47.38 C 143.95 44.56 142.63 41.60 141.15 38.75 Z" />
<path fill="#f2f7ff" opacity="1.00" d=" M 3.32 52.92 C 4.62 49.29 5.88 45.60 7.89 42.28 C 8.05 42.55 8.37 43.09 8.54 43.36 C 6.99 46.36 5.94 49.56 4.69 52.67 C 4.35 52.73 3.66 52.86 3.32 52.92 Z" />
<path fill="#f2f7ff" opacity="1.00" d=" M 49.46 54.71 C 65.50 54.68 81.55 54.62 97.59 54.74 C 91.63 61.73 85.77 68.82 79.74 75.74 C 76.91 79.35 70.90 79.59 67.75 76.30 C 61.58 69.16 55.46 61.98 49.46 54.71 Z" />
<path fill="#f2f7ff" opacity="1.00" d=" M 149.07 56.91 C 151.10 59.95 150.96 63.80 152.00 67.20 L 152.00 68.34 C 151.64 68.37 150.92 68.42 150.56 68.45 C 150.32 64.57 149.02 60.81 149.07 56.91 Z" />
<path fill="#f2f7ff" opacity="1.00" d=" M 0.00 66.13 C 0.57 65.21 1.09 64.25 1.71 63.36 C 1.87 66.97 1.57 70.91 0.00 74.19 L 0.00 66.13 Z" />
<path fill="#f2f7ff" opacity="1.00" d=" M 150.19 87.04 C 150.94 83.14 149.99 78.81 152.00 75.23 L 152.00 86.09 C 151.55 86.33 150.64 86.80 150.19 87.04 Z" />
<path fill="#f2f7ff" opacity="1.00" d=" M 0.49 84.68 C 2.92 87.58 2.26 92.16 3.70 95.72 C 3.39 95.78 2.78 95.89 2.47 95.95 C 1.52 92.25 0.60 88.51 0.49 84.68 Z" />
<path fill="#f2f7ff" opacity="1.00" d=" M 144.13 108.02 C 145.58 104.31 146.34 100.06 148.70 96.84 C 148.71 100.59 146.88 104.08 145.31 107.39 C 145.01 107.55 144.42 107.87 144.13 108.02 Z" />
<path fill="#f2f7ff" opacity="1.00" d=" M 5.98 105.92 C 6.33 106.04 7.04 106.28 7.39 106.39 C 8.97 109.61 10.81 112.69 12.22 115.99 C 11.87 115.82 11.16 115.48 10.81 115.31 C 8.86 112.38 7.35 109.16 5.98 105.92 Z" />
<path fill="#f2f7ff" opacity="1.00" d=" M 138.49 117.46 C 138.90 117.34 139.70 117.10 140.10 116.97 C 138.26 120.08 136.14 123.07 133.62 125.67 C 133.26 125.73 132.54 125.84 132.18 125.90 C 134.30 123.10 136.41 120.29 138.49 117.46 Z" />
<path fill="#f2f7ff" opacity="1.00" d=" M 17.66 125.00 C 17.84 124.75 18.18 124.24 18.36 123.99 C 20.58 126.64 23.12 128.98 25.49 131.49 C 25.56 131.87 25.71 132.62 25.78 132.99 C 22.66 130.79 20.15 127.86 17.66 125.00 Z" />
<path fill="#f2f7ff" opacity="1.00" d=" M 115.76 140.19 C 118.57 137.26 122.11 135.15 125.37 132.78 C 125.61 134.71 123.43 135.38 122.30 136.50 C 120.22 137.88 118.38 139.96 115.76 140.19 Z" />
<path fill="#f2f7ff" opacity="1.00" d=" M 34.02 138.30 C 37.15 140.14 40.37 141.84 43.49 143.71 C 43.62 144.00 43.88 144.59 44.01 144.88 C 40.56 143.65 37.27 141.85 34.35 139.64 C 34.27 139.31 34.10 138.63 34.02 138.30 Z" />
<path fill="#f2f7ff" opacity="1.00" d=" M 95.91 148.80 C 99.33 146.82 103.31 146.10 106.84 144.32 C 106.79 144.66 106.69 145.36 106.64 145.70 C 103.24 147.16 99.71 149.08 95.91 148.80 Z" />
<path fill="#f2f7ff" opacity="1.00" d=" M 53.39 148.17 C 54.98 146.70 57.41 148.76 59.31 148.79 C 61.05 149.36 65.98 148.94 63.88 152.00 L 63.41 152.00 C 63.54 151.80 63.79 151.39 63.92 151.19 C 60.58 150.18 56.03 150.50 53.39 148.17 Z" />
<path fill="#f2f7ff" opacity="1.00" d=" M 73.57 152.00 C 77.49 150.47 81.75 150.85 85.84 150.25 C 85.76 150.69 85.61 151.56 85.54 152.00 L 73.57 152.00 Z" />
</g>
<g id="#0836c9fe">
<path fill="#0836c9" opacity="1.00" d=" M 44.27 55.92 C 44.07 53.40 46.30 50.85 48.91 51.13 C 65.32 51.08 81.74 51.06 98.15 51.14 C 100.75 50.93 102.95 53.48 102.79 55.99 C 102.78 62.64 102.91 69.30 102.72 75.94 C 102.95 78.23 99.26 78.16 99.35 75.98 C 99.09 70.17 99.38 64.36 99.25 58.55 C 93.22 64.79 88.08 71.84 82.18 78.21 C 79.26 81.48 74.37 83.08 70.16 81.61 C 67.34 80.86 65.14 78.80 63.33 76.61 C 58.09 70.50 53.02 64.25 47.67 58.24 C 47.58 70.98 47.80 83.73 47.56 96.47 C 49.92 97.50 52.53 96.80 55.01 96.87 C 62.01 96.59 69.00 97.47 75.99 96.91 C 79.19 96.99 82.57 96.34 85.64 97.45 C 87.48 98.66 85.79 100.99 84.02 100.72 C 72.67 100.86 61.31 100.75 49.96 100.78 C 47.21 101.09 44.06 98.99 44.28 96.01 C 44.27 82.65 44.30 69.28 44.27 55.92 M 49.46 54.71 C 55.46 61.98 61.58 69.16 67.75 76.30 C 70.90 79.59 76.91 79.35 79.74 75.74 C 85.77 68.82 91.63 61.73 97.59 54.74 C 81.55 54.62 65.50 54.68 49.46 54.71 Z" />
<path fill="#0836c9" opacity="1.00" d=" M 99.30 85.72 C 100.37 85.21 101.40 85.26 102.37 85.86 C 102.74 87.43 102.59 89.06 102.62 90.66 C 104.48 90.92 108.26 89.86 108.01 92.90 C 107.91 95.59 104.32 94.14 102.66 94.58 C 102.64 96.79 103.08 99.38 100.96 100.86 C 98.64 99.54 99.32 96.87 99.29 94.68 C 97.23 94.35 92.79 95.35 93.48 91.94 C 94.96 90.25 97.27 90.86 99.23 90.73 C 99.25 89.06 99.29 87.39 99.30 85.72 Z" />
</g>
</svg>
