<?xml version="1.0" encoding="UTF-8" ?>
<!DOCTYPE svg PUBLIC "-//W3C//DTD SVG 1.1//EN" "http://www.w3.org/Graphics/SVG/1.1/DTD/svg11.dtd">
<svg width="249pt" height="46pt" viewBox="0 0 249 46" version="1.1" xmlns="http://www.w3.org/2000/svg">
<g id="#38adeaff">
<path fill="#38adea" opacity="1.00" d=" M 209.51 0.00 L 210.61 0.00 C 211.44 0.44 213.09 1.31 213.92 1.75 C 214.32 4.20 214.67 6.66 214.89 9.14 C 214.23 6.83 213.68 4.49 213.12 2.15 C 208.74 1.31 205.32 4.19 202.38 7.00 C 205.83 7.52 209.54 8.08 212.27 10.45 C 215.46 12.84 216.82 16.73 218.13 20.33 C 211.19 22.54 204.10 24.21 197.15 26.35 C 198.23 27.81 199.36 29.23 200.52 30.64 C 202.20 30.32 203.97 30.21 205.54 29.46 C 206.75 28.40 207.23 26.76 208.02 25.40 C 211.56 24.35 215.12 23.37 218.70 22.46 C 217.82 27.17 216.04 32.12 211.81 34.84 C 208.58 37.39 203.88 37.06 200.93 40.00 C 197.93 43.15 193.96 45.69 189.41 44.72 C 188.00 42.40 186.58 39.90 186.68 37.08 C 186.51 27.73 190.77 19.11 195.82 11.51 C 191.09 16.06 187.66 21.67 184.85 27.55 C 184.36 22.61 184.89 17.17 188.34 13.31 C 191.24 9.59 195.95 8.20 200.36 7.19 C 203.73 4.17 207.27 0.35 212.31 1.01 L 209.51 0.00 M 195.40 21.46 C 199.03 20.59 202.69 19.72 206.13 18.23 C 204.52 16.52 202.65 14.61 200.05 15.35 C 196.89 15.45 195.85 18.90 195.40 21.46 M 189.82 35.01 C 189.71 37.58 190.10 40.13 190.71 42.63 C 194.74 43.64 198.25 41.18 201.20 38.75 C 197.13 38.51 193.28 37.11 189.82 35.01 Z" />
<path fill="#38adea" opacity="1.00" d=" M 150.05 7.00 C 153.39 7.00 156.74 7.00 160.08 7.00 C 160.07 10.38 160.08 13.76 160.05 17.14 C 163.53 17.14 167.01 17.14 170.49 17.14 C 170.48 13.76 170.49 10.38 170.45 7.00 C 173.66 7.00 176.88 7.00 180.10 7.00 C 180.09 17.33 180.09 27.67 180.10 38.00 C 176.89 38.00 173.67 38.00 170.46 38.00 C 170.49 33.74 170.47 29.49 170.49 25.23 C 167.01 25.22 163.53 25.22 160.05 25.24 C 160.08 29.49 160.07 33.75 160.08 38.00 C 156.74 38.00 153.41 38.00 150.08 38.00 C 150.11 27.67 150.15 17.33 150.05 7.00 Z" />
<path fill="#38adea" opacity="1.00" d=" M 219.50 7.00 C 229.23 7.00 238.96 7.00 248.69 7.00 C 248.66 9.30 248.65 11.59 248.65 13.89 C 245.37 13.88 242.09 13.87 238.81 14.08 C 238.85 22.06 238.79 30.03 238.85 38.00 C 235.66 38.00 232.48 38.00 229.30 38.00 C 229.35 29.97 229.31 21.93 229.33 13.90 C 226.06 13.90 222.79 13.90 219.52 13.90 C 219.52 11.60 219.52 9.30 219.50 7.00 Z" />
</g>
<g id="#f53e56ff">
<path fill="#f53e56" opacity="1.00" d=" M 4.88 9.80 C 7.19 7.40 10.47 6.20 13.75 6.05 C 17.54 5.88 21.68 5.81 25.00 7.94 C 27.67 9.64 29.10 12.58 30.62 15.25 C 27.82 15.87 25.01 16.46 22.21 17.05 C 20.87 15.37 19.52 13.22 17.12 13.11 C 14.23 12.58 11.37 14.65 10.60 17.40 C 9.67 20.95 9.80 24.74 10.80 28.27 C 12.03 32.02 17.45 32.95 20.12 30.24 C 21.15 29.02 21.74 27.52 22.47 26.13 C 25.28 26.94 28.09 27.74 30.85 28.66 C 29.34 32.44 27.13 36.50 23.05 37.94 C 18.31 39.56 12.93 39.36 8.31 37.45 C 3.27 35.04 0.71 29.35 0.51 23.98 C 0.27 19.00 1.03 13.37 4.88 9.80 Z" />
<path fill="#f53e56" opacity="1.00" d=" M 34.66 27.52 C 31.45 17.91 38.67 6.60 48.91 6.15 C 59.94 4.76 69.26 16.54 66.49 27.03 C 64.18 32.02 60.57 36.40 55.35 38.49 C 54.63 38.03 53.91 37.56 53.20 37.09 C 56.63 34.48 60.17 31.73 62.12 27.77 C 59.05 26.17 56.04 22.32 52.24 24.44 C 50.83 22.71 49.33 20.94 46.84 21.00 C 47.15 19.02 48.17 18.31 49.87 18.86 C 51.77 20.09 53.56 21.47 55.49 22.66 C 53.98 21.44 52.42 20.29 50.87 19.13 C 52.32 17.64 53.77 16.15 55.32 14.75 L 55.50 14.24 C 56.28 14.32 57.82 14.50 58.59 14.58 C 57.35 13.53 56.12 12.47 54.90 11.40 C 54.72 10.84 54.35 9.72 54.17 9.16 C 52.10 9.55 52.69 11.94 52.10 13.39 C 49.97 12.25 47.80 11.15 45.49 10.38 C 47.47 10.75 49.49 10.72 51.50 10.68 C 51.77 10.06 52.33 8.83 52.60 8.22 L 51.28 7.66 C 49.99 8.10 48.68 8.49 47.36 8.84 L 47.96 9.59 C 44.33 8.61 41.24 10.68 38.32 12.50 C 39.52 13.48 40.71 14.52 41.18 16.06 C 42.16 18.51 44.29 20.17 46.06 22.03 C 48.29 22.78 50.44 23.78 52.51 24.90 C 50.52 27.53 52.45 29.62 54.21 31.45 C 53.75 33.04 53.26 34.62 52.68 36.17 C 52.94 36.86 53.46 38.24 53.72 38.93 C 45.63 40.18 36.96 35.59 34.66 27.52 M 56.34 10.01 C 57.53 10.73 58.61 12.33 60.16 12.08 C 60.51 10.63 58.48 9.76 57.45 9.17 C 56.48 8.95 56.10 9.23 56.34 10.01 Z" />
<path fill="#f53e56" opacity="1.00" d=" M 83.40 17.14 C 84.80 12.36 88.06 7.80 93.15 6.62 C 98.93 5.47 105.81 5.39 110.47 9.55 C 115.35 14.20 115.93 21.72 114.50 27.97 C 113.53 33.23 109.20 37.60 103.92 38.53 C 98.29 39.58 91.47 39.09 87.36 34.61 C 84.92 32.07 83.90 28.57 83.11 25.22 C 82.31 25.22 80.72 25.23 79.92 25.23 C 79.92 29.54 79.90 33.86 79.95 38.18 C 76.71 38.18 73.47 38.18 70.23 38.18 C 70.25 27.66 70.29 17.15 70.21 6.64 C 73.46 6.63 76.72 6.63 79.97 6.65 C 79.91 10.14 79.92 13.64 79.91 17.14 C 80.79 17.14 82.53 17.14 83.40 17.14 M 96.40 13.63 C 93.70 14.92 92.98 18.20 92.77 20.91 C 92.66 23.82 92.70 27.05 94.39 29.54 C 96.99 33.18 103.57 32.25 104.85 27.87 C 105.86 24.18 106.07 19.98 104.61 16.38 C 103.35 13.26 99.27 12.30 96.40 13.63 Z" />
<path fill="#f53e56" opacity="1.00" d=" M 119.06 14.23 C 120.35 10.62 122.91 7.11 126.93 6.44 C 132.12 5.64 138.56 5.29 142.44 9.53 C 145.40 13.01 144.37 18.51 140.81 21.17 C 142.97 22.47 145.59 24.08 145.67 26.92 C 146.66 31.97 142.96 36.87 138.19 38.21 C 133.62 39.44 128.44 39.41 124.21 37.10 C 121.37 35.56 119.89 32.55 118.50 29.79 C 121.44 29.69 124.39 29.48 127.32 29.23 C 129.38 32.72 136.33 32.89 136.30 27.95 C 135.81 24.27 131.64 24.26 128.81 24.30 C 128.82 22.53 128.82 20.76 128.83 18.99 C 130.98 18.73 134.60 18.88 134.72 15.89 C 135.34 12.95 131.42 12.49 129.49 13.55 C 126.32 15.57 122.53 14.03 119.06 14.23 Z" />
</g>
</svg>
