<?xml version="1.0" encoding="UTF-8" ?>
<!DOCTYPE svg PUBLIC "-//W3C//DTD SVG 1.1//EN" "http://www.w3.org/Graphics/SVG/1.1/DTD/svg11.dtd">
<svg width="219pt" height="190pt" viewBox="0 0 219 190" version="1.1" xmlns="http://www.w3.org/2000/svg">
<g id="#ffffffff">
<path fill="#ffffff" opacity="1.00" d=" M 45.14 21.37 C 63.76 7.69 86.83 0.01 109.96 0.27 C 134.61 0.20 159.06 9.16 178.17 24.67 C 198.92 41.35 213.37 65.77 217.46 92.12 C 217.99 95.35 218.21 98.63 219.00 101.81 L 219.00 116.50 C 218.23 120.27 217.92 124.11 217.28 127.90 C 213.70 148.89 203.69 168.65 189.19 184.20 C 187.25 186.27 185.12 188.79 182.01 188.76 C 177.25 189.37 172.81 184.82 173.39 180.11 C 173.62 177.11 175.92 174.98 177.82 172.90 C 180.83 169.78 183.40 166.29 186.01 162.84 C 181.33 159.86 176.31 157.43 171.68 154.38 C 167.81 151.90 167.31 145.87 170.44 142.61 C 172.80 139.86 177.11 139.29 180.22 141.04 C 184.89 143.56 189.37 146.41 194.08 148.87 C 198.61 138.95 201.46 128.32 202.54 117.46 C 197.04 117.34 191.54 117.59 186.05 117.36 C 181.87 117.21 178.36 113.14 178.66 109.00 C 178.86 105.17 182.18 101.66 186.07 101.54 C 191.54 101.37 197.01 101.58 202.47 101.46 C 200.30 74.26 185.32 48.56 162.91 33.05 C 160.03 37.80 157.53 42.80 154.42 47.41 C 151.74 51.45 145.26 51.67 142.14 48.04 C 139.75 45.52 139.51 41.43 141.27 38.50 C 143.81 34.09 146.33 29.65 149.00 25.30 C 139.29 20.23 128.41 17.82 117.59 16.59 C 117.34 22.03 117.68 27.49 117.43 32.93 C 117.35 37.82 111.78 41.66 107.17 40.02 C 104.21 39.00 101.63 36.26 101.60 32.99 C 101.34 27.53 101.67 22.06 101.44 16.60 C 90.59 17.62 80.01 20.57 70.05 24.96 C 72.47 29.80 75.48 34.32 78.03 39.09 C 79.95 42.72 78.50 47.74 74.81 49.62 C 71.20 51.72 66.14 50.38 64.09 46.74 C 61.28 42.27 58.81 37.59 56.10 33.05 C 47.18 39.37 39.39 47.19 33.03 56.08 C 37.75 59.02 42.73 61.50 47.38 64.55 C 51.20 67.09 51.69 73.20 48.42 76.39 C 46.08 78.89 42.13 79.64 39.08 78.02 C 34.28 75.53 29.81 72.43 24.91 70.11 C 20.44 80.02 17.56 90.61 16.51 101.43 C 21.98 101.64 27.46 101.35 32.94 101.57 C 37.54 101.70 41.22 106.61 40.19 111.07 C 39.44 114.36 36.49 117.22 33.05 117.38 C 27.54 117.61 22.02 117.36 16.51 117.48 C 17.54 128.33 20.40 138.95 24.91 148.86 C 29.73 146.44 34.24 143.47 38.99 140.95 C 42.28 139.21 46.71 140.09 48.96 143.09 C 51.62 146.43 51.01 151.95 47.38 154.35 C 42.73 157.41 37.71 159.87 32.99 162.84 C 36.25 167.26 39.77 171.49 43.54 175.49 C 46.31 178.26 46.64 183.06 44.01 186.04 C 41.34 189.64 35.39 189.94 32.31 186.74 C 16.43 170.88 5.51 150.06 1.74 127.91 C 1.08 124.12 0.81 120.27 0.00 116.51 L 0.00 102.00 C 1.23 96.32 1.47 90.46 3.00 84.84 C 8.82 59.52 24.17 36.64 45.14 21.37 Z" />
<path fill="#ffffff" opacity="1.00" d=" M 104.97 93.66 C 106.87 93.50 108.78 93.45 110.68 93.42 L 110.77 94.13 C 116.67 94.05 120.86 99.04 123.32 103.85 C 124.03 107.26 124.55 110.71 123.56 114.12 C 125.20 116.78 127.87 118.65 129.82 121.10 C 131.72 122.90 133.32 124.99 135.16 126.86 C 142.75 134.92 150.22 143.09 157.83 151.14 C 161.31 154.40 163.89 158.67 168.15 161.00 C 169.37 161.61 167.34 163.20 166.60 162.47 C 165.92 161.45 165.25 160.43 164.55 159.44 C 163.05 159.74 162.45 158.10 161.40 157.44 C 159.67 156.27 157.97 155.04 156.35 153.72 C 155.14 152.91 153.94 152.07 152.73 151.26 C 143.44 144.56 134.10 137.90 124.78 131.24 C 122.48 129.48 120.13 127.79 117.68 126.23 C 116.35 124.66 113.86 123.42 112.17 125.26 C 109.15 125.50 106.01 125.88 103.08 124.88 C 101.73 124.27 100.42 123.60 99.11 122.90 C 96.63 120.96 94.46 118.61 93.26 115.65 C 90.16 108.23 93.49 98.20 101.20 95.21 C 102.38 94.51 103.78 94.32 104.97 93.66 M 103.94 102.48 C 99.11 105.05 98.98 112.20 102.73 115.76 C 106.10 111.39 110.74 107.84 113.18 102.86 C 110.25 101.78 106.79 100.42 103.94 102.48 Z" />
</g>
</svg>
