<?xml version="1.0" encoding="UTF-8" ?>
<!DOCTYPE svg PUBLIC "-//W3C//DTD SVG 1.1//EN" "http://www.w3.org/Graphics/SVG/1.1/DTD/svg11.dtd">
<svg width="219pt" height="190pt" viewBox="0 0 219 190" version="1.1" xmlns="http://www.w3.org/2000/svg">
<g id="#f53e56ff">
<path fill="#f53e56" opacity="1.00" d=" M 75.06 5.87 C 97.91 -2.04 123.11 -1.18 146.06 5.89 C 151.44 7.65 157.07 8.55 162.32 10.73 C 165.42 12.04 168.91 12.29 171.76 14.17 C 177.69 15.39 182.89 18.98 188.97 19.65 C 195.73 21.10 203.77 19.53 208.69 25.62 C 205.31 24.84 202.03 23.61 198.55 23.37 C 194.26 25.39 196.86 30.29 199.49 32.51 C 204.47 37.95 212.40 36.70 219.00 36.64 L 219.00 174.85 C 217.52 173.48 215.93 172.24 214.27 171.12 C 211.27 168.24 208.15 165.45 205.74 162.03 C 200.08 170.75 194.20 179.47 186.68 186.73 C 183.20 190.27 176.50 189.08 174.35 184.62 C 172.42 181.51 173.46 177.40 175.97 174.94 C 179.59 171.14 182.93 167.08 186.00 162.83 C 181.30 159.85 176.26 157.40 171.62 154.34 C 167.54 151.67 167.34 145.10 171.04 142.02 C 173.60 139.62 177.75 139.46 180.68 141.27 C 185.14 143.79 189.54 146.42 194.03 148.89 C 198.64 138.99 201.45 128.32 202.53 117.46 C 197.02 117.34 191.51 117.58 186.01 117.36 C 181.46 117.17 177.80 112.36 178.78 107.91 C 179.53 104.51 182.60 101.59 186.16 101.54 C 191.60 101.38 197.04 101.58 202.47 101.46 C 200.16 81.10 192.16 61.08 177.92 46.11 C 173.42 41.22 168.31 36.92 162.91 33.05 C 160.02 37.82 157.50 42.82 154.40 47.45 C 151.37 51.96 143.78 51.52 141.21 46.77 C 139.29 43.73 140.13 39.81 142.10 37.03 C 144.42 33.05 146.78 29.08 148.99 25.04 C 139.06 20.52 128.41 17.56 117.53 16.67 C 117.41 22.10 117.65 27.53 117.43 32.96 C 117.33 37.81 111.83 41.62 107.24 40.04 C 104.21 39.05 101.65 36.24 101.60 32.94 C 101.34 27.51 101.66 22.07 101.45 16.64 C 90.57 17.59 79.95 20.55 70.00 25.03 C 72.55 29.76 75.42 34.31 77.99 39.03 C 80.00 42.71 78.48 47.86 74.66 49.69 C 71.13 51.66 66.24 50.38 64.19 46.89 C 61.34 42.37 58.85 37.64 56.10 33.06 C 47.17 39.37 39.38 47.19 33.03 56.08 C 37.76 59.03 42.76 61.53 47.43 64.57 C 51.42 67.28 51.67 73.84 47.92 76.87 C 45.53 79.03 41.82 79.54 38.98 77.96 C 34.25 75.45 29.75 72.53 25.00 70.06 C 20.38 79.93 17.58 90.59 16.52 101.43 C 22.01 101.65 27.52 101.35 33.01 101.57 C 36.84 101.73 40.07 105.21 40.33 108.96 C 40.67 113.11 37.15 117.22 32.97 117.39 C 27.49 117.59 22.01 117.37 16.53 117.47 C 17.56 128.33 20.33 139.03 25.01 148.90 C 29.88 146.27 34.55 143.28 39.47 140.74 C 43.74 138.67 49.38 141.38 50.38 146.03 C 51.23 149.38 49.76 153.11 46.73 154.81 C 42.22 157.60 37.51 160.04 33.00 162.83 C 36.25 167.26 39.75 171.49 43.52 175.47 C 46.29 178.24 46.65 183.00 44.04 185.99 C 41.38 189.64 35.34 189.98 32.27 186.69 C 17.36 171.79 6.85 152.51 2.48 131.89 C 1.32 126.77 1.02 121.51 0.00 116.37 L 0.00 102.11 C 1.27 95.75 1.66 89.23 3.46 82.97 C 12.20 47.33 40.21 17.30 75.06 5.87 Z" />
<path fill="#f53e56" opacity="1.00" d=" M 169.64 73.62 C 172.40 72.40 175.05 70.87 178.01 70.14 C 160.47 82.58 143.00 95.13 125.59 107.75 C 126.07 114.25 122.66 120.89 116.70 123.74 C 109.45 127.68 99.59 124.64 95.63 117.45 C 91.22 110.34 93.81 100.10 100.99 95.85 C 106.39 92.29 113.79 92.70 118.99 96.43 C 135.87 88.82 152.76 81.22 169.64 73.62 M 101.50 110.96 C 102.27 116.38 109.12 119.42 113.66 116.29 C 110.77 111.70 108.29 106.86 105.34 102.31 C 102.77 104.37 100.68 107.52 101.50 110.96 Z" />
</g>
</svg>
