<?xml version="1.0" encoding="UTF-8" ?>
<!DOCTYPE svg PUBLIC "-//W3C//DTD SVG 1.1//EN" "http://www.w3.org/Graphics/SVG/1.1/DTD/svg11.dtd">
<svg width="219pt" height="190pt" viewBox="0 0 219 190" version="1.1" xmlns="http://www.w3.org/2000/svg">
<g id="#ffffffff">
<path fill="#ffffff" opacity="1.00" d=" M 45.74 20.93 C 64.79 7.13 88.41 -0.39 111.95 0.29 C 135.94 0.69 159.61 9.59 178.20 24.70 C 198.94 41.38 213.39 65.81 217.47 92.16 C 218.00 95.46 218.26 98.81 219.00 102.09 L 219.00 116.33 C 218.18 120.54 217.86 124.82 217.08 129.04 C 213.09 150.73 202.35 171.13 186.72 186.69 C 183.25 190.27 176.53 189.10 174.36 184.64 C 172.44 181.55 173.43 177.47 175.90 175.00 C 179.55 171.18 182.91 167.10 186.01 162.83 C 181.29 159.84 176.23 157.40 171.58 154.31 C 167.78 151.78 167.35 145.81 170.47 142.58 C 172.83 139.87 177.10 139.30 180.20 141.02 C 184.86 143.56 189.38 146.37 194.06 148.89 C 198.61 138.97 201.46 128.32 202.53 117.46 C 197.01 117.35 191.48 117.59 185.96 117.36 C 181.79 117.16 178.31 113.04 178.66 108.91 C 178.91 105.09 182.26 101.61 186.16 101.54 C 191.60 101.37 197.04 101.59 202.48 101.45 C 200.28 74.26 185.33 48.56 162.92 33.05 C 160.02 37.81 157.52 42.81 154.41 47.43 C 152.08 50.87 146.88 51.62 143.53 49.25 C 140.24 47.13 139.16 42.42 141.01 39.01 C 143.58 34.29 146.47 29.76 148.99 25.01 C 139.03 20.55 128.40 17.54 117.51 16.67 C 117.44 22.07 117.62 27.48 117.45 32.88 C 117.37 37.49 112.46 41.22 107.99 40.25 C 104.61 39.49 101.60 36.46 101.58 32.87 C 101.40 27.47 101.58 22.07 101.52 16.67 C 90.60 17.53 79.99 20.59 70.01 25.00 C 72.53 29.77 75.44 34.32 78.01 39.06 C 79.96 42.67 78.53 47.71 74.83 49.60 C 71.25 51.73 66.16 50.39 64.10 46.76 C 61.30 42.28 58.82 37.60 56.10 33.05 C 47.17 39.37 39.39 47.19 33.03 56.08 C 37.77 59.04 42.79 61.53 47.45 64.60 C 51.22 67.18 51.66 73.23 48.42 76.40 C 46.07 78.89 42.10 79.66 39.06 78.00 C 34.30 75.49 29.77 72.53 24.99 70.05 C 20.40 79.94 17.58 90.59 16.51 101.43 C 21.98 101.64 27.46 101.36 32.93 101.57 C 37.56 101.70 41.23 106.63 40.19 111.11 C 39.41 114.41 36.41 117.27 32.94 117.40 C 27.48 117.58 22.00 117.39 16.53 117.46 C 17.53 128.33 20.38 139.00 24.97 148.90 C 29.69 146.37 34.24 143.52 38.95 140.97 C 42.03 139.32 46.16 139.95 48.51 142.57 C 51.65 145.80 51.21 151.79 47.41 154.34 C 42.75 157.40 37.72 159.87 32.99 162.83 C 35.63 166.25 38.18 169.76 41.18 172.89 C 43.05 174.96 45.36 177.02 45.76 179.95 C 46.49 184.44 42.57 189.18 37.93 188.91 C 34.73 189.25 32.29 186.96 30.34 184.75 C 15.56 169.12 5.33 149.13 1.73 127.89 C 1.07 124.06 0.79 120.17 0.00 116.36 L 0.00 102.12 C 1.21 96.36 1.48 90.44 3.02 84.76 C 8.91 59.23 24.49 36.19 45.74 20.93 Z" />
<path fill="#ffffff" opacity="1.00" d=" M 128.51 36.87 C 128.62 35.58 128.78 34.29 128.98 33.01 C 129.14 34.51 129.22 36.01 129.29 37.52 L 128.24 37.06 C 128.85 38.79 128.18 40.56 128.18 42.31 L 127.58 42.46 C 127.55 45.73 126.43 48.86 126.17 52.12 C 125.47 54.06 125.46 56.14 125.25 58.17 L 124.76 58.82 C 124.32 64.33 122.65 69.66 122.25 75.18 C 121.14 79.03 120.73 83.17 120.13 87.17 C 119.35 88.74 119.53 90.56 119.22 92.25 C 118.48 94.14 118.46 96.19 118.44 98.19 C 123.92 102.01 125.06 109.98 122.84 115.96 C 121.34 120.37 117.46 123.47 113.33 125.34 C 112.60 125.42 111.13 125.59 110.40 125.68 C 110.37 125.91 110.32 126.37 110.30 126.60 C 109.92 126.29 109.16 125.68 108.78 125.37 C 108.69 125.63 108.50 126.14 108.41 126.40 C 107.34 125.93 106.31 125.95 105.33 126.48 C 103.12 124.93 100.20 124.72 98.27 122.74 C 94.11 119.82 92.22 114.86 91.69 109.97 C 92.34 106.32 93.11 102.60 95.70 99.70 C 97.30 97.59 99.66 96.17 102.08 95.18 C 103.14 94.71 104.24 94.43 105.39 94.34 C 106.66 91.61 107.82 88.82 108.83 85.99 C 109.55 84.28 110.19 82.55 110.77 80.79 C 111.51 79.15 112.13 77.46 112.72 75.76 C 114.14 73.01 114.80 69.94 116.23 67.18 C 116.80 65.66 117.32 64.11 117.70 62.53 L 118.39 62.46 C 118.46 61.72 118.60 60.24 118.67 59.51 L 119.44 59.37 C 119.73 57.54 120.53 55.87 121.27 54.20 C 121.81 52.51 122.41 50.83 123.18 49.23 C 124.16 46.78 125.08 44.31 125.91 41.81 C 126.35 40.75 126.66 39.65 126.85 38.52 L 127.82 38.53 C 127.66 38.05 127.33 37.09 127.17 36.61 L 128.51 36.87 M 99.66 108.48 C 99.99 109.98 100.26 111.50 100.38 113.04 C 102.21 118.27 110.36 120.37 113.66 115.49 L 114.30 115.41 C 114.68 114.28 116.07 113.14 115.23 111.89 C 111.62 110.62 107.67 110.31 104.18 108.77 C 102.69 108.34 101.18 108.24 99.66 108.48 Z" />
</g>
</svg>
