<?xml version="1.0" encoding="UTF-8" ?>
<!DOCTYPE svg PUBLIC "-//W3C//DTD SVG 1.1//EN" "http://www.w3.org/Graphics/SVG/1.1/DTD/svg11.dtd">
<svg width="219pt" height="190pt" viewBox="0 0 219 190" version="1.1" xmlns="http://www.w3.org/2000/svg">
<g id="#ffffffff">
<path fill="#ffffff" opacity="1.00" d=" M 45.21 21.32 C 63.81 7.68 86.84 0.02 109.93 0.27 C 134.59 0.19 159.06 9.15 178.17 24.68 C 198.93 41.36 213.39 65.79 217.47 92.16 C 217.99 95.46 218.26 98.81 219.00 102.08 L 219.00 116.33 C 218.26 120.15 217.93 124.03 217.28 127.86 C 213.60 149.56 203.02 169.95 187.73 185.74 C 186.03 187.67 183.62 189.07 180.97 188.77 C 176.55 188.77 172.83 184.36 173.40 180.01 C 173.68 177.05 175.95 174.94 177.84 172.88 C 180.84 169.76 183.41 166.28 186.01 162.83 C 181.28 159.84 176.23 157.40 171.58 154.31 C 167.54 151.63 167.35 145.10 171.02 142.03 C 173.63 139.56 177.89 139.47 180.85 141.36 C 185.26 143.85 189.60 146.46 194.04 148.89 C 198.62 138.98 201.46 128.32 202.53 117.46 C 197.01 117.35 191.49 117.59 185.97 117.36 C 181.82 117.16 178.34 113.09 178.66 108.97 C 178.87 105.13 182.24 101.60 186.16 101.54 C 191.60 101.37 197.04 101.59 202.48 101.45 C 200.29 74.26 185.33 48.56 162.92 33.05 C 160.02 37.81 157.51 42.82 154.40 47.45 C 151.53 51.72 144.48 51.61 141.62 47.39 C 139.52 44.64 139.74 40.67 141.62 37.87 C 144.08 33.66 146.49 29.41 149.00 25.23 C 139.21 20.32 128.40 17.72 117.55 16.63 C 117.39 22.07 117.66 27.52 117.43 32.96 C 117.39 36.22 114.83 38.98 111.86 40.00 C 107.28 41.67 101.69 37.86 101.59 32.98 C 101.36 27.54 101.63 22.08 101.47 16.63 C 90.59 17.59 79.97 20.56 70.01 25.01 C 72.53 29.77 75.44 34.31 78.00 39.05 C 79.98 42.70 78.50 47.79 74.75 49.65 C 71.14 51.72 66.11 50.35 64.07 46.72 C 61.28 42.24 58.80 37.58 56.10 33.05 C 47.17 39.37 39.39 47.19 33.03 56.08 C 37.74 59.01 42.72 61.51 47.37 64.54 C 51.21 67.09 51.69 73.23 48.40 76.42 C 46.05 78.90 42.09 79.65 39.05 78.00 C 34.29 75.48 29.77 72.53 24.98 70.06 C 20.41 79.95 17.57 90.59 16.51 101.43 C 21.99 101.64 27.48 101.36 32.95 101.57 C 36.82 101.69 40.09 105.20 40.33 108.99 C 40.66 113.14 37.12 117.24 32.93 117.40 C 27.47 117.59 22.00 117.38 16.53 117.46 C 17.54 128.33 20.37 139.00 24.97 148.90 C 29.70 146.37 34.24 143.51 38.97 140.97 C 42.04 139.31 46.17 139.96 48.51 142.57 C 51.66 145.82 51.21 151.82 47.38 154.35 C 42.73 157.41 37.72 159.88 32.99 162.83 C 35.62 166.25 38.17 169.74 41.16 172.86 C 42.85 174.76 44.91 176.57 45.59 179.12 C 46.95 183.78 42.93 189.15 38.02 188.91 C 35.61 189.11 33.35 187.98 31.77 186.22 C 15.25 169.41 4.13 147.24 1.13 123.83 C 0.80 121.33 0.52 118.82 0.00 116.36 L 0.00 102.15 C 1.20 96.39 1.48 90.46 3.02 84.77 C 8.85 59.45 24.22 36.57 45.21 21.32 Z" />
<path fill="#ffffff" opacity="1.00" d=" M 94.17 102.19 C 97.98 95.28 107.27 92.30 114.43 95.57 C 122.26 98.80 126.54 108.89 122.71 116.61 C 119.95 123.79 111.66 127.48 104.32 126.17 C 104.40 126.02 104.54 125.72 104.62 125.57 C 103.94 125.52 102.60 125.42 101.93 125.37 C 101.44 125.07 100.47 124.45 99.98 124.15 C 97.55 122.92 96.07 120.61 94.08 118.87 C 86.23 119.29 78.31 119.68 70.42 119.69 L 70.21 120.63 C 69.93 120.40 69.37 119.92 69.08 119.68 C 62.34 120.87 55.28 120.45 48.41 120.65 L 48.37 121.41 C 46.71 120.46 44.84 121.12 43.07 121.20 C 38.63 121.41 34.18 121.72 29.74 121.47 C 50.63 116.55 71.39 111.01 92.30 106.11 C 92.87 104.78 93.49 103.47 94.17 102.19 M 106.67 102.44 C 108.10 107.71 107.59 113.48 109.73 118.52 C 111.82 117.31 114.10 116.27 115.38 114.11 C 115.79 112.14 116.74 110.05 115.92 108.04 C 114.83 104.14 110.69 101.46 106.67 102.44 Z" />
</g>
</svg>
