<?xml version="1.0" encoding="UTF-8" ?>
<!DOCTYPE svg PUBLIC "-//W3C//DTD SVG 1.1//EN" "http://www.w3.org/Graphics/SVG/1.1/DTD/svg11.dtd">
<svg width="219pt" height="190pt" viewBox="0 0 219 190" version="1.1" xmlns="http://www.w3.org/2000/svg">
<g id="#ffffffff">
<path fill="#ffffff" opacity="1.00" d=" M 45.67 20.98 C 64.72 7.16 88.35 -0.38 111.90 0.29 C 135.69 0.67 159.18 9.42 177.70 24.30 C 198.71 40.99 213.34 65.58 217.47 92.14 C 218.00 95.43 218.25 98.78 219.00 102.04 L 219.00 116.36 C 218.12 120.89 217.80 125.50 216.90 130.03 C 212.82 151.14 202.30 170.93 187.21 186.24 C 184.02 190.03 177.33 189.49 174.75 185.28 C 172.41 182.16 173.20 177.65 175.89 175.01 C 179.54 171.19 182.90 167.11 186.01 162.83 C 181.30 159.85 176.26 157.41 171.61 154.34 C 167.80 151.82 167.33 145.84 170.45 142.60 C 172.81 139.87 177.08 139.30 180.19 141.02 C 184.86 143.56 189.37 146.37 194.06 148.88 C 198.61 138.96 201.46 128.32 202.53 117.46 C 197.03 117.34 191.52 117.59 186.02 117.36 C 181.87 117.20 178.37 113.15 178.66 109.03 C 178.84 105.17 182.21 101.61 186.14 101.54 C 191.59 101.36 197.04 101.59 202.49 101.45 C 200.83 82.38 193.19 63.86 180.73 49.33 C 175.60 43.09 169.46 37.75 162.92 33.05 C 160.03 37.80 157.52 42.80 154.42 47.42 C 151.57 51.71 144.52 51.62 141.64 47.42 C 139.53 44.68 139.73 40.70 141.60 37.89 C 144.04 33.56 146.76 29.39 148.93 24.91 C 138.95 20.61 128.39 17.51 117.51 16.66 C 117.43 22.12 117.65 27.58 117.43 33.03 C 117.36 36.27 114.80 38.99 111.85 40.01 C 107.23 41.67 101.63 37.81 101.59 32.90 C 101.36 27.47 101.63 22.03 101.46 16.60 C 90.60 17.58 80.05 20.61 70.06 24.92 C 72.42 29.78 75.46 34.28 78.01 39.05 C 79.96 42.68 78.52 47.73 74.81 49.61 C 71.21 51.72 66.14 50.38 64.09 46.74 C 61.29 42.26 58.81 37.59 56.10 33.05 C 47.17 39.37 39.39 47.19 33.03 56.08 C 37.75 59.02 42.74 61.52 47.40 64.56 C 51.21 67.12 51.69 73.22 48.41 76.41 C 46.07 78.88 42.14 79.64 39.11 78.03 C 34.31 75.52 29.80 72.49 24.94 70.08 C 20.43 79.99 17.57 90.60 16.51 101.43 C 22.00 101.64 27.50 101.35 32.99 101.57 C 37.17 101.73 40.65 105.84 40.33 109.97 C 40.10 114.11 36.21 117.71 32.03 117.45 C 26.86 117.53 21.70 117.41 16.53 117.46 C 17.53 128.33 20.38 139.00 24.96 148.90 C 29.69 146.37 34.23 143.52 38.95 140.98 C 42.02 139.32 46.14 139.95 48.49 142.55 C 51.65 145.78 51.23 151.79 47.41 154.33 C 42.75 157.40 37.72 159.87 32.99 162.83 C 35.62 166.23 38.15 169.72 41.13 172.83 C 42.82 174.73 44.88 176.53 45.57 179.08 C 46.97 183.74 42.94 189.17 38.01 188.91 C 35.62 189.11 33.38 187.99 31.81 186.26 C 16.24 170.43 5.47 149.86 1.74 127.95 C 1.08 124.11 0.80 120.21 0.00 116.40 L 0.00 102.16 C 1.20 96.39 1.48 90.44 3.03 84.73 C 8.91 59.24 24.46 36.23 45.67 20.98 Z" />
<path fill="#ffffff" opacity="1.00" d=" M 102.12 95.17 C 105.56 93.57 109.57 94.15 113.21 94.62 C 117.47 96.42 121.30 99.60 122.90 104.07 C 125.78 111.56 122.48 120.74 115.20 124.34 C 112.08 125.95 108.48 125.98 105.06 125.65 C 103.31 125.63 101.59 123.72 99.90 125.00 C 96.76 127.22 93.38 129.14 90.41 131.58 L 89.81 131.62 C 87.82 133.41 85.42 134.67 83.24 136.22 C 78.94 139.32 74.34 141.99 70.16 145.24 C 69.06 145.71 68.06 146.38 67.21 147.24 C 66.38 147.73 65.54 148.22 64.70 148.71 C 62.63 150.38 60.24 151.59 58.17 153.25 C 54.67 155.42 51.28 157.81 48.31 160.67 C 46.92 160.29 47.30 159.00 48.37 158.54 C 50.92 156.72 52.95 154.31 55.28 152.22 C 67.18 139.85 79.34 127.74 91.39 115.52 C 92.91 114.41 92.19 112.43 92.20 110.88 C 91.24 107.51 92.98 103.74 94.70 100.79 C 96.74 98.46 99.00 95.94 102.12 95.17 M 106.11 102.21 C 104.65 102.43 102.28 102.96 103.53 104.94 C 105.85 107.44 107.92 110.18 110.26 112.68 C 111.24 113.76 111.91 116.01 113.76 115.63 C 115.18 114.13 115.92 112.09 116.17 110.07 C 116.46 105.19 110.77 100.15 106.11 102.21 Z" />
</g>
</svg>
