<?xml version="1.0" encoding="UTF-8" ?>
<!DOCTYPE svg PUBLIC "-//W3C//DTD SVG 1.1//EN" "http://www.w3.org/Graphics/SVG/1.1/DTD/svg11.dtd">
<svg width="219pt" height="190pt" viewBox="0 0 219 190" version="1.1" xmlns="http://www.w3.org/2000/svg">
<g id="#ffffffff">
<path fill="#ffffff" opacity="1.00" d=" M 45.17 21.34 C 63.79 7.68 86.86 0.00 109.99 0.27 C 134.66 0.21 159.13 9.19 178.24 24.72 C 198.96 41.42 213.40 65.83 217.47 92.18 C 217.99 95.49 218.28 98.85 219.00 102.13 L 219.00 116.29 C 217.97 122.02 217.57 127.86 216.16 133.52 C 211.65 153.32 201.46 171.77 187.23 186.23 C 184.37 189.58 178.66 189.64 175.68 186.43 C 172.69 183.57 172.62 178.50 175.47 175.53 C 179.20 171.48 182.80 167.31 186.01 162.83 C 181.30 159.85 176.26 157.41 171.61 154.33 C 167.79 151.81 167.34 145.81 170.48 142.57 C 172.99 139.66 177.61 139.31 180.78 141.32 C 185.22 143.82 189.58 146.45 194.05 148.89 C 198.62 138.97 201.46 128.32 202.53 117.46 C 197.02 117.35 191.50 117.59 185.99 117.36 C 181.85 117.18 178.38 113.13 178.66 109.04 C 178.83 105.19 182.18 101.64 186.09 101.55 C 191.55 101.36 197.02 101.60 202.49 101.45 C 200.28 74.26 185.33 48.56 162.92 33.05 C 160.03 37.79 157.54 42.78 154.44 47.39 C 151.74 51.48 145.18 51.68 142.07 47.97 C 139.75 45.43 139.52 41.39 141.28 38.48 C 143.82 33.97 146.55 29.57 148.99 25.01 C 139.03 20.55 128.41 17.55 117.51 16.66 C 117.43 22.09 117.65 27.54 117.43 32.98 C 117.38 36.26 114.79 39.02 111.79 40.03 C 107.21 41.63 101.69 37.84 101.60 32.99 C 101.37 27.55 101.59 22.10 101.51 16.65 C 90.60 17.54 80.01 20.60 70.01 24.98 C 72.56 29.93 75.67 34.56 78.22 39.51 C 80.19 43.70 77.66 49.18 73.15 50.31 C 69.80 51.31 65.93 49.86 64.15 46.83 C 61.31 42.34 58.83 37.62 56.10 33.05 C 47.17 39.37 39.39 47.19 33.03 56.08 C 37.78 59.04 42.80 61.53 47.47 64.61 C 51.22 67.20 51.66 73.24 48.42 76.40 C 46.07 78.90 42.10 79.65 39.06 78.00 C 34.30 75.48 29.77 72.54 24.99 70.05 C 20.40 79.94 17.58 90.59 16.51 101.44 C 22.01 101.64 27.52 101.35 33.01 101.58 C 37.22 101.74 40.69 105.91 40.32 110.05 C 40.05 114.17 36.17 117.72 32.01 117.45 C 26.85 117.53 21.69 117.41 16.53 117.46 C 17.54 128.33 20.38 139.00 24.97 148.91 C 29.69 146.37 34.23 143.52 38.95 140.98 C 42.03 139.33 46.17 139.94 48.52 142.58 C 51.65 145.81 51.22 151.80 47.40 154.33 C 42.75 157.41 37.72 159.87 32.99 162.83 C 35.63 166.26 38.20 169.77 41.20 172.91 C 43.06 174.97 45.37 177.02 45.76 179.94 C 46.49 184.40 42.64 189.13 38.03 188.91 C 35.63 189.12 33.37 187.98 31.78 186.23 C 15.26 169.42 4.13 147.25 1.13 123.82 C 0.80 121.31 0.50 118.79 0.00 116.30 L 0.00 102.15 C 1.20 96.37 1.49 90.43 3.03 84.72 C 8.87 59.43 24.22 36.59 45.17 21.34 Z" />
<path fill="#ffffff" opacity="1.00" d=" M 173.15 73.44 C 173.86 72.31 175.18 71.98 176.33 71.49 C 176.43 71.69 176.61 72.09 176.70 72.29 C 176.12 72.34 174.95 72.43 174.37 72.48 C 174.39 72.87 174.43 73.65 174.45 74.04 C 165.57 78.99 157.62 85.51 149.17 91.17 C 148.38 91.70 147.58 92.23 146.79 92.76 C 143.33 95.35 139.64 97.61 136.24 100.28 C 135.42 100.77 134.61 101.27 133.80 101.77 C 130.55 104.29 127.08 106.50 123.79 108.97 C 123.77 111.07 123.60 113.16 123.32 115.24 C 121.10 121.21 115.56 125.99 109.08 126.38 C 103.15 126.85 97.35 123.67 94.14 118.75 C 93.09 116.92 92.28 114.96 92.09 112.84 C 91.53 111.31 91.63 109.68 92.09 108.15 C 92.27 107.03 92.45 105.90 92.61 104.77 C 94.40 101.00 97.14 97.73 100.89 95.78 C 106.40 93.34 112.88 94.04 117.83 97.45 C 122.75 94.96 127.93 93.00 132.93 90.67 C 135.67 89.52 138.35 88.23 141.11 87.14 C 143.67 85.93 146.36 84.99 148.88 83.70 C 151.89 82.42 154.94 81.22 157.91 79.82 C 160.23 78.84 162.56 77.86 164.85 76.80 C 167.75 76.02 170.14 73.74 173.15 73.44 M 99.94 108.04 C 98.84 111.78 100.83 116.16 104.42 117.71 C 105.86 118.18 108.63 119.60 109.19 117.29 C 109.27 117.65 109.42 118.37 109.50 118.73 L 111.68 117.25 C 109.99 113.45 107.69 109.92 105.67 106.27 C 105.11 105.25 104.57 104.23 104.03 103.20 C 102.22 104.38 100.74 106.02 99.94 108.04 Z" />
</g>
</svg>
