<?xml version="1.0" encoding="UTF-8" ?>
<!DOCTYPE svg PUBLIC "-//W3C//DTD SVG 1.1//EN" "http://www.w3.org/Graphics/SVG/1.1/DTD/svg11.dtd">
<svg width="219pt" height="190pt" viewBox="0 0 219 190" version="1.1" xmlns="http://www.w3.org/2000/svg">
<g id="#ffffffff">
<path fill="#ffffff" opacity="1.00" d=" M 45.73 20.94 C 64.79 7.12 88.43 -0.39 111.98 0.29 C 135.98 0.70 159.66 9.61 178.25 24.74 C 198.96 41.42 213.39 65.82 217.46 92.15 C 217.99 95.48 218.30 98.85 219.00 102.16 L 219.00 116.26 C 217.98 122.00 217.56 127.84 216.16 133.51 C 211.65 153.32 201.46 171.78 187.21 186.25 C 184.93 188.88 180.91 189.49 177.83 188.01 C 173.47 185.97 171.84 179.78 175.06 176.04 C 178.85 171.76 182.71 167.52 186.01 162.83 C 181.29 159.85 176.25 157.41 171.61 154.33 C 167.55 151.66 167.34 145.13 171.01 142.04 C 173.60 139.58 177.83 139.47 180.79 141.33 C 185.22 143.82 189.59 146.44 194.04 148.90 C 198.62 138.98 201.46 128.32 202.53 117.45 C 197.00 117.35 191.47 117.60 185.95 117.35 C 181.79 117.15 178.32 113.05 178.66 108.93 C 178.90 105.10 182.26 101.61 186.16 101.54 C 191.60 101.36 197.05 101.59 202.49 101.45 C 200.28 74.26 185.33 48.56 162.92 33.05 C 160.01 37.82 157.51 42.84 154.38 47.47 C 151.51 51.72 144.50 51.60 141.64 47.41 C 139.50 44.67 139.76 40.67 141.62 37.85 C 144.08 33.58 146.64 29.35 149.00 25.01 C 139.04 20.55 128.41 17.56 117.51 16.65 C 117.43 22.08 117.65 27.50 117.43 32.92 C 117.41 36.22 114.81 39.02 111.79 40.03 C 107.20 41.63 101.67 37.82 101.60 32.96 C 101.37 27.53 101.59 22.09 101.51 16.65 C 90.60 17.56 79.96 20.56 69.99 25.03 C 72.62 29.96 75.71 34.64 78.26 39.61 C 80.57 44.53 76.49 50.81 71.03 50.61 C 67.37 50.83 64.52 48.07 63.00 45.01 C 60.70 41.03 58.43 37.02 56.10 33.05 C 47.17 39.37 39.39 47.19 33.03 56.08 C 37.75 59.03 42.75 61.51 47.41 64.57 C 51.21 67.13 51.68 73.22 48.42 76.41 C 46.07 78.89 42.12 79.65 39.09 78.01 C 34.31 75.50 29.78 72.55 24.99 70.05 C 20.40 79.94 17.59 90.60 16.51 101.44 C 22.00 101.63 27.50 101.35 32.99 101.58 C 37.22 101.73 40.72 105.94 40.32 110.10 C 40.03 113.81 36.81 117.19 33.05 117.38 C 27.55 117.61 22.03 117.38 16.53 117.46 C 17.54 128.33 20.38 139.00 24.97 148.91 C 29.68 146.38 34.20 143.53 38.91 141.00 C 42.19 139.19 46.68 140.06 48.95 143.07 C 51.60 146.38 51.03 151.89 47.44 154.31 C 42.78 157.40 37.73 159.86 32.99 162.83 C 36.24 167.26 39.76 171.47 43.52 175.48 C 46.30 178.25 46.65 183.04 44.02 186.02 C 41.35 189.64 35.37 189.95 32.29 186.71 C 16.68 171.12 5.87 150.72 1.92 129.00 C 1.16 124.76 0.81 120.47 0.00 116.25 L 0.00 102.14 C 1.19 96.36 1.50 90.43 3.03 84.71 C 8.92 59.21 24.49 36.18 45.73 20.94 Z" />
<path fill="#ffffff" opacity="1.00" d=" M 58.39 47.29 C 58.89 47.37 59.89 47.54 60.40 47.62 C 62.00 50.26 64.03 52.58 66.25 54.71 C 72.18 61.56 79.11 67.50 84.82 74.51 L 85.52 74.33 C 85.54 74.54 85.59 74.95 85.61 75.16 C 87.19 76.66 88.73 78.22 90.13 79.89 C 90.47 80.11 91.15 80.53 91.49 80.75 L 91.47 81.26 C 95.70 85.53 99.81 89.93 104.05 94.19 C 104.66 94.28 105.88 94.47 106.48 94.57 L 106.54 93.76 C 107.05 93.74 108.08 93.71 108.60 93.70 L 108.40 94.33 C 110.12 94.31 111.84 94.45 113.56 94.60 L 113.68 95.24 C 116.58 95.64 118.47 97.99 120.61 99.73 L 120.46 100.23 C 122.93 102.00 123.31 105.21 124.23 107.87 C 124.23 109.30 124.23 110.73 124.21 112.15 C 123.12 118.02 119.15 123.44 113.36 125.33 C 109.20 126.07 104.70 126.35 100.83 124.36 C 99.73 123.65 98.63 122.96 97.52 122.28 L 97.44 121.84 C 95.76 120.67 94.78 118.84 93.69 117.16 C 92.02 113.35 91.64 108.89 93.04 104.94 C 94.96 101.15 90.62 98.22 89.25 94.97 C 87.83 92.85 86.31 90.78 85.29 88.42 L 84.37 88.23 C 84.38 87.93 84.40 87.31 84.40 87.00 C 81.29 82.95 78.82 78.42 76.07 74.11 C 74.77 72.00 73.02 70.11 72.26 67.71 L 71.67 67.61 C 70.60 65.34 69.23 63.23 67.77 61.20 C 65.16 56.20 61.33 52.01 58.39 47.29 M 105.29 112.26 C 104.38 113.22 102.45 113.65 102.38 115.15 C 101.95 116.59 104.09 116.65 104.77 117.48 C 110.44 120.53 117.28 114.95 116.36 108.86 C 115.47 107.85 115.86 104.94 113.95 105.47 C 110.97 107.61 108.19 110.02 105.29 112.26 Z" />
</g>
</svg>
