<?xml version="1.0" encoding="UTF-8" ?>
<!DOCTYPE svg PUBLIC "-//W3C//DTD SVG 1.1//EN" "http://www.w3.org/Graphics/SVG/1.1/DTD/svg11.dtd">
<svg width="219pt" height="190pt" viewBox="0 0 219 190" version="1.1" xmlns="http://www.w3.org/2000/svg">
<g id="#ffffffff">
<path fill="#ffffff" opacity="1.00" d=" M 45.72 20.95 C 64.80 7.11 88.47 -0.41 112.05 0.29 C 136.03 0.71 159.68 9.63 178.26 24.74 C 198.96 41.43 213.39 65.82 217.46 92.14 C 217.99 95.47 218.29 98.83 219.00 102.12 L 219.00 116.32 C 218.14 120.89 217.78 125.53 216.89 130.10 C 212.73 151.40 202.09 171.42 186.69 186.72 C 183.20 190.29 176.45 189.07 174.32 184.56 C 172.45 181.49 173.45 177.46 175.89 175.02 C 179.53 171.18 182.91 167.11 186.01 162.83 C 181.29 159.85 176.26 157.41 171.61 154.33 C 167.58 151.69 167.33 145.21 170.94 142.11 C 173.54 139.58 177.83 139.45 180.83 141.35 C 185.24 143.84 189.60 146.45 194.04 148.89 C 198.62 138.98 201.46 128.32 202.53 117.45 C 197.03 117.36 191.52 117.58 186.02 117.36 C 181.87 117.19 178.37 113.14 178.66 109.02 C 178.84 105.16 182.21 101.63 186.13 101.54 C 191.58 101.37 197.03 101.58 202.48 101.45 C 200.29 74.26 185.33 48.57 162.92 33.05 C 160.03 37.80 157.53 42.79 154.42 47.41 C 151.57 51.71 144.51 51.62 141.63 47.40 C 139.52 44.66 139.74 40.69 141.61 37.88 C 144.07 33.59 146.65 29.37 148.98 25.01 C 139.04 20.53 128.41 17.57 117.52 16.65 C 117.42 22.10 117.65 27.56 117.43 33.00 C 117.37 36.26 114.80 39.01 111.82 40.02 C 107.24 41.66 101.68 37.85 101.59 32.98 C 101.37 27.54 101.60 22.10 101.50 16.65 C 90.60 17.57 79.96 20.56 70.00 25.03 C 72.56 29.78 75.45 34.35 78.02 39.09 C 79.97 42.73 78.49 47.78 74.77 49.63 C 71.19 51.71 66.17 50.38 64.12 46.78 C 61.30 42.29 58.82 37.60 56.10 33.05 C 47.17 39.37 39.39 47.19 33.03 56.08 C 37.76 59.03 42.78 61.53 47.44 64.59 C 51.21 67.16 51.67 73.21 48.43 76.39 C 46.08 78.88 42.13 79.66 39.08 78.01 C 34.30 75.50 29.78 72.53 24.98 70.06 C 20.41 79.95 17.57 90.60 16.52 101.44 C 21.98 101.63 27.46 101.36 32.93 101.57 C 37.16 101.69 40.69 105.87 40.32 110.04 C 40.06 114.17 36.16 117.72 32.00 117.45 C 26.84 117.53 21.69 117.41 16.53 117.46 C 17.54 128.33 20.38 139.00 24.97 148.91 C 29.69 146.37 34.24 143.51 38.96 140.98 C 42.05 139.30 46.21 139.97 48.55 142.61 C 51.64 145.84 51.21 151.78 47.43 154.31 C 42.77 157.40 37.73 159.87 32.99 162.83 C 36.24 167.26 39.76 171.48 43.52 175.48 C 46.29 178.24 46.65 183.02 44.03 186.01 C 41.37 189.64 35.39 189.96 32.30 186.72 C 16.68 171.13 5.87 150.73 1.92 129.00 C 1.15 124.80 0.84 120.53 0.00 116.35 L 0.00 102.20 C 1.18 96.44 1.49 90.53 3.00 84.83 C 8.87 59.28 24.45 36.22 45.72 20.95 Z" />
<path fill="#ffffff" opacity="1.00" d=" M 95.11 100.10 C 97.34 97.10 100.41 94.94 103.94 93.74 C 107.20 93.27 110.69 92.95 113.84 94.14 C 115.15 94.83 116.47 95.52 117.79 96.22 C 120.85 98.31 122.86 101.76 123.77 105.30 C 127.46 106.83 131.39 107.70 135.20 108.89 C 136.24 109.18 137.28 109.48 138.33 109.78 C 139.55 110.30 140.86 110.56 142.16 110.83 C 147.83 112.63 153.50 114.47 159.28 115.89 C 167.93 118.56 176.57 121.30 185.39 123.35 C 181.86 123.84 178.30 123.58 174.80 123.10 C 167.18 122.44 159.58 121.61 151.94 121.19 C 148.18 120.41 144.32 120.44 140.50 120.31 L 140.41 119.75 C 134.02 120.05 127.75 118.33 121.38 118.63 C 118.82 121.93 115.29 124.33 111.18 125.20 C 109.54 125.30 107.90 125.39 106.26 125.47 L 106.26 124.80 C 102.03 125.05 98.36 122.31 95.78 119.22 C 91.36 113.91 91.19 105.73 95.11 100.10 M 102.76 115.26 C 104.01 116.01 105.25 116.78 106.49 117.56 C 107.40 115.51 107.62 113.28 108.05 111.11 C 108.62 107.80 109.46 104.54 109.71 101.19 C 108.11 101.33 106.51 101.49 104.91 101.66 C 99.93 104.12 98.48 111.46 102.76 115.26 Z" />
</g>
</svg>
