<?xml version="1.0" encoding="UTF-8" ?>
<!DOCTYPE svg PUBLIC "-//W3C//DTD SVG 1.1//EN" "http://www.w3.org/Graphics/SVG/1.1/DTD/svg11.dtd">
<svg width="219pt" height="190pt" viewBox="0 0 219 190" version="1.1" xmlns="http://www.w3.org/2000/svg">
<g id="#ffffffff">
<path fill="#ffffff" opacity="1.00" d=" M 41.33 24.28 C 60.60 8.79 85.27 -0.03 110.04 0.27 C 134.70 0.22 159.16 9.20 178.26 24.74 C 198.98 41.44 213.41 65.86 217.47 92.21 C 217.99 95.46 218.26 98.76 219.00 101.98 L 219.00 116.40 C 218.25 120.21 217.92 124.09 217.27 127.92 C 213.54 149.80 202.81 170.38 187.26 186.20 C 185.65 187.96 183.33 189.01 180.92 188.77 C 176.50 188.73 172.81 184.31 173.40 179.98 C 173.70 177.00 176.00 174.90 177.89 172.82 C 180.87 169.71 183.43 166.26 186.01 162.83 C 181.30 159.85 176.28 157.42 171.63 154.35 C 167.79 151.84 167.33 145.83 170.47 142.58 C 172.84 139.85 177.12 139.30 180.23 141.04 C 184.89 143.57 189.39 146.39 194.07 148.88 C 198.60 138.95 201.47 128.32 202.53 117.46 C 197.00 117.34 191.46 117.60 185.94 117.35 C 181.80 117.15 178.35 113.08 178.66 108.98 C 178.87 105.18 182.15 101.67 186.03 101.56 C 191.51 101.33 197.01 101.62 202.50 101.43 C 200.26 74.25 185.33 48.56 162.92 33.05 C 160.04 37.79 157.54 42.77 154.45 47.37 C 151.62 51.71 144.51 51.64 141.63 47.40 C 139.51 44.65 139.75 40.66 141.63 37.84 C 144.08 33.56 146.66 29.35 148.99 25.00 C 139.02 20.56 128.40 17.54 117.51 16.66 C 117.43 22.15 117.65 27.63 117.42 33.11 C 117.32 36.32 114.76 39.02 111.82 40.02 C 107.28 41.64 101.79 37.92 101.60 33.12 C 101.37 27.64 101.59 22.15 101.51 16.66 C 90.62 17.68 79.78 20.34 69.98 25.26 C 72.64 29.64 75.20 34.09 77.75 38.54 C 79.33 41.22 79.26 44.85 77.37 47.36 C 75.19 50.51 70.59 51.53 67.23 49.72 C 65.26 48.77 64.09 46.82 63.00 45.02 C 60.70 41.03 58.43 37.03 56.10 33.05 C 47.17 39.37 39.39 47.19 33.03 56.08 C 37.75 59.02 42.74 61.50 47.38 64.55 C 51.23 67.11 51.69 73.27 48.37 76.44 C 46.01 78.92 42.05 79.64 39.02 77.98 C 34.25 75.49 29.77 72.47 24.94 70.08 C 20.44 79.99 17.56 90.60 16.51 101.44 C 22.01 101.64 27.51 101.35 33.00 101.58 C 37.54 101.74 41.16 106.55 40.21 110.96 C 39.46 114.66 35.91 117.66 32.08 117.44 C 26.90 117.53 21.72 117.42 16.53 117.46 C 17.53 128.33 20.39 138.99 24.96 148.90 C 29.72 146.37 34.28 143.47 39.05 140.93 C 42.11 139.33 46.20 139.98 48.52 142.58 C 51.65 145.81 51.22 151.79 47.41 154.32 C 42.76 157.41 37.72 159.87 32.99 162.83 C 36.23 167.25 39.74 171.45 43.49 175.44 C 46.31 178.22 46.66 183.08 43.98 186.07 C 41.30 189.65 35.33 189.94 32.28 186.70 C 16.67 171.11 5.88 150.72 1.92 129.01 C 1.16 124.82 0.84 120.57 0.00 116.41 L 0.00 102.10 C 1.20 96.39 1.48 90.51 3.00 84.86 C 8.46 61.10 22.30 39.47 41.33 24.28 Z" />
<path fill="#ffffff" opacity="1.00" d=" M 31.01 86.16 C 31.53 85.73 32.57 84.86 33.09 84.42 C 35.64 85.45 38.18 86.59 40.95 86.93 C 46.90 88.48 52.95 89.61 58.93 91.06 C 66.26 92.81 73.70 94.18 80.96 96.15 C 82.37 96.37 83.77 96.54 85.18 96.73 C 86.60 97.75 88.48 97.46 90.12 97.82 C 92.06 98.53 94.09 98.95 96.11 99.35 C 96.61 98.46 97.30 97.76 98.17 97.25 C 100.69 95.29 103.74 94.33 106.87 93.88 C 107.59 93.85 108.31 93.82 109.03 93.79 C 112.84 94.53 116.49 95.94 119.28 98.76 C 125.66 105.09 125.27 116.56 118.28 122.29 C 116.88 123.28 115.42 124.19 113.90 124.99 C 108.48 126.59 102.02 126.29 97.61 122.39 C 93.95 119.91 92.81 115.44 91.44 111.57 C 88.17 109.76 84.54 108.59 81.23 106.83 C 78.81 106.02 76.56 104.84 74.25 103.80 C 71.22 102.51 68.18 101.24 65.23 99.77 C 62.44 98.62 59.72 97.32 56.90 96.24 C 53.03 94.37 49.04 92.79 45.20 90.87 C 42.97 90.03 40.85 88.91 38.53 88.34 L 38.40 87.37 C 38.02 87.48 37.26 87.70 36.87 87.80 C 35.82 85.70 32.92 86.92 31.01 86.16 M 105.49 118.25 C 110.05 118.77 115.66 116.14 115.84 111.02 C 116.63 107.13 113.76 104.14 110.82 102.15 C 108.13 107.08 106.72 112.77 105.49 118.25 Z" />
</g>
</svg>
