<?xml version="1.0" encoding="UTF-8" ?>
<!DOCTYPE svg PUBLIC "-//W3C//DTD SVG 1.1//EN" "http://www.w3.org/Graphics/SVG/1.1/DTD/svg11.dtd">
<svg width="86pt" height="165pt" viewBox="0 0 86 165" version="1.1" xmlns="http://www.w3.org/2000/svg">
<g id="#f53e56ff">
<path fill="#f53e56" opacity="1.00" d=" M 0.00 0.66 C 4.55 0.78 9.46 0.92 13.33 3.63 C 18.67 7.35 21.87 13.19 25.81 18.21 C 29.88 23.17 34.04 28.86 40.80 30.07 C 37.49 30.33 33.90 31.00 30.90 29.16 C 22.53 24.11 18.00 14.06 8.53 10.60 C 5.19 9.50 2.49 12.18 0.00 13.95 L 0.00 0.66 Z" />
<path fill="#f53e56" opacity="1.00" d=" M 0.00 17.72 C 2.00 23.03 6.26 27.14 10.86 30.27 C 18.59 35.38 28.05 36.45 37.05 37.24 C 41.82 37.50 47.08 38.84 49.95 42.99 C 52.31 45.90 51.32 49.86 50.97 53.25 C 48.58 50.90 46.39 48.32 43.76 46.22 C 42.03 44.78 39.23 45.16 37.87 46.92 C 35.48 49.03 36.26 52.76 37.70 55.19 C 41.06 60.53 46.64 64.34 52.77 65.75 C 56.37 66.71 60.11 66.10 63.78 66.20 C 62.47 68.43 60.43 70.27 57.83 70.78 C 52.06 72.69 46.60 69.11 41.84 66.29 C 35.14 62.39 33.64 53.91 28.03 48.95 C 26.34 47.31 23.32 46.70 21.50 48.47 C 18.26 50.89 15.94 54.85 16.50 58.99 C 17.64 65.45 22.79 70.53 28.64 73.07 C 36.53 75.78 45.67 76.10 52.21 81.84 C 58.09 86.87 59.71 94.75 62.37 101.65 C 64.18 106.50 68.17 109.94 71.29 113.91 C 62.79 113.62 57.21 106.24 53.71 99.31 C 49.42 91.76 44.86 83.05 36.16 79.94 C 29.48 77.21 19.65 83.00 21.36 90.75 C 22.78 95.99 27.25 99.92 32.16 101.91 C 35.67 103.51 39.63 103.49 43.26 104.68 C 47.10 106.25 49.76 109.76 51.47 113.43 C 53.08 117.09 52.10 121.18 51.31 124.92 C 49.28 120.82 48.43 116.10 45.46 112.50 C 43.16 109.69 39.89 107.09 36.05 107.32 C 31.46 107.11 27.02 111.32 27.41 115.98 C 28.42 127.13 38.51 137.27 49.98 136.78 C 54.53 137.10 59.09 136.46 63.30 134.70 C 60.30 137.28 57.13 139.89 53.22 140.93 C 43.81 143.63 33.36 138.91 28.12 130.88 C 25.53 127.57 23.56 123.39 19.57 121.53 C 15.41 119.31 9.71 119.89 6.47 123.45 C 3.70 126.39 3.24 131.74 6.44 134.56 C 12.13 139.90 21.08 139.79 26.50 145.58 C 29.46 149.01 29.30 153.75 29.37 157.99 C 27.77 153.85 25.87 149.55 21.90 147.16 C 15.57 142.13 6.87 143.55 0.00 139.70 L 0.00 17.72 Z" />
<path fill="#f53e56" opacity="1.00" d=" M 55.37 76.01 C 60.76 81.20 68.57 80.75 75.26 82.84 C 79.20 84.02 81.77 87.32 84.01 90.55 C 77.05 85.90 67.91 87.69 60.84 83.29 C 58.00 81.78 56.95 78.59 55.37 76.01 Z" />
<path fill="#f53e56" opacity="1.00" d=" M 33.05 144.43 C 34.43 144.42 35.83 144.35 37.21 144.57 C 45.71 148.02 46.95 160.80 56.86 162.01 C 52.52 162.81 47.56 161.84 44.47 158.51 C 42.33 156.34 40.03 154.22 38.61 151.48 C 37.32 148.70 34.76 146.90 33.05 144.43 Z" />
</g>
</svg>
