<?xml version="1.0" encoding="UTF-8" ?>
<!DOCTYPE svg PUBLIC "-//W3C//DTD SVG 1.1//EN" "http://www.w3.org/Graphics/SVG/1.1/DTD/svg11.dtd">
<svg width="1433pt" height="270pt" viewBox="0 0 1433 270" version="1.1" xmlns="http://www.w3.org/2000/svg">
<g id="#ffffffff">
<path fill="#ffffff" opacity="1.00" d=" M 800.46 0.00 L 803.13 0.00 C 809.66 0.44 815.83 4.61 818.35 10.70 C 820.12 14.57 819.73 18.90 819.76 23.03 C 819.75 45.19 819.75 67.34 819.76 89.50 C 828.50 89.55 837.26 89.41 846.01 89.55 C 855.13 89.67 863.24 97.85 863.01 107.03 C 863.24 116.25 855.27 124.66 846.06 124.93 C 837.21 125.11 828.35 124.94 819.50 125.00 C 819.50 167.01 819.51 209.01 819.50 251.01 C 819.49 254.60 818.44 258.18 816.40 261.14 C 812.32 267.34 804.13 270.46 796.98 268.38 C 789.44 266.33 783.88 258.87 784.01 251.07 C 783.98 209.05 784.01 167.02 784.00 125.00 C 775.00 124.93 766.00 125.14 757.01 124.90 C 746.66 124.24 738.86 113.11 741.43 103.13 C 743.06 95.55 750.21 89.47 758.05 89.52 C 766.69 89.45 775.34 89.52 784.00 89.50 C 784.04 65.32 783.94 41.13 784.04 16.94 C 784.12 8.15 791.76 0.53 800.46 0.00 Z" />
<path fill="#ffffff" opacity="1.00" d=" M 257.60 89.87 C 276.34 87.20 295.91 90.56 312.59 99.55 C 330.37 109.01 344.74 124.67 352.66 143.19 C 361.16 162.85 362.31 185.55 355.88 205.98 C 349.62 226.14 335.97 243.89 318.11 255.15 C 303.54 264.44 286.22 269.31 268.95 269.00 C 249.28 268.81 229.81 261.72 214.49 249.41 C 197.86 236.18 186.10 216.94 182.14 196.05 C 177.62 173.00 182.56 148.25 195.76 128.80 C 209.67 107.89 232.69 93.28 257.60 89.87 M 258.47 125.78 C 243.90 128.96 230.91 138.53 223.46 151.43 C 215.98 164.12 214.00 179.90 218.15 194.03 C 222.22 208.32 232.41 220.72 245.62 227.51 C 258.15 234.08 273.33 235.32 286.77 230.90 C 301.14 226.29 313.27 215.37 319.52 201.65 C 324.92 190.00 325.95 176.42 322.42 164.08 C 318.66 150.57 309.42 138.70 297.26 131.72 C 285.67 124.97 271.54 122.83 258.47 125.78 Z" />
<path fill="#ffffff" opacity="1.00" d=" M 396.55 105.09 C 397.08 96.29 405.14 88.78 413.98 89.00 C 450.99 89.00 488.00 89.01 525.01 89.00 C 529.06 88.93 533.18 90.09 536.43 92.56 C 543.77 98.11 545.98 109.70 540.16 117.12 C 510.24 155.93 480.26 194.70 450.33 233.50 C 475.59 233.52 500.85 233.46 526.11 233.52 C 534.72 233.35 542.68 240.38 543.55 248.95 C 545.07 259.11 536.30 269.34 525.95 269.04 C 489.29 269.09 452.63 269.05 415.98 269.06 C 410.92 269.19 405.73 267.50 402.13 263.88 C 395.88 257.85 394.68 247.03 400.27 240.18 C 430.11 201.61 460.00 163.07 489.85 124.50 C 464.37 124.47 438.89 124.57 413.41 124.45 C 403.63 124.28 395.52 114.74 396.55 105.09 Z" />
<path fill="#ffffff" opacity="1.00" d=" M 973.66 89.86 C 994.26 86.92 1015.86 91.35 1033.52 102.39 C 1054.35 115.19 1069.45 136.87 1074.18 160.86 C 1078.51 182.02 1075.03 204.72 1064.27 223.48 C 1052.01 245.27 1030.31 261.51 1005.86 266.86 C 987.42 271.00 967.67 269.16 950.39 261.48 C 930.27 252.66 913.64 236.20 904.57 216.19 C 896.26 198.11 894.34 177.24 898.99 157.91 C 903.14 140.38 912.77 124.23 926.15 112.17 C 939.29 100.23 956.06 92.31 973.66 89.86 M 974.47 125.78 C 960.12 128.92 947.30 138.24 939.79 150.86 C 932.19 163.41 930.01 179.10 933.92 193.25 C 937.85 207.86 948.15 220.59 961.61 227.50 C 974.57 234.31 990.38 235.39 1004.16 230.43 C 1018.44 225.41 1030.31 214.12 1036.17 200.19 C 1041.59 187.56 1041.90 172.86 1037.09 159.99 C 1032.34 147.02 1022.44 136.04 1010.02 129.99 C 999.11 124.60 986.34 123.12 974.47 125.78 Z" />
<path fill="#ffffff" opacity="1.00" d=" M 1259.79 144.75 C 1271.58 115.16 1300.23 93.19 1331.92 89.66 C 1355.77 86.70 1380.67 93.54 1399.67 108.27 C 1410.28 116.47 1418.94 127.21 1424.56 139.40 C 1430.31 151.74 1432.91 165.42 1432.88 178.99 C 1432.99 186.00 1428.34 192.67 1421.84 195.19 C 1417.78 196.92 1413.28 196.45 1409.00 196.50 C 1369.84 196.51 1330.67 196.49 1291.50 196.51 C 1297.41 213.67 1312.11 227.62 1329.84 231.88 C 1347.88 236.15 1367.39 231.94 1382.79 221.82 C 1392.09 215.48 1405.32 222.73 1407.86 232.94 C 1409.82 239.97 1406.17 247.35 1400.72 251.74 C 1385.66 263.02 1366.93 269.38 1348.06 269.00 C 1330.69 269.74 1313.06 265.80 1298.03 256.95 C 1280.54 246.84 1266.65 230.67 1259.32 211.85 C 1250.90 190.51 1251.08 165.96 1259.79 144.75 M 1318.47 130.35 C 1305.96 136.58 1296.22 147.87 1291.51 160.99 C 1325.97 161.00 1360.43 161.02 1394.89 160.98 C 1391.80 150.76 1385.51 141.48 1376.83 135.20 C 1360.24 123.13 1336.80 120.94 1318.47 130.35 Z" />
<path fill="#ffffff" opacity="1.00" d=" M 1.43 102.01 C 3.49 95.21 10.08 90.43 17.06 89.90 C 24.68 89.07 32.29 94.00 34.98 101.11 C 47.59 134.46 60.10 167.83 72.67 201.19 C 85.06 168.01 97.41 134.82 109.80 101.64 C 111.40 97.29 114.65 93.54 118.86 91.55 C 126.50 87.75 136.67 90.51 141.40 97.59 C 144.71 102.37 145.30 108.77 143.18 114.16 C 125.33 161.74 107.50 209.34 89.63 256.92 C 87.11 263.75 80.35 268.92 73.00 269.01 C 65.30 269.36 57.85 264.15 55.34 256.90 C 37.59 209.56 19.85 162.22 2.08 114.89 C 0.41 110.83 0.00 106.20 1.43 102.01 Z" />
<path fill="#ffffff" opacity="1.00" d=" M 631.41 90.69 C 646.23 87.50 662.16 90.89 674.72 99.27 C 683.77 105.32 691.41 114.24 693.99 125.00 C 695.51 130.70 694.49 137.13 690.80 141.80 C 686.00 148.14 676.46 150.22 669.45 146.49 C 664.92 144.16 661.62 139.93 659.79 135.25 C 656.49 125.79 644.12 122.87 635.59 126.51 C 627.80 129.73 622.96 138.79 624.93 147.04 C 626.57 155.31 634.52 161.69 642.95 161.49 C 658.16 161.49 673.16 168.34 683.14 179.81 C 692.18 189.85 697.04 203.46 696.46 216.95 C 696.03 232.71 688.17 248.01 675.72 257.66 C 664.00 266.94 648.28 270.88 633.57 268.23 C 613.03 264.64 595.48 248.45 589.66 228.52 C 587.10 216.82 600.46 205.59 611.60 209.53 C 617.63 211.62 621.70 217.03 624.62 222.45 C 626.95 226.78 630.05 231.39 635.11 232.72 C 641.11 234.12 647.98 233.99 653.14 230.22 C 659.95 225.60 662.89 216.12 659.71 208.50 C 656.97 201.42 649.52 196.68 641.96 196.99 C 627.63 196.87 613.57 190.62 603.74 180.22 C 591.42 167.86 586.55 149.11 590.13 132.16 C 594.14 111.79 611.06 94.79 631.41 90.69 Z" />
<path fill="#ffffff" opacity="1.00" d=" M 1185.54 90.73 C 1192.90 89.91 1200.83 88.16 1207.93 91.10 C 1214.74 94.03 1219.15 101.60 1218.21 108.98 C 1217.44 117.57 1209.70 124.89 1201.04 124.96 C 1195.23 125.04 1189.40 125.76 1183.87 127.57 C 1162.63 134.03 1146.71 154.66 1146.07 176.89 C 1145.90 201.58 1146.05 226.28 1146.00 250.98 C 1146.12 257.92 1141.79 264.67 1135.45 267.49 C 1129.70 270.15 1122.56 269.23 1117.59 265.35 C 1113.15 262.03 1110.44 256.56 1110.50 251.02 C 1110.49 232.68 1110.50 214.35 1110.50 196.02 C 1110.64 184.62 1109.83 173.10 1112.21 161.86 C 1117.23 135.55 1134.89 112.13 1158.63 99.79 C 1167.04 95.37 1176.16 92.29 1185.54 90.73 Z" />
</g>
</svg>
